<svg id="Layer_1" data-name="Layer 1" xmlns="http://www.w3.org/2000/svg" viewBox="0 0 3175.72 608.46"><defs><style>.cls-1{fill:#fff;}.cls-2{fill:#292728;}</style></defs><title>engine-with-backgroundlogo-01</title><rect class="cls-1" x="29.02" y="29.02" width="3117.69" height="550.43"/><path class="cls-2" d="M3175.72,608.46H0V0H3175.72ZM29,579.44H3146.71V29H29Z"/><path class="cls-2" d="M301.67,259.77v117.8H272.32V259.77H230.19V230.85H343.8v28.93Z"/><path class="cls-2" d="M502,377.57V315.95H441.87v61.62H412.53V230.85h29.35V287H502V230.85h29.34V377.57Z"/><path class="cls-2" d="M611.46,377.57V230.85H713.33v28.72H640.81v25.36h42.13v28.51H640.81v35.42h75.67v28.72Z"/><path class="cls-2" d="M899.88,377.57V230.85h101.87v28.72H929.23v25.36h42.13v28.51H929.23v35.42h75.67v28.72Z"/><path class="cls-2" d="M1175.39,377.57l-53.87-80.07q-2.72-4.19-5.76-8.91a85.86,85.86,0,0,1-4.51-7.65q0,2.1.11,6.18t.1,8.8q0,4.72.11,9.33t.1,7.76v64.56h-28.92V230.85h28.08l52,77.55q2.72,4.2,5.77,8.91a87.24,87.24,0,0,1,4.5,7.65q0-2.09-.1-6.18t-.11-8.8q0-4.72-.1-9.33t-.11-7.76v-62h28.93V377.57Z"/><path class="cls-2" d="M1387.82,345.93A50.89,50.89,0,0,1,1356.91,376a69.21,69.21,0,0,1-23.58,3.89,62.49,62.49,0,0,1-26.2-5.35,58.22,58.22,0,0,1-20.23-15.2,69.27,69.27,0,0,1-13.1-23.79,99.41,99.41,0,0,1-4.61-31.34A93.43,93.43,0,0,1,1274,273.5a72.21,72.21,0,0,1,13.42-23.9A60.53,60.53,0,0,1,1308,234.1a61.89,61.89,0,0,1,26.41-5.55,72.25,72.25,0,0,1,20,2.52,49.92,49.92,0,0,1,15.41,7.34A51.16,51.16,0,0,1,1381.43,250a78.1,78.1,0,0,1,8.49,15.2L1362,276.75a81.82,81.82,0,0,0-4.5-7.55,26.16,26.16,0,0,0-5.66-6.08,25.68,25.68,0,0,0-7.65-4,32.64,32.64,0,0,0-10.27-1.47,30.73,30.73,0,0,0-14.67,3.46,31.31,31.31,0,0,0-10.9,9.64,45.61,45.61,0,0,0-6.71,14.67,77,77,0,0,0,0,37.42,45.48,45.48,0,0,0,6.81,14.88,32.85,32.85,0,0,0,11,9.85,30,30,0,0,0,14.67,3.56,42.33,42.33,0,0,0,12.78-1.68,22.85,22.85,0,0,0,8.49-4.61,20.24,20.24,0,0,0,5-7,32.79,32.79,0,0,0,2.41-8.91h-23.26V301.27h52.61v19.34A67.89,67.89,0,0,1,1387.82,345.93Z"/><path class="cls-2" d="M1467.31,377.57V230.85h29.34V377.57Z"/><path class="cls-2" d="M1670.42,377.57l-53.87-80.07q-2.72-4.19-5.76-8.91a84.62,84.62,0,0,1-4.51-7.65q0,2.1.1,6.18t.11,8.8q0,4.72.1,9.33t.11,7.76v64.56h-28.93V230.85h28.09l52,77.55,5.77,8.91a87.24,87.24,0,0,1,4.5,7.65q0-2.09-.1-6.18t-.11-8.8q0-4.72-.1-9.33t-.11-7.76v-62h28.93V377.57Z"/><path class="cls-2" d="M1776.7,377.57V230.85h101.87v28.72h-72.52v25.36h42.13v28.51h-42.13v35.42h75.67v28.72Z"/><path class="cls-2" d="M2067.22,377.57V230.85h29.34V377.57Z"/><path class="cls-2" d="M2283.09,333.13a52.16,52.16,0,0,1-3.35,19.07A37.29,37.29,0,0,1,2269.26,367a49.19,49.19,0,0,1-17.93,9.54q-10.79,3.35-25.88,3.35a77.56,77.56,0,0,1-33.54-7.13q-15.09-7.12-23.47-19.49l21.17-18.87a45.41,45.41,0,0,0,17.29,12.89,53.15,53.15,0,0,0,20.23,3.88q13.2,0,19.38-3.77t6.19-12.16a14.14,14.14,0,0,0-1.26-6.18,13,13,0,0,0-4.72-4.93,41.38,41.38,0,0,0-10-4.4q-6.5-2.09-16.77-4.4a150,150,0,0,1-18.55-5.45,52.64,52.64,0,0,1-14.57-8,32.48,32.48,0,0,1-9.43-12.16q-3.35-7.34-3.35-18.24a39,39,0,0,1,4.08-18A40.26,40.26,0,0,1,2189.4,240a51.37,51.37,0,0,1,16.66-8.49,69.19,69.19,0,0,1,20.44-2.93q17.18,0,30.07,6.08a79.1,79.1,0,0,1,23.37,17l-21.17,20.54a53.82,53.82,0,0,0-15.2-11.21,41.35,41.35,0,0,0-18.13-3.88,36,36,0,0,0-9.85,1.15,20.09,20.09,0,0,0-6.5,3,11,11,0,0,0-3.56,4.19,11.49,11.49,0,0,0-1,4.82,10.44,10.44,0,0,0,6.08,10.27,44.51,44.51,0,0,0,9,3.56q5.66,1.68,14.46,3.77t17.5,4.93a57.28,57.28,0,0,1,15.72,7.86,39.55,39.55,0,0,1,11.43,12.79Q2283.09,321.19,2283.09,333.13Z"/><path class="cls-2" d="M2550.16,377.57,2524,324.75H2494.4v52.82h-29.35V230.85h68.33a66.16,66.16,0,0,1,19.5,2.83,45.11,45.11,0,0,1,16.14,8.7,41.42,41.42,0,0,1,10.89,14.57,48.69,48.69,0,0,1,4,20.44q0,16.56-7,27.14t-21.07,16l28.09,57Zm3.56-99.56q0-10.06-5.55-14.36t-15.41-4.3H2494.4v37.73h38.35Q2553.72,297.08,2553.72,278Z"/><path class="cls-2" d="M2658.74,377.57V230.85h101.87v28.72h-72.52v25.36h42.13v28.51h-42.13v35.42h75.67v28.72Z"/><path class="cls-2" d="M2956.43,304.21q0,19.29-6.4,33.22a64.43,64.43,0,0,1-17,22.85,68.54,68.54,0,0,1-24.11,13.1,92.49,92.49,0,0,1-27.56,4.19h-43.81V230.85h45.91a103.51,103.51,0,0,1,29,3.88,58.17,58.17,0,0,1,23.05,12.68,59.94,59.94,0,0,1,15.3,22.74Q2956.42,284.09,2956.43,304.21Zm-30.19,0q0-22.43-10.27-33.64t-33.53-11.21h-15.51v89.71h14.46a55.92,55.92,0,0,0,20-3.25,36.44,36.44,0,0,0,13.94-9.12,37.92,37.92,0,0,0,8.17-14.15A58.42,58.42,0,0,0,2926.24,304.21Z"/></svg>