<?xml version="1.0" encoding="utf-8"?>
<!-- Generator: Adobe Illustrator 20.1.0, SVG Export Plug-In . SVG Version: 6.00 Build 0)  -->
<!DOCTYPE svg PUBLIC "-//W3C//DTD SVG 1.1//EN" "http://www.w3.org/Graphics/SVG/1.1/DTD/svg11.dtd">
<svg version="1.1" id="Layer_1" xmlns="http://www.w3.org/2000/svg" xmlns:xlink="http://www.w3.org/1999/xlink" x="0px" y="0px"
	 viewBox="0 0 3175.7 608.5" style="enable-background:new 0 0 3175.7 608.5;" xml:space="preserve">
<style type="text/css">
	.st0{fill:#FFFFFF;}
</style>
<title>engine-white-logo</title>
<path class="st0" d="M3175.7,608.5H0V0h3175.7V608.5z M29,579.4h3117.7V29H29V579.4z"/>
<path class="st0" d="M301.7,259.8v117.8h-29.4V259.8h-42.1v-28.9h113.6v28.9L301.7,259.8z"/>
<path class="st0" d="M502,377.6V316h-60.1v61.6h-29.3V230.9h29.4V287H502v-56.1h29.3v146.7H502z"/>
<path class="st0" d="M611.5,377.6V230.9h101.9v28.7h-72.5v25.4h42.1v28.5h-42.1v35.4h75.7v28.7L611.5,377.6z"/>
<path class="st0" d="M899.9,377.6V230.9h101.9v28.7h-72.5v25.4h42.1v28.5h-42.1v35.4h75.7v28.7L899.9,377.6z"/>
<path class="st0" d="M1175.4,377.6l-53.9-80.1c-1.8-2.8-3.7-5.8-5.8-8.9c-1.6-2.5-3.1-5-4.5-7.6c0,1.4,0,3.5,0.1,6.2
	c0.1,2.7,0.1,5.7,0.1,8.8c0,3.1,0,6.3,0.1,9.3c0.1,3.1,0.1,5.7,0.1,7.8v64.6h-28.9V230.9h28.1l52,77.6c1.8,2.8,3.7,5.8,5.8,8.9
	c1.6,2.5,3.1,5,4.5,7.6c0-1.4,0-3.5-0.1-6.2s-0.1-5.7-0.1-8.8c0-3.1,0-6.3-0.1-9.3c-0.1-3.1-0.1-5.7-0.1-7.8v-62h28.9v146.7H1175.4z
	"/>
<path class="st0" d="M1387.8,345.9c-5.3,14.1-16.7,25.1-30.9,30.1c-7.6,2.7-15.6,4-23.6,3.9c-9,0.1-18-1.7-26.2-5.4
	c-7.8-3.5-14.7-8.7-20.2-15.2c-5.9-7-10.3-15.1-13.1-23.8c-3.2-10.1-4.8-20.7-4.6-31.3c-0.1-10.4,1.5-20.8,4.8-30.7
	c2.9-8.8,7.5-16.9,13.4-23.9c5.7-6.6,12.7-11.9,20.6-15.5c8.3-3.8,17.3-5.7,26.4-5.6c6.8-0.1,13.5,0.7,20,2.5
	c5.5,1.5,10.7,4,15.4,7.3c4.5,3.2,8.4,7.1,11.6,11.6c3.4,4.7,6.2,9.8,8.5,15.2l-27.9,11.5c-1.4-2.6-2.9-5.1-4.5-7.5
	c-1.6-2.3-3.5-4.4-5.7-6.1c-2.3-1.8-4.9-3.1-7.7-4c-3.3-1-6.8-1.5-10.3-1.5c-5.1-0.1-10.1,1.1-14.7,3.5c-4.3,2.3-8.1,5.6-10.9,9.6
	c-3.1,4.5-5.4,9.4-6.7,14.7c-3.1,12.3-3.1,25.1,0,37.4c1.4,5.3,3.7,10.4,6.8,14.9c2.9,4.1,6.6,7.4,11,9.9c4.5,2.4,9.6,3.6,14.7,3.6
	c4.3,0.1,8.6-0.5,12.8-1.7c3.1-0.9,6-2.5,8.5-4.6c2.1-1.9,3.9-4.3,5-7c1.2-2.8,2-5.8,2.4-8.9h-23.3v-27.7h52.6v19.3
	C1392.3,329.2,1390.9,337.8,1387.8,345.9z"/>
<path class="st0" d="M1467.3,377.6V230.9h29.3v146.7H1467.3z"/>
<path class="st0" d="M1670.4,377.6l-53.9-80.1c-1.8-2.8-3.7-5.8-5.8-8.9c-1.6-2.5-3.1-5-4.5-7.6c0,1.4,0,3.5,0.1,6.2
	s0.1,5.7,0.1,8.8c0,3.1,0,6.3,0.1,9.3c0.1,3.1,0.1,5.7,0.1,7.8v64.6h-28.9V230.9h28.1l52,77.6l5.8,8.9c1.6,2.5,3.1,5,4.5,7.6
	c0-1.4,0-3.5-0.1-6.2s-0.1-5.7-0.1-8.8c0-3.1,0-6.3-0.1-9.3c-0.1-3.1-0.1-5.7-0.1-7.8v-62h28.9v146.7H1670.4z"/>
<path class="st0" d="M1776.7,377.6V230.9h101.9v28.7H1806v25.4h42.1v28.5H1806v35.4h75.7v28.7L1776.7,377.6z"/>
<path class="st0" d="M2067.2,377.6V230.9h29.3v146.7H2067.2z"/>
<path class="st0" d="M2283.1,333.1c0.1,6.5-1.1,13-3.4,19.1c-2.2,5.7-5.8,10.8-10.5,14.8c-5.2,4.4-11.4,7.6-17.9,9.5
	c-7.2,2.2-15.8,3.4-25.9,3.4c-11.6,0.2-23-2.3-33.5-7.1c-10.1-4.7-17.9-11.2-23.5-19.5l21.2-18.9c4.6,5.6,10.6,10,17.3,12.9
	c6.4,2.6,13.3,3.9,20.2,3.9c8.8,0,15.3-1.3,19.4-3.8c4.1-2.5,6.2-6.6,6.2-12.2c0.1-2.1-0.4-4.2-1.3-6.2c-1.1-2-2.7-3.7-4.7-4.9
	c-3.1-1.9-6.5-3.4-10-4.4c-4.3-1.4-9.9-2.9-16.8-4.4c-6.3-1.4-12.5-3.2-18.6-5.5c-5.2-1.9-10.2-4.6-14.6-8
	c-4.1-3.2-7.3-7.4-9.4-12.2c-2.2-4.9-3.4-11-3.4-18.2c-0.1-6.2,1.3-12.4,4.1-18c2.7-5.3,6.6-9.9,11.3-13.5c5-3.8,10.6-6.7,16.7-8.5
	c6.6-2,13.5-3,20.4-2.9c11.5,0,21.5,2,30.1,6.1c8.8,4.2,16.7,9.9,23.4,17l-21.2,20.5c-4.4-4.6-9.5-8.4-15.2-11.2
	c-5.7-2.6-11.9-4-18.1-3.9c-3.3-0.1-6.6,0.3-9.9,1.1c-2.3,0.6-4.5,1.6-6.5,3c-1.5,1.1-2.7,2.5-3.6,4.2c-0.7,1.5-1,3.2-1,4.8
	c-0.3,4.4,2.1,8.5,6.1,10.3c2.9,1.5,5.9,2.7,9,3.6c3.8,1.1,8.6,2.4,14.5,3.8s11.7,3,17.5,4.9c5.6,1.8,10.9,4.4,15.7,7.9
	c4.7,3.4,8.6,7.7,11.4,12.8C2281.6,318.6,2283.1,325.2,2283.1,333.1z"/>
<path class="st0" d="M2550.2,377.6l-26.2-52.8h-29.6v52.8H2465V230.9h68.3c6.6,0,13.2,0.9,19.5,2.8c5.9,1.8,11.4,4.7,16.1,8.7
	c4.7,4,8.4,9,10.9,14.6c2.8,6.4,4.2,13.4,4,20.4c0,11-2.3,20.1-7,27.1s-11.7,12.4-21.1,16l28.1,57L2550.2,377.6z M2553.7,278
	c0-6.7-1.9-11.5-5.6-14.4s-8.8-4.3-15.4-4.3h-38.4v37.7h38.4C2546.7,297.1,2553.7,290.7,2553.7,278L2553.7,278z"/>
<path class="st0" d="M2658.7,377.6V230.9h101.9v28.7h-72.5v25.4h42.1v28.5h-42.1v35.4h75.7v28.7L2658.7,377.6z"/>
<path class="st0" d="M2956.4,304.2c0,12.9-2.1,23.9-6.4,33.2c-3.9,8.8-9.7,16.6-17,22.9c-7.1,5.9-15.3,10.4-24.1,13.1
	c-8.9,2.8-18.2,4.2-27.6,4.2h-43.8V230.9h45.9c9.8-0.1,19.6,1.2,29,3.9c8.6,2.4,16.4,6.7,23.1,12.7c6.8,6.3,12,14.1,15.3,22.7
	C2954.5,279.4,2956.4,290.8,2956.4,304.2z M2926.2,304.2c0-15-3.4-26.2-10.3-33.6s-18-11.2-33.5-11.2h-15.5v89.7h14.5
	c6.8,0.1,13.6-1,20-3.2c5.3-1.9,10.1-5,13.9-9.1c3.7-4.1,6.5-8.9,8.2-14.1C2925.4,316.6,2926.3,310.4,2926.2,304.2z"/>
</svg>
