<?xml version="1.0" encoding="utf-8"?>
<!-- Generator: Adobe Illustrator 20.1.0, SVG Export Plug-In . SVG Version: 6.00 Build 0)  -->
<!DOCTYPE svg PUBLIC "-//W3C//DTD SVG 1.1//EN" "http://www.w3.org/Graphics/SVG/1.1/DTD/svg11.dtd">
<svg version="1.1" id="Layer_1" xmlns="http://www.w3.org/2000/svg" xmlns:xlink="http://www.w3.org/1999/xlink" x="0px" y="0px"
	 viewBox="0 0 64.5 64.5" style="enable-background:new 0 0 64.5 64.5;" xml:space="preserve">
<style type="text/css">
	.st0{fill:#FFFFFF;}
	.st1{fill:#282829;}
	.st2{fill:#00A7E6;}
	.st3{fill:#D4EFFC;}
	.st4{clip-path:url(#SVGID_4_);}
	.st5{fill:none;stroke:#D4EFFC;stroke-miterlimit:10;}
	.st6{clip-path:url(#SVGID_7_);}
	.st7{fill:#6599D1;}
	.st8{fill:url(#SVGID_11_);}
	.st9{fill:#D1D3D4;}
	.st10{clip-path:url(#SVGID_13_);}
</style>
<g>
	<defs>
		<rect id="SVGID_1_" x="-1633.7" y="-2136.1" width="1600" height="846.1"/>
	</defs>
	<clipPath id="SVGID_2_">
		<use xlink:href="#SVGID_1_"  style="overflow:visible;"/>
	</clipPath>
	<g style="clip-path:url(#SVGID_2_);">
	</g>
</g>
<g>
	<path class="st0" d="M-694.6-1685h-368v-70.5h368V-1685z M-1059.2-1688.3h361.3v-63.8h-361.3V-1688.3z"/>
	<g>
		<path class="st0" d="M-1027.6-1725.4v13.7h-3.4v-13.7h-4.9v-3.4h13.2v3.4H-1027.6z"/>
	</g>
	<g>
		<path class="st0" d="M-1004.4-1711.7v-7.1h-7v7.1h-3.4v-17h3.4v6.5h7v-6.5h3.4v17H-1004.4z"/>
	</g>
	<g>
		<path class="st0" d="M-991.7-1711.7v-17h11.8v3.3h-8.4v2.9h4.9v3.3h-4.9v4.1h8.8v3.3H-991.7z"/>
	</g>
	<g>
		<path class="st0" d="M-958.3-1711.7v-17h11.8v3.3h-8.4v2.9h4.9v3.3h-4.9v4.1h8.8v3.3H-958.3z"/>
	</g>
	<g>
		<path class="st0" d="M-926.4-1711.7l-6.2-9.3c-0.2-0.3-0.4-0.7-0.7-1c-0.2-0.4-0.4-0.7-0.5-0.9c0,0.2,0,0.4,0,0.7c0,0.3,0,0.7,0,1
			c0,0.4,0,0.7,0,1.1c0,0.4,0,0.7,0,0.9v7.5h-3.4v-17h3.3l6,9c0.2,0.3,0.4,0.7,0.7,1c0.2,0.4,0.4,0.7,0.5,0.9c0-0.2,0-0.4,0-0.7
			c0-0.3,0-0.7,0-1c0-0.4,0-0.7,0-1.1c0-0.4,0-0.7,0-0.9v-7.2h3.4v17H-926.4z"/>
	</g>
	<g>
		<path class="st0" d="M-901.8-1715.4c-0.3,0.9-0.8,1.6-1.4,2.2c-0.6,0.6-1.3,1-2.2,1.3c-0.8,0.3-1.7,0.5-2.7,0.5
			c-1.1,0-2.1-0.2-3-0.6c-0.9-0.4-1.7-1-2.3-1.8c-0.7-0.8-1.2-1.7-1.5-2.8c-0.4-1.1-0.5-2.3-0.5-3.6c0-1.3,0.2-2.5,0.6-3.6
			c0.4-1.1,0.9-2,1.6-2.8c0.7-0.8,1.5-1.4,2.4-1.8c0.9-0.4,1.9-0.6,3.1-0.6c0.9,0,1.6,0.1,2.3,0.3s1.3,0.5,1.8,0.9
			c0.5,0.4,1,0.8,1.3,1.3c0.4,0.5,0.7,1.1,1,1.8l-3.2,1.3c-0.2-0.3-0.3-0.6-0.5-0.9c-0.2-0.3-0.4-0.5-0.7-0.7
			c-0.3-0.2-0.5-0.3-0.9-0.5c-0.3-0.1-0.7-0.2-1.2-0.2c-0.6,0-1.2,0.1-1.7,0.4c-0.5,0.3-0.9,0.6-1.3,1.1c-0.3,0.5-0.6,1-0.8,1.7
			c-0.2,0.7-0.3,1.4-0.3,2.2c0,0.8,0.1,1.5,0.3,2.2c0.2,0.7,0.4,1.2,0.8,1.7c0.3,0.5,0.8,0.9,1.3,1.1c0.5,0.3,1.1,0.4,1.7,0.4
			c0.6,0,1.1-0.1,1.5-0.2c0.4-0.1,0.7-0.3,1-0.5c0.3-0.2,0.4-0.5,0.6-0.8s0.2-0.7,0.3-1h-2.7v-3.2h6.1v2.2
			C-901.3-1717.2-901.4-1716.2-901.8-1715.4z"/>
	</g>
	<g>
		<path class="st0" d="M-892.6-1711.7v-17h3.4v17H-892.6z"/>
	</g>
	<g>
		<path class="st0" d="M-869-1711.7l-6.2-9.3c-0.2-0.3-0.4-0.7-0.7-1c-0.2-0.4-0.4-0.7-0.5-0.9c0,0.2,0,0.4,0,0.7c0,0.3,0,0.7,0,1
			c0,0.4,0,0.7,0,1.1c0,0.4,0,0.7,0,0.9v7.5h-3.4v-17h3.3l6,9c0.2,0.3,0.4,0.7,0.7,1c0.2,0.4,0.4,0.7,0.5,0.9c0-0.2,0-0.4,0-0.7
			c0-0.3,0-0.7,0-1c0-0.4,0-0.7,0-1.1c0-0.4,0-0.7,0-0.9v-7.2h3.4v17H-869z"/>
	</g>
	<g>
		<path class="st0" d="M-856.7-1711.7v-17h11.8v3.3h-8.4v2.9h4.9v3.3h-4.9v4.1h8.8v3.3H-856.7z"/>
	</g>
	<g>
		<path class="st0" d="M-823-1711.7v-17h3.4v17H-823z"/>
	</g>
	<g>
		<path class="st0" d="M-798-1716.9c0,0.8-0.1,1.5-0.4,2.2c-0.3,0.7-0.7,1.2-1.2,1.7c-0.6,0.5-1.2,0.8-2.1,1.1
			c-0.8,0.3-1.8,0.4-3,0.4c-1.4,0-2.7-0.3-3.9-0.8c-1.2-0.6-2.1-1.3-2.7-2.3l2.5-2.2c0.6,0.7,1.3,1.2,2,1.5c0.7,0.3,1.5,0.4,2.3,0.4
			c1,0,1.8-0.1,2.2-0.4c0.5-0.3,0.7-0.8,0.7-1.4c0-0.3,0-0.5-0.1-0.7c-0.1-0.2-0.3-0.4-0.5-0.6c-0.3-0.2-0.7-0.3-1.2-0.5
			c-0.5-0.2-1.1-0.3-1.9-0.5c-0.8-0.2-1.5-0.4-2.1-0.6c-0.7-0.2-1.2-0.6-1.7-0.9c-0.5-0.4-0.8-0.8-1.1-1.4c-0.3-0.6-0.4-1.3-0.4-2.1
			c0-0.8,0.2-1.5,0.5-2.1c0.3-0.6,0.7-1.1,1.3-1.6c0.6-0.4,1.2-0.8,1.9-1c0.7-0.2,1.5-0.3,2.4-0.3c1.3,0,2.5,0.2,3.5,0.7
			c1,0.5,1.9,1.1,2.7,2l-2.5,2.4c-0.6-0.6-1.1-1-1.8-1.3c-0.6-0.3-1.3-0.4-2.1-0.4c-0.5,0-0.8,0-1.1,0.1c-0.3,0.1-0.6,0.2-0.8,0.4
			c-0.2,0.1-0.3,0.3-0.4,0.5c-0.1,0.2-0.1,0.4-0.1,0.6c0,0.3,0.1,0.5,0.2,0.7c0.1,0.2,0.3,0.4,0.5,0.5c0.3,0.1,0.6,0.3,1,0.4
			s1,0.3,1.7,0.4c0.7,0.2,1.4,0.4,2,0.6c0.7,0.2,1.3,0.5,1.8,0.9c0.5,0.4,1,0.9,1.3,1.5C-798.2-1718.5-798-1717.8-798-1716.9z"/>
	</g>
</g>
<g>
	<path class="st1" d="M-779.1-1711.4v-17.7h12.3v3.5h-8.8v3.1h5.1v3.4h-5.1v4.3h9.1v3.5H-779.1z"/>
	<path class="st1" d="M-748.8-1711.4l-1.6-2.7c-0.6-1.1-1.6-2.8-1.9-3.5c-0.3,0.7-1.3,2.4-1.9,3.5l-1.6,2.7h-4.2l5.6-9.1l-5.4-8.7
		h4.2l1.3,2.3c0.6,1.1,1.6,2.8,1.9,3.5c0.3-0.7,1.3-2.4,1.9-3.5l1.3-2.3h4.2l-5.4,8.7l5.6,9.1H-748.8z"/>
	<path class="st1" d="M-729.9-1717.6h-3.9v6.3h-3.5v-17.7h7.7c3.3,0,6.1,1.8,6.1,5.6C-723.5-1719.4-726.2-1717.6-729.9-1717.6z
		 M-729.7-1725.6h-4.1v4.6h4.1c1.6,0,2.5-0.8,2.5-2.3C-727.1-1724.9-728.2-1725.6-729.7-1725.6z"/>
	<path class="st1" d="M-716.3-1711.4v-17.7h3.5v14.2h8.9v3.5H-716.3z"/>
	<path class="st1" d="M-690.8-1711.1c-4.8,0-7.7-3.7-7.7-9.1c0-5.4,2.9-9.1,7.7-9.1c4.8,0,7.7,3.7,7.7,9.1
		C-683.1-1714.8-686-1711.1-690.8-1711.1z M-690.8-1725.8c-2.9,0-4,2.5-4,5.6s1.2,5.6,4,5.6c2.9,0,4-2.5,4-5.6
		S-687.9-1725.8-690.8-1725.8z"/>
	<path class="st1" d="M-665.4-1711.4l-3.2-6.4h-3.6v6.4h-3.5v-17.7h8.2c3.3,0,6.1,1.8,6.1,5.6c0,2.7-1.1,4.3-3.4,5.2l3.4,6.9H-665.4
		z M-667.5-1725.6h-4.6v4.6h4.6c1.6,0,2.5-0.8,2.5-2.3C-665-1725-666-1725.6-667.5-1725.6z"/>
	<path class="st1" d="M-653.6-1711.4v-17.7h3.5v17.7H-653.6z"/>
	<path class="st1" d="M-630.3-1711.4l-6.5-9.7c-0.4-0.7-1-1.5-1.2-2c0,0.7,0.1,2.9,0.1,3.9v7.8h-3.5v-17.7h3.4l6.3,9.4
		c0.4,0.7,1,1.5,1.2,2c0-0.7-0.1-2.9-0.1-3.9v-7.5h3.5v17.7H-630.3z"/>
	<path class="st1" d="M-612-1711.1c-4.6,0-7.7-3.5-7.7-9.1c0-5.4,3.2-9.1,7.9-9.1c3.6,0,5.5,1.7,6.7,4.4l-3.4,1.4
		c-0.7-1.3-1.5-2.3-3.4-2.3c-2.7,0-4.2,2.3-4.2,5.6c0,3.3,1.5,5.7,4.2,5.7c2.4,0,3.3-1.1,3.5-2.7h-2.8v-3.3h6.3v2.3
		C-604.8-1713.7-607.9-1711.1-612-1711.1z"/>
</g>
<g>
	<path class="st0" d="M417.7-2222.5H-18.8v-83.6h436.5V-2222.5z M-14.8-2226.4h428.5v-75.7H-14.8V-2226.4z"/>
	<g>
		<path class="st0" d="M22.7-2270.4v16.2h-4v-16.2h-5.8v-4h15.6v4H22.7z"/>
	</g>
	<g>
		<path class="st0" d="M50.2-2254.2v-8.5h-8.3v8.5h-4v-20.2h4v7.7h8.3v-7.7h4v20.2H50.2z"/>
	</g>
	<g>
		<path class="st0" d="M65.2-2254.2v-20.2h14v3.9h-10v3.5h5.8v3.9h-5.8v4.9h10.4v3.9H65.2z"/>
	</g>
	<g>
		<path class="st0" d="M104.9-2254.2v-20.2h14v3.9h-10v3.5h5.8v3.9h-5.8v4.9h10.4v3.9H104.9z"/>
	</g>
	<g>
		<path class="st0" d="M142.8-2254.2l-7.4-11c-0.2-0.4-0.5-0.8-0.8-1.2c-0.3-0.4-0.5-0.8-0.6-1.1c0,0.2,0,0.5,0,0.9
			c0,0.4,0,0.8,0,1.2s0,0.9,0,1.3c0,0.4,0,0.8,0,1.1v8.9h-4v-20.2h3.9l7.1,10.7c0.2,0.4,0.5,0.8,0.8,1.2c0.3,0.4,0.5,0.8,0.6,1.1
			c0-0.2,0-0.5,0-0.8c0-0.4,0-0.8,0-1.2c0-0.4,0-0.9,0-1.3c0-0.4,0-0.8,0-1.1v-8.5h4v20.2H142.8z"/>
	</g>
	<g>
		<path class="st0" d="M172-2258.5c-0.4,1-1,1.9-1.7,2.6c-0.7,0.7-1.6,1.2-2.6,1.6c-1,0.4-2.1,0.5-3.2,0.5c-1.3,0-2.5-0.2-3.6-0.7
			c-1.1-0.5-2-1.2-2.8-2.1c-0.8-0.9-1.4-2-1.8-3.3c-0.4-1.3-0.6-2.7-0.6-4.3c0-1.5,0.2-2.9,0.7-4.2c0.4-1.3,1.1-2.4,1.8-3.3
			c0.8-0.9,1.7-1.6,2.8-2.1c1.1-0.5,2.3-0.8,3.6-0.8c1,0,2,0.1,2.8,0.3c0.8,0.2,1.5,0.6,2.1,1s1.1,1,1.6,1.6
			c0.5,0.6,0.8,1.3,1.2,2.1l-3.8,1.6c-0.2-0.4-0.4-0.7-0.6-1c-0.2-0.3-0.5-0.6-0.8-0.8c-0.3-0.2-0.6-0.4-1.1-0.5
			c-0.4-0.1-0.9-0.2-1.4-0.2c-0.7,0-1.4,0.2-2,0.5c-0.6,0.3-1.1,0.8-1.5,1.3c-0.4,0.6-0.7,1.2-0.9,2c-0.2,0.8-0.3,1.6-0.3,2.6
			c0,0.9,0.1,1.8,0.3,2.6c0.2,0.8,0.5,1.5,0.9,2c0.4,0.6,0.9,1,1.5,1.4c0.6,0.3,1.3,0.5,2,0.5c0.7,0,1.3-0.1,1.8-0.2
			c0.5-0.2,0.9-0.4,1.2-0.6c0.3-0.3,0.5-0.6,0.7-1c0.2-0.4,0.3-0.8,0.3-1.2h-3.2v-3.8h7.2v2.7C172.6-2260.7,172.4-2259.5,172-2258.5
			z"/>
	</g>
	<g>
		<path class="st0" d="M182.9-2254.2v-20.2h4v20.2H182.9z"/>
	</g>
	<g>
		<path class="st0" d="M210.8-2254.2l-7.4-11c-0.2-0.4-0.5-0.8-0.8-1.2c-0.3-0.4-0.5-0.8-0.6-1.1c0,0.2,0,0.5,0,0.9
			c0,0.4,0,0.8,0,1.2s0,0.9,0,1.3c0,0.4,0,0.8,0,1.1v8.9h-4v-20.2h3.9l7.1,10.7c0.2,0.4,0.5,0.8,0.8,1.2c0.3,0.4,0.5,0.8,0.6,1.1
			c0-0.2,0-0.5,0-0.8c0-0.4,0-0.8,0-1.2c0-0.4,0-0.9,0-1.3c0-0.4,0-0.8,0-1.1v-8.5h4v20.2H210.8z"/>
	</g>
	<g>
		<path class="st0" d="M225.4-2254.2v-20.2h14v3.9h-10v3.5h5.8v3.9h-5.8v4.9h10.4v3.9H225.4z"/>
	</g>
	<g>
		<path class="st0" d="M265.3-2254.2v-20.2h4v20.2H265.3z"/>
	</g>
	<g>
		<path class="st0" d="M295-2260.3c0,1-0.2,1.8-0.5,2.6c-0.3,0.8-0.8,1.5-1.4,2c-0.7,0.6-1.5,1-2.5,1.3c-1,0.3-2.2,0.5-3.6,0.5
			c-1.7,0-3.2-0.3-4.6-1c-1.4-0.7-2.5-1.5-3.2-2.7l2.9-2.6c0.7,0.8,1.5,1.4,2.4,1.8c0.9,0.4,1.8,0.5,2.8,0.5c1.2,0,2.1-0.2,2.7-0.5
			c0.6-0.3,0.9-0.9,0.9-1.7c0-0.3-0.1-0.6-0.2-0.8c-0.1-0.2-0.3-0.5-0.6-0.7c-0.3-0.2-0.8-0.4-1.4-0.6c-0.6-0.2-1.4-0.4-2.3-0.6
			c-0.9-0.2-1.8-0.5-2.5-0.7c-0.8-0.3-1.4-0.7-2-1.1c-0.6-0.4-1-1-1.3-1.7c-0.3-0.7-0.5-1.5-0.5-2.5c0-0.9,0.2-1.7,0.6-2.5
			c0.4-0.7,0.9-1.3,1.5-1.9c0.7-0.5,1.4-0.9,2.3-1.2c0.9-0.3,1.8-0.4,2.8-0.4c1.6,0,3,0.3,4.1,0.8c1.2,0.6,2.3,1.3,3.2,2.3l-2.9,2.8
			c-0.7-0.7-1.3-1.2-2.1-1.5c-0.7-0.4-1.6-0.5-2.5-0.5c-0.5,0-1,0.1-1.4,0.2c-0.4,0.1-0.7,0.2-0.9,0.4c-0.2,0.2-0.4,0.4-0.5,0.6
			c-0.1,0.2-0.1,0.4-0.1,0.7c0,0.3,0.1,0.6,0.2,0.8c0.1,0.2,0.3,0.4,0.6,0.6c0.3,0.2,0.7,0.3,1.2,0.5c0.5,0.2,1.2,0.3,2,0.5
			c0.8,0.2,1.6,0.4,2.4,0.7c0.8,0.3,1.5,0.6,2.2,1.1c0.6,0.5,1.2,1,1.6,1.8C294.8-2262.3,295-2261.4,295-2260.3z"/>
	</g>
	<g>
		<path class="st0" d="M331.7-2254.2l-3.6-7.3H324v7.3h-4v-20.2h9.4c0.9,0,1.8,0.1,2.7,0.4c0.8,0.3,1.6,0.7,2.2,1.2
			c0.6,0.5,1.1,1.2,1.5,2c0.4,0.8,0.5,1.7,0.5,2.8c0,1.5-0.3,2.8-1,3.7c-0.6,1-1.6,1.7-2.9,2.2l3.9,7.8H331.7z M332.2-2267.9
			c0-0.9-0.3-1.6-0.8-2c-0.5-0.4-1.2-0.6-2.1-0.6H324v5.2h5.3C331.2-2265.2,332.2-2266.1,332.2-2267.9z"/>
	</g>
	<g>
		<path class="st0" d="M346.6-2254.2v-20.2h14v3.9h-10v3.5h5.8v3.9h-5.8v4.9h10.4v3.9H346.6z"/>
	</g>
	<g>
		<path class="st0" d="M387.5-2264.3c0,1.8-0.3,3.3-0.9,4.6c-0.6,1.3-1.4,2.3-2.3,3.1c-1,0.8-2.1,1.4-3.3,1.8
			c-1.2,0.4-2.5,0.6-3.8,0.6h-6v-20.2h6.3c1.4,0,2.8,0.2,4,0.5c1.2,0.4,2.3,0.9,3.2,1.7c0.9,0.8,1.6,1.8,2.1,3.1
			C387.3-2267.7,387.5-2266.1,387.5-2264.3z M383.4-2264.3c0-2.1-0.5-3.6-1.4-4.6c-0.9-1-2.5-1.5-4.6-1.5h-2.1v12.3h2
			c1.1,0,2-0.1,2.8-0.4c0.8-0.3,1.4-0.7,1.9-1.3c0.5-0.5,0.9-1.2,1.1-1.9C383.3-2262.5,383.4-2263.3,383.4-2264.3z"/>
	</g>
</g>
<rect x="435.2" y="-2274.4" style="fill:none;" width="214.9" height="23.3"/>
<text transform="matrix(1 0 0 1 435.1813 -2253.052)" style="font-family:'Interstate-Bold'; font-size:30px; letter-spacing:4;">EXPLORING</text>
<rect x="-1633.7" y="-1289.9" class="st1" width="1600" height="576.9"/>
<rect x="-1633.7" y="-136.1" class="st1" width="1600" height="576.9"/>
<rect x="-1633.7" y="-713" class="st2" width="1600" height="576.9"/>
<rect x="-1255.3" y="-1383" style="fill:none;" width="841.2" height="23.3"/>
<text transform="matrix(1 0 0 1 -1191.1544 -1366.652)" class="st0" style="font-family:'RobotoCondensed-Bold'; font-size:23px; letter-spacing:12;">The Pursuit of a Better Agency</text>
<rect x="-1191.1" y="-1175.5" style="fill:none;" width="713.9" height="351"/>
<text transform="matrix(1 0 0 1 -1191.0747 -1161.9796)"><tspan x="0" y="0" class="st3" style="font-family:'RobotoCondensed-Bold'; font-size:19px; letter-spacing:9;">As</tspan><tspan x="40" y="0" class="st3" style="font-family:'RobotoCondensed-Bold'; font-size:19px; letter-spacing:21;"> </tspan><tspan x="65.7" y="0" class="st3" style="font-family:'RobotoCondensed-Bold'; font-size:19px; letter-spacing:9;">we</tspan><tspan x="110.2" y="0" class="st3" style="font-family:'RobotoCondensed-Bold'; font-size:19px; letter-spacing:21;"> </tspan><tspan x="135.9" y="0" class="st3" style="font-family:'RobotoCondensed-Bold'; font-size:19px; letter-spacing:9;">grow,</tspan><tspan x="239" y="0" class="st3" style="font-family:'RobotoCondensed-Bold'; font-size:19px; letter-spacing:21;"> </tspan><tspan x="264.8" y="0" class="st3" style="font-family:'RobotoCondensed-Bold'; font-size:19px; letter-spacing:9;">change,</tspan><tspan x="404.4" y="0" class="st3" style="font-family:'RobotoCondensed-Bold'; font-size:19px; letter-spacing:21;"> </tspan><tspan x="430.1" y="0" class="st3" style="font-family:'RobotoCondensed-Bold'; font-size:19px; letter-spacing:9;">learn</tspan><tspan x="530.3" y="0" class="st3" style="font-family:'RobotoCondensed-Bold'; font-size:19px; letter-spacing:21;"> </tspan><tspan x="556" y="0" class="st3" style="font-family:'RobotoCondensed-Bold'; font-size:19px; letter-spacing:9;">and</tspan><tspan x="621.3" y="0" class="st3" style="font-family:'RobotoCondensed-Bold'; font-size:19px; letter-spacing:21;"> </tspan><tspan x="647.1" y="0" class="st3" style="font-family:'RobotoCondensed-Bold'; font-size:19px; letter-spacing:9;">seek </tspan><tspan x="0" y="42" class="st3" style="font-family:'RobotoCondensed-Bold'; font-size:19px; letter-spacing:9;">ourselves</tspan><tspan x="178.1" y="42" class="st3" style="font-family:'RobotoCondensed-Bold'; font-size:19px; letter-spacing:22;"> </tspan><tspan x="204.6" y="42" class="st3" style="font-family:'RobotoCondensed-Bold'; font-size:19px; letter-spacing:9;">to</tspan><tspan x="246.1" y="42" class="st3" style="font-family:'RobotoCondensed-Bold'; font-size:19px; letter-spacing:22;"> </tspan><tspan x="272.6" y="42" class="st3" style="font-family:'RobotoCondensed-Bold'; font-size:19px; letter-spacing:9;">constantly</tspan><tspan x="475.9" y="42" class="st3" style="font-family:'RobotoCondensed-Bold'; font-size:19px; letter-spacing:22;"> </tspan><tspan x="502.4" y="42" class="st3" style="font-family:'RobotoCondensed-Bold'; font-size:19px; letter-spacing:9;">improve,</tspan><tspan x="655.5" y="42" class="st3" style="font-family:'RobotoCondensed-Bold'; font-size:19px; letter-spacing:22;"> </tspan><tspan x="682" y="42" class="st3" style="font-family:'RobotoCondensed-Bold'; font-size:19px; letter-spacing:9;">so </tspan><tspan x="0" y="84" class="st3" style="font-family:'RobotoCondensed-Bold'; font-size:19px; letter-spacing:9;">too</tspan><tspan x="64.1" y="84" class="st3" style="font-family:'RobotoCondensed-Bold'; font-size:19px; letter-spacing:18;"> </tspan><tspan x="86.3" y="84" class="st3" style="font-family:'RobotoCondensed-Bold'; font-size:19px; letter-spacing:9;">must</tspan><tspan x="170.7" y="84" class="st3" style="font-family:'RobotoCondensed-Bold'; font-size:19px; letter-spacing:18;"> </tspan><tspan x="192.8" y="84" class="st3" style="font-family:'RobotoCondensed-Bold'; font-size:19px; letter-spacing:9;">our</tspan><tspan x="256.9" y="84" class="st3" style="font-family:'RobotoCondensed-Bold'; font-size:19px; letter-spacing:18;"> </tspan><tspan x="279.1" y="84" class="st3" style="font-family:'RobotoCondensed-Bold'; font-size:19px; letter-spacing:9;">brand</tspan><tspan x="383.9" y="84" class="st3" style="font-family:'RobotoCondensed-Bold'; font-size:19px; letter-spacing:18;"> </tspan><tspan x="406.1" y="84" class="st3" style="font-family:'RobotoCondensed-Bold'; font-size:19px; letter-spacing:9;">reflect</tspan><tspan x="540.2" y="84" class="st3" style="font-family:'RobotoCondensed-Bold'; font-size:19px; letter-spacing:18;"> </tspan><tspan x="562.3" y="84" class="st3" style="font-family:'RobotoCondensed-Bold'; font-size:19px; letter-spacing:9;">that.</tspan><tspan x="656.7" y="84" class="st3" style="font-family:'RobotoCondensed-Bold'; font-size:19px; letter-spacing:18;"> </tspan><tspan x="678.8" y="84" class="st3" style="font-family:'RobotoCondensed-Bold'; font-size:19px; letter-spacing:9;">No </tspan><tspan x="0" y="126" class="st3" style="font-family:'RobotoCondensed-Bold'; font-size:19px; letter-spacing:9;">clinging</tspan><tspan x="154.6" y="126" class="st3" style="font-family:'RobotoCondensed-Bold'; font-size:19px; letter-spacing:7;"> </tspan><tspan x="166.4" y="126" class="st3" style="font-family:'RobotoCondensed-Bold'; font-size:19px; letter-spacing:9;">to</tspan><tspan x="207.9" y="126" class="st3" style="font-family:'RobotoCondensed-Bold'; font-size:19px; letter-spacing:7;"> </tspan><tspan x="219.7" y="126" class="st3" style="font-family:'RobotoCondensed-Bold'; font-size:19px; letter-spacing:9;">the</tspan><tspan x="279.3" y="126" class="st3" style="font-family:'RobotoCondensed-Bold'; font-size:19px; letter-spacing:7;"> </tspan><tspan x="291.1" y="126" class="st3" style="font-family:'RobotoCondensed-Bold'; font-size:19px; letter-spacing:9;">comfort</tspan><tspan x="439" y="126" class="st3" style="font-family:'RobotoCondensed-Bold'; font-size:19px; letter-spacing:7;"> </tspan><tspan x="450.7" y="126" class="st3" style="font-family:'RobotoCondensed-Bold'; font-size:19px; letter-spacing:9;">of</tspan><tspan x="492.1" y="126" class="st3" style="font-family:'RobotoCondensed-Bold'; font-size:19px; letter-spacing:7;"> </tspan><tspan x="503.8" y="126" class="st3" style="font-family:'RobotoCondensed-Bold'; font-size:19px; letter-spacing:9;">the</tspan><tspan x="563.5" y="126" class="st3" style="font-family:'RobotoCondensed-Bold'; font-size:19px; letter-spacing:7;"> </tspan><tspan x="575.3" y="126" class="st3" style="font-family:'RobotoCondensed-Bold'; font-size:19px; letter-spacing:9;">past.</tspan><tspan x="667.2" y="126" class="st3" style="font-family:'RobotoCondensed-Bold'; font-size:19px; letter-spacing:7;"> </tspan><tspan x="679" y="126" class="st3" style="font-family:'RobotoCondensed-Bold'; font-size:19px; letter-spacing:9;">We </tspan><tspan x="0" y="168" class="st3" style="font-family:'RobotoCondensed-Bold'; font-size:19px; letter-spacing:9;">must</tspan><tspan x="84.4" y="168" class="st3" style="font-family:'RobotoCondensed-Bold'; font-size:19px; letter-spacing:22;"> </tspan><tspan x="110.9" y="168" class="st3" style="font-family:'RobotoCondensed-Bold'; font-size:19px; letter-spacing:9;">push</tspan><tspan x="193.1" y="168" class="st3" style="font-family:'RobotoCondensed-Bold'; font-size:19px; letter-spacing:22;"> </tspan><tspan x="219.6" y="168" class="st3" style="font-family:'RobotoCondensed-Bold'; font-size:19px; letter-spacing:9;">forward.</tspan><tspan x="382.7" y="168" class="st3" style="font-family:'RobotoCondensed-Bold'; font-size:19px; letter-spacing:22;"> </tspan><tspan x="409.2" y="168" class="st3" style="font-family:'RobotoCondensed-Bold'; font-size:19px; letter-spacing:9;">We</tspan><tspan x="453.6" y="168" class="st3" style="font-family:'RobotoCondensed-Bold'; font-size:19px; letter-spacing:22;"> </tspan><tspan x="480.1" y="168" class="st3" style="font-family:'RobotoCondensed-Bold'; font-size:19px; letter-spacing:9;">must</tspan><tspan x="564.5" y="168" class="st3" style="font-family:'RobotoCondensed-Bold'; font-size:19px; letter-spacing:22;"> </tspan><tspan x="591" y="168" class="st3" style="font-family:'RobotoCondensed-Bold'; font-size:19px; letter-spacing:9;">evolve. </tspan><tspan x="0" y="210" class="st3" style="font-family:'RobotoCondensed-Bold'; font-size:19px; letter-spacing:9;">Which</tspan><tspan x="103.9" y="210" class="st3" style="font-family:'RobotoCondensed-Bold'; font-size:19px; letter-spacing:14;"> </tspan><tspan x="122.2" y="210" class="st3" style="font-family:'RobotoCondensed-Bold'; font-size:19px; letter-spacing:9;">brings</tspan><tspan x="238.4" y="210" class="st3" style="font-family:'RobotoCondensed-Bold'; font-size:19px; letter-spacing:14;"> </tspan><tspan x="256.7" y="210" class="st3" style="font-family:'RobotoCondensed-Bold'; font-size:19px; letter-spacing:9;">us</tspan><tspan x="297.4" y="210" class="st3" style="font-family:'RobotoCondensed-Bold'; font-size:19px; letter-spacing:14;"> </tspan><tspan x="315.7" y="210" class="st3" style="font-family:'RobotoCondensed-Bold'; font-size:19px; letter-spacing:9;">here,</tspan><tspan x="408.4" y="210" class="st3" style="font-family:'RobotoCondensed-Bold'; font-size:19px; letter-spacing:14;"> </tspan><tspan x="426.7" y="210" class="st3" style="font-family:'RobotoCondensed-Bold'; font-size:19px; letter-spacing:9;">to</tspan><tspan x="468.2" y="210" class="st3" style="font-family:'RobotoCondensed-Bold'; font-size:19px; letter-spacing:14;"> </tspan><tspan x="486.5" y="210" class="st3" style="font-family:'RobotoCondensed-Bold'; font-size:19px; letter-spacing:9;">the</tspan><tspan x="546.2" y="210" class="st3" style="font-family:'RobotoCondensed-Bold'; font-size:19px; letter-spacing:14;"> </tspan><tspan x="564.5" y="210" class="st3" style="font-family:'RobotoCondensed-Bold'; font-size:19px; letter-spacing:9;">verge</tspan><tspan x="663.8" y="210" class="st3" style="font-family:'RobotoCondensed-Bold'; font-size:19px; letter-spacing:14;"> </tspan><tspan x="682.1" y="210" class="st3" style="font-family:'RobotoCondensed-Bold'; font-size:19px; letter-spacing:9;">of </tspan><tspan x="0" y="252" class="st3" style="font-family:'RobotoCondensed-Bold'; font-size:19px; letter-spacing:9;">an</tspan><tspan x="43.1" y="252" class="st3" style="font-family:'RobotoCondensed-Bold'; font-size:19px; letter-spacing:23;"> </tspan><tspan x="71.1" y="252" class="st3" style="font-family:'RobotoCondensed-Bold'; font-size:19px; letter-spacing:9;">exhilarating</tspan><tspan x="303.4" y="252" class="st3" style="font-family:'RobotoCondensed-Bold'; font-size:19px; letter-spacing:23;"> </tspan><tspan x="331.4" y="252" class="st3" style="font-family:'RobotoCondensed-Bold'; font-size:19px; letter-spacing:9;">new</tspan><tspan x="397.8" y="252" class="st3" style="font-family:'RobotoCondensed-Bold'; font-size:19px; letter-spacing:23;"> </tspan><tspan x="425.8" y="252" class="st3" style="font-family:'RobotoCondensed-Bold'; font-size:19px; letter-spacing:9;">chapter</tspan><tspan x="566.5" y="252" class="st3" style="font-family:'RobotoCondensed-Bold'; font-size:19px; letter-spacing:23;"> </tspan><tspan x="594.4" y="252" class="st3" style="font-family:'RobotoCondensed-Bold'; font-size:19px; letter-spacing:9;">of</tspan><tspan x="635.8" y="252" class="st3" style="font-family:'RobotoCondensed-Bold'; font-size:19px; letter-spacing:23;"> </tspan><tspan x="663.7" y="252" class="st3" style="font-family:'RobotoCondensed-Bold'; font-size:19px; letter-spacing:9;">the </tspan><tspan x="0" y="294" class="st3" style="font-family:'RobotoCondensed-Bold'; font-size:19px; letter-spacing:9;">Engine,</tspan><tspan x="130.9" y="294" class="st3" style="font-family:'RobotoCondensed-Bold'; font-size:19px; letter-spacing:24;"> </tspan><tspan x="159.9" y="294" class="st3" style="font-family:'RobotoCondensed-Bold'; font-size:19px; letter-spacing:9;">eagerly</tspan><tspan x="298.4" y="294" class="st3" style="font-family:'RobotoCondensed-Bold'; font-size:19px; letter-spacing:24;"> </tspan><tspan x="327.4" y="294" class="st3" style="font-family:'RobotoCondensed-Bold'; font-size:19px; letter-spacing:9;">awaiting</tspan><tspan x="486" y="294" class="st3" style="font-family:'RobotoCondensed-Bold'; font-size:19px; letter-spacing:24;"> </tspan><tspan x="515" y="294" class="st3" style="font-family:'RobotoCondensed-Bold'; font-size:19px; letter-spacing:9;">the</tspan><tspan x="574.6" y="294" class="st3" style="font-family:'RobotoCondensed-Bold'; font-size:19px; letter-spacing:24;"> </tspan><tspan x="603.6" y="294" class="st3" style="font-family:'RobotoCondensed-Bold'; font-size:19px; letter-spacing:9;">future </tspan><tspan x="0" y="336" class="st3" style="font-family:'RobotoCondensed-Bold'; font-size:19px; letter-spacing:9;">and</tspan><tspan x="65.3" y="336" class="st3" style="font-family:'RobotoCondensed-Bold'; font-size:19px; letter-spacing:14;"> </tspan><tspan x="84.1" y="336" class="st3" style="font-family:'RobotoCondensed-Bold'; font-size:19px; letter-spacing:9;">exploring</tspan><tspan x="261.5" y="336" class="st3" style="font-family:'RobotoCondensed-Bold'; font-size:19px; letter-spacing:14;"> </tspan><tspan x="280.3" y="336" class="st3" style="font-family:'RobotoCondensed-Bold'; font-size:19px; letter-spacing:9;">the</tspan><tspan x="340" y="336" class="st3" style="font-family:'RobotoCondensed-Bold'; font-size:19px; letter-spacing:14;"> </tspan><tspan x="358.8" y="336" class="st3" style="font-family:'RobotoCondensed-Bold'; font-size:19px; letter-spacing:9;">limits</tspan><tspan x="467.9" y="336" class="st3" style="font-family:'RobotoCondensed-Bold'; font-size:19px; letter-spacing:14;"> </tspan><tspan x="486.7" y="336" class="st3" style="font-family:'RobotoCondensed-Bold'; font-size:19px; letter-spacing:9;">of</tspan><tspan x="528.1" y="336" class="st3" style="font-family:'RobotoCondensed-Bold'; font-size:19px; letter-spacing:14;"> </tspan><tspan x="546.9" y="336" class="st3" style="font-family:'RobotoCondensed-Bold'; font-size:19px; letter-spacing:9;">what</tspan><tspan x="634.4" y="336" class="st3" style="font-family:'RobotoCondensed-Bold'; font-size:19px; letter-spacing:14;"> </tspan><tspan x="653.2" y="336" class="st3" style="font-family:'RobotoCondensed-Bold'; font-size:19px; letter-spacing:9;">lies </tspan></text>
<g>
	<defs>
		<rect id="SVGID_3_" x="-416.7" y="93.3" width="382.3" height="112.3"/>
	</defs>
	<clipPath id="SVGID_4_">
		<use xlink:href="#SVGID_3_"  style="overflow:visible;"/>
	</clipPath>
	<g class="st4">
		<path class="st0" d="M60.6,194.1h-469.8v-90H60.6V194.1z M-404.9,189.8H56.3v-81.4h-461.2V189.8z"/>
		<g>
			<path class="st0" d="M-364.5,142.6V160h-4.3v-17.4h-6.2v-4.3h16.8v4.3H-364.5z"/>
		</g>
		<g>
			<path class="st0" d="M-334.9,160v-9.1h-8.9v9.1h-4.3v-21.7h4.3v8.3h8.9v-8.3h4.3V160H-334.9z"/>
		</g>
		<g>
			<path class="st0" d="M-318.7,160v-21.7h15.1v4.2h-10.7v3.8h6.2v4.2h-6.2v5.2h11.2v4.2H-318.7z"/>
		</g>
		<g>
			<path class="st0" d="M-276.1,160v-21.7h15.1v4.2h-10.7v3.8h6.2v4.2h-6.2v5.2h11.2v4.2H-276.1z"/>
		</g>
		<g>
			<path class="st0" d="M-235.3,160l-8-11.8c-0.3-0.4-0.6-0.9-0.9-1.3c-0.3-0.5-0.5-0.8-0.7-1.1c0,0.2,0,0.5,0,0.9
				c0,0.4,0,0.8,0,1.3c0,0.5,0,0.9,0,1.4c0,0.5,0,0.8,0,1.1v9.6h-4.3v-21.7h4.2l7.7,11.5c0.3,0.4,0.6,0.9,0.9,1.3
				c0.3,0.5,0.5,0.8,0.7,1.1c0-0.2,0-0.5,0-0.9c0-0.4,0-0.8,0-1.3c0-0.5,0-0.9,0-1.4c0-0.5,0-0.8,0-1.1v-9.2h4.3V160H-235.3z"/>
		</g>
		<g>
			<path class="st0" d="M-203.9,155.3c-0.4,1.1-1,2-1.8,2.8c-0.8,0.7-1.7,1.3-2.8,1.7c-1.1,0.4-2.2,0.6-3.5,0.6
				c-1.4,0-2.7-0.3-3.9-0.8c-1.2-0.5-2.2-1.3-3-2.2c-0.8-1-1.5-2.1-1.9-3.5c-0.5-1.4-0.7-2.9-0.7-4.6c0-1.7,0.2-3.2,0.7-4.5
				c0.5-1.4,1.1-2.6,2-3.5c0.8-1,1.9-1.7,3-2.3c1.2-0.5,2.5-0.8,3.9-0.8c1.1,0,2.1,0.1,3,0.4s1.6,0.6,2.3,1.1c0.7,0.5,1.2,1,1.7,1.7
				c0.5,0.7,0.9,1.4,1.3,2.2l-4.1,1.7c-0.2-0.4-0.4-0.8-0.7-1.1c-0.2-0.4-0.5-0.7-0.8-0.9c-0.3-0.2-0.7-0.4-1.1-0.6
				c-0.4-0.1-0.9-0.2-1.5-0.2c-0.8,0-1.5,0.2-2.2,0.5c-0.6,0.3-1.2,0.8-1.6,1.4c-0.4,0.6-0.8,1.3-1,2.2c-0.2,0.8-0.3,1.8-0.3,2.8
				c0,1,0.1,1.9,0.3,2.8c0.2,0.8,0.6,1.6,1,2.2c0.4,0.6,1,1.1,1.6,1.5c0.6,0.4,1.4,0.5,2.2,0.5c0.7,0,1.4-0.1,1.9-0.2
				c0.5-0.2,0.9-0.4,1.3-0.7c0.3-0.3,0.6-0.6,0.7-1c0.2-0.4,0.3-0.8,0.4-1.3h-3.4v-4.1h7.8v2.9C-203.2,153-203.4,154.2-203.9,155.3z
				"/>
		</g>
		<g>
			<path class="st0" d="M-192.1,160v-21.7h4.3V160H-192.1z"/>
		</g>
		<g>
			<path class="st0" d="M-162.1,160l-8-11.8c-0.3-0.4-0.6-0.9-0.9-1.3c-0.3-0.5-0.5-0.8-0.7-1.1c0,0.2,0,0.5,0,0.9
				c0,0.4,0,0.8,0,1.3c0,0.5,0,0.9,0,1.4c0,0.5,0,0.8,0,1.1v9.6h-4.3v-21.7h4.2l7.7,11.5c0.3,0.4,0.6,0.9,0.9,1.3
				c0.3,0.5,0.5,0.8,0.7,1.1c0-0.2,0-0.5,0-0.9c0-0.4,0-0.8,0-1.3c0-0.5,0-0.9,0-1.4c0-0.5,0-0.8,0-1.1v-9.2h4.3V160H-162.1z"/>
		</g>
		<g>
			<path class="st0" d="M-146.3,160v-21.7h15.1v4.2H-142v3.8h6.2v4.2h-6.2v5.2h11.2v4.2H-146.3z"/>
		</g>
		<g>
			<path class="st0" d="M-103.4,160v-21.7h4.3V160H-103.4z"/>
		</g>
		<g>
			<path class="st0" d="M-71.4,153.4c0,1-0.2,2-0.5,2.8c-0.3,0.8-0.8,1.6-1.6,2.2c-0.7,0.6-1.6,1.1-2.7,1.4
				c-1.1,0.3-2.3,0.5-3.8,0.5c-1.8,0-3.5-0.4-5-1.1c-1.5-0.7-2.6-1.7-3.5-2.9l3.1-2.8c0.8,0.9,1.6,1.5,2.6,1.9
				c0.9,0.4,1.9,0.6,3,0.6c1.3,0,2.3-0.2,2.9-0.6c0.6-0.4,0.9-1,0.9-1.8c0-0.4-0.1-0.7-0.2-0.9c-0.1-0.3-0.4-0.5-0.7-0.7
				c-0.3-0.2-0.8-0.4-1.5-0.7c-0.6-0.2-1.5-0.4-2.5-0.7c-1-0.2-1.9-0.5-2.7-0.8c-0.8-0.3-1.6-0.7-2.2-1.2c-0.6-0.5-1.1-1.1-1.4-1.8
				c-0.3-0.7-0.5-1.6-0.5-2.7c0-1,0.2-1.9,0.6-2.7c0.4-0.8,1-1.5,1.7-2c0.7-0.5,1.5-1,2.5-1.3c0.9-0.3,1.9-0.4,3-0.4
				c1.7,0,3.2,0.3,4.4,0.9c1.3,0.6,2.4,1.4,3.5,2.5l-3.1,3c-0.7-0.7-1.5-1.3-2.2-1.7c-0.8-0.4-1.7-0.6-2.7-0.6
				c-0.6,0-1.1,0.1-1.5,0.2c-0.4,0.1-0.7,0.3-1,0.4c-0.2,0.2-0.4,0.4-0.5,0.6c-0.1,0.2-0.2,0.5-0.2,0.7c0,0.4,0.1,0.6,0.2,0.9
				c0.1,0.2,0.4,0.4,0.7,0.6c0.3,0.2,0.8,0.4,1.3,0.5c0.6,0.2,1.3,0.4,2.1,0.6c0.9,0.2,1.7,0.4,2.6,0.7c0.9,0.3,1.6,0.7,2.3,1.2
				c0.7,0.5,1.3,1.1,1.7,1.9C-71.6,151.3-71.4,152.2-71.4,153.4z"/>
		</g>
		<g>
			<path class="st0" d="M-31.9,160l-3.9-7.8h-4.4v7.8h-4.3v-21.7h10.1c1,0,2,0.1,2.9,0.4c0.9,0.3,1.7,0.7,2.4,1.3
				c0.7,0.6,1.2,1.3,1.6,2.2c0.4,0.9,0.6,1.9,0.6,3c0,1.6-0.3,3-1,4c-0.7,1-1.7,1.8-3.1,2.4l4.2,8.4H-31.9z M-31.4,145.2
				c0-1-0.3-1.7-0.8-2.1c-0.5-0.4-1.3-0.6-2.3-0.6h-5.7v5.6h5.7C-32.4,148.1-31.4,147.1-31.4,145.2z"/>
		</g>
		<g>
			<path class="st0" d="M-15.9,160v-21.7h15.1v4.2h-10.7v3.8h6.2v4.2h-6.2v5.2h11.2v4.2H-15.9z"/>
		</g>
		<g>
			<path class="st0" d="M28.2,149.1c0,1.9-0.3,3.5-0.9,4.9c-0.6,1.4-1.5,2.5-2.5,3.4c-1,0.9-2.2,1.5-3.6,1.9
				c-1.3,0.4-2.7,0.6-4.1,0.6h-6.5v-21.7h6.8c1.6,0,3,0.2,4.3,0.6c1.3,0.4,2.4,1,3.4,1.9c1,0.9,1.7,2,2.3,3.4
				C27.9,145.5,28.2,147.1,28.2,149.1z M23.7,149.1c0-2.2-0.5-3.9-1.5-5c-1-1.1-2.7-1.7-5-1.7h-2.3v13.3h2.1c1.1,0,2.1-0.2,3-0.5
				c0.8-0.3,1.5-0.8,2.1-1.3c0.5-0.6,0.9-1.3,1.2-2.1C23.6,151,23.7,150.1,23.7,149.1z"/>
		</g>
	</g>
</g>
<rect x="-1190.5" y="-498.5" class="st3" width="347.6" height="58.5"/>
<rect x="-1190.5" y="-422.1" class="st3" width="347.6" height="58.5"/>
<rect x="-875.3" y="-290.6" class="st5" width="83.4" height="33.3"/>
<rect x="-824.3" y="-498.5" class="st3" width="347.6" height="58.5"/>
<rect x="-824.3" y="-422.1" class="st3" width="347.6" height="58.5"/>
<g>
	<rect x="-1448.1" y="127.6" style="fill:none;" width="283.4" height="115.3"/>
	<text transform="matrix(1 0 0 1 -1367.6659 138.9671)"><tspan x="0" y="0" class="st3" style="font-family:'RobotoCondensed-Bold'; font-size:16px; letter-spacing:4;">SANTA ROSA</tspan><tspan x="-43.5" y="34" class="st3" style="font-family:'RobotoCondensed-Bold'; font-size:16px; letter-spacing:4;">401 mendocino ave</tspan><tspan x="12.4" y="68" class="st3" style="font-family:'RobotoCondensed-Bold'; font-size:16px; letter-spacing:4;">suite 100</tspan><tspan x="-21.7" y="102" class="st3" style="font-family:'RobotoCondensed-Bold'; font-size:20px; letter-spacing:5;">707 546 5448</tspan></text>
	<rect x="-1119.6" y="127.6" style="fill:none;" width="283.4" height="115.3"/>
	<text transform="matrix(1 0 0 1 -1045 138.9671)"><tspan x="0" y="0" class="st3" style="font-family:'RobotoCondensed-Bold'; font-size:16px; letter-spacing:4;">MINNEAPOLIS</tspan><tspan x="-26.9" y="34" class="st3" style="font-family:'RobotoCondensed-Bold'; font-size:16px; letter-spacing:4;">711 hennepin ave</tspan><tspan x="18.2" y="68" class="st3" style="font-family:'RobotoCondensed-Bold'; font-size:16px; letter-spacing:4;">suite 500</tspan><tspan x="-15.9" y="102" class="st3" style="font-family:'RobotoCondensed-Bold'; font-size:20px; letter-spacing:5;">707 546 5448</tspan></text>
	<g>
		<path class="st3" d="M-1318.9,79.6c-1-2-1.6-4.2-1.6-6.6c0-7.9,6.4-14.2,14.2-14.2c7.9,0,14.2,6.4,14.2,14.2
			c0,2.4-0.6,4.6-1.6,6.6l-12.6,21.9L-1318.9,79.6z"/>
		<circle class="st1" cx="-1306.3" cy="72.9" r="7.1"/>
	</g>
	<g>
		<path class="st3" d="M-986.7,79.6c-1-2-1.6-4.2-1.6-6.6c0-7.9,6.4-14.2,14.2-14.2c7.9,0,14.2,6.4,14.2,14.2c0,2.4-0.6,4.6-1.6,6.6
			l-12.6,21.9L-986.7,79.6z"/>
		<circle class="st1" cx="-974.1" cy="72.9" r="7.1"/>
	</g>
</g>
<g>
	<g>
		<defs>
			<circle id="SVGID_5_" cx="32.3" cy="32.3" r="32.3"/>
		</defs>
		<linearGradient id="SVGID_6_" gradientUnits="userSpaceOnUse" x1="0" y1="32.2501" x2="64.5002" y2="32.2501">
			<stop  offset="0" style="stop-color:#1EA6DF"/>
			<stop  offset="1" style="stop-color:#DA4097"/>
		</linearGradient>
		<use xlink:href="#SVGID_5_"  style="overflow:visible;fill:url(#SVGID_6_);"/>
		<clipPath id="SVGID_7_">
			<use xlink:href="#SVGID_5_"  style="overflow:visible;"/>
		</clipPath>
		<g class="st6">
			<path class="st0" d="M20.4,40.7h-7v-9.8h7v-2.3c0-9.2,5.6-16.3,14-16.3c3.2,0,7.4,1,9.7,2.6l-4.7,7.5c-1-0.6-2.4-1.2-4-0.9
				c-2.9,0.7-3.7,3.2-3.7,7.2v2.1h8.6v9.8h-8.6v32.7H20.4V40.7z"/>
		</g>
	</g>
</g>
<circle class="st7" cx="-646.8" cy="152.3" r="32.3"/>
<g>
	<defs>
		<circle id="SVGID_8_" cx="-646.8" cy="152.3" r="32.3"/>
	</defs>
	<linearGradient id="SVGID_9_" gradientUnits="userSpaceOnUse" x1="-679.0946" y1="152.2501" x2="-614.5944" y2="152.2501">
		<stop  offset="0" style="stop-color:#1EA6DF"/>
		<stop  offset="1" style="stop-color:#DA4097"/>
	</linearGradient>
	<use xlink:href="#SVGID_8_"  style="overflow:visible;fill:url(#SVGID_9_);"/>
	<clipPath id="SVGID_10_">
		<use xlink:href="#SVGID_8_"  style="overflow:visible;"/>
	</clipPath>
</g>
<path class="st0" d="M-632.8,170.5h-28.1c-2.5,0-4.5-2.3-4.5-5.2v-23.7c0-4.2,2.8-6.4,5.7-6.4h27c2.5,0,4.5,2.3,4.5,5.2v24.9
	C-628.3,168.2-630.3,170.5-632.8,170.5z M-659.8,138c-2.8,0-2.9,3.6-2.9,3.6v23.7c0,1.3,0.8,2.4,1.7,2.4h28.1c0.9,0,1.7-1.1,1.7-2.4
	v-24.9c0-1.3-0.8-2.4-1.7-2.4H-659.8z"/>
<path class="st0" d="M-646.8,162.2c-4.8,0-8.7-3.9-8.7-8.7s3.9-8.7,8.7-8.7s8.7,3.9,8.7,8.7S-642,162.2-646.8,162.2z M-646.8,147.5
	c-3.3,0-6,2.7-6,6c0,3.3,2.7,6,6,6c3.3,0,6-2.7,6-6C-640.9,150.2-643.5,147.5-646.8,147.5z"/>
<path class="st0" d="M-636.5,145.2L-636.5,145.2c1.1,0,1.9-0.9,1.9-1.9l0,0c0-1.1-0.9-1.9-1.9-1.9l0,0c-1.1,0-1.9,0.9-1.9,1.9l0,0
	C-638.4,144.3-637.5,145.2-636.5,145.2z"/>
<linearGradient id="SVGID_11_" gradientUnits="userSpaceOnUse" x1="-593.7921" y1="154.5112" x2="-529.2919" y2="154.5112">
	<stop  offset="0" style="stop-color:#1EA6DF"/>
	<stop  offset="1" style="stop-color:#DA4097"/>
</linearGradient>
<circle class="st8" cx="-561.5" cy="154.5" r="32.3"/>
<g>
	<path class="st0" d="M-561.9,174.7c-10.6,0-19.2-8.6-19.2-19.2c0-10.6,8.6-19.2,19.2-19.2c10.6,0,19.2,8.6,19.2,19.2
		C-542.6,166-551.3,174.7-561.9,174.7z M-561.9,139c-9.1,0-16.5,7.4-16.5,16.5c0,9.1,7.4,16.5,16.5,16.5c9.1,0,16.5-7.4,16.5-16.5
		C-545.4,146.4-552.8,139-561.9,139z"/>
	<path class="st0" d="M-561.8,174.7c-6.8,0-12.2-8.5-12.2-19.2c0-10.8,5.4-19.2,12.2-19.2s12.2,8.5,12.2,19.2
		C-549.6,166.2-554.9,174.7-561.8,174.7z M-561.8,139c-5.1,0-9.4,7.5-9.4,16.5c0,8.9,4.3,16.5,9.4,16.5c5.1,0,9.4-7.5,9.4-16.5
		C-552.4,146.5-556.7,139-561.8,139z"/>
	<rect x="-579.7" y="154.1" class="st0" width="35.3" height="2.8"/>
	<rect x="-563.3" y="137.6" class="st0" width="2.8" height="36"/>
	<rect x="-576.9" y="145.3" class="st0" width="30.3" height="2.8"/>
	<rect x="-576.9" y="163" class="st0" width="30.3" height="2.8"/>
</g>
<rect x="-1179.7" y="-483.1" style="fill:none;" width="323" height="32.8"/>
<text transform="matrix(1 0 0 1 -1179.728 -454.6848)" class="st9" style="font-family:'RobotoCondensed-Light'; font-size:40px;">Name</text>
<rect x="-812" y="-483.1" style="fill:none;" width="323" height="32.8"/>
<text transform="matrix(1 0 0 1 -812.0256 -454.6848)" class="st9" style="font-family:'RobotoCondensed-Light'; font-size:40px;">COMPANY</text>
<rect x="-1179.5" y="-405.1" style="fill:none;" width="323" height="32.8"/>
<text transform="matrix(1 0 0 1 -1179.4656 -376.6848)" class="st9" style="font-family:'RobotoCondensed-Light'; font-size:40px;">EMAIL</text>
<rect x="-811.8" y="-405.1" style="fill:none;" width="323" height="32.8"/>
<text transform="matrix(1 0 0 1 -811.7632 -376.6848)" class="st9" style="font-family:'RobotoCondensed-Light'; font-size:40px;">PHONE</text>
<rect x="-865.3" y="-280.7" style="fill:none;" width="61.9" height="13.7"/>
<text transform="matrix(1 0 0 1 -860.9546 -268.636)" class="st3" style="font-family:'RobotoCondensed-Regular'; font-size:17.0625px; letter-spacing:1;">submi</text>
<rect x="-1253.9" y="-580" style="fill:none;" width="841.2" height="23.3"/>
<text transform="matrix(1 0 0 1 -954.4664 -563.6519)" class="st0" style="font-family:'RobotoCondensed-Bold'; font-size:23px; letter-spacing:12;">CONTACT US</text>
<g>
	<defs>
		<rect id="SVGID_12_" x="-1633.7" y="93.3" width="382.3" height="112.3"/>
	</defs>
	<clipPath id="SVGID_13_">
		<use xlink:href="#SVGID_12_"  style="overflow:visible;"/>
	</clipPath>
	<g class="st10">
		<path class="st0" d="M-1530.9,194.1h-469.8v-90h469.8V194.1z M-1996.4,189.8h461.2v-81.4h-461.2V189.8z"/>
		<g>
			<path class="st0" d="M-1956.1,142.6V160h-4.3v-17.4h-6.2v-4.3h16.8v4.3H-1956.1z"/>
		</g>
		<g>
			<path class="st0" d="M-1926.5,160v-9.1h-8.9v9.1h-4.3v-21.7h4.3v8.3h8.9v-8.3h4.3V160H-1926.5z"/>
		</g>
		<g>
			<path class="st0" d="M-1910.3,160v-21.7h15.1v4.2h-10.7v3.8h6.2v4.2h-6.2v5.2h11.2v4.2H-1910.3z"/>
		</g>
		<g>
			<path class="st0" d="M-1867.6,160v-21.7h15.1v4.2h-10.7v3.8h6.2v4.2h-6.2v5.2h11.2v4.2H-1867.6z"/>
		</g>
		<g>
			<path class="st0" d="M-1826.8,160l-8-11.8c-0.3-0.4-0.6-0.9-0.9-1.3c-0.3-0.5-0.5-0.8-0.7-1.1c0,0.2,0,0.5,0,0.9
				c0,0.4,0,0.8,0,1.3c0,0.5,0,0.9,0,1.4c0,0.5,0,0.8,0,1.1v9.6h-4.3v-21.7h4.2l7.7,11.5c0.3,0.4,0.6,0.9,0.9,1.3
				c0.3,0.5,0.5,0.8,0.7,1.1c0-0.2,0-0.5,0-0.9c0-0.4,0-0.8,0-1.3c0-0.5,0-0.9,0-1.4c0-0.5,0-0.8,0-1.1v-9.2h4.3V160H-1826.8z"/>
		</g>
		<g>
			<path class="st0" d="M-1795.4,155.3c-0.4,1.1-1,2-1.8,2.8c-0.8,0.7-1.7,1.3-2.8,1.7c-1.1,0.4-2.2,0.6-3.5,0.6
				c-1.4,0-2.7-0.3-3.9-0.8c-1.2-0.5-2.2-1.3-3-2.2c-0.8-1-1.5-2.1-1.9-3.5c-0.5-1.4-0.7-2.9-0.7-4.6c0-1.7,0.2-3.2,0.7-4.5
				c0.5-1.4,1.1-2.6,2-3.5c0.8-1,1.9-1.7,3-2.3c1.2-0.5,2.5-0.8,3.9-0.8c1.1,0,2.1,0.1,3,0.4c0.9,0.2,1.6,0.6,2.3,1.1
				c0.7,0.5,1.2,1,1.7,1.7c0.5,0.7,0.9,1.4,1.3,2.2l-4.1,1.7c-0.2-0.4-0.4-0.8-0.7-1.1c-0.2-0.4-0.5-0.7-0.8-0.9
				c-0.3-0.2-0.7-0.4-1.1-0.6c-0.4-0.1-0.9-0.2-1.5-0.2c-0.8,0-1.5,0.2-2.2,0.5c-0.6,0.3-1.2,0.8-1.6,1.4c-0.4,0.6-0.8,1.3-1,2.2
				c-0.2,0.8-0.3,1.8-0.3,2.8c0,1,0.1,1.9,0.3,2.8c0.2,0.8,0.6,1.6,1,2.2c0.4,0.6,1,1.1,1.6,1.5c0.6,0.4,1.4,0.5,2.2,0.5
				c0.7,0,1.4-0.1,1.9-0.2c0.5-0.2,0.9-0.4,1.3-0.7c0.3-0.3,0.6-0.6,0.7-1c0.2-0.4,0.3-0.8,0.4-1.3h-3.4v-4.1h7.8v2.9
				C-1794.8,153-1795,154.2-1795.4,155.3z"/>
		</g>
		<g>
			<path class="st0" d="M-1783.7,160v-21.7h4.3V160H-1783.7z"/>
		</g>
		<g>
			<path class="st0" d="M-1753.6,160l-8-11.8c-0.3-0.4-0.6-0.9-0.9-1.3c-0.3-0.5-0.5-0.8-0.7-1.1c0,0.2,0,0.5,0,0.9
				c0,0.4,0,0.8,0,1.3c0,0.5,0,0.9,0,1.4c0,0.5,0,0.8,0,1.1v9.6h-4.3v-21.7h4.2l7.7,11.5c0.3,0.4,0.6,0.9,0.9,1.3
				c0.3,0.5,0.5,0.8,0.7,1.1c0-0.2,0-0.5,0-0.9c0-0.4,0-0.8,0-1.3c0-0.5,0-0.9,0-1.4c0-0.5,0-0.8,0-1.1v-9.2h4.3V160H-1753.6z"/>
		</g>
		<g>
			<path class="st0" d="M-1737.9,160v-21.7h15.1v4.2h-10.7v3.8h6.2v4.2h-6.2v5.2h11.2v4.2H-1737.9z"/>
		</g>
		<g>
			<path class="st0" d="M-1694.9,160v-21.7h4.3V160H-1694.9z"/>
		</g>
		<g>
			<path class="st0" d="M-1663,153.4c0,1-0.2,2-0.5,2.8c-0.3,0.8-0.8,1.6-1.6,2.2c-0.7,0.6-1.6,1.1-2.7,1.4
				c-1.1,0.3-2.3,0.5-3.8,0.5c-1.8,0-3.5-0.4-5-1.1c-1.5-0.7-2.6-1.7-3.5-2.9l3.1-2.8c0.8,0.9,1.6,1.5,2.6,1.9
				c0.9,0.4,1.9,0.6,3,0.6c1.3,0,2.3-0.2,2.9-0.6c0.6-0.4,0.9-1,0.9-1.8c0-0.4-0.1-0.7-0.2-0.9s-0.4-0.5-0.7-0.7
				c-0.3-0.2-0.8-0.4-1.5-0.7c-0.6-0.2-1.5-0.4-2.5-0.7c-1-0.2-1.9-0.5-2.7-0.8c-0.8-0.3-1.6-0.7-2.2-1.2c-0.6-0.5-1.1-1.1-1.4-1.8
				c-0.3-0.7-0.5-1.6-0.5-2.7c0-1,0.2-1.9,0.6-2.7c0.4-0.8,1-1.5,1.7-2c0.7-0.5,1.5-1,2.5-1.3c0.9-0.3,1.9-0.4,3-0.4
				c1.7,0,3.2,0.3,4.4,0.9c1.3,0.6,2.4,1.4,3.5,2.5l-3.1,3c-0.7-0.7-1.5-1.3-2.2-1.7c-0.8-0.4-1.7-0.6-2.7-0.6
				c-0.6,0-1.1,0.1-1.5,0.2c-0.4,0.1-0.7,0.3-1,0.4c-0.2,0.2-0.4,0.4-0.5,0.6c-0.1,0.2-0.2,0.5-0.2,0.7c0,0.4,0.1,0.6,0.2,0.9
				c0.1,0.2,0.4,0.4,0.7,0.6c0.3,0.2,0.8,0.4,1.3,0.5c0.6,0.2,1.3,0.4,2.1,0.6c0.9,0.2,1.7,0.4,2.6,0.7c0.9,0.3,1.6,0.7,2.3,1.2
				c0.7,0.5,1.3,1.1,1.7,1.9C-1663.2,151.3-1663,152.2-1663,153.4z"/>
		</g>
		<g>
			<path class="st0" d="M-1623.5,160l-3.9-7.8h-4.4v7.8h-4.3v-21.7h10.1c1,0,2,0.1,2.9,0.4c0.9,0.3,1.7,0.7,2.4,1.3
				c0.7,0.6,1.2,1.3,1.6,2.2c0.4,0.9,0.6,1.9,0.6,3c0,1.6-0.3,3-1,4c-0.7,1-1.7,1.8-3.1,2.4l4.2,8.4H-1623.5z M-1622.9,145.2
				c0-1-0.3-1.7-0.8-2.1c-0.5-0.4-1.3-0.6-2.3-0.6h-5.7v5.6h5.7C-1624,148.1-1622.9,147.1-1622.9,145.2z"/>
		</g>
		<g>
			<path class="st0" d="M-1607.4,160v-21.7h15.1v4.2h-10.7v3.8h6.2v4.2h-6.2v5.2h11.2v4.2H-1607.4z"/>
		</g>
		<g>
			<path class="st0" d="M-1563.4,149.1c0,1.9-0.3,3.5-0.9,4.9c-0.6,1.4-1.5,2.5-2.5,3.4c-1,0.9-2.2,1.5-3.6,1.9
				c-1.3,0.4-2.7,0.6-4.1,0.6h-6.5v-21.7h6.8c1.6,0,3,0.2,4.3,0.6c1.3,0.4,2.4,1,3.4,1.9c1,0.9,1.7,2,2.3,3.4
				C-1563.6,145.5-1563.4,147.1-1563.4,149.1z M-1567.8,149.1c0-2.2-0.5-3.9-1.5-5c-1-1.1-2.7-1.7-5-1.7h-2.3v13.3h2.1
				c1.1,0,2.1-0.2,3-0.5c0.8-0.3,1.5-0.8,2.1-1.3c0.5-0.6,0.9-1.3,1.2-2.1C-1568,151-1567.8,150.1-1567.8,149.1z"/>
		</g>
	</g>
</g>
</svg>
