<?xml version="1.0" encoding="utf-8"?>
<!-- Generator: Adobe Illustrator 20.1.0, SVG Export Plug-In . SVG Version: 6.00 Build 0)  -->
<!DOCTYPE svg PUBLIC "-//W3C//DTD SVG 1.1//EN" "http://www.w3.org/Graphics/SVG/1.1/DTD/svg11.dtd">
<svg version="1.1" id="Layer_1" xmlns="http://www.w3.org/2000/svg" xmlns:xlink="http://www.w3.org/1999/xlink" x="0px" y="0px"
	 viewBox="0 0 64.5 64.5" style="enable-background:new 0 0 64.5 64.5;" xml:space="preserve">
<style type="text/css">
	.st0{fill:#FFFFFF;}
	.st1{fill:#282829;}
	.st2{fill:#00A7E6;}
	.st3{fill:#D4EFFC;}
	.st4{clip-path:url(#SVGID_4_);}
	.st5{fill:none;stroke:#D4EFFC;stroke-miterlimit:10;}
	.st6{clip-path:url(#SVGID_7_);}
	.st7{fill:#6599D1;}
	.st8{fill:url(#SVGID_11_);}
	.st9{fill:#D1D3D4;}
	.st10{clip-path:url(#SVGID_13_);}
</style>
<g>
	<defs>
		<rect id="SVGID_1_" x="-1642.6" y="-2215.1" width="1600" height="846.1"/>
	</defs>
	<clipPath id="SVGID_2_">
		<use xlink:href="#SVGID_1_"  style="overflow:visible;"/>
	</clipPath>
	<g style="clip-path:url(#SVGID_2_);">
		
	</g>
</g>
<g>
	<path class="st0" d="M-703.5-1764h-368v-70.5h368V-1764z M-1068.2-1767.3h361.3v-63.8h-361.3V-1767.3z"/>
	<g>
		<path class="st0" d="M-1036.6-1804.4v13.7h-3.4v-13.7h-4.9v-3.4h13.2v3.4H-1036.6z"/>
	</g>
	<g>
		<path class="st0" d="M-1013.3-1790.7v-7.1h-7v7.1h-3.4v-17h3.4v6.5h7v-6.5h3.4v17H-1013.3z"/>
	</g>
	<g>
		<path class="st0" d="M-1000.7-1790.7v-17h11.8v3.3h-8.4v2.9h4.9v3.3h-4.9v4.1h8.8v3.3H-1000.7z"/>
	</g>
	<g>
		<path class="st0" d="M-967.2-1790.7v-17h11.8v3.3h-8.4v2.9h4.9v3.3h-4.9v4.1h8.8v3.3H-967.2z"/>
	</g>
	<g>
		<path class="st0" d="M-935.3-1790.7l-6.2-9.3c-0.2-0.3-0.4-0.7-0.7-1c-0.2-0.4-0.4-0.7-0.5-0.9c0,0.2,0,0.4,0,0.7c0,0.3,0,0.7,0,1
			c0,0.4,0,0.7,0,1.1c0,0.4,0,0.7,0,0.9v7.5h-3.4v-17h3.3l6,9c0.2,0.3,0.4,0.7,0.7,1c0.2,0.4,0.4,0.7,0.5,0.9c0-0.2,0-0.4,0-0.7
			c0-0.3,0-0.7,0-1c0-0.4,0-0.7,0-1.1c0-0.4,0-0.7,0-0.9v-7.2h3.4v17H-935.3z"/>
	</g>
	<g>
		<path class="st0" d="M-910.7-1794.4c-0.3,0.9-0.8,1.6-1.4,2.2c-0.6,0.6-1.3,1-2.2,1.3c-0.8,0.3-1.7,0.5-2.7,0.5
			c-1.1,0-2.1-0.2-3-0.6c-0.9-0.4-1.7-1-2.3-1.8c-0.7-0.8-1.2-1.7-1.5-2.8c-0.4-1.1-0.5-2.3-0.5-3.6c0-1.3,0.2-2.5,0.6-3.6
			c0.4-1.1,0.9-2,1.6-2.8c0.7-0.8,1.5-1.4,2.4-1.8c0.9-0.4,1.9-0.6,3.1-0.6c0.9,0,1.6,0.1,2.3,0.3s1.3,0.5,1.8,0.9
			c0.5,0.4,1,0.8,1.3,1.3c0.4,0.5,0.7,1.1,1,1.8l-3.2,1.3c-0.2-0.3-0.3-0.6-0.5-0.9c-0.2-0.3-0.4-0.5-0.7-0.7
			c-0.3-0.2-0.5-0.3-0.9-0.5c-0.3-0.1-0.7-0.2-1.2-0.2c-0.6,0-1.2,0.1-1.7,0.4c-0.5,0.3-0.9,0.6-1.3,1.1c-0.3,0.5-0.6,1-0.8,1.7
			c-0.2,0.7-0.3,1.4-0.3,2.2c0,0.8,0.1,1.5,0.3,2.2c0.2,0.7,0.4,1.2,0.8,1.7c0.3,0.5,0.8,0.9,1.3,1.1c0.5,0.3,1.1,0.4,1.7,0.4
			c0.6,0,1.1-0.1,1.5-0.2c0.4-0.1,0.7-0.3,1-0.5c0.3-0.2,0.4-0.5,0.6-0.8c0.1-0.3,0.2-0.7,0.3-1h-2.7v-3.2h6.1v2.2
			C-910.2-1796.2-910.3-1795.2-910.7-1794.4z"/>
	</g>
	<g>
		<path class="st0" d="M-901.5-1790.7v-17h3.4v17H-901.5z"/>
	</g>
	<g>
		<path class="st0" d="M-877.9-1790.7l-6.2-9.3c-0.2-0.3-0.4-0.7-0.7-1c-0.2-0.4-0.4-0.7-0.5-0.9c0,0.2,0,0.4,0,0.7c0,0.3,0,0.7,0,1
			c0,0.4,0,0.7,0,1.1c0,0.4,0,0.7,0,0.9v7.5h-3.4v-17h3.3l6,9c0.2,0.3,0.4,0.7,0.7,1c0.2,0.4,0.4,0.7,0.5,0.9c0-0.2,0-0.4,0-0.7
			c0-0.3,0-0.7,0-1c0-0.4,0-0.7,0-1.1c0-0.4,0-0.7,0-0.9v-7.2h3.4v17H-877.9z"/>
	</g>
	<g>
		<path class="st0" d="M-865.6-1790.7v-17h11.8v3.3h-8.4v2.9h4.9v3.3h-4.9v4.1h8.8v3.3H-865.6z"/>
	</g>
	<g>
		<path class="st0" d="M-831.9-1790.7v-17h3.4v17H-831.9z"/>
	</g>
	<g>
		<path class="st0" d="M-806.9-1795.9c0,0.8-0.1,1.5-0.4,2.2c-0.3,0.7-0.7,1.2-1.2,1.7c-0.6,0.5-1.2,0.8-2.1,1.1
			c-0.8,0.3-1.8,0.4-3,0.4c-1.4,0-2.7-0.3-3.9-0.8c-1.2-0.6-2.1-1.3-2.7-2.3l2.5-2.2c0.6,0.7,1.3,1.2,2,1.5c0.7,0.3,1.5,0.4,2.3,0.4
			c1,0,1.8-0.1,2.2-0.4c0.5-0.3,0.7-0.8,0.7-1.4c0-0.3,0-0.5-0.1-0.7c-0.1-0.2-0.3-0.4-0.5-0.6c-0.3-0.2-0.7-0.3-1.2-0.5
			c-0.5-0.2-1.1-0.3-1.9-0.5c-0.8-0.2-1.5-0.4-2.1-0.6c-0.7-0.2-1.2-0.6-1.7-0.9c-0.5-0.4-0.8-0.8-1.1-1.4c-0.3-0.6-0.4-1.3-0.4-2.1
			c0-0.8,0.2-1.5,0.5-2.1c0.3-0.6,0.7-1.1,1.3-1.6c0.6-0.4,1.2-0.8,1.9-1c0.7-0.2,1.5-0.3,2.4-0.3c1.3,0,2.5,0.2,3.5,0.7
			c1,0.5,1.9,1.1,2.7,2l-2.5,2.4c-0.6-0.6-1.1-1-1.8-1.3c-0.6-0.3-1.3-0.4-2.1-0.4c-0.5,0-0.8,0-1.1,0.1c-0.3,0.1-0.6,0.2-0.8,0.4
			c-0.2,0.1-0.3,0.3-0.4,0.5c-0.1,0.2-0.1,0.4-0.1,0.6c0,0.3,0.1,0.5,0.2,0.7c0.1,0.2,0.3,0.4,0.5,0.5c0.3,0.1,0.6,0.3,1,0.4
			s1,0.3,1.7,0.4c0.7,0.2,1.4,0.4,2,0.6c0.7,0.2,1.3,0.5,1.8,0.9c0.5,0.4,1,0.9,1.3,1.5C-807.1-1797.5-806.9-1796.8-806.9-1795.9z"
			/>
	</g>
</g>
<g>
	<path class="st1" d="M-788-1790.4v-17.7h12.3v3.5h-8.8v3.1h5.1v3.4h-5.1v4.3h9.1v3.5H-788z"/>
	<path class="st1" d="M-757.7-1790.4l-1.6-2.7c-0.6-1.1-1.6-2.8-1.9-3.5c-0.3,0.7-1.3,2.4-1.9,3.5l-1.6,2.7h-4.2l5.6-9.1l-5.4-8.7
		h4.2l1.3,2.3c0.6,1.1,1.6,2.8,1.9,3.5c0.3-0.7,1.3-2.4,1.9-3.5l1.3-2.3h4.2l-5.4,8.7l5.6,9.1H-757.7z"/>
	<path class="st1" d="M-738.8-1796.6h-3.9v6.3h-3.5v-17.7h7.7c3.3,0,6.1,1.8,6.1,5.6C-732.4-1798.4-735.1-1796.6-738.8-1796.6z
		 M-738.6-1804.6h-4.1v4.6h4.1c1.6,0,2.5-0.8,2.5-2.3C-736.1-1803.9-737.1-1804.6-738.6-1804.6z"/>
	<path class="st1" d="M-725.3-1790.4v-17.7h3.5v14.2h8.9v3.5H-725.3z"/>
	<path class="st1" d="M-699.7-1790.1c-4.8,0-7.7-3.7-7.7-9.1c0-5.4,2.9-9.1,7.7-9.1c4.8,0,7.7,3.7,7.7,9.1
		C-692-1793.8-694.9-1790.1-699.7-1790.1z M-699.7-1804.8c-2.9,0-4,2.5-4,5.6s1.2,5.6,4,5.6c2.9,0,4-2.5,4-5.6
		S-696.8-1804.8-699.7-1804.8z"/>
	<path class="st1" d="M-674.3-1790.4l-3.2-6.4h-3.6v6.4h-3.5v-17.7h8.2c3.3,0,6.1,1.8,6.1,5.6c0,2.7-1.1,4.3-3.4,5.2l3.4,6.9H-674.3
		z M-676.4-1804.6h-4.6v4.6h4.6c1.6,0,2.5-0.8,2.5-2.3C-673.9-1804-674.9-1804.6-676.4-1804.6z"/>
	<path class="st1" d="M-662.5-1790.4v-17.7h3.5v17.7H-662.5z"/>
	<path class="st1" d="M-639.2-1790.4l-6.5-9.7c-0.4-0.7-1-1.5-1.2-2c0,0.7,0.1,2.9,0.1,3.9v7.8h-3.5v-17.7h3.4l6.3,9.4
		c0.4,0.7,1,1.5,1.2,2c0-0.7-0.1-2.9-0.1-3.9v-7.5h3.5v17.7H-639.2z"/>
	<path class="st1" d="M-620.9-1790.1c-4.6,0-7.7-3.5-7.7-9.1c0-5.4,3.2-9.1,7.9-9.1c3.6,0,5.5,1.7,6.7,4.4l-3.4,1.4
		c-0.7-1.3-1.5-2.3-3.4-2.3c-2.7,0-4.2,2.3-4.2,5.6c0,3.3,1.5,5.7,4.2,5.7c2.4,0,3.3-1.1,3.5-2.7h-2.8v-3.3h6.3v2.3
		C-613.8-1792.7-616.8-1790.1-620.9-1790.1z"/>
</g>
<g>
	<path class="st0" d="M408.8-2301.5H-27.7v-83.6h436.5V-2301.5z M-23.7-2305.4h428.5v-75.7H-23.7V-2305.4z"/>
	<g>
		<path class="st0" d="M13.8-2349.4v16.2h-4v-16.2H3.9v-4h15.6v4H13.8z"/>
	</g>
	<g>
		<path class="st0" d="M41.3-2333.2v-8.5H33v8.5h-4v-20.2h4v7.7h8.3v-7.7h4v20.2H41.3z"/>
	</g>
	<g>
		<path class="st0" d="M56.3-2333.2v-20.2h14v3.9h-10v3.5h5.8v3.9h-5.8v4.9h10.4v3.9H56.3z"/>
	</g>
	<g>
		<path class="st0" d="M96-2333.2v-20.2h14v3.9h-10v3.5h5.8v3.9H100v4.9h10.4v3.9H96z"/>
	</g>
	<g>
		<path class="st0" d="M133.9-2333.2l-7.4-11c-0.2-0.4-0.5-0.8-0.8-1.2c-0.3-0.4-0.5-0.8-0.6-1.1c0,0.2,0,0.5,0,0.9
			c0,0.4,0,0.8,0,1.2s0,0.9,0,1.3c0,0.4,0,0.8,0,1.1v8.9h-4v-20.2h3.9l7.1,10.7c0.2,0.4,0.5,0.8,0.8,1.2c0.3,0.4,0.5,0.8,0.6,1.1
			c0-0.2,0-0.5,0-0.8c0-0.4,0-0.8,0-1.2c0-0.4,0-0.9,0-1.3c0-0.4,0-0.8,0-1.1v-8.5h4v20.2H133.9z"/>
	</g>
	<g>
		<path class="st0" d="M163-2337.5c-0.4,1-1,1.9-1.7,2.6s-1.6,1.2-2.6,1.6c-1,0.4-2.1,0.5-3.2,0.5c-1.3,0-2.5-0.2-3.6-0.7
			c-1.1-0.5-2-1.2-2.8-2.1c-0.8-0.9-1.4-2-1.8-3.3c-0.4-1.3-0.6-2.7-0.6-4.3c0-1.5,0.2-2.9,0.7-4.2c0.4-1.3,1.1-2.4,1.8-3.3
			c0.8-0.9,1.7-1.6,2.8-2.1c1.1-0.5,2.3-0.8,3.6-0.8c1,0,2,0.1,2.8,0.3c0.8,0.2,1.5,0.6,2.1,1c0.6,0.4,1.1,1,1.6,1.6
			c0.5,0.6,0.8,1.3,1.2,2.1l-3.8,1.6c-0.2-0.4-0.4-0.7-0.6-1c-0.2-0.3-0.5-0.6-0.8-0.8c-0.3-0.2-0.6-0.4-1.1-0.5
			c-0.4-0.1-0.9-0.2-1.4-0.2c-0.7,0-1.4,0.2-2,0.5c-0.6,0.3-1.1,0.8-1.5,1.3c-0.4,0.6-0.7,1.2-0.9,2c-0.2,0.8-0.3,1.6-0.3,2.6
			c0,0.9,0.1,1.8,0.3,2.6c0.2,0.8,0.5,1.5,0.9,2c0.4,0.6,0.9,1,1.5,1.4c0.6,0.3,1.3,0.5,2,0.5c0.7,0,1.3-0.1,1.8-0.2
			c0.5-0.2,0.9-0.4,1.2-0.6c0.3-0.3,0.5-0.6,0.7-1c0.2-0.4,0.3-0.8,0.3-1.2h-3.2v-3.8h7.2v2.7C163.7-2339.7,163.5-2338.5,163-2337.5
			z"/>
	</g>
	<g>
		<path class="st0" d="M174-2333.2v-20.2h4v20.2H174z"/>
	</g>
	<g>
		<path class="st0" d="M201.9-2333.2l-7.4-11c-0.2-0.4-0.5-0.8-0.8-1.2c-0.3-0.4-0.5-0.8-0.6-1.1c0,0.2,0,0.5,0,0.9
			c0,0.4,0,0.8,0,1.2s0,0.9,0,1.3c0,0.4,0,0.8,0,1.1v8.9h-4v-20.2h3.9l7.1,10.7c0.2,0.4,0.5,0.8,0.8,1.2c0.3,0.4,0.5,0.8,0.6,1.1
			c0-0.2,0-0.5,0-0.8c0-0.4,0-0.8,0-1.2c0-0.4,0-0.9,0-1.3c0-0.4,0-0.8,0-1.1v-8.5h4v20.2H201.9z"/>
	</g>
	<g>
		<path class="st0" d="M216.5-2333.2v-20.2h14v3.9h-10v3.5h5.8v3.9h-5.8v4.9h10.4v3.9H216.5z"/>
	</g>
	<g>
		<path class="st0" d="M256.4-2333.2v-20.2h4v20.2H256.4z"/>
	</g>
	<g>
		<path class="st0" d="M286.1-2339.3c0,1-0.2,1.8-0.5,2.6c-0.3,0.8-0.8,1.5-1.4,2c-0.7,0.6-1.5,1-2.5,1.3c-1,0.3-2.2,0.5-3.6,0.5
			c-1.7,0-3.2-0.3-4.6-1c-1.4-0.7-2.5-1.5-3.2-2.7l2.9-2.6c0.7,0.8,1.5,1.4,2.4,1.8c0.9,0.4,1.8,0.5,2.8,0.5c1.2,0,2.1-0.2,2.7-0.5
			c0.6-0.3,0.9-0.9,0.9-1.7c0-0.3-0.1-0.6-0.2-0.8s-0.3-0.5-0.6-0.7c-0.3-0.2-0.8-0.4-1.4-0.6c-0.6-0.2-1.4-0.4-2.3-0.6
			c-0.9-0.2-1.8-0.5-2.5-0.7c-0.8-0.3-1.4-0.7-2-1.1c-0.6-0.4-1-1-1.3-1.7c-0.3-0.7-0.5-1.5-0.5-2.5c0-0.9,0.2-1.7,0.6-2.5
			c0.4-0.7,0.9-1.3,1.5-1.9c0.7-0.5,1.4-0.9,2.3-1.2c0.9-0.3,1.8-0.4,2.8-0.4c1.6,0,3,0.3,4.1,0.8c1.2,0.6,2.3,1.3,3.2,2.3l-2.9,2.8
			c-0.7-0.7-1.3-1.2-2.1-1.5c-0.7-0.4-1.6-0.5-2.5-0.5c-0.5,0-1,0.1-1.4,0.2c-0.4,0.1-0.7,0.2-0.9,0.4c-0.2,0.2-0.4,0.4-0.5,0.6
			c-0.1,0.2-0.1,0.4-0.1,0.7c0,0.3,0.1,0.6,0.2,0.8c0.1,0.2,0.3,0.4,0.6,0.6c0.3,0.2,0.7,0.3,1.2,0.5c0.5,0.2,1.2,0.3,2,0.5
			c0.8,0.2,1.6,0.4,2.4,0.7c0.8,0.3,1.5,0.6,2.2,1.1c0.6,0.5,1.2,1,1.6,1.8C285.9-2341.3,286.1-2340.4,286.1-2339.3z"/>
	</g>
	<g>
		<path class="st0" d="M322.8-2333.2l-3.6-7.3h-4.1v7.3h-4v-20.2h9.4c0.9,0,1.8,0.1,2.7,0.4c0.8,0.3,1.6,0.7,2.2,1.2
			c0.6,0.5,1.1,1.2,1.5,2c0.4,0.8,0.5,1.7,0.5,2.8c0,1.5-0.3,2.8-1,3.7c-0.6,1-1.6,1.7-2.9,2.2l3.9,7.8H322.8z M323.3-2346.9
			c0-0.9-0.3-1.6-0.8-2c-0.5-0.4-1.2-0.6-2.1-0.6h-5.3v5.2h5.3C322.3-2344.2,323.3-2345.1,323.3-2346.9z"/>
	</g>
	<g>
		<path class="st0" d="M337.7-2333.2v-20.2h14v3.9h-10v3.5h5.8v3.9h-5.8v4.9h10.4v3.9H337.7z"/>
	</g>
	<g>
		<path class="st0" d="M378.6-2343.3c0,1.8-0.3,3.3-0.9,4.6c-0.6,1.3-1.4,2.3-2.3,3.1c-1,0.8-2.1,1.4-3.3,1.8
			c-1.2,0.4-2.5,0.6-3.8,0.6h-6v-20.2h6.3c1.4,0,2.8,0.2,4,0.5c1.2,0.4,2.3,0.9,3.2,1.7c0.9,0.8,1.6,1.8,2.1,3.1
			C378.4-2346.7,378.6-2345.1,378.6-2343.3z M374.5-2343.3c0-2.1-0.5-3.6-1.4-4.6c-0.9-1-2.5-1.5-4.6-1.5h-2.1v12.3h2
			c1.1,0,2-0.1,2.8-0.4c0.8-0.3,1.4-0.7,1.9-1.3c0.5-0.5,0.9-1.2,1.1-1.9C374.4-2341.5,374.5-2342.3,374.5-2343.3z"/>
	</g>
</g>
<rect x="426.3" y="-2353.4" style="fill:none;" width="214.9" height="23.3"/>
<text transform="matrix(1 0 0 1 426.2759 -2332.052)" style="font-family:'Interstate-Bold'; font-size:30px; letter-spacing:4;">EXPLORING</text>
<rect x="-1642.6" y="-1368.9" class="st1" width="1600" height="576.9"/>
<rect x="-1658.6" y="-583.1" class="st1" width="1600" height="576.9"/>
<rect x="-1642.6" y="-792" class="st2" width="1600" height="576.9"/>
<rect x="-1264.2" y="-1462" style="fill:none;" width="841.2" height="23.3"/>
<text transform="matrix(1 0 0 1 -1200.0598 -1445.652)" class="st0" style="font-family:'RobotoCondensed-Bold'; font-size:23px; letter-spacing:12;">The Pursuit of a Better Agency</text>
<rect x="-1200" y="-1254.5" style="fill:none;" width="713.9" height="351"/>
<text transform="matrix(1 0 0 1 -1199.9801 -1240.9796)"><tspan x="0" y="0" class="st3" style="font-family:'RobotoCondensed-Bold'; font-size:19px; letter-spacing:9;">As</tspan><tspan x="40" y="0" class="st3" style="font-family:'RobotoCondensed-Bold'; font-size:19px; letter-spacing:21;"> </tspan><tspan x="65.7" y="0" class="st3" style="font-family:'RobotoCondensed-Bold'; font-size:19px; letter-spacing:9;">we</tspan><tspan x="110.2" y="0" class="st3" style="font-family:'RobotoCondensed-Bold'; font-size:19px; letter-spacing:21;"> </tspan><tspan x="135.9" y="0" class="st3" style="font-family:'RobotoCondensed-Bold'; font-size:19px; letter-spacing:9;">grow,</tspan><tspan x="239" y="0" class="st3" style="font-family:'RobotoCondensed-Bold'; font-size:19px; letter-spacing:21;"> </tspan><tspan x="264.8" y="0" class="st3" style="font-family:'RobotoCondensed-Bold'; font-size:19px; letter-spacing:9;">change,</tspan><tspan x="404.4" y="0" class="st3" style="font-family:'RobotoCondensed-Bold'; font-size:19px; letter-spacing:21;"> </tspan><tspan x="430.1" y="0" class="st3" style="font-family:'RobotoCondensed-Bold'; font-size:19px; letter-spacing:9;">learn</tspan><tspan x="530.3" y="0" class="st3" style="font-family:'RobotoCondensed-Bold'; font-size:19px; letter-spacing:21;"> </tspan><tspan x="556" y="0" class="st3" style="font-family:'RobotoCondensed-Bold'; font-size:19px; letter-spacing:9;">and</tspan><tspan x="621.3" y="0" class="st3" style="font-family:'RobotoCondensed-Bold'; font-size:19px; letter-spacing:21;"> </tspan><tspan x="647.1" y="0" class="st3" style="font-family:'RobotoCondensed-Bold'; font-size:19px; letter-spacing:9;">seek </tspan><tspan x="0" y="42" class="st3" style="font-family:'RobotoCondensed-Bold'; font-size:19px; letter-spacing:9;">ourselves</tspan><tspan x="178.1" y="42" class="st3" style="font-family:'RobotoCondensed-Bold'; font-size:19px; letter-spacing:22;"> </tspan><tspan x="204.6" y="42" class="st3" style="font-family:'RobotoCondensed-Bold'; font-size:19px; letter-spacing:9;">to</tspan><tspan x="246.1" y="42" class="st3" style="font-family:'RobotoCondensed-Bold'; font-size:19px; letter-spacing:22;"> </tspan><tspan x="272.6" y="42" class="st3" style="font-family:'RobotoCondensed-Bold'; font-size:19px; letter-spacing:9;">constantly</tspan><tspan x="475.9" y="42" class="st3" style="font-family:'RobotoCondensed-Bold'; font-size:19px; letter-spacing:22;"> </tspan><tspan x="502.4" y="42" class="st3" style="font-family:'RobotoCondensed-Bold'; font-size:19px; letter-spacing:9;">improve,</tspan><tspan x="655.5" y="42" class="st3" style="font-family:'RobotoCondensed-Bold'; font-size:19px; letter-spacing:22;"> </tspan><tspan x="682" y="42" class="st3" style="font-family:'RobotoCondensed-Bold'; font-size:19px; letter-spacing:9;">so </tspan><tspan x="0" y="84" class="st3" style="font-family:'RobotoCondensed-Bold'; font-size:19px; letter-spacing:9;">too</tspan><tspan x="64.1" y="84" class="st3" style="font-family:'RobotoCondensed-Bold'; font-size:19px; letter-spacing:18;"> </tspan><tspan x="86.3" y="84" class="st3" style="font-family:'RobotoCondensed-Bold'; font-size:19px; letter-spacing:9;">must</tspan><tspan x="170.7" y="84" class="st3" style="font-family:'RobotoCondensed-Bold'; font-size:19px; letter-spacing:18;"> </tspan><tspan x="192.8" y="84" class="st3" style="font-family:'RobotoCondensed-Bold'; font-size:19px; letter-spacing:9;">our</tspan><tspan x="256.9" y="84" class="st3" style="font-family:'RobotoCondensed-Bold'; font-size:19px; letter-spacing:18;"> </tspan><tspan x="279.1" y="84" class="st3" style="font-family:'RobotoCondensed-Bold'; font-size:19px; letter-spacing:9;">brand</tspan><tspan x="383.9" y="84" class="st3" style="font-family:'RobotoCondensed-Bold'; font-size:19px; letter-spacing:18;"> </tspan><tspan x="406.1" y="84" class="st3" style="font-family:'RobotoCondensed-Bold'; font-size:19px; letter-spacing:9;">reflect</tspan><tspan x="540.2" y="84" class="st3" style="font-family:'RobotoCondensed-Bold'; font-size:19px; letter-spacing:18;"> </tspan><tspan x="562.3" y="84" class="st3" style="font-family:'RobotoCondensed-Bold'; font-size:19px; letter-spacing:9;">that.</tspan><tspan x="656.7" y="84" class="st3" style="font-family:'RobotoCondensed-Bold'; font-size:19px; letter-spacing:18;"> </tspan><tspan x="678.8" y="84" class="st3" style="font-family:'RobotoCondensed-Bold'; font-size:19px; letter-spacing:9;">No </tspan><tspan x="0" y="126" class="st3" style="font-family:'RobotoCondensed-Bold'; font-size:19px; letter-spacing:9;">clinging</tspan><tspan x="154.6" y="126" class="st3" style="font-family:'RobotoCondensed-Bold'; font-size:19px; letter-spacing:7;"> </tspan><tspan x="166.4" y="126" class="st3" style="font-family:'RobotoCondensed-Bold'; font-size:19px; letter-spacing:9;">to</tspan><tspan x="207.9" y="126" class="st3" style="font-family:'RobotoCondensed-Bold'; font-size:19px; letter-spacing:7;"> </tspan><tspan x="219.7" y="126" class="st3" style="font-family:'RobotoCondensed-Bold'; font-size:19px; letter-spacing:9;">the</tspan><tspan x="279.3" y="126" class="st3" style="font-family:'RobotoCondensed-Bold'; font-size:19px; letter-spacing:7;"> </tspan><tspan x="291.1" y="126" class="st3" style="font-family:'RobotoCondensed-Bold'; font-size:19px; letter-spacing:9;">comfort</tspan><tspan x="439" y="126" class="st3" style="font-family:'RobotoCondensed-Bold'; font-size:19px; letter-spacing:7;"> </tspan><tspan x="450.7" y="126" class="st3" style="font-family:'RobotoCondensed-Bold'; font-size:19px; letter-spacing:9;">of</tspan><tspan x="492.1" y="126" class="st3" style="font-family:'RobotoCondensed-Bold'; font-size:19px; letter-spacing:7;"> </tspan><tspan x="503.8" y="126" class="st3" style="font-family:'RobotoCondensed-Bold'; font-size:19px; letter-spacing:9;">the</tspan><tspan x="563.5" y="126" class="st3" style="font-family:'RobotoCondensed-Bold'; font-size:19px; letter-spacing:7;"> </tspan><tspan x="575.3" y="126" class="st3" style="font-family:'RobotoCondensed-Bold'; font-size:19px; letter-spacing:9;">past.</tspan><tspan x="667.2" y="126" class="st3" style="font-family:'RobotoCondensed-Bold'; font-size:19px; letter-spacing:7;"> </tspan><tspan x="679" y="126" class="st3" style="font-family:'RobotoCondensed-Bold'; font-size:19px; letter-spacing:9;">We </tspan><tspan x="0" y="168" class="st3" style="font-family:'RobotoCondensed-Bold'; font-size:19px; letter-spacing:9;">must</tspan><tspan x="84.4" y="168" class="st3" style="font-family:'RobotoCondensed-Bold'; font-size:19px; letter-spacing:22;"> </tspan><tspan x="110.9" y="168" class="st3" style="font-family:'RobotoCondensed-Bold'; font-size:19px; letter-spacing:9;">push</tspan><tspan x="193.1" y="168" class="st3" style="font-family:'RobotoCondensed-Bold'; font-size:19px; letter-spacing:22;"> </tspan><tspan x="219.6" y="168" class="st3" style="font-family:'RobotoCondensed-Bold'; font-size:19px; letter-spacing:9;">forward.</tspan><tspan x="382.7" y="168" class="st3" style="font-family:'RobotoCondensed-Bold'; font-size:19px; letter-spacing:22;"> </tspan><tspan x="409.2" y="168" class="st3" style="font-family:'RobotoCondensed-Bold'; font-size:19px; letter-spacing:9;">We</tspan><tspan x="453.6" y="168" class="st3" style="font-family:'RobotoCondensed-Bold'; font-size:19px; letter-spacing:22;"> </tspan><tspan x="480.1" y="168" class="st3" style="font-family:'RobotoCondensed-Bold'; font-size:19px; letter-spacing:9;">must</tspan><tspan x="564.5" y="168" class="st3" style="font-family:'RobotoCondensed-Bold'; font-size:19px; letter-spacing:22;"> </tspan><tspan x="591" y="168" class="st3" style="font-family:'RobotoCondensed-Bold'; font-size:19px; letter-spacing:9;">evolve. </tspan><tspan x="0" y="210" class="st3" style="font-family:'RobotoCondensed-Bold'; font-size:19px; letter-spacing:9;">Which</tspan><tspan x="103.9" y="210" class="st3" style="font-family:'RobotoCondensed-Bold'; font-size:19px; letter-spacing:14;"> </tspan><tspan x="122.2" y="210" class="st3" style="font-family:'RobotoCondensed-Bold'; font-size:19px; letter-spacing:9;">brings</tspan><tspan x="238.4" y="210" class="st3" style="font-family:'RobotoCondensed-Bold'; font-size:19px; letter-spacing:14;"> </tspan><tspan x="256.7" y="210" class="st3" style="font-family:'RobotoCondensed-Bold'; font-size:19px; letter-spacing:9;">us</tspan><tspan x="297.4" y="210" class="st3" style="font-family:'RobotoCondensed-Bold'; font-size:19px; letter-spacing:14;"> </tspan><tspan x="315.7" y="210" class="st3" style="font-family:'RobotoCondensed-Bold'; font-size:19px; letter-spacing:9;">here,</tspan><tspan x="408.4" y="210" class="st3" style="font-family:'RobotoCondensed-Bold'; font-size:19px; letter-spacing:14;"> </tspan><tspan x="426.7" y="210" class="st3" style="font-family:'RobotoCondensed-Bold'; font-size:19px; letter-spacing:9;">to</tspan><tspan x="468.2" y="210" class="st3" style="font-family:'RobotoCondensed-Bold'; font-size:19px; letter-spacing:14;"> </tspan><tspan x="486.5" y="210" class="st3" style="font-family:'RobotoCondensed-Bold'; font-size:19px; letter-spacing:9;">the</tspan><tspan x="546.2" y="210" class="st3" style="font-family:'RobotoCondensed-Bold'; font-size:19px; letter-spacing:14;"> </tspan><tspan x="564.5" y="210" class="st3" style="font-family:'RobotoCondensed-Bold'; font-size:19px; letter-spacing:9;">verge</tspan><tspan x="663.8" y="210" class="st3" style="font-family:'RobotoCondensed-Bold'; font-size:19px; letter-spacing:14;"> </tspan><tspan x="682.1" y="210" class="st3" style="font-family:'RobotoCondensed-Bold'; font-size:19px; letter-spacing:9;">of </tspan><tspan x="0" y="252" class="st3" style="font-family:'RobotoCondensed-Bold'; font-size:19px; letter-spacing:9;">an</tspan><tspan x="43.1" y="252" class="st3" style="font-family:'RobotoCondensed-Bold'; font-size:19px; letter-spacing:23;"> </tspan><tspan x="71.1" y="252" class="st3" style="font-family:'RobotoCondensed-Bold'; font-size:19px; letter-spacing:9;">exhilarating</tspan><tspan x="303.4" y="252" class="st3" style="font-family:'RobotoCondensed-Bold'; font-size:19px; letter-spacing:23;"> </tspan><tspan x="331.4" y="252" class="st3" style="font-family:'RobotoCondensed-Bold'; font-size:19px; letter-spacing:9;">new</tspan><tspan x="397.8" y="252" class="st3" style="font-family:'RobotoCondensed-Bold'; font-size:19px; letter-spacing:23;"> </tspan><tspan x="425.8" y="252" class="st3" style="font-family:'RobotoCondensed-Bold'; font-size:19px; letter-spacing:9;">chapter</tspan><tspan x="566.5" y="252" class="st3" style="font-family:'RobotoCondensed-Bold'; font-size:19px; letter-spacing:23;"> </tspan><tspan x="594.4" y="252" class="st3" style="font-family:'RobotoCondensed-Bold'; font-size:19px; letter-spacing:9;">of</tspan><tspan x="635.8" y="252" class="st3" style="font-family:'RobotoCondensed-Bold'; font-size:19px; letter-spacing:23;"> </tspan><tspan x="663.7" y="252" class="st3" style="font-family:'RobotoCondensed-Bold'; font-size:19px; letter-spacing:9;">the </tspan><tspan x="0" y="294" class="st3" style="font-family:'RobotoCondensed-Bold'; font-size:19px; letter-spacing:9;">Engine,</tspan><tspan x="130.9" y="294" class="st3" style="font-family:'RobotoCondensed-Bold'; font-size:19px; letter-spacing:24;"> </tspan><tspan x="159.9" y="294" class="st3" style="font-family:'RobotoCondensed-Bold'; font-size:19px; letter-spacing:9;">eagerly</tspan><tspan x="298.4" y="294" class="st3" style="font-family:'RobotoCondensed-Bold'; font-size:19px; letter-spacing:24;"> </tspan><tspan x="327.4" y="294" class="st3" style="font-family:'RobotoCondensed-Bold'; font-size:19px; letter-spacing:9;">awaiting</tspan><tspan x="486" y="294" class="st3" style="font-family:'RobotoCondensed-Bold'; font-size:19px; letter-spacing:24;"> </tspan><tspan x="515" y="294" class="st3" style="font-family:'RobotoCondensed-Bold'; font-size:19px; letter-spacing:9;">the</tspan><tspan x="574.6" y="294" class="st3" style="font-family:'RobotoCondensed-Bold'; font-size:19px; letter-spacing:24;"> </tspan><tspan x="603.6" y="294" class="st3" style="font-family:'RobotoCondensed-Bold'; font-size:19px; letter-spacing:9;">future </tspan><tspan x="0" y="336" class="st3" style="font-family:'RobotoCondensed-Bold'; font-size:19px; letter-spacing:9;">and</tspan><tspan x="65.3" y="336" class="st3" style="font-family:'RobotoCondensed-Bold'; font-size:19px; letter-spacing:14;"> </tspan><tspan x="84.1" y="336" class="st3" style="font-family:'RobotoCondensed-Bold'; font-size:19px; letter-spacing:9;">exploring</tspan><tspan x="261.5" y="336" class="st3" style="font-family:'RobotoCondensed-Bold'; font-size:19px; letter-spacing:14;"> </tspan><tspan x="280.3" y="336" class="st3" style="font-family:'RobotoCondensed-Bold'; font-size:19px; letter-spacing:9;">the</tspan><tspan x="340" y="336" class="st3" style="font-family:'RobotoCondensed-Bold'; font-size:19px; letter-spacing:14;"> </tspan><tspan x="358.8" y="336" class="st3" style="font-family:'RobotoCondensed-Bold'; font-size:19px; letter-spacing:9;">limits</tspan><tspan x="467.9" y="336" class="st3" style="font-family:'RobotoCondensed-Bold'; font-size:19px; letter-spacing:14;"> </tspan><tspan x="486.7" y="336" class="st3" style="font-family:'RobotoCondensed-Bold'; font-size:19px; letter-spacing:9;">of</tspan><tspan x="528.1" y="336" class="st3" style="font-family:'RobotoCondensed-Bold'; font-size:19px; letter-spacing:14;"> </tspan><tspan x="546.9" y="336" class="st3" style="font-family:'RobotoCondensed-Bold'; font-size:19px; letter-spacing:9;">what</tspan><tspan x="634.4" y="336" class="st3" style="font-family:'RobotoCondensed-Bold'; font-size:19px; letter-spacing:14;"> </tspan><tspan x="653.2" y="336" class="st3" style="font-family:'RobotoCondensed-Bold'; font-size:19px; letter-spacing:9;">lies </tspan></text>
<g>
	<defs>
		<rect id="SVGID_3_" x="-425.6" y="14.3" width="382.3" height="112.3"/>
	</defs>
	<clipPath id="SVGID_4_">
		<use xlink:href="#SVGID_3_"  style="overflow:visible;"/>
	</clipPath>
	<g class="st4">
		<path class="st0" d="M51.7,115.1h-469.8v-90H51.7V115.1z M-413.8,110.8H47.4V29.4h-461.2V110.8z"/>
		<g>
			<path class="st0" d="M-373.5,63.6V81h-4.3V63.6h-6.2v-4.3h16.8v4.3H-373.5z"/>
		</g>
		<g>
			<path class="st0" d="M-343.8,81v-9.1h-8.9V81h-4.3V59.3h4.3v8.3h8.9v-8.3h4.3V81H-343.8z"/>
		</g>
		<g>
			<path class="st0" d="M-327.6,81V59.3h15.1v4.2h-10.7v3.8h6.2v4.2h-6.2v5.2h11.2V81H-327.6z"/>
		</g>
		<g>
			<path class="st0" d="M-285,81V59.3h15.1v4.2h-10.7v3.8h6.2v4.2h-6.2v5.2h11.2V81H-285z"/>
		</g>
		<g>
			<path class="st0" d="M-244.2,81l-8-11.8c-0.3-0.4-0.6-0.9-0.9-1.3c-0.3-0.5-0.5-0.8-0.7-1.1c0,0.2,0,0.5,0,0.9c0,0.4,0,0.8,0,1.3
				s0,0.9,0,1.4c0,0.5,0,0.8,0,1.1V81h-4.3V59.3h4.2l7.7,11.5c0.3,0.4,0.6,0.9,0.9,1.3c0.3,0.5,0.5,0.8,0.7,1.1c0-0.2,0-0.5,0-0.9
				c0-0.4,0-0.8,0-1.3s0-0.9,0-1.4c0-0.5,0-0.8,0-1.1v-9.2h4.3V81H-244.2z"/>
		</g>
		<g>
			<path class="st0" d="M-212.8,76.3c-0.4,1.1-1,2-1.8,2.8c-0.8,0.7-1.7,1.3-2.8,1.7c-1.1,0.4-2.2,0.6-3.5,0.6
				c-1.4,0-2.7-0.3-3.9-0.8c-1.2-0.5-2.2-1.3-3-2.2c-0.8-1-1.5-2.1-1.9-3.5c-0.5-1.4-0.7-2.9-0.7-4.6c0-1.7,0.2-3.2,0.7-4.5
				c0.5-1.4,1.1-2.6,2-3.5c0.8-1,1.9-1.7,3-2.3c1.2-0.5,2.5-0.8,3.9-0.8c1.1,0,2.1,0.1,3,0.4c0.9,0.2,1.6,0.6,2.3,1.1
				c0.7,0.5,1.2,1,1.7,1.7c0.5,0.7,0.9,1.4,1.3,2.2l-4.1,1.7c-0.2-0.4-0.4-0.8-0.7-1.1c-0.2-0.4-0.5-0.7-0.8-0.9
				c-0.3-0.2-0.7-0.4-1.1-0.6c-0.4-0.1-0.9-0.2-1.5-0.2c-0.8,0-1.5,0.2-2.2,0.5c-0.6,0.3-1.2,0.8-1.6,1.4c-0.4,0.6-0.8,1.3-1,2.2
				c-0.2,0.8-0.3,1.8-0.3,2.8c0,1,0.1,1.9,0.3,2.8c0.2,0.8,0.6,1.6,1,2.2c0.4,0.6,1,1.1,1.6,1.5c0.6,0.4,1.4,0.5,2.2,0.5
				c0.7,0,1.4-0.1,1.9-0.2s0.9-0.4,1.3-0.7c0.3-0.3,0.6-0.6,0.7-1c0.2-0.4,0.3-0.8,0.4-1.3h-3.4v-4.1h7.8v2.9
				C-212.1,74-212.3,75.2-212.8,76.3z"/>
		</g>
		<g>
			<path class="st0" d="M-201,81V59.3h4.3V81H-201z"/>
		</g>
		<g>
			<path class="st0" d="M-171,81l-8-11.8c-0.3-0.4-0.6-0.9-0.9-1.3c-0.3-0.5-0.5-0.8-0.7-1.1c0,0.2,0,0.5,0,0.9c0,0.4,0,0.8,0,1.3
				s0,0.9,0,1.4c0,0.5,0,0.8,0,1.1V81h-4.3V59.3h4.2l7.7,11.5c0.3,0.4,0.6,0.9,0.9,1.3c0.3,0.5,0.5,0.8,0.7,1.1c0-0.2,0-0.5,0-0.9
				c0-0.4,0-0.8,0-1.3s0-0.9,0-1.4c0-0.5,0-0.8,0-1.1v-9.2h4.3V81H-171z"/>
		</g>
		<g>
			<path class="st0" d="M-155.2,81V59.3h15.1v4.2h-10.7v3.8h6.2v4.2h-6.2v5.2h11.2V81H-155.2z"/>
		</g>
		<g>
			<path class="st0" d="M-112.3,81V59.3h4.3V81H-112.3z"/>
		</g>
		<g>
			<path class="st0" d="M-80.3,74.4c0,1-0.2,2-0.5,2.8c-0.3,0.8-0.8,1.6-1.6,2.2c-0.7,0.6-1.6,1.1-2.7,1.4c-1.1,0.3-2.3,0.5-3.8,0.5
				c-1.8,0-3.5-0.4-5-1.1c-1.5-0.7-2.6-1.7-3.5-2.9l3.1-2.8c0.8,0.9,1.6,1.5,2.6,1.9c0.9,0.4,1.9,0.6,3,0.6c1.3,0,2.3-0.2,2.9-0.6
				c0.6-0.4,0.9-1,0.9-1.8c0-0.4-0.1-0.7-0.2-0.9s-0.4-0.5-0.7-0.7c-0.3-0.2-0.8-0.4-1.5-0.7c-0.6-0.2-1.5-0.4-2.5-0.7
				c-1-0.2-1.9-0.5-2.7-0.8c-0.8-0.3-1.6-0.7-2.2-1.2c-0.6-0.5-1.1-1.1-1.4-1.8s-0.5-1.6-0.5-2.7c0-1,0.2-1.9,0.6-2.7
				c0.4-0.8,1-1.5,1.7-2c0.7-0.5,1.5-1,2.5-1.3c0.9-0.3,1.9-0.4,3-0.4c1.7,0,3.2,0.3,4.4,0.9c1.3,0.6,2.4,1.4,3.5,2.5l-3.1,3
				c-0.7-0.7-1.5-1.3-2.2-1.7c-0.8-0.4-1.7-0.6-2.7-0.6c-0.6,0-1.1,0.1-1.5,0.2c-0.4,0.1-0.7,0.3-1,0.4c-0.2,0.2-0.4,0.4-0.5,0.6
				c-0.1,0.2-0.2,0.5-0.2,0.7c0,0.4,0.1,0.6,0.2,0.9c0.1,0.2,0.4,0.4,0.7,0.6c0.3,0.2,0.8,0.4,1.3,0.5s1.3,0.4,2.1,0.6
				c0.9,0.2,1.7,0.4,2.6,0.7c0.9,0.3,1.6,0.7,2.3,1.2c0.7,0.5,1.3,1.1,1.7,1.9C-80.5,72.3-80.3,73.2-80.3,74.4z"/>
		</g>
		<g>
			<path class="st0" d="M-40.8,81l-3.9-7.8h-4.4V81h-4.3V59.3h10.1c1,0,2,0.1,2.9,0.4c0.9,0.3,1.7,0.7,2.4,1.3
				c0.7,0.6,1.2,1.3,1.6,2.2c0.4,0.9,0.6,1.9,0.6,3c0,1.6-0.3,3-1,4c-0.7,1-1.7,1.8-3.1,2.4l4.2,8.4H-40.8z M-40.3,66.2
				c0-1-0.3-1.7-0.8-2.1c-0.5-0.4-1.3-0.6-2.3-0.6h-5.7v5.6h5.7C-41.3,69.1-40.3,68.1-40.3,66.2z"/>
		</g>
		<g>
			<path class="st0" d="M-24.8,81V59.3h15.1v4.2h-10.7v3.8h6.2v4.2h-6.2v5.2h11.2V81H-24.8z"/>
		</g>
		<g>
			<path class="st0" d="M19.3,70.1c0,1.9-0.3,3.5-0.9,4.9c-0.6,1.4-1.5,2.5-2.5,3.4c-1,0.9-2.2,1.5-3.6,1.9C10.9,80.8,9.6,81,8.2,81
				H1.7V59.3h6.8c1.6,0,3,0.2,4.3,0.6c1.3,0.4,2.4,1,3.4,1.9c1,0.9,1.7,2,2.3,3.4C19,66.5,19.3,68.1,19.3,70.1z M14.8,70.1
				c0-2.2-0.5-3.9-1.5-5c-1-1.1-2.7-1.7-5-1.7H6v13.3h2.1c1.1,0,2.1-0.2,3-0.5c0.8-0.3,1.5-0.8,2.1-1.3c0.5-0.6,0.9-1.3,1.2-2.1
				C14.7,72,14.8,71.1,14.8,70.1z"/>
		</g>
	</g>
</g>
<rect x="-1199.4" y="-577.5" class="st3" width="347.6" height="58.5"/>
<rect x="-1199.4" y="-501.1" class="st3" width="347.6" height="58.5"/>
<rect x="-884.2" y="-369.6" class="st5" width="83.4" height="33.3"/>
<rect x="-833.3" y="-577.5" class="st3" width="347.6" height="58.5"/>
<rect x="-833.3" y="-501.1" class="st3" width="347.6" height="58.5"/>
<g>
	<rect x="-1457" y="48.6" style="fill:none;" width="283.4" height="115.3"/>
	<text transform="matrix(1 0 0 1 -1376.5713 59.9671)"><tspan x="0" y="0" class="st3" style="font-family:'RobotoCondensed-Bold'; font-size:16px; letter-spacing:4;">SANTA ROSA</tspan><tspan x="-43.5" y="34" class="st3" style="font-family:'RobotoCondensed-Bold'; font-size:16px; letter-spacing:4;">401 mendocino ave</tspan><tspan x="12.4" y="68" class="st3" style="font-family:'RobotoCondensed-Bold'; font-size:16px; letter-spacing:4;">suite 100</tspan><tspan x="-21.7" y="102" class="st3" style="font-family:'RobotoCondensed-Bold'; font-size:20px; letter-spacing:5;">707 546 5448</tspan></text>
	<rect x="-1128.5" y="48.6" style="fill:none;" width="283.4" height="115.3"/>
	<text transform="matrix(1 0 0 1 -1053.9054 59.9671)"><tspan x="0" y="0" class="st3" style="font-family:'RobotoCondensed-Bold'; font-size:16px; letter-spacing:4;">MINNEAPOLIS</tspan><tspan x="-26.9" y="34" class="st3" style="font-family:'RobotoCondensed-Bold'; font-size:16px; letter-spacing:4;">711 hennepin ave</tspan><tspan x="18.2" y="68" class="st3" style="font-family:'RobotoCondensed-Bold'; font-size:16px; letter-spacing:4;">suite 500</tspan><tspan x="-15.9" y="102" class="st3" style="font-family:'RobotoCondensed-Bold'; font-size:20px; letter-spacing:5;">707 546 5448</tspan></text>
	<g>
		<path class="st3" d="M-1327.8,0.6c-1-2-1.6-4.2-1.6-6.6c0-7.9,6.4-14.2,14.2-14.2c7.9,0,14.2,6.4,14.2,14.2c0,2.4-0.6,4.6-1.6,6.6
			l-12.6,21.9L-1327.8,0.6z"/>
		<circle class="st1" cx="-1315.2" cy="-6.1" r="7.1"/>
	</g>
	<g>
		<path class="st3" d="M-995.6,0.6c-1-2-1.6-4.2-1.6-6.6c0-7.9,6.4-14.2,14.2-14.2c7.9,0,14.2,6.4,14.2,14.2c0,2.4-0.6,4.6-1.6,6.6
			L-983,22.4L-995.6,0.6z"/>
		<circle class="st1" cx="-983" cy="-6.1" r="7.1"/>
	</g>
</g>
<g>
	<g>
		<defs>
			<circle id="SVGID_5_" cx="-740.7" cy="73.3" r="32.3"/>
		</defs>
		<linearGradient id="SVGID_6_" gradientUnits="userSpaceOnUse" x1="-772.9054" y1="73.2501" x2="-708.4053" y2="73.2501">
			<stop  offset="0" style="stop-color:#1EA6DF"/>
			<stop  offset="1" style="stop-color:#DA4097"/>
		</linearGradient>
		<use xlink:href="#SVGID_5_"  style="overflow:visible;fill:url(#SVGID_6_);"/>
		<clipPath id="SVGID_7_">
			<use xlink:href="#SVGID_5_"  style="overflow:visible;"/>
		</clipPath>
		<g class="st6">
			<path class="st0" d="M-752.5,81.7h-7v-9.8h7v-2.3c0-9.2,5.6-16.3,14-16.3c3.2,0,7.4,1,9.7,2.6l-4.7,7.5c-1-0.6-2.4-1.2-4-0.9
				c-2.9,0.7-3.7,3.2-3.7,7.2v2.1h8.6v9.8h-8.6v32.7h-11.3V81.7z"/>
		</g>
	</g>
</g>
<circle class="st7" cx="32.3" cy="32.3" r="32.3"/>
<g>
	<defs>
		<circle id="SVGID_8_" cx="32.3" cy="32.3" r="32.3"/>
	</defs>
	<linearGradient id="SVGID_9_" gradientUnits="userSpaceOnUse" x1="0" y1="32.2501" x2="64.5002" y2="32.2501">
		<stop  offset="0" style="stop-color:#1EA6DF"/>
		<stop  offset="1" style="stop-color:#DA4097"/>
	</linearGradient>
	<use xlink:href="#SVGID_8_"  style="overflow:visible;fill:url(#SVGID_9_);"/>
	<clipPath id="SVGID_10_">
		<use xlink:href="#SVGID_8_"  style="overflow:visible;"/>
	</clipPath>
</g>
<path class="st0" d="M46.3,50.5H18.2c-2.5,0-4.5-2.3-4.5-5.2V21.6c0-4.2,2.8-6.4,5.7-6.4h27c2.5,0,4.5,2.3,4.5,5.2v24.9
	C50.8,48.2,48.8,50.5,46.3,50.5z M19.3,18c-2.8,0-2.9,3.6-2.9,3.6v23.7c0,1.3,0.8,2.4,1.7,2.4h28.1c0.9,0,1.7-1.1,1.7-2.4V20.4
	c0-1.3-0.8-2.4-1.7-2.4H19.3z"/>
<path class="st0" d="M32.3,42.2c-4.8,0-8.7-3.9-8.7-8.7s3.9-8.7,8.7-8.7s8.7,3.9,8.7,8.7S37.1,42.2,32.3,42.2z M32.3,27.5
	c-3.3,0-6,2.7-6,6c0,3.3,2.7,6,6,6c3.3,0,6-2.7,6-6C38.2,30.2,35.6,27.5,32.3,27.5z"/>
<path class="st0" d="M42.6,25.2L42.6,25.2c1.1,0,1.9-0.9,1.9-1.9v0c0-1.1-0.9-1.9-1.9-1.9h0c-1.1,0-1.9,0.9-1.9,1.9v0
	C40.7,24.3,41.6,25.2,42.6,25.2z"/>
<linearGradient id="SVGID_11_" gradientUnits="userSpaceOnUse" x1="-602.6975" y1="75.5112" x2="-538.1973" y2="75.5112">
	<stop  offset="0" style="stop-color:#1EA6DF"/>
	<stop  offset="1" style="stop-color:#DA4097"/>
</linearGradient>
<circle class="st8" cx="-570.4" cy="75.5" r="32.3"/>
<g>
	<path class="st0" d="M-570.8,95.7c-10.6,0-19.2-8.6-19.2-19.2s8.6-19.2,19.2-19.2c10.6,0,19.2,8.6,19.2,19.2
		S-560.2,95.7-570.8,95.7z M-570.8,60c-9.1,0-16.5,7.4-16.5,16.5c0,9.1,7.4,16.5,16.5,16.5c9.1,0,16.5-7.4,16.5-16.5
		C-554.3,67.4-561.7,60-570.8,60z"/>
	<path class="st0" d="M-570.7,95.7c-6.8,0-12.2-8.5-12.2-19.2c0-10.8,5.4-19.2,12.2-19.2s12.2,8.5,12.2,19.2
		C-558.5,87.2-563.9,95.7-570.7,95.7z M-570.7,60c-5.1,0-9.4,7.5-9.4,16.5s4.3,16.5,9.4,16.5c5.1,0,9.4-7.5,9.4-16.5
		S-565.6,60-570.7,60z"/>
	<rect x="-588.6" y="75.1" class="st0" width="35.3" height="2.8"/>
	<rect x="-572.2" y="58.6" class="st0" width="2.8" height="36"/>
	<rect x="-585.8" y="66.3" class="st0" width="30.3" height="2.8"/>
	<rect x="-585.8" y="84" class="st0" width="30.3" height="2.8"/>
</g>
<rect x="-1188.6" y="-562.1" style="fill:none;" width="323" height="32.8"/>
<text transform="matrix(1 0 0 1 -1188.6334 -533.6848)" class="st9" style="font-family:'RobotoCondensed-Light'; font-size:40px;">Name</text>
<rect x="-820.9" y="-562.1" style="fill:none;" width="323" height="32.8"/>
<text transform="matrix(1 0 0 1 -820.931 -533.6848)" class="st9" style="font-family:'RobotoCondensed-Light'; font-size:40px;">COMPANY</text>
<rect x="-1188.4" y="-484.1" style="fill:none;" width="323" height="32.8"/>
<text transform="matrix(1 0 0 1 -1188.371 -455.6848)" class="st9" style="font-family:'RobotoCondensed-Light'; font-size:40px;">EMAIL</text>
<rect x="-820.7" y="-484.1" style="fill:none;" width="323" height="32.8"/>
<text transform="matrix(1 0 0 1 -820.6686 -455.6848)" class="st9" style="font-family:'RobotoCondensed-Light'; font-size:40px;">PHONE</text>
<rect x="-874.2" y="-359.7" style="fill:none;" width="61.9" height="13.7"/>
<text transform="matrix(1 0 0 1 -869.86 -347.636)" class="st3" style="font-family:'RobotoCondensed-Regular'; font-size:17.0625px; letter-spacing:1;">submi</text>
<rect x="-1262.8" y="-659" style="fill:none;" width="841.2" height="23.3"/>
<text transform="matrix(1 0 0 1 -963.3718 -642.6519)" class="st0" style="font-family:'RobotoCondensed-Bold'; font-size:23px; letter-spacing:12;">CONTACT US</text>
<g>
	<defs>
		<rect id="SVGID_12_" x="-1642.6" y="14.3" width="382.3" height="112.3"/>
	</defs>
	<clipPath id="SVGID_13_">
		<use xlink:href="#SVGID_12_"  style="overflow:visible;"/>
	</clipPath>
	<g class="st10">
		<path class="st0" d="M-1539.8,115.1h-469.8v-90h469.8V115.1z M-2005.3,110.8h461.2V29.4h-461.2V110.8z"/>
		<g>
			<path class="st0" d="M-1965,63.6V81h-4.3V63.6h-6.2v-4.3h16.8v4.3H-1965z"/>
		</g>
		<g>
			<path class="st0" d="M-1935.4,81v-9.1h-8.9V81h-4.3V59.3h4.3v8.3h8.9v-8.3h4.3V81H-1935.4z"/>
		</g>
		<g>
			<path class="st0" d="M-1919.2,81V59.3h15.1v4.2h-10.7v3.8h6.2v4.2h-6.2v5.2h11.2V81H-1919.2z"/>
		</g>
		<g>
			<path class="st0" d="M-1876.5,81V59.3h15.1v4.2h-10.7v3.8h6.2v4.2h-6.2v5.2h11.2V81H-1876.5z"/>
		</g>
		<g>
			<path class="st0" d="M-1835.8,81l-8-11.8c-0.3-0.4-0.6-0.9-0.9-1.3c-0.3-0.5-0.5-0.8-0.7-1.1c0,0.2,0,0.5,0,0.9
				c0,0.4,0,0.8,0,1.3s0,0.9,0,1.4c0,0.5,0,0.8,0,1.1V81h-4.3V59.3h4.2l7.7,11.5c0.3,0.4,0.6,0.9,0.9,1.3c0.3,0.5,0.5,0.8,0.7,1.1
				c0-0.2,0-0.5,0-0.9c0-0.4,0-0.8,0-1.3s0-0.9,0-1.4c0-0.5,0-0.8,0-1.1v-9.2h4.3V81H-1835.8z"/>
		</g>
		<g>
			<path class="st0" d="M-1804.3,76.3c-0.4,1.1-1,2-1.8,2.8c-0.8,0.7-1.7,1.3-2.8,1.7c-1.1,0.4-2.2,0.6-3.5,0.6
				c-1.4,0-2.7-0.3-3.9-0.8c-1.2-0.5-2.2-1.3-3-2.2c-0.8-1-1.5-2.1-1.9-3.5c-0.5-1.4-0.7-2.9-0.7-4.6c0-1.7,0.2-3.2,0.7-4.5
				c0.5-1.4,1.1-2.6,2-3.5c0.8-1,1.9-1.7,3-2.3c1.2-0.5,2.5-0.8,3.9-0.8c1.1,0,2.1,0.1,3,0.4c0.9,0.2,1.6,0.6,2.3,1.1
				c0.7,0.5,1.2,1,1.7,1.7c0.5,0.7,0.9,1.4,1.3,2.2l-4.1,1.7c-0.2-0.4-0.4-0.8-0.7-1.1c-0.2-0.4-0.5-0.7-0.8-0.9
				c-0.3-0.2-0.7-0.4-1.1-0.6c-0.4-0.1-0.9-0.2-1.5-0.2c-0.8,0-1.5,0.2-2.2,0.5c-0.6,0.3-1.2,0.8-1.6,1.4c-0.4,0.6-0.8,1.3-1,2.2
				c-0.2,0.8-0.3,1.8-0.3,2.8c0,1,0.1,1.9,0.3,2.8c0.2,0.8,0.6,1.6,1,2.2c0.4,0.6,1,1.1,1.6,1.5c0.6,0.4,1.4,0.5,2.2,0.5
				c0.7,0,1.4-0.1,1.9-0.2c0.5-0.2,0.9-0.4,1.3-0.7c0.3-0.3,0.6-0.6,0.7-1c0.2-0.4,0.3-0.8,0.4-1.3h-3.4v-4.1h7.8v2.9
				C-1803.7,74-1803.9,75.2-1804.3,76.3z"/>
		</g>
		<g>
			<path class="st0" d="M-1792.6,81V59.3h4.3V81H-1792.6z"/>
		</g>
		<g>
			<path class="st0" d="M-1762.5,81l-8-11.8c-0.3-0.4-0.6-0.9-0.9-1.3c-0.3-0.5-0.5-0.8-0.7-1.1c0,0.2,0,0.5,0,0.9
				c0,0.4,0,0.8,0,1.3s0,0.9,0,1.4c0,0.5,0,0.8,0,1.1V81h-4.3V59.3h4.2l7.7,11.5c0.3,0.4,0.6,0.9,0.9,1.3c0.3,0.5,0.5,0.8,0.7,1.1
				c0-0.2,0-0.5,0-0.9c0-0.4,0-0.8,0-1.3s0-0.9,0-1.4c0-0.5,0-0.8,0-1.1v-9.2h4.3V81H-1762.5z"/>
		</g>
		<g>
			<path class="st0" d="M-1746.8,81V59.3h15.1v4.2h-10.7v3.8h6.2v4.2h-6.2v5.2h11.2V81H-1746.8z"/>
		</g>
		<g>
			<path class="st0" d="M-1703.8,81V59.3h4.3V81H-1703.8z"/>
		</g>
		<g>
			<path class="st0" d="M-1671.9,74.4c0,1-0.2,2-0.5,2.8c-0.3,0.8-0.8,1.6-1.6,2.2c-0.7,0.6-1.6,1.1-2.7,1.4
				c-1.1,0.3-2.3,0.5-3.8,0.5c-1.8,0-3.5-0.4-5-1.1c-1.5-0.7-2.6-1.7-3.5-2.9l3.1-2.8c0.8,0.9,1.6,1.5,2.6,1.9
				c0.9,0.4,1.9,0.6,3,0.6c1.3,0,2.3-0.2,2.9-0.6c0.6-0.4,0.9-1,0.9-1.8c0-0.4-0.1-0.7-0.2-0.9s-0.4-0.5-0.7-0.7
				c-0.3-0.2-0.8-0.4-1.5-0.7c-0.6-0.2-1.5-0.4-2.5-0.7c-1-0.2-1.9-0.5-2.7-0.8c-0.8-0.3-1.6-0.7-2.2-1.2c-0.6-0.5-1.1-1.1-1.4-1.8
				c-0.3-0.7-0.5-1.6-0.5-2.7c0-1,0.2-1.9,0.6-2.7c0.4-0.8,1-1.5,1.7-2c0.7-0.5,1.5-1,2.5-1.3c0.9-0.3,1.9-0.4,3-0.4
				c1.7,0,3.2,0.3,4.4,0.9c1.3,0.6,2.4,1.4,3.5,2.5l-3.1,3c-0.7-0.7-1.5-1.3-2.2-1.7c-0.8-0.4-1.7-0.6-2.7-0.6
				c-0.6,0-1.1,0.1-1.5,0.2c-0.4,0.1-0.7,0.3-1,0.4c-0.2,0.2-0.4,0.4-0.5,0.6c-0.1,0.2-0.2,0.5-0.2,0.7c0,0.4,0.1,0.6,0.2,0.9
				c0.1,0.2,0.4,0.4,0.7,0.6c0.3,0.2,0.8,0.4,1.3,0.5s1.3,0.4,2.1,0.6c0.9,0.2,1.7,0.4,2.6,0.7c0.9,0.3,1.6,0.7,2.3,1.2
				c0.7,0.5,1.3,1.1,1.7,1.9C-1672.1,72.3-1671.9,73.2-1671.9,74.4z"/>
		</g>
		<g>
			<path class="st0" d="M-1632.4,81l-3.9-7.8h-4.4V81h-4.3V59.3h10.1c1,0,2,0.1,2.9,0.4c0.9,0.3,1.7,0.7,2.4,1.3
				c0.7,0.6,1.2,1.3,1.6,2.2c0.4,0.9,0.6,1.9,0.6,3c0,1.6-0.3,3-1,4c-0.7,1-1.7,1.8-3.1,2.4l4.2,8.4H-1632.4z M-1631.8,66.2
				c0-1-0.3-1.7-0.8-2.1c-0.5-0.4-1.3-0.6-2.3-0.6h-5.7v5.6h5.7C-1632.9,69.1-1631.8,68.1-1631.8,66.2z"/>
		</g>
		<g>
			<path class="st0" d="M-1616.3,81V59.3h15.1v4.2h-10.7v3.8h6.2v4.2h-6.2v5.2h11.2V81H-1616.3z"/>
		</g>
		<g>
			<path class="st0" d="M-1572.3,70.1c0,1.9-0.3,3.5-0.9,4.9c-0.6,1.4-1.5,2.5-2.5,3.4c-1,0.9-2.2,1.5-3.6,1.9
				c-1.3,0.4-2.7,0.6-4.1,0.6h-6.5V59.3h6.8c1.6,0,3,0.2,4.3,0.6c1.3,0.4,2.4,1,3.4,1.9c1,0.9,1.7,2,2.3,3.4
				C-1572.5,66.5-1572.3,68.1-1572.3,70.1z M-1576.7,70.1c0-2.2-0.5-3.9-1.5-5c-1-1.1-2.7-1.7-5-1.7h-2.3v13.3h2.1
				c1.1,0,2.1-0.2,3-0.5c0.8-0.3,1.5-0.8,2.1-1.3c0.5-0.6,0.9-1.3,1.2-2.1C-1576.9,72-1576.7,71.1-1576.7,70.1z"/>
		</g>
	</g>
</g>
</svg>
