<?xml version="1.0" encoding="utf-8"?>
<!-- Generator: Adobe Illustrator 20.1.0, SVG Export Plug-In . SVG Version: 6.00 Build 0)  -->
<!DOCTYPE svg PUBLIC "-//W3C//DTD SVG 1.1//EN" "http://www.w3.org/Graphics/SVG/1.1/DTD/svg11.dtd">
<svg version="1.1" id="Layer_1" xmlns="http://www.w3.org/2000/svg" xmlns:xlink="http://www.w3.org/1999/xlink" x="0px" y="0px"
	 viewBox="0 0 28.5 42.7" style="enable-background:new 0 0 28.5 42.7;" xml:space="preserve">
<style type="text/css">
	.st0{fill:#FFFFFF;}
	.st1{fill:#282829;}
	.st2{fill:#00A7E6;}
	.st3{fill:#D4EFFC;}
	.st4{clip-path:url(#SVGID_4_);}
	.st5{fill:none;stroke:#D4EFFC;stroke-miterlimit:10;}
	.st6{clip-path:url(#SVGID_7_);}
	.st7{fill:#6599D1;}
	.st8{fill:url(#SVGID_11_);}
	.st9{fill:#D1D3D4;}
	.st10{clip-path:url(#SVGID_13_);}
</style>
<g>
	<defs>
		<rect id="SVGID_1_" x="-1682.8" y="-1999.6" width="1600" height="846.1"/>
	</defs>
	<clipPath id="SVGID_2_">
		<use xlink:href="#SVGID_1_"  style="overflow:visible;"/>
	</clipPath>
	<g style="clip-path:url(#SVGID_2_);">
		

	</g>
</g>
<g>
	<path class="st0" d="M-743.6-1548.5h-368v-70.5h368V-1548.5z M-1108.3-1551.9H-747v-63.8h-361.3V-1551.9z"/>
	<g>
		<path class="st0" d="M-1076.7-1588.9v13.7h-3.4v-13.7h-4.9v-3.4h13.2v3.4H-1076.7z"/>
	</g>
	<g>
		<path class="st0" d="M-1053.5-1575.3v-7.1h-7v7.1h-3.4v-17h3.4v6.5h7v-6.5h3.4v17H-1053.5z"/>
	</g>
	<g>
		<path class="st0" d="M-1040.8-1575.3v-17h11.8v3.3h-8.4v2.9h4.9v3.3h-4.9v4.1h8.8v3.3H-1040.8z"/>
	</g>
	<g>
		<path class="st0" d="M-1007.4-1575.3v-17h11.8v3.3h-8.4v2.9h4.9v3.3h-4.9v4.1h8.8v3.3H-1007.4z"/>
	</g>
	<g>
		<path class="st0" d="M-975.4-1575.3l-6.2-9.3c-0.2-0.3-0.4-0.7-0.7-1c-0.2-0.4-0.4-0.7-0.5-0.9c0,0.2,0,0.4,0,0.7c0,0.3,0,0.7,0,1
			c0,0.4,0,0.7,0,1.1c0,0.4,0,0.7,0,0.9v7.5h-3.4v-17h3.3l6,9c0.2,0.3,0.4,0.7,0.7,1c0.2,0.4,0.4,0.7,0.5,0.9c0-0.2,0-0.4,0-0.7
			c0-0.3,0-0.7,0-1c0-0.4,0-0.7,0-1.1c0-0.4,0-0.7,0-0.9v-7.2h3.4v17H-975.4z"/>
	</g>
	<g>
		<path class="st0" d="M-950.8-1578.9c-0.3,0.9-0.8,1.6-1.4,2.2c-0.6,0.6-1.3,1-2.2,1.3c-0.8,0.3-1.7,0.5-2.7,0.5
			c-1.1,0-2.1-0.2-3-0.6c-0.9-0.4-1.7-1-2.3-1.8c-0.7-0.8-1.2-1.7-1.5-2.8c-0.4-1.1-0.5-2.3-0.5-3.6c0-1.3,0.2-2.5,0.6-3.6
			s0.9-2,1.6-2.8c0.7-0.8,1.5-1.4,2.4-1.8c0.9-0.4,1.9-0.6,3.1-0.6c0.9,0,1.6,0.1,2.3,0.3c0.7,0.2,1.3,0.5,1.8,0.9
			c0.5,0.4,1,0.8,1.3,1.3c0.4,0.5,0.7,1.1,1,1.8l-3.2,1.3c-0.2-0.3-0.3-0.6-0.5-0.9c-0.2-0.3-0.4-0.5-0.7-0.7
			c-0.3-0.2-0.5-0.3-0.9-0.5c-0.3-0.1-0.7-0.2-1.2-0.2c-0.6,0-1.2,0.1-1.7,0.4c-0.5,0.3-0.9,0.6-1.3,1.1c-0.3,0.5-0.6,1-0.8,1.7
			c-0.2,0.7-0.3,1.4-0.3,2.2c0,0.8,0.1,1.5,0.3,2.2c0.2,0.7,0.4,1.2,0.8,1.7c0.3,0.5,0.8,0.9,1.3,1.1c0.5,0.3,1.1,0.4,1.7,0.4
			c0.6,0,1.1-0.1,1.5-0.2c0.4-0.1,0.7-0.3,1-0.5c0.3-0.2,0.4-0.5,0.6-0.8s0.2-0.7,0.3-1h-2.7v-3.2h6.1v2.2
			C-950.3-1580.8-950.5-1579.8-950.8-1578.9z"/>
	</g>
	<g>
		<path class="st0" d="M-941.6-1575.3v-17h3.4v17H-941.6z"/>
	</g>
	<g>
		<path class="st0" d="M-918.1-1575.3l-6.2-9.3c-0.2-0.3-0.4-0.7-0.7-1c-0.2-0.4-0.4-0.7-0.5-0.9c0,0.2,0,0.4,0,0.7c0,0.3,0,0.7,0,1
			c0,0.4,0,0.7,0,1.1c0,0.4,0,0.7,0,0.9v7.5h-3.4v-17h3.3l6,9c0.2,0.3,0.4,0.7,0.7,1c0.2,0.4,0.4,0.7,0.5,0.9c0-0.2,0-0.4,0-0.7
			c0-0.3,0-0.7,0-1c0-0.4,0-0.7,0-1.1c0-0.4,0-0.7,0-0.9v-7.2h3.4v17H-918.1z"/>
	</g>
	<g>
		<path class="st0" d="M-905.7-1575.3v-17h11.8v3.3h-8.4v2.9h4.9v3.3h-4.9v4.1h8.8v3.3H-905.7z"/>
	</g>
	<g>
		<path class="st0" d="M-872.1-1575.3v-17h3.4v17H-872.1z"/>
	</g>
	<g>
		<path class="st0" d="M-847-1580.4c0,0.8-0.1,1.5-0.4,2.2c-0.3,0.7-0.7,1.2-1.2,1.7c-0.6,0.5-1.2,0.8-2.1,1.1
			c-0.8,0.3-1.8,0.4-3,0.4c-1.4,0-2.7-0.3-3.9-0.8c-1.2-0.6-2.1-1.3-2.7-2.3l2.5-2.2c0.6,0.7,1.3,1.2,2,1.5c0.7,0.3,1.5,0.4,2.3,0.4
			c1,0,1.8-0.1,2.2-0.4c0.5-0.3,0.7-0.8,0.7-1.4c0-0.3,0-0.5-0.1-0.7c-0.1-0.2-0.3-0.4-0.5-0.6c-0.3-0.2-0.7-0.3-1.2-0.5
			c-0.5-0.2-1.1-0.3-1.9-0.5c-0.8-0.2-1.5-0.4-2.1-0.6c-0.7-0.2-1.2-0.6-1.7-0.9c-0.5-0.4-0.8-0.8-1.1-1.4c-0.3-0.6-0.4-1.3-0.4-2.1
			c0-0.8,0.2-1.5,0.5-2.1c0.3-0.6,0.7-1.1,1.3-1.6c0.6-0.4,1.2-0.8,1.9-1c0.7-0.2,1.5-0.3,2.4-0.3c1.3,0,2.5,0.2,3.5,0.7
			c1,0.5,1.9,1.1,2.7,2l-2.5,2.4c-0.6-0.6-1.1-1-1.8-1.3c-0.6-0.3-1.3-0.4-2.1-0.4c-0.5,0-0.8,0-1.1,0.1c-0.3,0.1-0.6,0.2-0.8,0.4
			c-0.2,0.1-0.3,0.3-0.4,0.5c-0.1,0.2-0.1,0.4-0.1,0.6c0,0.3,0.1,0.5,0.2,0.7c0.1,0.2,0.3,0.4,0.5,0.5c0.3,0.1,0.6,0.3,1,0.4
			c0.4,0.1,1,0.3,1.7,0.4c0.7,0.2,1.4,0.4,2,0.6c0.7,0.2,1.3,0.5,1.8,0.9c0.5,0.4,1,0.9,1.3,1.5
			C-847.2-1582.1-847-1581.3-847-1580.4z"/>
	</g>
</g>
<g>
	<path class="st1" d="M-828.2-1574.9v-17.7h12.3v3.5h-8.8v3.1h5.1v3.4h-5.1v4.3h9.1v3.5H-828.2z"/>
	<path class="st1" d="M-797.8-1574.9l-1.6-2.7c-0.6-1.1-1.6-2.8-1.9-3.5c-0.3,0.7-1.3,2.4-1.9,3.5l-1.6,2.7h-4.2l5.6-9.1l-5.4-8.7
		h4.2l1.3,2.3c0.6,1.1,1.6,2.8,1.9,3.5c0.3-0.7,1.3-2.4,1.9-3.5l1.3-2.3h4.2l-5.4,8.7l5.6,9.1H-797.8z"/>
	<path class="st1" d="M-778.9-1581.2h-3.9v6.3h-3.5v-17.7h7.7c3.3,0,6.1,1.8,6.1,5.6C-772.5-1582.9-775.3-1581.2-778.9-1581.2z
		 M-778.8-1589.2h-4.1v4.6h4.1c1.6,0,2.5-0.8,2.5-2.3C-776.2-1588.5-777.2-1589.2-778.8-1589.2z"/>
	<path class="st1" d="M-765.4-1574.9v-17.7h3.5v14.2h8.9v3.5H-765.4z"/>
	<path class="st1" d="M-739.8-1574.6c-4.8,0-7.7-3.7-7.7-9.1c0-5.4,2.9-9.1,7.7-9.1c4.8,0,7.7,3.7,7.7,9.1
		C-732.1-1578.4-735-1574.6-739.8-1574.6z M-739.8-1589.4c-2.9,0-4,2.5-4,5.6s1.2,5.6,4,5.6c2.9,0,4-2.5,4-5.6
		S-737-1589.4-739.8-1589.4z"/>
	<path class="st1" d="M-714.5-1574.9l-3.2-6.4h-3.6v6.4h-3.5v-17.7h8.2c3.3,0,6.1,1.8,6.1,5.6c0,2.7-1.1,4.3-3.4,5.2l3.4,6.9H-714.5
		z M-716.6-1589.2h-4.6v4.6h4.6c1.6,0,2.5-0.8,2.5-2.3C-714-1588.5-715-1589.2-716.6-1589.2z"/>
	<path class="st1" d="M-702.6-1574.9v-17.7h3.5v17.7H-702.6z"/>
	<path class="st1" d="M-679.3-1574.9l-6.5-9.7c-0.4-0.7-1-1.5-1.2-2c0,0.7,0.1,2.9,0.1,3.9v7.8h-3.5v-17.7h3.4l6.3,9.4
		c0.4,0.7,1,1.5,1.2,2c0-0.7-0.1-2.9-0.1-3.9v-7.5h3.5v17.7H-679.3z"/>
	<path class="st1" d="M-661-1574.6c-4.6,0-7.7-3.5-7.7-9.1c0-5.4,3.2-9.1,7.9-9.1c3.6,0,5.5,1.7,6.7,4.4l-3.4,1.4
		c-0.7-1.3-1.5-2.3-3.4-2.3c-2.7,0-4.2,2.3-4.2,5.6c0,3.3,1.5,5.7,4.2,5.7c2.4,0,3.3-1.1,3.5-2.7h-2.8v-3.3h6.3v2.3
		C-653.9-1577.2-656.9-1574.6-661-1574.6z"/>
</g>
<g>
	<path class="st0" d="M368.7-2086H-67.8v-83.6h436.5V-2086z M-63.8-2090h428.5v-75.7H-63.8V-2090z"/>
	<g>
		<path class="st0" d="M-26.4-2133.9v16.2h-4v-16.2h-5.8v-4h15.6v4H-26.4z"/>
	</g>
	<g>
		<path class="st0" d="M1.2-2117.7v-8.5h-8.3v8.5h-4v-20.2h4v7.7h8.3v-7.7h4v20.2H1.2z"/>
	</g>
	<g>
		<path class="st0" d="M16.2-2117.7v-20.2h14v3.9h-10v3.5H26v3.9h-5.8v4.9h10.4v3.9H16.2z"/>
	</g>
	<g>
		<path class="st0" d="M55.9-2117.7v-20.2h14v3.9h-10v3.5h5.8v3.9h-5.8v4.9h10.4v3.9H55.9z"/>
	</g>
	<g>
		<path class="st0" d="M93.7-2117.7l-7.4-11c-0.2-0.4-0.5-0.8-0.8-1.2c-0.3-0.4-0.5-0.8-0.6-1.1c0,0.2,0,0.5,0,0.9
			c0,0.4,0,0.8,0,1.2s0,0.9,0,1.3c0,0.4,0,0.8,0,1.1v8.9h-4v-20.2h3.9l7.1,10.7c0.2,0.4,0.5,0.8,0.8,1.2c0.3,0.4,0.5,0.8,0.6,1.1
			c0-0.2,0-0.5,0-0.8c0-0.4,0-0.8,0-1.2c0-0.4,0-0.9,0-1.3c0-0.4,0-0.8,0-1.1v-8.5h4v20.2H93.7z"/>
	</g>
	<g>
		<path class="st0" d="M122.9-2122.1c-0.4,1-1,1.9-1.7,2.6c-0.7,0.7-1.6,1.2-2.6,1.6c-1,0.4-2.1,0.5-3.2,0.5c-1.3,0-2.5-0.2-3.6-0.7
			c-1.1-0.5-2-1.2-2.8-2.1c-0.8-0.9-1.4-2-1.8-3.3c-0.4-1.3-0.6-2.7-0.6-4.3c0-1.5,0.2-2.9,0.7-4.2c0.4-1.3,1.1-2.4,1.8-3.3
			c0.8-0.9,1.7-1.6,2.8-2.1c1.1-0.5,2.3-0.8,3.6-0.8c1,0,2,0.1,2.8,0.3c0.8,0.2,1.5,0.6,2.1,1c0.6,0.4,1.1,1,1.6,1.6
			c0.5,0.6,0.8,1.3,1.2,2.1l-3.8,1.6c-0.2-0.4-0.4-0.7-0.6-1c-0.2-0.3-0.5-0.6-0.8-0.8c-0.3-0.2-0.6-0.4-1.1-0.5
			c-0.4-0.1-0.9-0.2-1.4-0.2c-0.7,0-1.4,0.2-2,0.5c-0.6,0.3-1.1,0.8-1.5,1.3c-0.4,0.6-0.7,1.2-0.9,2c-0.2,0.8-0.3,1.6-0.3,2.6
			c0,0.9,0.1,1.8,0.3,2.6c0.2,0.8,0.5,1.5,0.9,2c0.4,0.6,0.9,1,1.5,1.4c0.6,0.3,1.3,0.5,2,0.5c0.7,0,1.3-0.1,1.8-0.2
			c0.5-0.2,0.9-0.4,1.2-0.6c0.3-0.3,0.5-0.6,0.7-1s0.3-0.8,0.3-1.2h-3.2v-3.8h7.2v2.7C123.5-2124.3,123.3-2123.1,122.9-2122.1z"/>
	</g>
	<g>
		<path class="st0" d="M133.8-2117.7v-20.2h4v20.2H133.8z"/>
	</g>
	<g>
		<path class="st0" d="M161.8-2117.7l-7.4-11c-0.2-0.4-0.5-0.8-0.8-1.2c-0.3-0.4-0.5-0.8-0.6-1.1c0,0.2,0,0.5,0,0.9
			c0,0.4,0,0.8,0,1.2s0,0.9,0,1.3c0,0.4,0,0.8,0,1.1v8.9h-4v-20.2h3.9l7.1,10.7c0.2,0.4,0.5,0.8,0.8,1.2c0.3,0.4,0.5,0.8,0.6,1.1
			c0-0.2,0-0.5,0-0.8c0-0.4,0-0.8,0-1.2c0-0.4,0-0.9,0-1.3c0-0.4,0-0.8,0-1.1v-8.5h4v20.2H161.8z"/>
	</g>
	<g>
		<path class="st0" d="M176.4-2117.7v-20.2h14v3.9h-10v3.5h5.8v3.9h-5.8v4.9h10.4v3.9H176.4z"/>
	</g>
	<g>
		<path class="st0" d="M216.3-2117.7v-20.2h4v20.2H216.3z"/>
	</g>
	<g>
		<path class="st0" d="M246-2123.8c0,1-0.2,1.8-0.5,2.6c-0.3,0.8-0.8,1.5-1.4,2c-0.7,0.6-1.5,1-2.5,1.3c-1,0.3-2.2,0.5-3.6,0.5
			c-1.7,0-3.2-0.3-4.6-1c-1.4-0.7-2.5-1.5-3.2-2.7l2.9-2.6c0.7,0.8,1.5,1.4,2.4,1.8c0.9,0.4,1.8,0.5,2.8,0.5c1.2,0,2.1-0.2,2.7-0.5
			c0.6-0.3,0.9-0.9,0.9-1.7c0-0.3-0.1-0.6-0.2-0.8c-0.1-0.2-0.3-0.5-0.6-0.7c-0.3-0.2-0.8-0.4-1.4-0.6c-0.6-0.2-1.4-0.4-2.3-0.6
			c-0.9-0.2-1.8-0.5-2.5-0.7c-0.8-0.3-1.4-0.7-2-1.1c-0.6-0.4-1-1-1.3-1.7c-0.3-0.7-0.5-1.5-0.5-2.5c0-0.9,0.2-1.7,0.6-2.5
			c0.4-0.7,0.9-1.3,1.5-1.9c0.7-0.5,1.4-0.9,2.3-1.2c0.9-0.3,1.8-0.4,2.8-0.4c1.6,0,3,0.3,4.1,0.8c1.2,0.6,2.3,1.3,3.2,2.3l-2.9,2.8
			c-0.7-0.7-1.3-1.2-2.1-1.5c-0.7-0.4-1.6-0.5-2.5-0.5c-0.5,0-1,0.1-1.4,0.2c-0.4,0.1-0.7,0.2-0.9,0.4c-0.2,0.2-0.4,0.4-0.5,0.6
			c-0.1,0.2-0.1,0.4-0.1,0.7c0,0.3,0.1,0.6,0.2,0.8c0.1,0.2,0.3,0.4,0.6,0.6c0.3,0.2,0.7,0.3,1.2,0.5c0.5,0.2,1.2,0.3,2,0.5
			c0.8,0.2,1.6,0.4,2.4,0.7c0.8,0.3,1.5,0.6,2.2,1.1c0.6,0.5,1.2,1,1.6,1.8C245.8-2125.8,246-2124.9,246-2123.8z"/>
	</g>
	<g>
		<path class="st0" d="M282.7-2117.7l-3.6-7.3H275v7.3h-4v-20.2h9.4c0.9,0,1.8,0.1,2.7,0.4c0.8,0.3,1.6,0.7,2.2,1.2
			c0.6,0.5,1.1,1.2,1.5,2c0.4,0.8,0.5,1.7,0.5,2.8c0,1.5-0.3,2.8-1,3.7c-0.6,1-1.6,1.7-2.9,2.2l3.9,7.8H282.7z M283.2-2131.4
			c0-0.9-0.3-1.6-0.8-2c-0.5-0.4-1.2-0.6-2.1-0.6H275v5.2h5.3C282.2-2128.8,283.2-2129.7,283.2-2131.4z"/>
	</g>
	<g>
		<path class="st0" d="M297.6-2117.7v-20.2h14v3.9h-10v3.5h5.8v3.9h-5.8v4.9H312v3.9H297.6z"/>
	</g>
	<g>
		<path class="st0" d="M338.5-2127.8c0,1.8-0.3,3.3-0.9,4.6c-0.6,1.3-1.4,2.3-2.3,3.1c-1,0.8-2.1,1.4-3.3,1.8
			c-1.2,0.4-2.5,0.6-3.8,0.6h-6v-20.2h6.3c1.4,0,2.8,0.2,4,0.5c1.2,0.4,2.3,0.9,3.2,1.7c0.9,0.8,1.6,1.8,2.1,3.1
			C338.3-2131.2,338.5-2129.7,338.5-2127.8z M334.4-2127.8c0-2.1-0.5-3.6-1.4-4.6c-0.9-1-2.5-1.5-4.6-1.5h-2.1v12.3h2
			c1.1,0,2-0.1,2.8-0.4c0.8-0.3,1.4-0.7,1.9-1.3c0.5-0.5,0.9-1.2,1.1-1.9C334.2-2126.1,334.4-2126.9,334.4-2127.8z"/>
	</g>
</g>
<rect x="386.1" y="-2137.9" style="fill:none;" width="214.9" height="23.3"/>
<text transform="matrix(1 0 0 1 386.1488 -2116.6084)" style="font-family:'Interstate-Bold'; font-size:30px; letter-spacing:4;">EXPLORING</text>
<rect x="-1682.8" y="-1153.5" class="st1" width="1600" height="576.9"/>
<rect x="-1678.8" y="-4.6" class="st1" width="1600" height="576.9"/>
<rect x="-1682.8" y="-576.6" class="st2" width="1600" height="576.9"/>
<rect x="-1304.3" y="-1246.5" style="fill:none;" width="841.2" height="23.3"/>
<text transform="matrix(1 0 0 1 -1240.1869 -1230.2084)" class="st0" style="font-family:'RobotoCondensed-Bold'; font-size:23px; letter-spacing:12;">The Pursuit of a Better Agency</text>
<rect x="-1240.1" y="-1039" style="fill:none;" width="713.9" height="351"/>
<text transform="matrix(1 0 0 1 -1240.1072 -1025.536)"><tspan x="0" y="0" class="st3" style="font-family:'RobotoCondensed-Bold'; font-size:19px; letter-spacing:9;">As</tspan><tspan x="40" y="0" class="st3" style="font-family:'RobotoCondensed-Bold'; font-size:19px; letter-spacing:21;"> </tspan><tspan x="65.7" y="0" class="st3" style="font-family:'RobotoCondensed-Bold'; font-size:19px; letter-spacing:9;">we</tspan><tspan x="110.2" y="0" class="st3" style="font-family:'RobotoCondensed-Bold'; font-size:19px; letter-spacing:21;"> </tspan><tspan x="135.9" y="0" class="st3" style="font-family:'RobotoCondensed-Bold'; font-size:19px; letter-spacing:9;">grow,</tspan><tspan x="239" y="0" class="st3" style="font-family:'RobotoCondensed-Bold'; font-size:19px; letter-spacing:21;"> </tspan><tspan x="264.8" y="0" class="st3" style="font-family:'RobotoCondensed-Bold'; font-size:19px; letter-spacing:9;">change,</tspan><tspan x="404.4" y="0" class="st3" style="font-family:'RobotoCondensed-Bold'; font-size:19px; letter-spacing:21;"> </tspan><tspan x="430.1" y="0" class="st3" style="font-family:'RobotoCondensed-Bold'; font-size:19px; letter-spacing:9;">learn</tspan><tspan x="530.3" y="0" class="st3" style="font-family:'RobotoCondensed-Bold'; font-size:19px; letter-spacing:21;"> </tspan><tspan x="556" y="0" class="st3" style="font-family:'RobotoCondensed-Bold'; font-size:19px; letter-spacing:9;">and</tspan><tspan x="621.3" y="0" class="st3" style="font-family:'RobotoCondensed-Bold'; font-size:19px; letter-spacing:21;"> </tspan><tspan x="647.1" y="0" class="st3" style="font-family:'RobotoCondensed-Bold'; font-size:19px; letter-spacing:9;">seek </tspan><tspan x="0" y="42" class="st3" style="font-family:'RobotoCondensed-Bold'; font-size:19px; letter-spacing:9;">ourselves</tspan><tspan x="178.1" y="42" class="st3" style="font-family:'RobotoCondensed-Bold'; font-size:19px; letter-spacing:22;"> </tspan><tspan x="204.6" y="42" class="st3" style="font-family:'RobotoCondensed-Bold'; font-size:19px; letter-spacing:9;">to</tspan><tspan x="246.1" y="42" class="st3" style="font-family:'RobotoCondensed-Bold'; font-size:19px; letter-spacing:22;"> </tspan><tspan x="272.6" y="42" class="st3" style="font-family:'RobotoCondensed-Bold'; font-size:19px; letter-spacing:9;">constantly</tspan><tspan x="475.9" y="42" class="st3" style="font-family:'RobotoCondensed-Bold'; font-size:19px; letter-spacing:22;"> </tspan><tspan x="502.4" y="42" class="st3" style="font-family:'RobotoCondensed-Bold'; font-size:19px; letter-spacing:9;">improve,</tspan><tspan x="655.5" y="42" class="st3" style="font-family:'RobotoCondensed-Bold'; font-size:19px; letter-spacing:22;"> </tspan><tspan x="682" y="42" class="st3" style="font-family:'RobotoCondensed-Bold'; font-size:19px; letter-spacing:9;">so </tspan><tspan x="0" y="84" class="st3" style="font-family:'RobotoCondensed-Bold'; font-size:19px; letter-spacing:9;">too</tspan><tspan x="64.1" y="84" class="st3" style="font-family:'RobotoCondensed-Bold'; font-size:19px; letter-spacing:18;"> </tspan><tspan x="86.3" y="84" class="st3" style="font-family:'RobotoCondensed-Bold'; font-size:19px; letter-spacing:9;">must</tspan><tspan x="170.7" y="84" class="st3" style="font-family:'RobotoCondensed-Bold'; font-size:19px; letter-spacing:18;"> </tspan><tspan x="192.8" y="84" class="st3" style="font-family:'RobotoCondensed-Bold'; font-size:19px; letter-spacing:9;">our</tspan><tspan x="256.9" y="84" class="st3" style="font-family:'RobotoCondensed-Bold'; font-size:19px; letter-spacing:18;"> </tspan><tspan x="279.1" y="84" class="st3" style="font-family:'RobotoCondensed-Bold'; font-size:19px; letter-spacing:9;">brand</tspan><tspan x="383.9" y="84" class="st3" style="font-family:'RobotoCondensed-Bold'; font-size:19px; letter-spacing:18;"> </tspan><tspan x="406.1" y="84" class="st3" style="font-family:'RobotoCondensed-Bold'; font-size:19px; letter-spacing:9;">reflect</tspan><tspan x="540.2" y="84" class="st3" style="font-family:'RobotoCondensed-Bold'; font-size:19px; letter-spacing:18;"> </tspan><tspan x="562.3" y="84" class="st3" style="font-family:'RobotoCondensed-Bold'; font-size:19px; letter-spacing:9;">that.</tspan><tspan x="656.7" y="84" class="st3" style="font-family:'RobotoCondensed-Bold'; font-size:19px; letter-spacing:18;"> </tspan><tspan x="678.8" y="84" class="st3" style="font-family:'RobotoCondensed-Bold'; font-size:19px; letter-spacing:9;">No </tspan><tspan x="0" y="126" class="st3" style="font-family:'RobotoCondensed-Bold'; font-size:19px; letter-spacing:9;">clinging</tspan><tspan x="154.6" y="126" class="st3" style="font-family:'RobotoCondensed-Bold'; font-size:19px; letter-spacing:7;"> </tspan><tspan x="166.4" y="126" class="st3" style="font-family:'RobotoCondensed-Bold'; font-size:19px; letter-spacing:9;">to</tspan><tspan x="207.9" y="126" class="st3" style="font-family:'RobotoCondensed-Bold'; font-size:19px; letter-spacing:7;"> </tspan><tspan x="219.7" y="126" class="st3" style="font-family:'RobotoCondensed-Bold'; font-size:19px; letter-spacing:9;">the</tspan><tspan x="279.3" y="126" class="st3" style="font-family:'RobotoCondensed-Bold'; font-size:19px; letter-spacing:7;"> </tspan><tspan x="291.1" y="126" class="st3" style="font-family:'RobotoCondensed-Bold'; font-size:19px; letter-spacing:9;">comfort</tspan><tspan x="439" y="126" class="st3" style="font-family:'RobotoCondensed-Bold'; font-size:19px; letter-spacing:7;"> </tspan><tspan x="450.7" y="126" class="st3" style="font-family:'RobotoCondensed-Bold'; font-size:19px; letter-spacing:9;">of</tspan><tspan x="492.1" y="126" class="st3" style="font-family:'RobotoCondensed-Bold'; font-size:19px; letter-spacing:7;"> </tspan><tspan x="503.8" y="126" class="st3" style="font-family:'RobotoCondensed-Bold'; font-size:19px; letter-spacing:9;">the</tspan><tspan x="563.5" y="126" class="st3" style="font-family:'RobotoCondensed-Bold'; font-size:19px; letter-spacing:7;"> </tspan><tspan x="575.3" y="126" class="st3" style="font-family:'RobotoCondensed-Bold'; font-size:19px; letter-spacing:9;">past.</tspan><tspan x="667.2" y="126" class="st3" style="font-family:'RobotoCondensed-Bold'; font-size:19px; letter-spacing:7;"> </tspan><tspan x="679" y="126" class="st3" style="font-family:'RobotoCondensed-Bold'; font-size:19px; letter-spacing:9;">We </tspan><tspan x="0" y="168" class="st3" style="font-family:'RobotoCondensed-Bold'; font-size:19px; letter-spacing:9;">must</tspan><tspan x="84.4" y="168" class="st3" style="font-family:'RobotoCondensed-Bold'; font-size:19px; letter-spacing:22;"> </tspan><tspan x="110.9" y="168" class="st3" style="font-family:'RobotoCondensed-Bold'; font-size:19px; letter-spacing:9;">push</tspan><tspan x="193.1" y="168" class="st3" style="font-family:'RobotoCondensed-Bold'; font-size:19px; letter-spacing:22;"> </tspan><tspan x="219.6" y="168" class="st3" style="font-family:'RobotoCondensed-Bold'; font-size:19px; letter-spacing:9;">forward.</tspan><tspan x="382.7" y="168" class="st3" style="font-family:'RobotoCondensed-Bold'; font-size:19px; letter-spacing:22;"> </tspan><tspan x="409.2" y="168" class="st3" style="font-family:'RobotoCondensed-Bold'; font-size:19px; letter-spacing:9;">We</tspan><tspan x="453.6" y="168" class="st3" style="font-family:'RobotoCondensed-Bold'; font-size:19px; letter-spacing:22;"> </tspan><tspan x="480.1" y="168" class="st3" style="font-family:'RobotoCondensed-Bold'; font-size:19px; letter-spacing:9;">must</tspan><tspan x="564.5" y="168" class="st3" style="font-family:'RobotoCondensed-Bold'; font-size:19px; letter-spacing:22;"> </tspan><tspan x="591" y="168" class="st3" style="font-family:'RobotoCondensed-Bold'; font-size:19px; letter-spacing:9;">evolve. </tspan><tspan x="0" y="210" class="st3" style="font-family:'RobotoCondensed-Bold'; font-size:19px; letter-spacing:9;">Which</tspan><tspan x="103.9" y="210" class="st3" style="font-family:'RobotoCondensed-Bold'; font-size:19px; letter-spacing:14;"> </tspan><tspan x="122.2" y="210" class="st3" style="font-family:'RobotoCondensed-Bold'; font-size:19px; letter-spacing:9;">brings</tspan><tspan x="238.4" y="210" class="st3" style="font-family:'RobotoCondensed-Bold'; font-size:19px; letter-spacing:14;"> </tspan><tspan x="256.7" y="210" class="st3" style="font-family:'RobotoCondensed-Bold'; font-size:19px; letter-spacing:9;">us</tspan><tspan x="297.4" y="210" class="st3" style="font-family:'RobotoCondensed-Bold'; font-size:19px; letter-spacing:14;"> </tspan><tspan x="315.7" y="210" class="st3" style="font-family:'RobotoCondensed-Bold'; font-size:19px; letter-spacing:9;">here,</tspan><tspan x="408.4" y="210" class="st3" style="font-family:'RobotoCondensed-Bold'; font-size:19px; letter-spacing:14;"> </tspan><tspan x="426.7" y="210" class="st3" style="font-family:'RobotoCondensed-Bold'; font-size:19px; letter-spacing:9;">to</tspan><tspan x="468.2" y="210" class="st3" style="font-family:'RobotoCondensed-Bold'; font-size:19px; letter-spacing:14;"> </tspan><tspan x="486.5" y="210" class="st3" style="font-family:'RobotoCondensed-Bold'; font-size:19px; letter-spacing:9;">the</tspan><tspan x="546.2" y="210" class="st3" style="font-family:'RobotoCondensed-Bold'; font-size:19px; letter-spacing:14;"> </tspan><tspan x="564.5" y="210" class="st3" style="font-family:'RobotoCondensed-Bold'; font-size:19px; letter-spacing:9;">verge</tspan><tspan x="663.8" y="210" class="st3" style="font-family:'RobotoCondensed-Bold'; font-size:19px; letter-spacing:14;"> </tspan><tspan x="682.1" y="210" class="st3" style="font-family:'RobotoCondensed-Bold'; font-size:19px; letter-spacing:9;">of </tspan><tspan x="0" y="252" class="st3" style="font-family:'RobotoCondensed-Bold'; font-size:19px; letter-spacing:9;">an</tspan><tspan x="43.1" y="252" class="st3" style="font-family:'RobotoCondensed-Bold'; font-size:19px; letter-spacing:23;"> </tspan><tspan x="71.1" y="252" class="st3" style="font-family:'RobotoCondensed-Bold'; font-size:19px; letter-spacing:9;">exhilarating</tspan><tspan x="303.4" y="252" class="st3" style="font-family:'RobotoCondensed-Bold'; font-size:19px; letter-spacing:23;"> </tspan><tspan x="331.4" y="252" class="st3" style="font-family:'RobotoCondensed-Bold'; font-size:19px; letter-spacing:9;">new</tspan><tspan x="397.8" y="252" class="st3" style="font-family:'RobotoCondensed-Bold'; font-size:19px; letter-spacing:23;"> </tspan><tspan x="425.8" y="252" class="st3" style="font-family:'RobotoCondensed-Bold'; font-size:19px; letter-spacing:9;">chapter</tspan><tspan x="566.5" y="252" class="st3" style="font-family:'RobotoCondensed-Bold'; font-size:19px; letter-spacing:23;"> </tspan><tspan x="594.4" y="252" class="st3" style="font-family:'RobotoCondensed-Bold'; font-size:19px; letter-spacing:9;">of</tspan><tspan x="635.8" y="252" class="st3" style="font-family:'RobotoCondensed-Bold'; font-size:19px; letter-spacing:23;"> </tspan><tspan x="663.7" y="252" class="st3" style="font-family:'RobotoCondensed-Bold'; font-size:19px; letter-spacing:9;">the </tspan><tspan x="0" y="294" class="st3" style="font-family:'RobotoCondensed-Bold'; font-size:19px; letter-spacing:9;">Engine,</tspan><tspan x="130.9" y="294" class="st3" style="font-family:'RobotoCondensed-Bold'; font-size:19px; letter-spacing:24;"> </tspan><tspan x="159.9" y="294" class="st3" style="font-family:'RobotoCondensed-Bold'; font-size:19px; letter-spacing:9;">eagerly</tspan><tspan x="298.4" y="294" class="st3" style="font-family:'RobotoCondensed-Bold'; font-size:19px; letter-spacing:24;"> </tspan><tspan x="327.4" y="294" class="st3" style="font-family:'RobotoCondensed-Bold'; font-size:19px; letter-spacing:9;">awaiting</tspan><tspan x="486" y="294" class="st3" style="font-family:'RobotoCondensed-Bold'; font-size:19px; letter-spacing:24;"> </tspan><tspan x="515" y="294" class="st3" style="font-family:'RobotoCondensed-Bold'; font-size:19px; letter-spacing:9;">the</tspan><tspan x="574.6" y="294" class="st3" style="font-family:'RobotoCondensed-Bold'; font-size:19px; letter-spacing:24;"> </tspan><tspan x="603.6" y="294" class="st3" style="font-family:'RobotoCondensed-Bold'; font-size:19px; letter-spacing:9;">future </tspan><tspan x="0" y="336" class="st3" style="font-family:'RobotoCondensed-Bold'; font-size:19px; letter-spacing:9;">and</tspan><tspan x="65.3" y="336" class="st3" style="font-family:'RobotoCondensed-Bold'; font-size:19px; letter-spacing:14;"> </tspan><tspan x="84.1" y="336" class="st3" style="font-family:'RobotoCondensed-Bold'; font-size:19px; letter-spacing:9;">exploring</tspan><tspan x="261.5" y="336" class="st3" style="font-family:'RobotoCondensed-Bold'; font-size:19px; letter-spacing:14;"> </tspan><tspan x="280.3" y="336" class="st3" style="font-family:'RobotoCondensed-Bold'; font-size:19px; letter-spacing:9;">the</tspan><tspan x="340" y="336" class="st3" style="font-family:'RobotoCondensed-Bold'; font-size:19px; letter-spacing:14;"> </tspan><tspan x="358.8" y="336" class="st3" style="font-family:'RobotoCondensed-Bold'; font-size:19px; letter-spacing:9;">limits</tspan><tspan x="467.9" y="336" class="st3" style="font-family:'RobotoCondensed-Bold'; font-size:19px; letter-spacing:14;"> </tspan><tspan x="486.7" y="336" class="st3" style="font-family:'RobotoCondensed-Bold'; font-size:19px; letter-spacing:9;">of</tspan><tspan x="528.1" y="336" class="st3" style="font-family:'RobotoCondensed-Bold'; font-size:19px; letter-spacing:14;"> </tspan><tspan x="546.9" y="336" class="st3" style="font-family:'RobotoCondensed-Bold'; font-size:19px; letter-spacing:9;">what</tspan><tspan x="634.4" y="336" class="st3" style="font-family:'RobotoCondensed-Bold'; font-size:19px; letter-spacing:14;"> </tspan><tspan x="653.2" y="336" class="st3" style="font-family:'RobotoCondensed-Bold'; font-size:19px; letter-spacing:9;">lies </tspan></text>
<g>
	<defs>
		<rect id="SVGID_3_" x="-465.8" y="229.7" width="382.3" height="112.3"/>
	</defs>
	<clipPath id="SVGID_4_">
		<use xlink:href="#SVGID_3_"  style="overflow:visible;"/>
	</clipPath>
	<g class="st4">
		<path class="st0" d="M11.6,330.6h-469.8v-90H11.6V330.6z M-453.9,326.3H7.3v-81.4h-461.2V326.3z"/>
		<g>
			<path class="st0" d="M-413.6,279v17.4h-4.3V279h-6.2v-4.3h16.8v4.3H-413.6z"/>
		</g>
		<g>
			<path class="st0" d="M-383.9,296.4v-9.1h-8.9v9.1h-4.3v-21.7h4.3v8.3h8.9v-8.3h4.3v21.7H-383.9z"/>
		</g>
		<g>
			<path class="st0" d="M-367.8,296.4v-21.7h15.1v4.2h-10.7v3.8h6.2v4.2h-6.2v5.2h11.2v4.2H-367.8z"/>
		</g>
		<g>
			<path class="st0" d="M-325.1,296.4v-21.7h15.1v4.2h-10.7v3.8h6.2v4.2h-6.2v5.2h11.2v4.2H-325.1z"/>
		</g>
		<g>
			<path class="st0" d="M-284.3,296.4l-8-11.8c-0.3-0.4-0.6-0.9-0.9-1.3c-0.3-0.5-0.5-0.8-0.7-1.1c0,0.2,0,0.5,0,0.9
				c0,0.4,0,0.8,0,1.3s0,0.9,0,1.4c0,0.5,0,0.8,0,1.1v9.6h-4.3v-21.7h4.2l7.7,11.5c0.3,0.4,0.6,0.9,0.9,1.3c0.3,0.5,0.5,0.8,0.7,1.1
				c0-0.2,0-0.5,0-0.9c0-0.4,0-0.8,0-1.3s0-0.9,0-1.4c0-0.5,0-0.8,0-1.1v-9.2h4.3v21.7H-284.3z"/>
		</g>
		<g>
			<path class="st0" d="M-252.9,291.7c-0.4,1.1-1,2-1.8,2.8c-0.8,0.7-1.7,1.3-2.8,1.7c-1.1,0.4-2.2,0.6-3.5,0.6
				c-1.4,0-2.7-0.3-3.9-0.8c-1.2-0.5-2.2-1.3-3-2.2c-0.8-1-1.5-2.1-1.9-3.5c-0.5-1.4-0.7-2.9-0.7-4.6c0-1.7,0.2-3.2,0.7-4.5
				c0.5-1.4,1.1-2.6,2-3.5c0.8-1,1.9-1.7,3-2.3c1.2-0.5,2.5-0.8,3.9-0.8c1.1,0,2.1,0.1,3,0.4s1.6,0.6,2.3,1.1c0.7,0.5,1.2,1,1.7,1.7
				c0.5,0.7,0.9,1.4,1.3,2.2l-4.1,1.7c-0.2-0.4-0.4-0.8-0.7-1.1c-0.2-0.4-0.5-0.7-0.8-0.9c-0.3-0.2-0.7-0.4-1.1-0.6
				c-0.4-0.1-0.9-0.2-1.5-0.2c-0.8,0-1.5,0.2-2.2,0.5c-0.6,0.3-1.2,0.8-1.6,1.4c-0.4,0.6-0.8,1.3-1,2.2c-0.2,0.8-0.3,1.8-0.3,2.8
				c0,1,0.1,1.9,0.3,2.8c0.2,0.8,0.6,1.6,1,2.2c0.4,0.6,1,1.1,1.6,1.5c0.6,0.4,1.4,0.5,2.2,0.5c0.7,0,1.4-0.1,1.9-0.2
				s0.9-0.4,1.3-0.7c0.3-0.3,0.6-0.6,0.7-1c0.2-0.4,0.3-0.8,0.4-1.3h-3.4v-4.1h7.8v2.9C-252.2,289.4-252.5,290.7-252.9,291.7z"/>
		</g>
		<g>
			<path class="st0" d="M-241.1,296.4v-21.7h4.3v21.7H-241.1z"/>
		</g>
		<g>
			<path class="st0" d="M-211.1,296.4l-8-11.8c-0.3-0.4-0.6-0.9-0.9-1.3c-0.3-0.5-0.5-0.8-0.7-1.1c0,0.2,0,0.5,0,0.9
				c0,0.4,0,0.8,0,1.3s0,0.9,0,1.4c0,0.5,0,0.8,0,1.1v9.6h-4.3v-21.7h4.2l7.7,11.5c0.3,0.4,0.6,0.9,0.9,1.3c0.3,0.5,0.5,0.8,0.7,1.1
				c0-0.2,0-0.5,0-0.9c0-0.4,0-0.8,0-1.3s0-0.9,0-1.4c0-0.5,0-0.8,0-1.1v-9.2h4.3v21.7H-211.1z"/>
		</g>
		<g>
			<path class="st0" d="M-195.4,296.4v-21.7h15.1v4.2H-191v3.8h6.2v4.2h-6.2v5.2h11.2v4.2H-195.4z"/>
		</g>
		<g>
			<path class="st0" d="M-152.4,296.4v-21.7h4.3v21.7H-152.4z"/>
		</g>
		<g>
			<path class="st0" d="M-120.5,289.8c0,1-0.2,2-0.5,2.8c-0.3,0.8-0.8,1.6-1.6,2.2c-0.7,0.6-1.6,1.1-2.7,1.4
				c-1.1,0.3-2.3,0.5-3.8,0.5c-1.8,0-3.5-0.4-5-1.1c-1.5-0.7-2.6-1.7-3.5-2.9l3.1-2.8c0.8,0.9,1.6,1.5,2.6,1.9
				c0.9,0.4,1.9,0.6,3,0.6c1.3,0,2.3-0.2,2.9-0.6c0.6-0.4,0.9-1,0.9-1.8c0-0.4-0.1-0.7-0.2-0.9c-0.1-0.3-0.4-0.5-0.7-0.7
				c-0.3-0.2-0.8-0.4-1.5-0.7c-0.6-0.2-1.5-0.4-2.5-0.7c-1-0.2-1.9-0.5-2.7-0.8c-0.8-0.3-1.6-0.7-2.2-1.2c-0.6-0.5-1.1-1.1-1.4-1.8
				c-0.3-0.7-0.5-1.6-0.5-2.7c0-1,0.2-1.9,0.6-2.7c0.4-0.8,1-1.5,1.7-2c0.7-0.5,1.5-1,2.5-1.3c0.9-0.3,1.9-0.4,3-0.4
				c1.7,0,3.2,0.3,4.4,0.9c1.3,0.6,2.4,1.4,3.5,2.5l-3.1,3c-0.7-0.7-1.5-1.3-2.2-1.7c-0.8-0.4-1.7-0.6-2.7-0.6
				c-0.6,0-1.1,0.1-1.5,0.2c-0.4,0.1-0.7,0.3-1,0.4c-0.2,0.2-0.4,0.4-0.5,0.6c-0.1,0.2-0.2,0.5-0.2,0.7c0,0.4,0.1,0.6,0.2,0.9
				c0.1,0.2,0.4,0.4,0.7,0.6c0.3,0.2,0.8,0.4,1.3,0.5c0.6,0.2,1.3,0.4,2.1,0.6c0.9,0.2,1.7,0.4,2.6,0.7c0.9,0.3,1.6,0.7,2.3,1.2
				c0.7,0.5,1.3,1.1,1.7,1.9C-120.7,287.7-120.5,288.7-120.5,289.8z"/>
		</g>
		<g>
			<path class="st0" d="M-80.9,296.4l-3.9-7.8h-4.4v7.8h-4.3v-21.7h10.1c1,0,2,0.1,2.9,0.4c0.9,0.3,1.7,0.7,2.4,1.3
				c0.7,0.6,1.2,1.3,1.6,2.2c0.4,0.9,0.6,1.9,0.6,3c0,1.6-0.3,3-1,4c-0.7,1-1.7,1.8-3.1,2.4l4.2,8.4H-80.9z M-80.4,281.7
				c0-1-0.3-1.7-0.8-2.1c-0.5-0.4-1.3-0.6-2.3-0.6h-5.7v5.6h5.7C-81.5,284.5-80.4,283.6-80.4,281.7z"/>
		</g>
		<g>
			<path class="st0" d="M-64.9,296.4v-21.7h15.1v4.2h-10.7v3.8h6.2v4.2h-6.2v5.2h11.2v4.2H-64.9z"/>
		</g>
		<g>
			<path class="st0" d="M-20.8,285.6c0,1.9-0.3,3.5-0.9,4.9c-0.6,1.4-1.5,2.5-2.5,3.4c-1,0.9-2.2,1.5-3.6,1.9
				c-1.3,0.4-2.7,0.6-4.1,0.6h-6.5v-21.7h6.8c1.6,0,3,0.2,4.3,0.6c1.3,0.4,2.4,1,3.4,1.9c1,0.9,1.7,2,2.3,3.4
				C-21.1,281.9-20.8,283.6-20.8,285.6z M-25.3,285.6c0-2.2-0.5-3.9-1.5-5c-1-1.1-2.7-1.7-5-1.7h-2.3v13.3h2.1c1.1,0,2.1-0.2,3-0.5
				c0.8-0.3,1.5-0.8,2.1-1.3c0.5-0.6,0.9-1.3,1.2-2.1C-25.4,287.5-25.3,286.6-25.3,285.6z"/>
		</g>
	</g>
</g>
<rect x="-1239.6" y="-362.1" class="st3" width="347.6" height="58.5"/>
<rect x="-1239.6" y="-285.6" class="st3" width="347.6" height="58.5"/>
<rect x="-924.4" y="-154.1" class="st5" width="83.4" height="33.3"/>
<rect x="-873.4" y="-362.1" class="st3" width="347.6" height="58.5"/>
<rect x="-873.4" y="-285.6" class="st3" width="347.6" height="58.5"/>
<rect x="-1487.5" y="160.9" style="fill:none;" width="283.4" height="115.3"/>
<text transform="matrix(1 0 0 1 -1407.0933 172.272)"><tspan x="0" y="0" class="st3" style="font-family:'RobotoCondensed-Bold'; font-size:16px; letter-spacing:4;">SANTA ROSA</tspan><tspan x="-43.5" y="34" class="st3" style="font-family:'RobotoCondensed-Bold'; font-size:16px; letter-spacing:4;">401 mendocino ave</tspan><tspan x="12.4" y="68" class="st3" style="font-family:'RobotoCondensed-Bold'; font-size:16px; letter-spacing:4;">suite 100</tspan><tspan x="-21.7" y="102" class="st3" style="font-family:'RobotoCondensed-Bold'; font-size:20px; letter-spacing:5;">707 546 5448</tspan></text>
<rect x="-1159" y="160.9" style="fill:none;" width="283.4" height="115.3"/>
<text transform="matrix(1 0 0 1 -1084.4274 172.272)"><tspan x="0" y="0" class="st3" style="font-family:'RobotoCondensed-Bold'; font-size:16px; letter-spacing:4;">MINNEAPOLIS</tspan><tspan x="-26.9" y="34" class="st3" style="font-family:'RobotoCondensed-Bold'; font-size:16px; letter-spacing:4;">711 hennepin ave</tspan><tspan x="18.2" y="68" class="st3" style="font-family:'RobotoCondensed-Bold'; font-size:16px; letter-spacing:4;">suite 500</tspan><tspan x="-15.9" y="102" class="st3" style="font-family:'RobotoCondensed-Bold'; font-size:20px; letter-spacing:5;">707 546 5448</tspan></text>
<g>
	<path class="st3" d="M1.6,20.9c-1-2-1.6-4.2-1.6-6.6C0,6.4,6.4,0,14.2,0c7.9,0,14.2,6.4,14.2,14.2c0,2.4-0.6,4.6-1.6,6.6L14.2,42.7
		L1.6,20.9z"/>
	<circle class="st1" cx="14.2" cy="14.2" r="7.1"/>
</g>
<g>
	<path class="st3" d="M-1026.2,112.9c-1-2-1.6-4.2-1.6-6.6c0-7.9,6.4-14.2,14.2-14.2c7.9,0,14.2,6.4,14.2,14.2
		c0,2.4-0.6,4.6-1.6,6.6l-12.6,21.9L-1026.2,112.9z"/>
	<circle class="st1" cx="-1013.5" cy="106.2" r="7.1"/>
</g>
<g>
	<g>
		<g>
			<defs>
				<circle id="SVGID_5_" cx="-780.8" cy="288.7" r="32.3"/>
			</defs>
			<linearGradient id="SVGID_6_" gradientUnits="userSpaceOnUse" x1="-813.0325" y1="288.6937" x2="-748.5323" y2="288.6937">
				<stop  offset="0" style="stop-color:#1EA6DF"/>
				<stop  offset="1" style="stop-color:#DA4097"/>
			</linearGradient>
			<use xlink:href="#SVGID_5_"  style="overflow:visible;fill:url(#SVGID_6_);"/>
			<clipPath id="SVGID_7_">
				<use xlink:href="#SVGID_5_"  style="overflow:visible;"/>
			</clipPath>
			<g class="st6">
				<path class="st0" d="M-792.6,297.2h-7v-9.8h7v-2.3c0-9.2,5.6-16.3,14-16.3c3.2,0,7.4,1,9.7,2.6l-4.7,7.5c-1-0.6-2.4-1.2-4-0.9
					c-2.9,0.7-3.7,3.2-3.7,7.2v2.1h8.6v9.8h-8.6v32.7h-11.3V297.2z"/>
			</g>
		</g>
	</g>
	<circle class="st7" cx="-695.9" cy="288.7" r="32.3"/>
	<g>
		<defs>
			<circle id="SVGID_8_" cx="-695.9" cy="288.7" r="32.3"/>
		</defs>
		<linearGradient id="SVGID_9_" gradientUnits="userSpaceOnUse" x1="-728.1271" y1="288.6937" x2="-663.6269" y2="288.6937">
			<stop  offset="0" style="stop-color:#1EA6DF"/>
			<stop  offset="1" style="stop-color:#DA4097"/>
		</linearGradient>
		<use xlink:href="#SVGID_8_"  style="overflow:visible;fill:url(#SVGID_9_);"/>
		<clipPath id="SVGID_10_">
			<use xlink:href="#SVGID_8_"  style="overflow:visible;"/>
		</clipPath>
	</g>
	<path class="st0" d="M-681.8,306.9h-28.1c-2.5,0-4.5-2.3-4.5-5.2V278c0-4.2,2.8-6.4,5.7-6.4h27c2.5,0,4.5,2.3,4.5,5.2v24.9
		C-677.3,304.6-679.3,306.9-681.8,306.9z M-708.8,274.4c-2.8,0-2.9,3.6-2.9,3.6v23.7c0,1.3,0.8,2.4,1.7,2.4h28.1
		c0.9,0,1.7-1.1,1.7-2.4v-24.9c0-1.3-0.8-2.4-1.7-2.4H-708.8z"/>
	<path class="st0" d="M-695.8,298.7c-4.8,0-8.7-3.9-8.7-8.7c0-4.8,3.9-8.7,8.7-8.7c4.8,0,8.7,3.9,8.7,8.7
		C-687.1,294.8-691,298.7-695.8,298.7z M-695.8,284c-3.3,0-6,2.7-6,6c0,3.3,2.7,6,6,6c3.3,0,6-2.7,6-6
		C-689.9,286.7-692.6,284-695.8,284z"/>
	<path class="st0" d="M-685.5,281.6L-685.5,281.6c1.1,0,1.9-0.9,1.9-1.9l0,0c0-1.1-0.9-1.9-1.9-1.9l0,0c-1.1,0-1.9,0.9-1.9,1.9l0,0
		C-687.4,280.7-686.6,281.6-685.5,281.6z"/>
	<linearGradient id="SVGID_11_" gradientUnits="userSpaceOnUse" x1="-642.8245" y1="290.9547" x2="-578.3244" y2="290.9547">
		<stop  offset="0" style="stop-color:#1EA6DF"/>
		<stop  offset="1" style="stop-color:#DA4097"/>
	</linearGradient>
	<circle class="st8" cx="-610.6" cy="291" r="32.3"/>
	<g>
		<path class="st0" d="M-610.9,311.1c-10.6,0-19.2-8.6-19.2-19.2c0-10.6,8.6-19.2,19.2-19.2c10.6,0,19.2,8.6,19.2,19.2
			C-591.7,302.5-600.3,311.1-610.9,311.1z M-610.9,275.4c-9.1,0-16.5,7.4-16.5,16.5c0,9.1,7.4,16.5,16.5,16.5
			c9.1,0,16.5-7.4,16.5-16.5C-594.4,282.8-601.8,275.4-610.9,275.4z"/>
		<path class="st0" d="M-610.8,311.1c-6.8,0-12.2-8.5-12.2-19.2c0-10.8,5.4-19.2,12.2-19.2s12.2,8.5,12.2,19.2
			C-598.6,302.7-604,311.1-610.8,311.1z M-610.8,275.4c-5.1,0-9.4,7.5-9.4,16.5c0,8.9,4.3,16.5,9.4,16.5c5.1,0,9.4-7.5,9.4-16.5
			C-601.4,282.9-605.7,275.4-610.8,275.4z"/>
		<rect x="-628.7" y="290.6" class="st0" width="35.3" height="2.8"/>
		<rect x="-612.4" y="274" class="st0" width="2.8" height="36"/>
		<rect x="-625.9" y="281.7" class="st0" width="30.3" height="2.8"/>
		<rect x="-625.9" y="299.4" class="st0" width="30.3" height="2.8"/>
	</g>
</g>
<rect x="-1228.8" y="-346.6" style="fill:none;" width="323" height="32.8"/>
<text transform="matrix(1 0 0 1 -1228.7605 -318.2412)" class="st9" style="font-family:'RobotoCondensed-Light'; font-size:40px;">Name</text>
<rect x="-861.1" y="-346.6" style="fill:none;" width="323" height="32.8"/>
<text transform="matrix(1 0 0 1 -861.058 -318.2412)" class="st9" style="font-family:'RobotoCondensed-Light'; font-size:40px;">COMPANY</text>
<rect x="-1228.5" y="-268.6" style="fill:none;" width="323" height="32.8"/>
<text transform="matrix(1 0 0 1 -1228.498 -240.2412)" class="st9" style="font-family:'RobotoCondensed-Light'; font-size:40px;">EMAIL</text>
<rect x="-860.8" y="-268.6" style="fill:none;" width="323" height="32.8"/>
<text transform="matrix(1 0 0 1 -860.7957 -240.2412)" class="st9" style="font-family:'RobotoCondensed-Light'; font-size:40px;">PHONE</text>
<rect x="-914.3" y="-144.3" style="fill:none;" width="61.9" height="13.7"/>
<text transform="matrix(1 0 0 1 -909.9871 -132.1925)" class="st3" style="font-family:'RobotoCondensed-Regular'; font-size:17.0625px; letter-spacing:1;">submi</text>
<rect x="-1303" y="-443.5" style="fill:none;" width="841.2" height="23.3"/>
<text transform="matrix(1 0 0 1 -1003.4988 -427.2083)" class="st0" style="font-family:'RobotoCondensed-Bold'; font-size:23px; letter-spacing:12;">CONTACT US</text>
<g>
	<defs>
		<rect id="SVGID_12_" x="-1682.8" y="229.7" width="382.3" height="112.3"/>
	</defs>
	<clipPath id="SVGID_13_">
		<use xlink:href="#SVGID_12_"  style="overflow:visible;"/>
	</clipPath>
	<g class="st10">
		<path class="st0" d="M-1580,330.6h-469.8v-90h469.8V330.6z M-2045.5,326.3h461.2v-81.4h-461.2V326.3z"/>
		<g>
			<path class="st0" d="M-2005.1,279v17.4h-4.3V279h-6.2v-4.3h16.8v4.3H-2005.1z"/>
		</g>
		<g>
			<path class="st0" d="M-1975.5,296.4v-9.1h-8.9v9.1h-4.3v-21.7h4.3v8.3h8.9v-8.3h4.3v21.7H-1975.5z"/>
		</g>
		<g>
			<path class="st0" d="M-1959.3,296.4v-21.7h15.1v4.2h-10.7v3.8h6.2v4.2h-6.2v5.2h11.2v4.2H-1959.3z"/>
		</g>
		<g>
			<path class="st0" d="M-1916.6,296.4v-21.7h15.1v4.2h-10.7v3.8h6.2v4.2h-6.2v5.2h11.2v4.2H-1916.6z"/>
		</g>
		<g>
			<path class="st0" d="M-1875.9,296.4l-8-11.8c-0.3-0.4-0.6-0.9-0.9-1.3c-0.3-0.5-0.5-0.8-0.7-1.1c0,0.2,0,0.5,0,0.9
				c0,0.4,0,0.8,0,1.3s0,0.9,0,1.4c0,0.5,0,0.8,0,1.1v9.6h-4.3v-21.7h4.2l7.7,11.5c0.3,0.4,0.6,0.9,0.9,1.3c0.3,0.5,0.5,0.8,0.7,1.1
				c0-0.2,0-0.5,0-0.9c0-0.4,0-0.8,0-1.3s0-0.9,0-1.4c0-0.5,0-0.8,0-1.1v-9.2h4.3v21.7H-1875.9z"/>
		</g>
		<g>
			<path class="st0" d="M-1844.5,291.7c-0.4,1.1-1,2-1.8,2.8c-0.8,0.7-1.7,1.3-2.8,1.7c-1.1,0.4-2.2,0.6-3.5,0.6
				c-1.4,0-2.7-0.3-3.9-0.8c-1.2-0.5-2.2-1.3-3-2.2c-0.8-1-1.5-2.1-1.9-3.5c-0.5-1.4-0.7-2.9-0.7-4.6c0-1.7,0.2-3.2,0.7-4.5
				c0.5-1.4,1.1-2.6,2-3.5c0.8-1,1.9-1.7,3-2.3c1.2-0.5,2.5-0.8,3.9-0.8c1.1,0,2.1,0.1,3,0.4c0.9,0.2,1.6,0.6,2.3,1.1
				c0.7,0.5,1.2,1,1.7,1.7c0.5,0.7,0.9,1.4,1.3,2.2l-4.1,1.7c-0.2-0.4-0.4-0.8-0.7-1.1c-0.2-0.4-0.5-0.7-0.8-0.9
				c-0.3-0.2-0.7-0.4-1.1-0.6c-0.4-0.1-0.9-0.2-1.5-0.2c-0.8,0-1.5,0.2-2.2,0.5c-0.6,0.3-1.2,0.8-1.6,1.4c-0.4,0.6-0.8,1.3-1,2.2
				c-0.2,0.8-0.3,1.8-0.3,2.8c0,1,0.1,1.9,0.3,2.8c0.2,0.8,0.6,1.6,1,2.2c0.4,0.6,1,1.1,1.6,1.5c0.6,0.4,1.4,0.5,2.2,0.5
				c0.7,0,1.4-0.1,1.9-0.2c0.5-0.2,0.9-0.4,1.3-0.7c0.3-0.3,0.6-0.6,0.7-1c0.2-0.4,0.3-0.8,0.4-1.3h-3.4v-4.1h7.8v2.9
				C-1843.8,289.4-1844,290.7-1844.5,291.7z"/>
		</g>
		<g>
			<path class="st0" d="M-1832.7,296.4v-21.7h4.3v21.7H-1832.7z"/>
		</g>
		<g>
			<path class="st0" d="M-1802.6,296.4l-8-11.8c-0.3-0.4-0.6-0.9-0.9-1.3c-0.3-0.5-0.5-0.8-0.7-1.1c0,0.2,0,0.5,0,0.9
				c0,0.4,0,0.8,0,1.3s0,0.9,0,1.4c0,0.5,0,0.8,0,1.1v9.6h-4.3v-21.7h4.2l7.7,11.5c0.3,0.4,0.6,0.9,0.9,1.3c0.3,0.5,0.5,0.8,0.7,1.1
				c0-0.2,0-0.5,0-0.9c0-0.4,0-0.8,0-1.3s0-0.9,0-1.4c0-0.5,0-0.8,0-1.1v-9.2h4.3v21.7H-1802.6z"/>
		</g>
		<g>
			<path class="st0" d="M-1786.9,296.4v-21.7h15.1v4.2h-10.7v3.8h6.2v4.2h-6.2v5.2h11.2v4.2H-1786.9z"/>
		</g>
		<g>
			<path class="st0" d="M-1743.9,296.4v-21.7h4.3v21.7H-1743.9z"/>
		</g>
		<g>
			<path class="st0" d="M-1712,289.8c0,1-0.2,2-0.5,2.8c-0.3,0.8-0.8,1.6-1.6,2.2c-0.7,0.6-1.6,1.1-2.7,1.4
				c-1.1,0.3-2.3,0.5-3.8,0.5c-1.8,0-3.5-0.4-5-1.1c-1.5-0.7-2.6-1.7-3.5-2.9l3.1-2.8c0.8,0.9,1.6,1.5,2.6,1.9
				c0.9,0.4,1.9,0.6,3,0.6c1.3,0,2.3-0.2,2.9-0.6c0.6-0.4,0.9-1,0.9-1.8c0-0.4-0.1-0.7-0.2-0.9c-0.1-0.3-0.4-0.5-0.7-0.7
				c-0.3-0.2-0.8-0.4-1.5-0.7c-0.6-0.2-1.5-0.4-2.5-0.7c-1-0.2-1.9-0.5-2.7-0.8c-0.8-0.3-1.6-0.7-2.2-1.2c-0.6-0.5-1.1-1.1-1.4-1.8
				c-0.3-0.7-0.5-1.6-0.5-2.7c0-1,0.2-1.9,0.6-2.7c0.4-0.8,1-1.5,1.7-2c0.7-0.5,1.5-1,2.5-1.3c0.9-0.3,1.9-0.4,3-0.4
				c1.7,0,3.2,0.3,4.4,0.9c1.3,0.6,2.4,1.4,3.5,2.5l-3.1,3c-0.7-0.7-1.5-1.3-2.2-1.7c-0.8-0.4-1.7-0.6-2.7-0.6
				c-0.6,0-1.1,0.1-1.5,0.2c-0.4,0.1-0.7,0.3-1,0.4c-0.2,0.2-0.4,0.4-0.5,0.6c-0.1,0.2-0.2,0.5-0.2,0.7c0,0.4,0.1,0.6,0.2,0.9
				c0.1,0.2,0.4,0.4,0.7,0.6c0.3,0.2,0.8,0.4,1.3,0.5c0.6,0.2,1.3,0.4,2.1,0.6c0.9,0.2,1.7,0.4,2.6,0.7c0.9,0.3,1.6,0.7,2.3,1.2
				c0.7,0.5,1.3,1.1,1.7,1.9C-1712.2,287.7-1712,288.7-1712,289.8z"/>
		</g>
		<g>
			<path class="st0" d="M-1672.5,296.4l-3.9-7.8h-4.4v7.8h-4.3v-21.7h10.1c1,0,2,0.1,2.9,0.4c0.9,0.3,1.7,0.7,2.4,1.3
				c0.7,0.6,1.2,1.3,1.6,2.2c0.4,0.9,0.6,1.9,0.6,3c0,1.6-0.3,3-1,4c-0.7,1-1.7,1.8-3.1,2.4l4.2,8.4H-1672.5z M-1672,281.7
				c0-1-0.3-1.7-0.8-2.1c-0.5-0.4-1.3-0.6-2.3-0.6h-5.7v5.6h5.7C-1673,284.5-1672,283.6-1672,281.7z"/>
		</g>
		<g>
			<path class="st0" d="M-1656.4,296.4v-21.7h15.1v4.2h-10.7v3.8h6.2v4.2h-6.2v5.2h11.2v4.2H-1656.4z"/>
		</g>
		<g>
			<path class="st0" d="M-1612.4,285.6c0,1.9-0.3,3.5-0.9,4.9c-0.6,1.4-1.5,2.5-2.5,3.4c-1,0.9-2.2,1.5-3.6,1.9
				c-1.3,0.4-2.7,0.6-4.1,0.6h-6.5v-21.7h6.8c1.6,0,3,0.2,4.3,0.6c1.3,0.4,2.4,1,3.4,1.9c1,0.9,1.7,2,2.3,3.4
				C-1612.7,281.9-1612.4,283.6-1612.4,285.6z M-1616.9,285.6c0-2.2-0.5-3.9-1.5-5c-1-1.1-2.7-1.7-5-1.7h-2.3v13.3h2.1
				c1.1,0,2.1-0.2,3-0.5c0.8-0.3,1.5-0.8,2.1-1.3c0.5-0.6,0.9-1.3,1.2-2.1C-1617,287.5-1616.9,286.6-1616.9,285.6z"/>
		</g>
	</g>
</g>
</svg>
