<?xml version="1.0" encoding="utf-8"?>
<!-- Generator: Adobe Illustrator 20.1.0, SVG Export Plug-In . SVG Version: 6.00 Build 0)  -->
<!DOCTYPE svg PUBLIC "-//W3C//DTD SVG 1.1//EN" "http://www.w3.org/Graphics/SVG/1.1/DTD/svg11.dtd">
<svg version="1.1" id="Layer_1" xmlns="http://www.w3.org/2000/svg" xmlns:xlink="http://www.w3.org/1999/xlink" x="0px" y="0px"
	 viewBox="0 0 382.3 112.3" style="enable-background:new 0 0 382.3 112.3;" xml:space="preserve">
<style type="text/css">
	.st0{fill:#FFFFFF;}
	.st1{fill:#282829;}
	.st2{fill:#00A7E6;}
	.st3{fill:#D4EFFC;}
	.st4{clip-path:url(#SVGID_4_);}
	.st5{fill:none;stroke:#D4EFFC;stroke-miterlimit:10;}
	.st6{clip-path:url(#SVGID_7_);}
	.st7{fill:#6599D1;}
	.st8{fill:url(#SVGID_11_);}
	.st9{fill:#D1D3D4;}
	.st10{clip-path:url(#SVGID_13_);}
</style>
<g>
	<defs>
		<rect id="SVGID_1_" x="225" y="-2276.3" width="1600" height="846.1"/>
	</defs>
	<clipPath id="SVGID_2_">
		<use xlink:href="#SVGID_1_"  style="overflow:visible;"/>
	</clipPath>
	<g style="clip-path:url(#SVGID_2_);">
		
	</g>
</g>
<g>
	<path class="st0" d="M1164.2-1825.2h-368v-70.5h368V-1825.2z M799.5-1828.6h361.3v-63.8H799.5V-1828.6z"/>
	<g>
		<path class="st0" d="M831.1-1865.6v13.7h-3.4v-13.7h-4.9v-3.4H836v3.4H831.1z"/>
	</g>
	<g>
		<path class="st0" d="M854.3-1852v-7.1h-7v7.1h-3.4v-17h3.4v6.5h7v-6.5h3.4v17H854.3z"/>
	</g>
	<g>
		<path class="st0" d="M867-1852v-17h11.8v3.3h-8.4v2.9h4.9v3.3h-4.9v4.1h8.8v3.3H867z"/>
	</g>
	<g>
		<path class="st0" d="M900.4-1852v-17h11.8v3.3h-8.4v2.9h4.9v3.3h-4.9v4.1h8.8v3.3H900.4z"/>
	</g>
	<g>
		<path class="st0" d="M932.3-1852l-6.2-9.3c-0.2-0.3-0.4-0.7-0.7-1c-0.2-0.4-0.4-0.7-0.5-0.9c0,0.2,0,0.4,0,0.7c0,0.3,0,0.7,0,1
			c0,0.4,0,0.7,0,1.1c0,0.4,0,0.7,0,0.9v7.5h-3.4v-17h3.3l6,9c0.2,0.3,0.4,0.7,0.7,1c0.2,0.4,0.4,0.7,0.5,0.9c0-0.2,0-0.4,0-0.7
			c0-0.3,0-0.7,0-1c0-0.4,0-0.7,0-1.1c0-0.4,0-0.7,0-0.9v-7.2h3.4v17H932.3z"/>
	</g>
	<g>
		<path class="st0" d="M957-1855.6c-0.3,0.9-0.8,1.6-1.4,2.2c-0.6,0.6-1.3,1-2.2,1.3c-0.8,0.3-1.7,0.5-2.7,0.5c-1.1,0-2.1-0.2-3-0.6
			c-0.9-0.4-1.7-1-2.3-1.8c-0.7-0.8-1.2-1.7-1.5-2.8c-0.4-1.1-0.5-2.3-0.5-3.6c0-1.3,0.2-2.5,0.6-3.6c0.4-1.1,0.9-2,1.6-2.8
			c0.7-0.8,1.5-1.4,2.4-1.8c0.9-0.4,1.9-0.6,3.1-0.6c0.9,0,1.6,0.1,2.3,0.3c0.7,0.2,1.3,0.5,1.8,0.9c0.5,0.4,1,0.8,1.3,1.3
			c0.4,0.5,0.7,1.1,1,1.8l-3.2,1.3c-0.2-0.3-0.3-0.6-0.5-0.9c-0.2-0.3-0.4-0.5-0.7-0.7c-0.3-0.2-0.5-0.3-0.9-0.5
			c-0.3-0.1-0.7-0.2-1.2-0.2c-0.6,0-1.2,0.1-1.7,0.4c-0.5,0.3-0.9,0.6-1.3,1.1c-0.3,0.5-0.6,1-0.8,1.7c-0.2,0.7-0.3,1.4-0.3,2.2
			c0,0.8,0.1,1.5,0.3,2.2c0.2,0.7,0.4,1.2,0.8,1.7c0.3,0.5,0.8,0.9,1.3,1.1c0.5,0.3,1.1,0.4,1.7,0.4c0.6,0,1.1-0.1,1.5-0.2
			c0.4-0.1,0.7-0.3,1-0.5c0.3-0.2,0.4-0.5,0.6-0.8c0.1-0.3,0.2-0.7,0.3-1h-2.7v-3.2h6.1v2.2C957.5-1857.5,957.3-1856.5,957-1855.6z"
			/>
	</g>
	<g>
		<path class="st0" d="M966.2-1852v-17h3.4v17H966.2z"/>
	</g>
	<g>
		<path class="st0" d="M989.7-1852l-6.2-9.3c-0.2-0.3-0.4-0.7-0.7-1c-0.2-0.4-0.4-0.7-0.5-0.9c0,0.2,0,0.4,0,0.7c0,0.3,0,0.7,0,1
			c0,0.4,0,0.7,0,1.1c0,0.4,0,0.7,0,0.9v7.5H979v-17h3.3l6,9c0.2,0.3,0.4,0.7,0.7,1c0.2,0.4,0.4,0.7,0.5,0.9c0-0.2,0-0.4,0-0.7
			c0-0.3,0-0.7,0-1c0-0.4,0-0.7,0-1.1c0-0.4,0-0.7,0-0.9v-7.2h3.4v17H989.7z"/>
	</g>
	<g>
		<path class="st0" d="M1002-1852v-17h11.8v3.3h-8.4v2.9h4.9v3.3h-4.9v4.1h8.8v3.3H1002z"/>
	</g>
	<g>
		<path class="st0" d="M1035.7-1852v-17h3.4v17H1035.7z"/>
	</g>
	<g>
		<path class="st0" d="M1060.7-1857.1c0,0.8-0.1,1.5-0.4,2.2c-0.3,0.7-0.7,1.2-1.2,1.7c-0.6,0.5-1.2,0.8-2.1,1.1
			c-0.8,0.3-1.8,0.4-3,0.4c-1.4,0-2.7-0.3-3.9-0.8c-1.2-0.6-2.1-1.3-2.7-2.3l2.5-2.2c0.6,0.7,1.3,1.2,2,1.5c0.7,0.3,1.5,0.4,2.3,0.4
			c1,0,1.8-0.1,2.2-0.4c0.5-0.3,0.7-0.8,0.7-1.4c0-0.3,0-0.5-0.1-0.7c-0.1-0.2-0.3-0.4-0.5-0.6c-0.3-0.2-0.7-0.3-1.2-0.5
			c-0.5-0.2-1.1-0.3-1.9-0.5c-0.8-0.2-1.5-0.4-2.1-0.6c-0.7-0.2-1.2-0.6-1.7-0.9c-0.5-0.4-0.8-0.8-1.1-1.4c-0.3-0.6-0.4-1.3-0.4-2.1
			c0-0.8,0.2-1.5,0.5-2.1c0.3-0.6,0.7-1.1,1.3-1.6c0.6-0.4,1.2-0.8,1.9-1c0.7-0.2,1.5-0.3,2.4-0.3c1.3,0,2.5,0.2,3.5,0.7
			c1,0.5,1.9,1.1,2.7,2l-2.5,2.4c-0.6-0.6-1.1-1-1.8-1.3c-0.6-0.3-1.3-0.4-2.1-0.4c-0.5,0-0.8,0-1.1,0.1c-0.3,0.1-0.6,0.2-0.8,0.4
			c-0.2,0.1-0.3,0.3-0.4,0.5c-0.1,0.2-0.1,0.4-0.1,0.6c0,0.3,0.1,0.5,0.2,0.7c0.1,0.2,0.3,0.4,0.5,0.5c0.3,0.1,0.6,0.3,1,0.4
			c0.4,0.1,1,0.3,1.7,0.4c0.7,0.2,1.4,0.4,2,0.6c0.7,0.2,1.3,0.5,1.8,0.9c0.5,0.4,1,0.9,1.3,1.5
			C1060.5-1858.8,1060.7-1858,1060.7-1857.1z"/>
	</g>
</g>
<g>
	<path class="st1" d="M1079.6-1851.6v-17.7h12.3v3.5h-8.8v3.1h5.1v3.4h-5.1v4.3h9.1v3.5H1079.6z"/>
	<path class="st1" d="M1110-1851.6l-1.6-2.7c-0.6-1.1-1.6-2.8-1.9-3.5c-0.3,0.7-1.3,2.4-1.9,3.5l-1.6,2.7h-4.2l5.6-9.1l-5.4-8.7h4.2
		l1.3,2.3c0.6,1.1,1.6,2.8,1.9,3.5c0.3-0.7,1.3-2.4,1.9-3.5l1.3-2.3h4.2l-5.4,8.7l5.6,9.1H1110z"/>
	<path class="st1" d="M1128.8-1857.9h-3.9v6.3h-3.5v-17.7h7.7c3.3,0,6.1,1.8,6.1,5.6C1135.2-1859.6,1132.5-1857.9,1128.8-1857.9z
		 M1129-1865.9h-4.1v4.6h4.1c1.6,0,2.5-0.8,2.5-2.3C1131.6-1865.2,1130.6-1865.9,1129-1865.9z"/>
	<path class="st1" d="M1142.4-1851.6v-17.7h3.5v14.2h8.9v3.5H1142.4z"/>
	<path class="st1" d="M1167.9-1851.3c-4.8,0-7.7-3.7-7.7-9.1c0-5.4,2.9-9.1,7.7-9.1c4.8,0,7.7,3.7,7.7,9.1
		C1175.6-1855.1,1172.8-1851.3,1167.9-1851.3z M1167.9-1866.1c-2.9,0-4,2.5-4,5.6c0,3.2,1.2,5.6,4,5.6c2.9,0,4-2.5,4-5.6
		C1172-1863.6,1170.8-1866.1,1167.9-1866.1z"/>
	<path class="st1" d="M1193.3-1851.6l-3.2-6.4h-3.6v6.4h-3.5v-17.7h8.2c3.3,0,6.1,1.8,6.1,5.6c0,2.7-1.1,4.3-3.4,5.2l3.4,6.9H1193.3
		z M1191.2-1865.9h-4.6v4.6h4.6c1.6,0,2.5-0.8,2.5-2.3C1193.7-1865.2,1192.8-1865.9,1191.2-1865.9z"/>
	<path class="st1" d="M1205.1-1851.6v-17.7h3.5v17.7H1205.1z"/>
	<path class="st1" d="M1228.5-1851.6l-6.5-9.7c-0.4-0.7-1-1.5-1.2-2c0,0.7,0.1,2.9,0.1,3.9v7.8h-3.5v-17.7h3.4l6.3,9.4
		c0.4,0.7,1,1.5,1.2,2c0-0.7-0.1-2.9-0.1-3.9v-7.5h3.5v17.7H1228.5z"/>
	<path class="st1" d="M1246.8-1851.3c-4.6,0-7.7-3.5-7.7-9.1c0-5.4,3.2-9.1,7.9-9.1c3.6,0,5.5,1.7,6.7,4.4l-3.4,1.4
		c-0.7-1.3-1.5-2.3-3.4-2.3c-2.7,0-4.2,2.3-4.2,5.6c0,3.3,1.5,5.7,4.2,5.7c2.4,0,3.3-1.1,3.5-2.7h-2.8v-3.3h6.3v2.3
		C1253.9-1853.9,1250.9-1851.3,1246.8-1851.3z"/>
</g>
<g>
	<path class="st0" d="M2276.4-2362.7h-436.5v-83.6h436.5V-2362.7z M1843.9-2366.7h428.5v-75.7h-428.5V-2366.7z"/>
	<g>
		<path class="st0" d="M1881.4-2410.6v16.2h-4v-16.2h-5.8v-4h15.6v4H1881.4z"/>
	</g>
	<g>
		<path class="st0" d="M1908.9-2394.4v-8.5h-8.3v8.5h-4v-20.2h4v7.7h8.3v-7.7h4v20.2H1908.9z"/>
	</g>
	<g>
		<path class="st0" d="M1924-2394.4v-20.2h14v3.9h-10v3.5h5.8v3.9h-5.8v4.9h10.4v3.9H1924z"/>
	</g>
	<g>
		<path class="st0" d="M1963.6-2394.4v-20.2h14v3.9h-10v3.5h5.8v3.9h-5.8v4.9h10.4v3.9H1963.6z"/>
	</g>
	<g>
		<path class="st0" d="M2001.5-2394.4l-7.4-11c-0.2-0.4-0.5-0.8-0.8-1.2c-0.3-0.4-0.5-0.8-0.6-1.1c0,0.2,0,0.5,0,0.8
			c0,0.4,0,0.8,0,1.2c0,0.4,0,0.9,0,1.3c0,0.4,0,0.8,0,1.1v8.9h-4v-20.2h3.9l7.1,10.7c0.2,0.4,0.5,0.8,0.8,1.2
			c0.3,0.4,0.5,0.8,0.6,1.1c0-0.2,0-0.5,0-0.9c0-0.4,0-0.8,0-1.2s0-0.9,0-1.3c0-0.4,0-0.8,0-1.1v-8.5h4v20.2H2001.5z"/>
	</g>
	<g>
		<path class="st0" d="M2030.7-2398.8c-0.4,1-1,1.9-1.7,2.6c-0.7,0.7-1.6,1.2-2.6,1.6c-1,0.4-2.1,0.5-3.2,0.5
			c-1.3,0-2.5-0.2-3.6-0.7c-1.1-0.5-2-1.2-2.8-2.1c-0.8-0.9-1.4-2-1.8-3.3c-0.4-1.3-0.6-2.7-0.6-4.3c0-1.5,0.2-2.9,0.7-4.2
			s1.1-2.4,1.8-3.3c0.8-0.9,1.7-1.6,2.8-2.1c1.1-0.5,2.3-0.8,3.6-0.8c1,0,2,0.1,2.8,0.3c0.8,0.2,1.5,0.6,2.1,1
			c0.6,0.4,1.1,1,1.6,1.6c0.5,0.6,0.8,1.3,1.2,2.1l-3.8,1.6c-0.2-0.4-0.4-0.7-0.6-1c-0.2-0.3-0.5-0.6-0.8-0.8
			c-0.3-0.2-0.6-0.4-1.1-0.5c-0.4-0.1-0.9-0.2-1.4-0.2c-0.7,0-1.4,0.2-2,0.5c-0.6,0.3-1.1,0.8-1.5,1.3c-0.4,0.6-0.7,1.2-0.9,2
			c-0.2,0.8-0.3,1.6-0.3,2.6c0,0.9,0.1,1.8,0.3,2.6c0.2,0.8,0.5,1.5,0.9,2c0.4,0.6,0.9,1,1.5,1.4c0.6,0.3,1.3,0.5,2,0.5
			c0.7,0,1.3-0.1,1.8-0.2c0.5-0.2,0.9-0.4,1.2-0.6c0.3-0.3,0.5-0.6,0.7-1c0.2-0.4,0.3-0.8,0.3-1.2h-3.2v-3.8h7.2v2.7
			C2031.3-2401,2031.1-2399.8,2030.7-2398.8z"/>
	</g>
	<g>
		<path class="st0" d="M2041.6-2394.4v-20.2h4v20.2H2041.6z"/>
	</g>
	<g>
		<path class="st0" d="M2069.5-2394.4l-7.4-11c-0.2-0.4-0.5-0.8-0.8-1.2c-0.3-0.4-0.5-0.8-0.6-1.1c0,0.2,0,0.5,0,0.8
			c0,0.4,0,0.8,0,1.2c0,0.4,0,0.9,0,1.3c0,0.4,0,0.8,0,1.1v8.9h-4v-20.2h3.9l7.1,10.7c0.2,0.4,0.5,0.8,0.8,1.2
			c0.3,0.4,0.5,0.8,0.6,1.1c0-0.2,0-0.5,0-0.9c0-0.4,0-0.8,0-1.2s0-0.9,0-1.3c0-0.4,0-0.8,0-1.1v-8.5h4v20.2H2069.5z"/>
	</g>
	<g>
		<path class="st0" d="M2084.1-2394.4v-20.2h14v3.9h-10v3.5h5.8v3.9h-5.8v4.9h10.4v3.9H2084.1z"/>
	</g>
	<g>
		<path class="st0" d="M2124.1-2394.4v-20.2h4v20.2H2124.1z"/>
	</g>
	<g>
		<path class="st0" d="M2153.7-2400.5c0,1-0.2,1.8-0.5,2.6c-0.3,0.8-0.8,1.5-1.4,2c-0.7,0.6-1.5,1-2.5,1.3c-1,0.3-2.2,0.5-3.6,0.5
			c-1.7,0-3.2-0.3-4.6-1c-1.4-0.7-2.5-1.5-3.2-2.7l2.9-2.6c0.7,0.8,1.5,1.4,2.4,1.8c0.9,0.4,1.8,0.5,2.8,0.5c1.2,0,2.1-0.2,2.7-0.5
			c0.6-0.3,0.9-0.9,0.9-1.7c0-0.3-0.1-0.6-0.2-0.8c-0.1-0.2-0.3-0.5-0.6-0.7c-0.3-0.2-0.8-0.4-1.4-0.6c-0.6-0.2-1.4-0.4-2.3-0.6
			c-0.9-0.2-1.8-0.5-2.5-0.7c-0.8-0.3-1.4-0.7-2-1.1c-0.6-0.4-1-1-1.3-1.7s-0.5-1.5-0.5-2.5c0-0.9,0.2-1.7,0.6-2.5
			c0.4-0.7,0.9-1.3,1.5-1.9c0.7-0.5,1.4-0.9,2.3-1.2c0.9-0.3,1.8-0.4,2.8-0.4c1.6,0,3,0.3,4.1,0.8c1.2,0.6,2.3,1.3,3.2,2.3l-2.9,2.8
			c-0.7-0.7-1.3-1.2-2.1-1.5c-0.7-0.4-1.6-0.5-2.5-0.5c-0.5,0-1,0.1-1.4,0.2c-0.4,0.1-0.7,0.2-0.9,0.4c-0.2,0.2-0.4,0.4-0.5,0.6
			c-0.1,0.2-0.1,0.4-0.1,0.7c0,0.3,0.1,0.6,0.2,0.8c0.1,0.2,0.3,0.4,0.6,0.6c0.3,0.2,0.7,0.3,1.2,0.5c0.5,0.2,1.2,0.3,2,0.5
			c0.8,0.2,1.6,0.4,2.4,0.7c0.8,0.3,1.5,0.6,2.2,1.1c0.6,0.5,1.2,1,1.6,1.8C2153.5-2402.5,2153.7-2401.6,2153.7-2400.5z"/>
	</g>
	<g>
		<path class="st0" d="M2190.4-2394.4l-3.6-7.3h-4.1v7.3h-4v-20.2h9.4c0.9,0,1.8,0.1,2.7,0.4c0.8,0.3,1.6,0.7,2.2,1.2
			c0.6,0.5,1.1,1.2,1.5,2c0.4,0.8,0.5,1.7,0.5,2.8c0,1.5-0.3,2.8-1,3.7c-0.6,1-1.6,1.7-2.9,2.2l3.9,7.8H2190.4z M2190.9-2408.1
			c0-0.9-0.3-1.6-0.8-2c-0.5-0.4-1.2-0.6-2.1-0.6h-5.3v5.2h5.3C2190-2405.5,2190.9-2406.4,2190.9-2408.1z"/>
	</g>
	<g>
		<path class="st0" d="M2205.4-2394.4v-20.2h14v3.9h-10v3.5h5.8v3.9h-5.8v4.9h10.4v3.9H2205.4z"/>
	</g>
	<g>
		<path class="st0" d="M2246.3-2404.5c0,1.8-0.3,3.3-0.9,4.6c-0.6,1.3-1.4,2.3-2.3,3.1c-1,0.8-2.1,1.4-3.3,1.8
			c-1.2,0.4-2.5,0.6-3.8,0.6h-6v-20.2h6.3c1.4,0,2.8,0.2,4,0.5c1.2,0.4,2.3,0.9,3.2,1.7c0.9,0.8,1.6,1.8,2.1,3.1
			C2246-2407.9,2246.3-2406.4,2246.3-2404.5z M2242.1-2404.5c0-2.1-0.5-3.6-1.4-4.6c-0.9-1-2.5-1.5-4.6-1.5h-2.1v12.3h2
			c1.1,0,2-0.1,2.8-0.4c0.8-0.3,1.4-0.7,1.9-1.3c0.5-0.5,0.9-1.2,1.1-1.9C2242-2402.8,2242.1-2403.6,2242.1-2404.5z"/>
	</g>
</g>
<rect x="2293.9" y="-2414.6" style="fill:none;" width="214.9" height="23.3"/>
<text transform="matrix(1 0 0 1 2293.9092 -2393.3081)" style="font-family:'Interstate-Bold'; font-size:30px; letter-spacing:4;">EXPLORING</text>
<rect x="225" y="-1430.2" class="st1" width="1600" height="576.9"/>
<rect x="209" y="-644.3" class="st1" width="1600" height="576.9"/>
<rect x="225" y="-853.3" class="st2" width="1600" height="576.9"/>
<rect x="603.4" y="-1523.2" style="fill:none;" width="841.2" height="23.3"/>
<text transform="matrix(1 0 0 1 667.5736 -1506.908)" class="st0" style="font-family:'RobotoCondensed-Bold'; font-size:23px; letter-spacing:12;">The Pursuit of a Better Agency</text>
<rect x="667.7" y="-1315.7" style="fill:none;" width="713.9" height="351"/>
<text transform="matrix(1 0 0 1 667.6533 -1302.2356)"><tspan x="0" y="0" class="st3" style="font-family:'RobotoCondensed-Bold'; font-size:19px; letter-spacing:9;">As</tspan><tspan x="40" y="0" class="st3" style="font-family:'RobotoCondensed-Bold'; font-size:19px; letter-spacing:21;"> </tspan><tspan x="65.7" y="0" class="st3" style="font-family:'RobotoCondensed-Bold'; font-size:19px; letter-spacing:9;">we</tspan><tspan x="110.2" y="0" class="st3" style="font-family:'RobotoCondensed-Bold'; font-size:19px; letter-spacing:21;"> </tspan><tspan x="135.9" y="0" class="st3" style="font-family:'RobotoCondensed-Bold'; font-size:19px; letter-spacing:9;">grow,</tspan><tspan x="239" y="0" class="st3" style="font-family:'RobotoCondensed-Bold'; font-size:19px; letter-spacing:21;"> </tspan><tspan x="264.8" y="0" class="st3" style="font-family:'RobotoCondensed-Bold'; font-size:19px; letter-spacing:9;">change,</tspan><tspan x="404.4" y="0" class="st3" style="font-family:'RobotoCondensed-Bold'; font-size:19px; letter-spacing:21;"> </tspan><tspan x="430.1" y="0" class="st3" style="font-family:'RobotoCondensed-Bold'; font-size:19px; letter-spacing:9;">learn</tspan><tspan x="530.3" y="0" class="st3" style="font-family:'RobotoCondensed-Bold'; font-size:19px; letter-spacing:21;"> </tspan><tspan x="556" y="0" class="st3" style="font-family:'RobotoCondensed-Bold'; font-size:19px; letter-spacing:9;">and</tspan><tspan x="621.3" y="0" class="st3" style="font-family:'RobotoCondensed-Bold'; font-size:19px; letter-spacing:21;"> </tspan><tspan x="647.1" y="0" class="st3" style="font-family:'RobotoCondensed-Bold'; font-size:19px; letter-spacing:9;">seek </tspan><tspan x="0" y="42" class="st3" style="font-family:'RobotoCondensed-Bold'; font-size:19px; letter-spacing:9;">ourselves</tspan><tspan x="178.1" y="42" class="st3" style="font-family:'RobotoCondensed-Bold'; font-size:19px; letter-spacing:22;"> </tspan><tspan x="204.6" y="42" class="st3" style="font-family:'RobotoCondensed-Bold'; font-size:19px; letter-spacing:9;">to</tspan><tspan x="246.1" y="42" class="st3" style="font-family:'RobotoCondensed-Bold'; font-size:19px; letter-spacing:22;"> </tspan><tspan x="272.6" y="42" class="st3" style="font-family:'RobotoCondensed-Bold'; font-size:19px; letter-spacing:9;">constantly</tspan><tspan x="475.9" y="42" class="st3" style="font-family:'RobotoCondensed-Bold'; font-size:19px; letter-spacing:22;"> </tspan><tspan x="502.4" y="42" class="st3" style="font-family:'RobotoCondensed-Bold'; font-size:19px; letter-spacing:9;">improve,</tspan><tspan x="655.5" y="42" class="st3" style="font-family:'RobotoCondensed-Bold'; font-size:19px; letter-spacing:22;"> </tspan><tspan x="682" y="42" class="st3" style="font-family:'RobotoCondensed-Bold'; font-size:19px; letter-spacing:9;">so </tspan><tspan x="0" y="84" class="st3" style="font-family:'RobotoCondensed-Bold'; font-size:19px; letter-spacing:9;">too</tspan><tspan x="64.1" y="84" class="st3" style="font-family:'RobotoCondensed-Bold'; font-size:19px; letter-spacing:18;"> </tspan><tspan x="86.3" y="84" class="st3" style="font-family:'RobotoCondensed-Bold'; font-size:19px; letter-spacing:9;">must</tspan><tspan x="170.7" y="84" class="st3" style="font-family:'RobotoCondensed-Bold'; font-size:19px; letter-spacing:18;"> </tspan><tspan x="192.8" y="84" class="st3" style="font-family:'RobotoCondensed-Bold'; font-size:19px; letter-spacing:9;">our</tspan><tspan x="256.9" y="84" class="st3" style="font-family:'RobotoCondensed-Bold'; font-size:19px; letter-spacing:18;"> </tspan><tspan x="279.1" y="84" class="st3" style="font-family:'RobotoCondensed-Bold'; font-size:19px; letter-spacing:9;">brand</tspan><tspan x="383.9" y="84" class="st3" style="font-family:'RobotoCondensed-Bold'; font-size:19px; letter-spacing:18;"> </tspan><tspan x="406.1" y="84" class="st3" style="font-family:'RobotoCondensed-Bold'; font-size:19px; letter-spacing:9;">reflect</tspan><tspan x="540.2" y="84" class="st3" style="font-family:'RobotoCondensed-Bold'; font-size:19px; letter-spacing:18;"> </tspan><tspan x="562.3" y="84" class="st3" style="font-family:'RobotoCondensed-Bold'; font-size:19px; letter-spacing:9;">that.</tspan><tspan x="656.7" y="84" class="st3" style="font-family:'RobotoCondensed-Bold'; font-size:19px; letter-spacing:18;"> </tspan><tspan x="678.8" y="84" class="st3" style="font-family:'RobotoCondensed-Bold'; font-size:19px; letter-spacing:9;">No </tspan><tspan x="0" y="126" class="st3" style="font-family:'RobotoCondensed-Bold'; font-size:19px; letter-spacing:9;">clinging</tspan><tspan x="154.6" y="126" class="st3" style="font-family:'RobotoCondensed-Bold'; font-size:19px; letter-spacing:7;"> </tspan><tspan x="166.4" y="126" class="st3" style="font-family:'RobotoCondensed-Bold'; font-size:19px; letter-spacing:9;">to</tspan><tspan x="207.9" y="126" class="st3" style="font-family:'RobotoCondensed-Bold'; font-size:19px; letter-spacing:7;"> </tspan><tspan x="219.7" y="126" class="st3" style="font-family:'RobotoCondensed-Bold'; font-size:19px; letter-spacing:9;">the</tspan><tspan x="279.3" y="126" class="st3" style="font-family:'RobotoCondensed-Bold'; font-size:19px; letter-spacing:7;"> </tspan><tspan x="291.1" y="126" class="st3" style="font-family:'RobotoCondensed-Bold'; font-size:19px; letter-spacing:9;">comfort</tspan><tspan x="439" y="126" class="st3" style="font-family:'RobotoCondensed-Bold'; font-size:19px; letter-spacing:7;"> </tspan><tspan x="450.7" y="126" class="st3" style="font-family:'RobotoCondensed-Bold'; font-size:19px; letter-spacing:9;">of</tspan><tspan x="492.1" y="126" class="st3" style="font-family:'RobotoCondensed-Bold'; font-size:19px; letter-spacing:7;"> </tspan><tspan x="503.8" y="126" class="st3" style="font-family:'RobotoCondensed-Bold'; font-size:19px; letter-spacing:9;">the</tspan><tspan x="563.5" y="126" class="st3" style="font-family:'RobotoCondensed-Bold'; font-size:19px; letter-spacing:7;"> </tspan><tspan x="575.3" y="126" class="st3" style="font-family:'RobotoCondensed-Bold'; font-size:19px; letter-spacing:9;">past.</tspan><tspan x="667.2" y="126" class="st3" style="font-family:'RobotoCondensed-Bold'; font-size:19px; letter-spacing:7;"> </tspan><tspan x="679" y="126" class="st3" style="font-family:'RobotoCondensed-Bold'; font-size:19px; letter-spacing:9;">We </tspan><tspan x="0" y="168" class="st3" style="font-family:'RobotoCondensed-Bold'; font-size:19px; letter-spacing:9;">must</tspan><tspan x="84.4" y="168" class="st3" style="font-family:'RobotoCondensed-Bold'; font-size:19px; letter-spacing:22;"> </tspan><tspan x="110.9" y="168" class="st3" style="font-family:'RobotoCondensed-Bold'; font-size:19px; letter-spacing:9;">push</tspan><tspan x="193.1" y="168" class="st3" style="font-family:'RobotoCondensed-Bold'; font-size:19px; letter-spacing:22;"> </tspan><tspan x="219.6" y="168" class="st3" style="font-family:'RobotoCondensed-Bold'; font-size:19px; letter-spacing:9;">forward.</tspan><tspan x="382.7" y="168" class="st3" style="font-family:'RobotoCondensed-Bold'; font-size:19px; letter-spacing:22;"> </tspan><tspan x="409.2" y="168" class="st3" style="font-family:'RobotoCondensed-Bold'; font-size:19px; letter-spacing:9;">We</tspan><tspan x="453.6" y="168" class="st3" style="font-family:'RobotoCondensed-Bold'; font-size:19px; letter-spacing:22;"> </tspan><tspan x="480.1" y="168" class="st3" style="font-family:'RobotoCondensed-Bold'; font-size:19px; letter-spacing:9;">must</tspan><tspan x="564.5" y="168" class="st3" style="font-family:'RobotoCondensed-Bold'; font-size:19px; letter-spacing:22;"> </tspan><tspan x="591" y="168" class="st3" style="font-family:'RobotoCondensed-Bold'; font-size:19px; letter-spacing:9;">evolve. </tspan><tspan x="0" y="210" class="st3" style="font-family:'RobotoCondensed-Bold'; font-size:19px; letter-spacing:9;">Which</tspan><tspan x="103.9" y="210" class="st3" style="font-family:'RobotoCondensed-Bold'; font-size:19px; letter-spacing:14;"> </tspan><tspan x="122.2" y="210" class="st3" style="font-family:'RobotoCondensed-Bold'; font-size:19px; letter-spacing:9;">brings</tspan><tspan x="238.4" y="210" class="st3" style="font-family:'RobotoCondensed-Bold'; font-size:19px; letter-spacing:14;"> </tspan><tspan x="256.7" y="210" class="st3" style="font-family:'RobotoCondensed-Bold'; font-size:19px; letter-spacing:9;">us</tspan><tspan x="297.4" y="210" class="st3" style="font-family:'RobotoCondensed-Bold'; font-size:19px; letter-spacing:14;"> </tspan><tspan x="315.7" y="210" class="st3" style="font-family:'RobotoCondensed-Bold'; font-size:19px; letter-spacing:9;">here,</tspan><tspan x="408.4" y="210" class="st3" style="font-family:'RobotoCondensed-Bold'; font-size:19px; letter-spacing:14;"> </tspan><tspan x="426.7" y="210" class="st3" style="font-family:'RobotoCondensed-Bold'; font-size:19px; letter-spacing:9;">to</tspan><tspan x="468.2" y="210" class="st3" style="font-family:'RobotoCondensed-Bold'; font-size:19px; letter-spacing:14;"> </tspan><tspan x="486.5" y="210" class="st3" style="font-family:'RobotoCondensed-Bold'; font-size:19px; letter-spacing:9;">the</tspan><tspan x="546.2" y="210" class="st3" style="font-family:'RobotoCondensed-Bold'; font-size:19px; letter-spacing:14;"> </tspan><tspan x="564.5" y="210" class="st3" style="font-family:'RobotoCondensed-Bold'; font-size:19px; letter-spacing:9;">verge</tspan><tspan x="663.8" y="210" class="st3" style="font-family:'RobotoCondensed-Bold'; font-size:19px; letter-spacing:14;"> </tspan><tspan x="682.1" y="210" class="st3" style="font-family:'RobotoCondensed-Bold'; font-size:19px; letter-spacing:9;">of </tspan><tspan x="0" y="252" class="st3" style="font-family:'RobotoCondensed-Bold'; font-size:19px; letter-spacing:9;">an</tspan><tspan x="43.1" y="252" class="st3" style="font-family:'RobotoCondensed-Bold'; font-size:19px; letter-spacing:23;"> </tspan><tspan x="71.1" y="252" class="st3" style="font-family:'RobotoCondensed-Bold'; font-size:19px; letter-spacing:9;">exhilarating</tspan><tspan x="303.4" y="252" class="st3" style="font-family:'RobotoCondensed-Bold'; font-size:19px; letter-spacing:23;"> </tspan><tspan x="331.4" y="252" class="st3" style="font-family:'RobotoCondensed-Bold'; font-size:19px; letter-spacing:9;">new</tspan><tspan x="397.8" y="252" class="st3" style="font-family:'RobotoCondensed-Bold'; font-size:19px; letter-spacing:23;"> </tspan><tspan x="425.8" y="252" class="st3" style="font-family:'RobotoCondensed-Bold'; font-size:19px; letter-spacing:9;">chapter</tspan><tspan x="566.5" y="252" class="st3" style="font-family:'RobotoCondensed-Bold'; font-size:19px; letter-spacing:23;"> </tspan><tspan x="594.4" y="252" class="st3" style="font-family:'RobotoCondensed-Bold'; font-size:19px; letter-spacing:9;">of</tspan><tspan x="635.8" y="252" class="st3" style="font-family:'RobotoCondensed-Bold'; font-size:19px; letter-spacing:23;"> </tspan><tspan x="663.7" y="252" class="st3" style="font-family:'RobotoCondensed-Bold'; font-size:19px; letter-spacing:9;">the </tspan><tspan x="0" y="294" class="st3" style="font-family:'RobotoCondensed-Bold'; font-size:19px; letter-spacing:9;">Engine,</tspan><tspan x="130.9" y="294" class="st3" style="font-family:'RobotoCondensed-Bold'; font-size:19px; letter-spacing:24;"> </tspan><tspan x="159.9" y="294" class="st3" style="font-family:'RobotoCondensed-Bold'; font-size:19px; letter-spacing:9;">eagerly</tspan><tspan x="298.4" y="294" class="st3" style="font-family:'RobotoCondensed-Bold'; font-size:19px; letter-spacing:24;"> </tspan><tspan x="327.4" y="294" class="st3" style="font-family:'RobotoCondensed-Bold'; font-size:19px; letter-spacing:9;">awaiting</tspan><tspan x="486" y="294" class="st3" style="font-family:'RobotoCondensed-Bold'; font-size:19px; letter-spacing:24;"> </tspan><tspan x="515" y="294" class="st3" style="font-family:'RobotoCondensed-Bold'; font-size:19px; letter-spacing:9;">the</tspan><tspan x="574.6" y="294" class="st3" style="font-family:'RobotoCondensed-Bold'; font-size:19px; letter-spacing:24;"> </tspan><tspan x="603.6" y="294" class="st3" style="font-family:'RobotoCondensed-Bold'; font-size:19px; letter-spacing:9;">future </tspan><tspan x="0" y="336" class="st3" style="font-family:'RobotoCondensed-Bold'; font-size:19px; letter-spacing:9;">and</tspan><tspan x="65.3" y="336" class="st3" style="font-family:'RobotoCondensed-Bold'; font-size:19px; letter-spacing:14;"> </tspan><tspan x="84.1" y="336" class="st3" style="font-family:'RobotoCondensed-Bold'; font-size:19px; letter-spacing:9;">exploring</tspan><tspan x="261.5" y="336" class="st3" style="font-family:'RobotoCondensed-Bold'; font-size:19px; letter-spacing:14;"> </tspan><tspan x="280.3" y="336" class="st3" style="font-family:'RobotoCondensed-Bold'; font-size:19px; letter-spacing:9;">the</tspan><tspan x="340" y="336" class="st3" style="font-family:'RobotoCondensed-Bold'; font-size:19px; letter-spacing:14;"> </tspan><tspan x="358.8" y="336" class="st3" style="font-family:'RobotoCondensed-Bold'; font-size:19px; letter-spacing:9;">limits</tspan><tspan x="467.9" y="336" class="st3" style="font-family:'RobotoCondensed-Bold'; font-size:19px; letter-spacing:14;"> </tspan><tspan x="486.7" y="336" class="st3" style="font-family:'RobotoCondensed-Bold'; font-size:19px; letter-spacing:9;">of</tspan><tspan x="528.1" y="336" class="st3" style="font-family:'RobotoCondensed-Bold'; font-size:19px; letter-spacing:14;"> </tspan><tspan x="546.9" y="336" class="st3" style="font-family:'RobotoCondensed-Bold'; font-size:19px; letter-spacing:9;">what</tspan><tspan x="634.4" y="336" class="st3" style="font-family:'RobotoCondensed-Bold'; font-size:19px; letter-spacing:14;"> </tspan><tspan x="653.2" y="336" class="st3" style="font-family:'RobotoCondensed-Bold'; font-size:19px; letter-spacing:9;">lies </tspan></text>
<g>
	<defs>
		<rect id="SVGID_3_" x="1442" y="-47" width="382.3" height="112.3"/>
	</defs>
	<clipPath id="SVGID_4_">
		<use xlink:href="#SVGID_3_"  style="overflow:visible;"/>
	</clipPath>
	<g class="st4">
		<path class="st0" d="M1919.4,53.9h-469.8v-90h469.8V53.9z M1453.8,49.6h461.2v-81.4h-461.2V49.6z"/>
		<g>
			<path class="st0" d="M1494.2,2.3v17.4h-4.3V2.3h-6.2V-2h16.8v4.3H1494.2z"/>
		</g>
		<g>
			<path class="st0" d="M1523.8,19.7v-9.1h-8.9v9.1h-4.3V-2h4.3v8.3h8.9V-2h4.3v21.7H1523.8z"/>
		</g>
		<g>
			<path class="st0" d="M1540,19.7V-2h15.1v4.2h-10.7V6h6.2v4.2h-6.2v5.2h11.2v4.2H1540z"/>
		</g>
		<g>
			<path class="st0" d="M1582.7,19.7V-2h15.1v4.2H1587V6h6.2v4.2h-6.2v5.2h11.2v4.2H1582.7z"/>
		</g>
		<g>
			<path class="st0" d="M1623.4,19.7l-8-11.8c-0.3-0.4-0.6-0.9-0.9-1.3c-0.3-0.5-0.5-0.8-0.7-1.1c0,0.2,0,0.5,0,0.9
				c0,0.4,0,0.8,0,1.3c0,0.5,0,0.9,0,1.4c0,0.5,0,0.8,0,1.1v9.6h-4.3V-2h4.2l7.7,11.5c0.3,0.4,0.6,0.9,0.9,1.3
				c0.3,0.5,0.5,0.8,0.7,1.1c0-0.2,0-0.5,0-0.9c0-0.4,0-0.8,0-1.3c0-0.5,0-0.9,0-1.4c0-0.5,0-0.8,0-1.1V-2h4.3v21.7H1623.4z"/>
		</g>
		<g>
			<path class="st0" d="M1654.9,15c-0.4,1.1-1,2-1.8,2.8c-0.8,0.7-1.7,1.3-2.8,1.7c-1.1,0.4-2.2,0.6-3.5,0.6c-1.4,0-2.7-0.3-3.9-0.8
				c-1.2-0.5-2.2-1.3-3-2.2c-0.8-1-1.5-2.1-1.9-3.5c-0.5-1.4-0.7-2.9-0.7-4.6c0-1.7,0.2-3.2,0.7-4.5c0.5-1.4,1.1-2.6,2-3.5
				c0.8-1,1.9-1.7,3-2.3c1.2-0.5,2.5-0.8,3.9-0.8c1.1,0,2.1,0.1,3,0.4c0.9,0.2,1.6,0.6,2.3,1.1c0.7,0.5,1.2,1,1.7,1.7
				c0.5,0.7,0.9,1.4,1.3,2.2l-4.1,1.7c-0.2-0.4-0.4-0.8-0.7-1.1c-0.2-0.4-0.5-0.7-0.8-0.9c-0.3-0.2-0.7-0.4-1.1-0.6
				c-0.4-0.1-0.9-0.2-1.5-0.2c-0.8,0-1.5,0.2-2.2,0.5c-0.6,0.3-1.2,0.8-1.6,1.4c-0.4,0.6-0.8,1.3-1,2.2c-0.2,0.8-0.3,1.8-0.3,2.8
				c0,1,0.1,1.9,0.3,2.8c0.2,0.8,0.6,1.6,1,2.2c0.4,0.6,1,1.1,1.6,1.5c0.6,0.4,1.4,0.5,2.2,0.5c0.7,0,1.4-0.1,1.9-0.2
				c0.5-0.2,0.9-0.4,1.3-0.7c0.3-0.3,0.6-0.6,0.7-1c0.2-0.4,0.3-0.8,0.4-1.3h-3.4V8.4h7.8v2.9C1655.5,12.7,1655.3,14,1654.9,15z"/>
		</g>
		<g>
			<path class="st0" d="M1666.6,19.7V-2h4.3v21.7H1666.6z"/>
		</g>
		<g>
			<path class="st0" d="M1696.7,19.7l-8-11.8c-0.3-0.4-0.6-0.9-0.9-1.3c-0.3-0.5-0.5-0.8-0.7-1.1c0,0.2,0,0.5,0,0.9
				c0,0.4,0,0.8,0,1.3c0,0.5,0,0.9,0,1.4c0,0.5,0,0.8,0,1.1v9.6h-4.3V-2h4.2l7.7,11.5c0.3,0.4,0.6,0.9,0.9,1.3
				c0.3,0.5,0.5,0.8,0.7,1.1c0-0.2,0-0.5,0-0.9c0-0.4,0-0.8,0-1.3c0-0.5,0-0.9,0-1.4c0-0.5,0-0.8,0-1.1V-2h4.3v21.7H1696.7z"/>
		</g>
		<g>
			<path class="st0" d="M1712.4,19.7V-2h15.1v4.2h-10.7V6h6.2v4.2h-6.2v5.2h11.2v4.2H1712.4z"/>
		</g>
		<g>
			<path class="st0" d="M1755.4,19.7V-2h4.3v21.7H1755.4z"/>
		</g>
		<g>
			<path class="st0" d="M1787.3,13.1c0,1-0.2,2-0.5,2.8c-0.3,0.8-0.8,1.6-1.6,2.2c-0.7,0.6-1.6,1.1-2.7,1.4
				c-1.1,0.3-2.3,0.5-3.8,0.5c-1.8,0-3.5-0.4-5-1.1c-1.5-0.7-2.6-1.7-3.5-2.9l3.1-2.8c0.8,0.9,1.6,1.5,2.6,1.9
				c0.9,0.4,1.9,0.6,3,0.6c1.3,0,2.3-0.2,2.9-0.6c0.6-0.4,0.9-1,0.9-1.8c0-0.4-0.1-0.7-0.2-0.9c-0.1-0.3-0.4-0.5-0.7-0.7
				c-0.3-0.2-0.8-0.4-1.5-0.7c-0.6-0.2-1.5-0.4-2.5-0.7c-1-0.2-1.9-0.5-2.7-0.8s-1.6-0.7-2.2-1.2c-0.6-0.5-1.1-1.1-1.4-1.8
				c-0.3-0.7-0.5-1.6-0.5-2.7c0-1,0.2-1.9,0.6-2.7c0.4-0.8,1-1.5,1.7-2c0.7-0.5,1.5-1,2.5-1.3c0.9-0.3,1.9-0.4,3-0.4
				c1.7,0,3.2,0.3,4.4,0.9c1.3,0.6,2.4,1.4,3.5,2.5l-3.1,3c-0.7-0.7-1.5-1.3-2.2-1.7c-0.8-0.4-1.7-0.6-2.7-0.6
				c-0.6,0-1.1,0.1-1.5,0.2c-0.4,0.1-0.7,0.3-1,0.4c-0.2,0.2-0.4,0.4-0.5,0.6c-0.1,0.2-0.2,0.5-0.2,0.7c0,0.4,0.1,0.6,0.2,0.9
				c0.1,0.2,0.4,0.4,0.7,0.6c0.3,0.2,0.8,0.4,1.3,0.5s1.3,0.4,2.1,0.6c0.9,0.2,1.7,0.4,2.6,0.7c0.9,0.3,1.6,0.7,2.3,1.2
				c0.7,0.5,1.3,1.1,1.7,1.9C1787.1,11,1787.3,12,1787.3,13.1z"/>
		</g>
		<g>
			<path class="st0" d="M1826.8,19.7l-3.9-7.8h-4.4v7.8h-4.3V-2h10.1c1,0,2,0.1,2.9,0.4c0.9,0.3,1.7,0.7,2.4,1.3
				c0.7,0.6,1.2,1.3,1.6,2.2c0.4,0.9,0.6,1.9,0.6,3c0,1.6-0.3,3-1,4c-0.7,1-1.7,1.8-3.1,2.4l4.2,8.4H1826.8z M1827.3,5
				c0-1-0.3-1.7-0.8-2.1c-0.5-0.4-1.3-0.6-2.3-0.6h-5.7v5.6h5.7C1826.3,7.8,1827.3,6.9,1827.3,5z"/>
		</g>
		<g>
			<path class="st0" d="M1842.9,19.7V-2h15.1v4.2h-10.7V6h6.2v4.2h-6.2v5.2h11.2v4.2H1842.9z"/>
		</g>
		<g>
			<path class="st0" d="M1886.9,8.9c0,1.9-0.3,3.5-0.9,4.9c-0.6,1.4-1.5,2.5-2.5,3.4c-1,0.9-2.2,1.5-3.6,1.9
				c-1.3,0.4-2.7,0.6-4.1,0.6h-6.5V-2h6.8c1.6,0,3,0.2,4.3,0.6c1.3,0.4,2.4,1,3.4,1.9c1,0.9,1.7,2,2.3,3.4
				C1886.6,5.2,1886.9,6.9,1886.9,8.9z M1882.4,8.9c0-2.2-0.5-3.9-1.5-5c-1-1.1-2.7-1.7-5-1.7h-2.3v13.3h2.1c1.1,0,2.1-0.2,3-0.5
				c0.8-0.3,1.5-0.8,2.1-1.3c0.5-0.6,0.9-1.3,1.2-2.1C1882.3,10.8,1882.4,9.9,1882.4,8.9z"/>
		</g>
	</g>
</g>
<rect x="668.2" y="-638.8" class="st3" width="347.6" height="58.5"/>
<rect x="668.2" y="-562.3" class="st3" width="347.6" height="58.5"/>
<rect x="983.4" y="-430.8" class="st5" width="83.4" height="33.3"/>
<rect x="1034.4" y="-638.8" class="st3" width="347.6" height="58.5"/>
<rect x="1034.4" y="-562.3" class="st3" width="347.6" height="58.5"/>
<g>
	<rect x="410.7" y="-12.6" style="fill:none;" width="283.4" height="115.3"/>
	<text transform="matrix(1 0 0 1 491.0621 -1.2889)"><tspan x="0" y="0" class="st3" style="font-family:'RobotoCondensed-Bold'; font-size:16px; letter-spacing:4;">SANTA ROSA</tspan><tspan x="-43.5" y="34" class="st3" style="font-family:'RobotoCondensed-Bold'; font-size:16px; letter-spacing:4;">401 mendocino ave</tspan><tspan x="12.4" y="68" class="st3" style="font-family:'RobotoCondensed-Bold'; font-size:16px; letter-spacing:4;">suite 100</tspan><tspan x="-21.7" y="102" class="st3" style="font-family:'RobotoCondensed-Bold'; font-size:20px; letter-spacing:5;">707 546 5448</tspan></text>
	<rect x="739.1" y="-12.6" style="fill:none;" width="283.4" height="115.3"/>
	<text transform="matrix(1 0 0 1 813.728 -1.2889)"><tspan x="0" y="0" class="st3" style="font-family:'RobotoCondensed-Bold'; font-size:16px; letter-spacing:4;">MINNEAPOLIS</tspan><tspan x="-26.9" y="34" class="st3" style="font-family:'RobotoCondensed-Bold'; font-size:16px; letter-spacing:4;">711 hennepin ave</tspan><tspan x="18.2" y="68" class="st3" style="font-family:'RobotoCondensed-Bold'; font-size:16px; letter-spacing:4;">suite 500</tspan><tspan x="-15.9" y="102" class="st3" style="font-family:'RobotoCondensed-Bold'; font-size:20px; letter-spacing:5;">707 546 5448</tspan></text>
	<g>
		<path class="st3" d="M539.8-60.7c-1-2-1.6-4.2-1.6-6.6c0-7.9,6.4-14.2,14.2-14.2c7.9,0,14.2,6.4,14.2,14.2c0,2.4-0.6,4.6-1.6,6.6
			l-12.6,21.9L539.8-60.7z"/>
		<circle class="st1" cx="552.4" cy="-67.3" r="7.1"/>
	</g>
	<g>
		<path class="st3" d="M872-60.7c-1-2-1.6-4.2-1.6-6.6c0-7.9,6.4-14.2,14.2-14.2c7.9,0,14.2,6.4,14.2,14.2c0,2.4-0.6,4.6-1.6,6.6
			l-12.6,21.9L872-60.7z"/>
		<circle class="st1" cx="884.6" cy="-67.3" r="7.1"/>
	</g>
</g>
<g>
	<g>
		<defs>
			<circle id="SVGID_5_" cx="1127" cy="12" r="32.3"/>
		</defs>
		<linearGradient id="SVGID_6_" gradientUnits="userSpaceOnUse" x1="1094.728" y1="11.9941" x2="1159.2281" y2="11.9941">
			<stop  offset="0" style="stop-color:#1EA6DF"/>
			<stop  offset="1" style="stop-color:#DA4097"/>
		</linearGradient>
		<use xlink:href="#SVGID_5_"  style="overflow:visible;fill:url(#SVGID_6_);"/>
		<clipPath id="SVGID_7_">
			<use xlink:href="#SVGID_5_"  style="overflow:visible;"/>
		</clipPath>
		<g class="st6">
			<path class="st0" d="M1115.1,20.5h-7v-9.8h7V8.4c0-9.2,5.6-16.3,14-16.3c3.2,0,7.4,1,9.7,2.6l-4.7,7.5c-1-0.6-2.4-1.2-4-0.9
				c-2.9,0.7-3.7,3.2-3.7,7.2v2.1h8.6v9.8h-8.6v32.7h-11.3V20.5z"/>
		</g>
	</g>
</g>
<circle class="st7" cx="1899.9" cy="-29" r="32.3"/>
<g>
	<defs>
		<circle id="SVGID_8_" cx="1899.9" cy="-29" r="32.3"/>
	</defs>
	<linearGradient id="SVGID_9_" gradientUnits="userSpaceOnUse" x1="1867.6334" y1="-29.0059" x2="1932.1335" y2="-29.0059">
		<stop  offset="0" style="stop-color:#1EA6DF"/>
		<stop  offset="1" style="stop-color:#DA4097"/>
	</linearGradient>
	<use xlink:href="#SVGID_8_"  style="overflow:visible;fill:url(#SVGID_9_);"/>
	<clipPath id="SVGID_10_">
		<use xlink:href="#SVGID_8_"  style="overflow:visible;"/>
	</clipPath>
</g>
<path class="st0" d="M1913.9-10.8h-28.1c-2.5,0-4.5-2.3-4.5-5.2v-23.7c0-4.2,2.8-6.4,5.7-6.4h27c2.5,0,4.5,2.3,4.5,5.2V-16
	C1918.5-13.1,1916.4-10.8,1913.9-10.8z M1887-43.3c-2.8,0-2.9,3.6-2.9,3.6V-16c0,1.3,0.8,2.4,1.7,2.4h28.1c0.9,0,1.7-1.1,1.7-2.4
	v-24.9c0-1.3-0.8-2.4-1.7-2.4H1887z"/>
<path class="st0" d="M1899.9-19c-4.8,0-8.7-3.9-8.7-8.7s3.9-8.7,8.7-8.7s8.7,3.9,8.7,8.7S1904.7-19,1899.9-19z M1899.9-33.7
	c-3.3,0-6,2.7-6,6s2.7,6,6,6s6-2.7,6-6S1903.2-33.7,1899.9-33.7z"/>
<path class="st0" d="M1910.3-36.1L1910.3-36.1c1.1,0,1.9-0.9,1.9-1.9v0c0-1.1-0.9-1.9-1.9-1.9l0,0c-1.1,0-1.9,0.9-1.9,1.9v0
	C1908.3-37,1909.2-36.1,1910.3-36.1z"/>
<linearGradient id="SVGID_11_" gradientUnits="userSpaceOnUse" x1="1264.9359" y1="14.2552" x2="1329.436" y2="14.2552">
	<stop  offset="0" style="stop-color:#1EA6DF"/>
	<stop  offset="1" style="stop-color:#DA4097"/>
</linearGradient>
<circle class="st8" cx="1297.2" cy="14.3" r="32.3"/>
<g>
	<path class="st0" d="M1296.9,34.4c-10.6,0-19.2-8.6-19.2-19.2s8.6-19.2,19.2-19.2c10.6,0,19.2,8.6,19.2,19.2
		S1307.5,34.4,1296.9,34.4z M1296.9-1.3c-9.1,0-16.5,7.4-16.5,16.5c0,9.1,7.4,16.5,16.5,16.5c9.1,0,16.5-7.4,16.5-16.5
		C1313.3,6.1,1305.9-1.3,1296.9-1.3z"/>
	<path class="st0" d="M1296.9,34.4c-6.8,0-12.2-8.5-12.2-19.2c0-10.8,5.4-19.2,12.2-19.2s12.2,8.5,12.2,19.2
		C1309.1,26,1303.8,34.4,1296.9,34.4z M1296.9-1.3c-5.1,0-9.4,7.5-9.4,16.5s4.3,16.5,9.4,16.5s9.4-7.5,9.4-16.5S1302-1.3,1296.9-1.3
		z"/>
	<rect x="1279" y="13.9" class="st0" width="35.3" height="2.8"/>
	<rect x="1295.4" y="-2.7" class="st0" width="2.8" height="36"/>
	<rect x="1281.8" y="5" class="st0" width="30.3" height="2.8"/>
	<rect x="1281.8" y="22.7" class="st0" width="30.3" height="2.8"/>
</g>
<rect x="679" y="-623.3" style="fill:none;" width="323" height="32.8"/>
<text transform="matrix(1 0 0 1 679 -594.9407)" class="st9" style="font-family:'RobotoCondensed-Light'; font-size:40px;">Name</text>
<rect x="1046.7" y="-623.3" style="fill:none;" width="323" height="32.8"/>
<text transform="matrix(1 0 0 1 1046.7024 -594.9407)" class="st9" style="font-family:'RobotoCondensed-Light'; font-size:40px;">COMPANY</text>
<rect x="679.3" y="-545.3" style="fill:none;" width="323" height="32.8"/>
<text transform="matrix(1 0 0 1 679.2624 -516.9408)" class="st9" style="font-family:'RobotoCondensed-Light'; font-size:40px;">EMAIL</text>
<rect x="1047" y="-545.3" style="fill:none;" width="323" height="32.8"/>
<text transform="matrix(1 0 0 1 1046.9648 -516.9408)" class="st9" style="font-family:'RobotoCondensed-Light'; font-size:40px;">PHONE</text>
<rect x="993.5" y="-421" style="fill:none;" width="61.9" height="13.7"/>
<text transform="matrix(1 0 0 1 997.7734 -408.8921)" class="st3" style="font-family:'RobotoCondensed-Regular'; font-size:17.0625px; letter-spacing:1;">submi</text>
<rect x="604.8" y="-720.2" style="fill:none;" width="841.2" height="23.3"/>
<text transform="matrix(1 0 0 1 904.2616 -703.908)" class="st0" style="font-family:'RobotoCondensed-Bold'; font-size:23px; letter-spacing:12;">CONTACT US</text>
<g>
	<defs>
		<rect id="SVGID_12_" width="382.3" height="112.3"/>
	</defs>
	<clipPath id="SVGID_13_">
		<use xlink:href="#SVGID_12_"  style="overflow:visible;"/>
	</clipPath>
	<g class="st10">
		<path class="st0" d="M102.8,100.9H-367v-90h469.8V100.9z M-362.7,96.6H98.5V15.2h-461.2V96.6z"/>
		<g>
			<path class="st0" d="M-322.4,49.3v17.4h-4.3V49.3h-6.2V45h16.8v4.3H-322.4z"/>
		</g>
		<g>
			<path class="st0" d="M-292.7,66.7v-9.1h-8.9v9.1h-4.3V45h4.3v8.3h8.9V45h4.3v21.7H-292.7z"/>
		</g>
		<g>
			<path class="st0" d="M-276.5,66.7V45h15.1v4.2h-10.7V53h6.2v4.2h-6.2v5.2h11.2v4.2H-276.5z"/>
		</g>
		<g>
			<path class="st0" d="M-233.9,66.7V45h15.1v4.2h-10.7V53h6.2v4.2h-6.2v5.2h11.2v4.2H-233.9z"/>
		</g>
		<g>
			<path class="st0" d="M-193.1,66.7l-8-11.8c-0.3-0.4-0.6-0.9-0.9-1.3c-0.3-0.5-0.5-0.8-0.7-1.1c0,0.2,0,0.5,0,0.9
				c0,0.4,0,0.8,0,1.3s0,0.9,0,1.4c0,0.5,0,0.8,0,1.1v9.6h-4.3V45h4.2l7.7,11.5c0.3,0.4,0.6,0.9,0.9,1.3c0.3,0.5,0.5,0.8,0.7,1.1
				c0-0.2,0-0.5,0-0.9c0-0.4,0-0.8,0-1.3s0-0.9,0-1.4c0-0.5,0-0.8,0-1.1V45h4.3v21.7H-193.1z"/>
		</g>
		<g>
			<path class="st0" d="M-161.7,62c-0.4,1.1-1,2-1.8,2.8c-0.8,0.7-1.7,1.3-2.8,1.7c-1.1,0.4-2.2,0.6-3.5,0.6c-1.4,0-2.7-0.3-3.9-0.8
				c-1.2-0.5-2.2-1.3-3-2.2c-0.8-1-1.5-2.1-1.9-3.5c-0.5-1.4-0.7-2.9-0.7-4.6c0-1.7,0.2-3.2,0.7-4.5c0.5-1.4,1.1-2.6,2-3.5
				c0.8-1,1.9-1.7,3-2.3c1.2-0.5,2.5-0.8,3.9-0.8c1.1,0,2.1,0.1,3,0.4c0.9,0.2,1.6,0.6,2.3,1.1c0.7,0.5,1.2,1,1.7,1.7
				c0.5,0.7,0.9,1.4,1.3,2.2l-4.1,1.7c-0.2-0.4-0.4-0.8-0.7-1.1c-0.2-0.4-0.5-0.7-0.8-0.9c-0.3-0.2-0.7-0.4-1.1-0.6
				c-0.4-0.1-0.9-0.2-1.5-0.2c-0.8,0-1.5,0.2-2.2,0.5c-0.6,0.3-1.2,0.8-1.6,1.4c-0.4,0.6-0.8,1.3-1,2.2c-0.2,0.8-0.3,1.8-0.3,2.8
				c0,1,0.1,1.9,0.3,2.8c0.2,0.8,0.6,1.6,1,2.2c0.4,0.6,1,1.1,1.6,1.5c0.6,0.4,1.4,0.5,2.2,0.5c0.7,0,1.4-0.1,1.9-0.2
				s0.9-0.4,1.3-0.7c0.3-0.3,0.6-0.6,0.7-1c0.2-0.4,0.3-0.8,0.4-1.3h-3.4v-4.1h7.8v2.9C-161,59.7-161.3,61-161.7,62z"/>
		</g>
		<g>
			<path class="st0" d="M-149.9,66.7V45h4.3v21.7H-149.9z"/>
		</g>
		<g>
			<path class="st0" d="M-119.9,66.7l-8-11.8c-0.3-0.4-0.6-0.9-0.9-1.3c-0.3-0.5-0.5-0.8-0.7-1.1c0,0.2,0,0.5,0,0.9
				c0,0.4,0,0.8,0,1.3s0,0.9,0,1.4c0,0.5,0,0.8,0,1.1v9.6h-4.3V45h4.2l7.7,11.5c0.3,0.4,0.6,0.9,0.9,1.3c0.3,0.5,0.5,0.8,0.7,1.1
				c0-0.2,0-0.5,0-0.9c0-0.4,0-0.8,0-1.3s0-0.9,0-1.4c0-0.5,0-0.8,0-1.1V45h4.3v21.7H-119.9z"/>
		</g>
		<g>
			<path class="st0" d="M-104.2,66.7V45h15.1v4.2h-10.7V53h6.2v4.2h-6.2v5.2h11.2v4.2H-104.2z"/>
		</g>
		<g>
			<path class="st0" d="M-61.2,66.7V45h4.3v21.7H-61.2z"/>
		</g>
		<g>
			<path class="st0" d="M-29.2,60.1c0,1-0.2,2-0.5,2.8c-0.3,0.8-0.8,1.6-1.6,2.2c-0.7,0.6-1.6,1.1-2.7,1.4c-1.1,0.3-2.3,0.5-3.8,0.5
				c-1.8,0-3.5-0.4-5-1.1c-1.5-0.7-2.6-1.7-3.5-2.9l3.1-2.8c0.8,0.9,1.6,1.5,2.6,1.9c0.9,0.4,1.9,0.6,3,0.6c1.3,0,2.3-0.2,2.9-0.6
				c0.6-0.4,0.9-1,0.9-1.8c0-0.4-0.1-0.7-0.2-0.9c-0.1-0.3-0.4-0.5-0.7-0.7c-0.3-0.2-0.8-0.4-1.5-0.7c-0.6-0.2-1.5-0.4-2.5-0.7
				c-1-0.2-1.9-0.5-2.7-0.8c-0.8-0.3-1.6-0.7-2.2-1.2c-0.6-0.5-1.1-1.1-1.4-1.8c-0.3-0.7-0.5-1.6-0.5-2.7c0-1,0.2-1.9,0.6-2.7
				c0.4-0.8,1-1.5,1.7-2c0.7-0.5,1.5-1,2.5-1.3c0.9-0.3,1.9-0.4,3-0.4c1.7,0,3.2,0.3,4.4,0.9c1.3,0.6,2.4,1.4,3.5,2.5l-3.1,3
				c-0.7-0.7-1.5-1.3-2.2-1.7c-0.8-0.4-1.7-0.6-2.7-0.6c-0.6,0-1.1,0.1-1.5,0.2c-0.4,0.1-0.7,0.3-1,0.4c-0.2,0.2-0.4,0.4-0.5,0.6
				c-0.1,0.2-0.2,0.5-0.2,0.7c0,0.4,0.1,0.6,0.2,0.9c0.1,0.2,0.4,0.4,0.7,0.6c0.3,0.2,0.8,0.4,1.3,0.5c0.6,0.2,1.3,0.4,2.1,0.6
				c0.9,0.2,1.7,0.4,2.6,0.7c0.9,0.3,1.6,0.7,2.3,1.2c0.7,0.5,1.3,1.1,1.7,1.9C-29.5,58-29.2,59-29.2,60.1z"/>
		</g>
		<g>
			<path class="st0" d="M10.3,66.7l-3.9-7.8H2v7.8h-4.3V45H7.8c1,0,2,0.1,2.9,0.4c0.9,0.3,1.7,0.7,2.4,1.3c0.7,0.6,1.2,1.3,1.6,2.2
				c0.4,0.9,0.6,1.9,0.6,3c0,1.6-0.3,3-1,4c-0.7,1-1.7,1.8-3.1,2.4l4.2,8.4H10.3z M10.8,52c0-1-0.3-1.7-0.8-2.1
				c-0.5-0.4-1.3-0.6-2.3-0.6H2v5.6h5.7C9.8,54.8,10.8,53.9,10.8,52z"/>
		</g>
		<g>
			<path class="st0" d="M26.3,66.7V45h15.1v4.2H30.7V53h6.2v4.2h-6.2v5.2h11.2v4.2H26.3z"/>
		</g>
		<g>
			<path class="st0" d="M70.4,55.9c0,1.9-0.3,3.5-0.9,4.9c-0.6,1.4-1.5,2.5-2.5,3.4c-1,0.9-2.2,1.5-3.6,1.9
				c-1.3,0.4-2.7,0.6-4.1,0.6h-6.5V45h6.8c1.6,0,3,0.2,4.3,0.6c1.3,0.4,2.4,1,3.4,1.9c1,0.9,1.7,2,2.3,3.4
				C70.1,52.2,70.4,53.9,70.4,55.9z M65.9,55.9c0-2.2-0.5-3.9-1.5-5c-1-1.1-2.7-1.7-5-1.7h-2.3v13.3h2.1c1.1,0,2.1-0.2,3-0.5
				c0.8-0.3,1.5-0.8,2.1-1.3c0.5-0.6,0.9-1.3,1.2-2.1C65.8,57.8,65.9,56.9,65.9,55.9z"/>
		</g>
	</g>
</g>
</svg>
