<?xml version="1.0" encoding="utf-8"?>
<!-- Generator: Adobe Illustrator 20.1.0, SVG Export Plug-In . SVG Version: 6.00 Build 0)  -->
<!DOCTYPE svg PUBLIC "-//W3C//DTD SVG 1.1//EN" "http://www.w3.org/Graphics/SVG/1.1/DTD/svg11.dtd">
<svg version="1.1" id="Layer_1" xmlns="http://www.w3.org/2000/svg" xmlns:xlink="http://www.w3.org/1999/xlink" x="0px" y="0px"
	 viewBox="0 0 382.3 112.3" style="enable-background:new 0 0 382.3 112.3;" xml:space="preserve">
<style type="text/css">
	.st0{fill:#FFFFFF;}
	.st1{fill:#282829;}
	.st2{fill:#00A7E6;}
	.st3{fill:#D4EFFC;}
	.st4{clip-path:url(#SVGID_4_);}
	.st5{fill:none;stroke:#D4EFFC;stroke-miterlimit:10;}
	.st6{clip-path:url(#SVGID_7_);}
	.st7{fill:#6599D1;}
	.st8{fill:url(#SVGID_11_);}
	.st9{fill:#D1D3D4;}
	.st10{clip-path:url(#SVGID_13_);}
</style>
<g>
	<defs>
		<rect id="SVGID_1_" x="-1217" y="-2229.3" width="1600" height="846.1"/>
	</defs>
	<clipPath id="SVGID_2_">
		<use xlink:href="#SVGID_1_"  style="overflow:visible;"/>
	</clipPath>
	<g style="clip-path:url(#SVGID_2_);">
		
	</g>
</g>
<g>
	<path class="st0" d="M-277.8-1778.2h-368v-70.5h368V-1778.2z M-642.5-1781.6h361.3v-63.8h-361.3V-1781.6z"/>
	<g>
		<path class="st0" d="M-610.9-1818.6v13.7h-3.4v-13.7h-4.9v-3.4h13.2v3.4H-610.9z"/>
	</g>
	<g>
		<path class="st0" d="M-587.7-1805v-7.1h-7v7.1h-3.4v-17h3.4v6.5h7v-6.5h3.4v17H-587.7z"/>
	</g>
	<g>
		<path class="st0" d="M-575-1805v-17h11.8v3.3h-8.4v2.9h4.9v3.3h-4.9v4.1h8.8v3.3H-575z"/>
	</g>
	<g>
		<path class="st0" d="M-541.6-1805v-17h11.8v3.3h-8.4v2.9h4.9v3.3h-4.9v4.1h8.8v3.3H-541.6z"/>
	</g>
	<g>
		<path class="st0" d="M-509.6-1805l-6.2-9.3c-0.2-0.3-0.4-0.7-0.7-1c-0.2-0.4-0.4-0.7-0.5-0.9c0,0.2,0,0.4,0,0.7c0,0.3,0,0.7,0,1
			c0,0.4,0,0.7,0,1.1c0,0.4,0,0.7,0,0.9v7.5h-3.4v-17h3.3l6,9c0.2,0.3,0.4,0.7,0.7,1c0.2,0.4,0.4,0.7,0.5,0.9c0-0.2,0-0.4,0-0.7
			c0-0.3,0-0.7,0-1c0-0.4,0-0.7,0-1.1c0-0.4,0-0.7,0-0.9v-7.2h3.4v17H-509.6z"/>
	</g>
	<g>
		<path class="st0" d="M-485-1808.6c-0.3,0.9-0.8,1.6-1.4,2.2c-0.6,0.6-1.3,1-2.2,1.3c-0.8,0.3-1.7,0.5-2.7,0.5
			c-1.1,0-2.1-0.2-3-0.6c-0.9-0.4-1.7-1-2.3-1.8c-0.7-0.8-1.2-1.7-1.5-2.8c-0.4-1.1-0.5-2.3-0.5-3.6c0-1.3,0.2-2.5,0.6-3.6
			s0.9-2,1.6-2.8c0.7-0.8,1.5-1.4,2.4-1.8c0.9-0.4,1.9-0.6,3.1-0.6c0.9,0,1.6,0.1,2.3,0.3c0.7,0.2,1.3,0.5,1.8,0.9
			c0.5,0.4,1,0.8,1.3,1.3c0.4,0.5,0.7,1.1,1,1.8l-3.2,1.3c-0.2-0.3-0.3-0.6-0.5-0.9c-0.2-0.3-0.4-0.5-0.7-0.7
			c-0.3-0.2-0.5-0.3-0.9-0.5c-0.3-0.1-0.7-0.2-1.2-0.2c-0.6,0-1.2,0.1-1.7,0.4c-0.5,0.3-0.9,0.6-1.3,1.1c-0.3,0.5-0.6,1-0.8,1.7
			c-0.2,0.7-0.3,1.4-0.3,2.2c0,0.8,0.1,1.5,0.3,2.2c0.2,0.7,0.4,1.2,0.8,1.7c0.3,0.5,0.8,0.9,1.3,1.1c0.5,0.3,1.1,0.4,1.7,0.4
			c0.6,0,1.1-0.1,1.5-0.2c0.4-0.1,0.7-0.3,1-0.5c0.3-0.2,0.4-0.5,0.6-0.8c0.1-0.3,0.2-0.7,0.3-1h-2.7v-3.2h6.1v2.2
			C-484.5-1810.5-484.7-1809.5-485-1808.6z"/>
	</g>
	<g>
		<path class="st0" d="M-475.8-1805v-17h3.4v17H-475.8z"/>
	</g>
	<g>
		<path class="st0" d="M-452.3-1805l-6.2-9.3c-0.2-0.3-0.4-0.7-0.7-1c-0.2-0.4-0.4-0.7-0.5-0.9c0,0.2,0,0.4,0,0.7c0,0.3,0,0.7,0,1
			c0,0.4,0,0.7,0,1.1c0,0.4,0,0.7,0,0.9v7.5h-3.4v-17h3.3l6,9c0.2,0.3,0.4,0.7,0.7,1c0.2,0.4,0.4,0.7,0.5,0.9c0-0.2,0-0.4,0-0.7
			c0-0.3,0-0.7,0-1c0-0.4,0-0.7,0-1.1c0-0.4,0-0.7,0-0.9v-7.2h3.4v17H-452.3z"/>
	</g>
	<g>
		<path class="st0" d="M-440-1805v-17h11.8v3.3h-8.4v2.9h4.9v3.3h-4.9v4.1h8.8v3.3H-440z"/>
	</g>
	<g>
		<path class="st0" d="M-406.3-1805v-17h3.4v17H-406.3z"/>
	</g>
	<g>
		<path class="st0" d="M-381.3-1810.1c0,0.8-0.1,1.5-0.4,2.2c-0.3,0.7-0.7,1.2-1.2,1.7c-0.6,0.5-1.2,0.8-2.1,1.1
			c-0.8,0.3-1.8,0.4-3,0.4c-1.4,0-2.7-0.3-3.9-0.8c-1.2-0.6-2.1-1.3-2.7-2.3l2.5-2.2c0.6,0.7,1.3,1.2,2,1.5c0.7,0.3,1.5,0.4,2.3,0.4
			c1,0,1.8-0.1,2.2-0.4c0.5-0.3,0.7-0.8,0.7-1.4c0-0.3,0-0.5-0.1-0.7c-0.1-0.2-0.3-0.4-0.5-0.6c-0.3-0.2-0.7-0.3-1.2-0.5
			c-0.5-0.2-1.1-0.3-1.9-0.5c-0.8-0.2-1.5-0.4-2.1-0.6c-0.7-0.2-1.2-0.6-1.7-0.9c-0.5-0.4-0.8-0.8-1.1-1.4c-0.3-0.6-0.4-1.3-0.4-2.1
			c0-0.8,0.2-1.5,0.5-2.1c0.3-0.6,0.7-1.1,1.3-1.6c0.6-0.4,1.2-0.8,1.9-1c0.7-0.2,1.5-0.3,2.4-0.3c1.3,0,2.5,0.2,3.5,0.7
			c1,0.5,1.9,1.1,2.7,2l-2.5,2.4c-0.6-0.6-1.1-1-1.8-1.3c-0.6-0.3-1.3-0.4-2.1-0.4c-0.5,0-0.8,0-1.1,0.1c-0.3,0.1-0.6,0.2-0.8,0.4
			c-0.2,0.1-0.3,0.3-0.4,0.5c-0.1,0.2-0.1,0.4-0.1,0.6c0,0.3,0.1,0.5,0.2,0.7c0.1,0.2,0.3,0.4,0.5,0.5c0.3,0.1,0.6,0.3,1,0.4
			c0.4,0.1,1,0.3,1.7,0.4c0.7,0.2,1.4,0.4,2,0.6c0.7,0.2,1.3,0.5,1.8,0.9c0.5,0.4,1,0.9,1.3,1.5
			C-381.4-1811.8-381.3-1811-381.3-1810.1z"/>
	</g>
</g>
<g>
	<path class="st1" d="M-362.4-1804.6v-17.7h12.3v3.5h-8.8v3.1h5.1v3.4h-5.1v4.3h9.1v3.5H-362.4z"/>
	<path class="st1" d="M-332-1804.6l-1.6-2.7c-0.6-1.1-1.6-2.8-1.9-3.5c-0.3,0.7-1.3,2.4-1.9,3.5l-1.6,2.7h-4.2l5.6-9.1l-5.4-8.7h4.2
		l1.3,2.3c0.6,1.1,1.6,2.8,1.9,3.5c0.3-0.7,1.3-2.4,1.9-3.5l1.3-2.3h4.2l-5.4,8.7l5.6,9.1H-332z"/>
	<path class="st1" d="M-313.2-1810.9h-3.9v6.3h-3.5v-17.7h7.7c3.3,0,6.1,1.8,6.1,5.6C-306.8-1812.6-309.5-1810.9-313.2-1810.9z
		 M-313-1818.9h-4.1v4.6h4.1c1.6,0,2.5-0.8,2.5-2.3C-310.4-1818.2-311.4-1818.9-313-1818.9z"/>
	<path class="st1" d="M-299.6-1804.6v-17.7h3.5v14.2h8.9v3.5H-299.6z"/>
	<path class="st1" d="M-274.1-1804.3c-4.8,0-7.7-3.7-7.7-9.1c0-5.4,2.9-9.1,7.7-9.1c4.8,0,7.7,3.7,7.7,9.1
		C-266.4-1808.1-269.2-1804.3-274.1-1804.3z M-274.1-1819.1c-2.9,0-4,2.5-4,5.6c0,3.2,1.2,5.6,4,5.6c2.9,0,4-2.5,4-5.6
		C-270-1816.6-271.2-1819.1-274.1-1819.1z"/>
	<path class="st1" d="M-248.7-1804.6l-3.2-6.4h-3.6v6.4h-3.5v-17.7h8.2c3.3,0,6.1,1.8,6.1,5.6c0,2.7-1.1,4.3-3.4,5.2l3.4,6.9H-248.7
		z M-250.8-1818.9h-4.6v4.6h4.6c1.6,0,2.5-0.8,2.5-2.3C-248.3-1818.2-249.2-1818.9-250.8-1818.9z"/>
	<path class="st1" d="M-236.9-1804.6v-17.7h3.5v17.7H-236.9z"/>
	<path class="st1" d="M-213.5-1804.6l-6.5-9.7c-0.4-0.7-1-1.5-1.2-2c0,0.7,0.1,2.9,0.1,3.9v7.8h-3.5v-17.7h3.4l6.3,9.4
		c0.4,0.7,1,1.5,1.2,2c0-0.7-0.1-2.9-0.1-3.9v-7.5h3.5v17.7H-213.5z"/>
	<path class="st1" d="M-195.2-1804.3c-4.6,0-7.7-3.5-7.7-9.1c0-5.4,3.2-9.1,7.9-9.1c3.6,0,5.5,1.7,6.7,4.4l-3.4,1.4
		c-0.7-1.3-1.5-2.3-3.4-2.3c-2.7,0-4.2,2.3-4.2,5.6c0,3.3,1.5,5.7,4.2,5.7c2.4,0,3.3-1.1,3.5-2.7h-2.8v-3.3h6.3v2.3
		C-188.1-1806.9-191.1-1804.3-195.2-1804.3z"/>
</g>
<g>
	<path class="st0" d="M834.4-2315.7H397.9v-83.6h436.5V-2315.7z M401.9-2319.7h428.5v-75.7H401.9V-2319.7z"/>
	<g>
		<path class="st0" d="M439.4-2363.6v16.2h-4v-16.2h-5.8v-4h15.6v4H439.4z"/>
	</g>
	<g>
		<path class="st0" d="M466.9-2347.4v-8.5h-8.3v8.5h-4v-20.2h4v7.7h8.3v-7.7h4v20.2H466.9z"/>
	</g>
	<g>
		<path class="st0" d="M482-2347.4v-20.2h14v3.9h-10v3.5h5.8v3.9H486v4.9h10.4v3.9H482z"/>
	</g>
	<g>
		<path class="st0" d="M521.6-2347.4v-20.2h14v3.9h-10v3.5h5.8v3.9h-5.8v4.9h10.4v3.9H521.6z"/>
	</g>
	<g>
		<path class="st0" d="M559.5-2347.4l-7.4-11c-0.2-0.4-0.5-0.8-0.8-1.2c-0.3-0.4-0.5-0.8-0.6-1.1c0,0.2,0,0.5,0,0.8
			c0,0.4,0,0.8,0,1.2c0,0.4,0,0.9,0,1.3c0,0.4,0,0.8,0,1.1v8.9h-4v-20.2h3.9l7.1,10.7c0.2,0.4,0.5,0.8,0.8,1.2
			c0.3,0.4,0.5,0.8,0.6,1.1c0-0.2,0-0.5,0-0.9c0-0.4,0-0.8,0-1.2s0-0.9,0-1.3c0-0.4,0-0.8,0-1.1v-8.5h4v20.2H559.5z"/>
	</g>
	<g>
		<path class="st0" d="M588.7-2351.8c-0.4,1-1,1.9-1.7,2.6c-0.7,0.7-1.6,1.2-2.6,1.6c-1,0.4-2.1,0.5-3.2,0.5c-1.3,0-2.5-0.2-3.6-0.7
			c-1.1-0.5-2-1.2-2.8-2.1c-0.8-0.9-1.4-2-1.8-3.3c-0.4-1.3-0.6-2.7-0.6-4.3c0-1.5,0.2-2.9,0.7-4.2s1.1-2.4,1.8-3.3
			c0.8-0.9,1.7-1.6,2.8-2.1c1.1-0.5,2.3-0.8,3.6-0.8c1,0,2,0.1,2.8,0.3c0.8,0.2,1.5,0.6,2.1,1c0.6,0.4,1.1,1,1.6,1.6
			c0.5,0.6,0.8,1.3,1.2,2.1l-3.8,1.6c-0.2-0.4-0.4-0.7-0.6-1c-0.2-0.3-0.5-0.6-0.8-0.8c-0.3-0.2-0.6-0.4-1.1-0.5
			c-0.4-0.1-0.9-0.2-1.4-0.2c-0.7,0-1.4,0.2-2,0.5c-0.6,0.3-1.1,0.8-1.5,1.3c-0.4,0.6-0.7,1.2-0.9,2c-0.2,0.8-0.3,1.6-0.3,2.6
			c0,0.9,0.1,1.8,0.3,2.6c0.2,0.8,0.5,1.5,0.9,2c0.4,0.6,0.9,1,1.5,1.4c0.6,0.3,1.3,0.5,2,0.5c0.7,0,1.3-0.1,1.8-0.2
			c0.5-0.2,0.9-0.4,1.2-0.6c0.3-0.3,0.5-0.6,0.7-1c0.2-0.4,0.3-0.8,0.3-1.2h-3.2v-3.8h7.2v2.7C589.3-2354,589.1-2352.8,588.7-2351.8
			z"/>
	</g>
	<g>
		<path class="st0" d="M599.6-2347.4v-20.2h4v20.2H599.6z"/>
	</g>
	<g>
		<path class="st0" d="M627.5-2347.4l-7.4-11c-0.2-0.4-0.5-0.8-0.8-1.2c-0.3-0.4-0.5-0.8-0.6-1.1c0,0.2,0,0.5,0,0.8
			c0,0.4,0,0.8,0,1.2c0,0.4,0,0.9,0,1.3c0,0.4,0,0.8,0,1.1v8.9h-4v-20.2h3.9l7.1,10.7c0.2,0.4,0.5,0.8,0.8,1.2
			c0.3,0.4,0.5,0.8,0.6,1.1c0-0.2,0-0.5,0-0.9c0-0.4,0-0.8,0-1.2s0-0.9,0-1.3c0-0.4,0-0.8,0-1.1v-8.5h4v20.2H627.5z"/>
	</g>
	<g>
		<path class="st0" d="M642.1-2347.4v-20.2h14v3.9h-10v3.5h5.8v3.9h-5.8v4.9h10.4v3.9H642.1z"/>
	</g>
	<g>
		<path class="st0" d="M682.1-2347.4v-20.2h4v20.2H682.1z"/>
	</g>
	<g>
		<path class="st0" d="M711.7-2353.5c0,1-0.2,1.8-0.5,2.6c-0.3,0.8-0.8,1.5-1.4,2c-0.7,0.6-1.5,1-2.5,1.3c-1,0.3-2.2,0.5-3.6,0.5
			c-1.7,0-3.2-0.3-4.6-1c-1.4-0.7-2.5-1.5-3.2-2.7l2.9-2.6c0.7,0.8,1.5,1.4,2.4,1.8c0.9,0.4,1.8,0.5,2.8,0.5c1.2,0,2.1-0.2,2.7-0.5
			c0.6-0.3,0.9-0.9,0.9-1.7c0-0.3-0.1-0.6-0.2-0.8s-0.3-0.5-0.6-0.7c-0.3-0.2-0.8-0.4-1.4-0.6c-0.6-0.2-1.4-0.4-2.3-0.6
			c-0.9-0.2-1.8-0.5-2.5-0.7c-0.8-0.3-1.4-0.7-2-1.1c-0.6-0.4-1-1-1.3-1.7c-0.3-0.7-0.5-1.5-0.5-2.5c0-0.9,0.2-1.7,0.6-2.5
			c0.4-0.7,0.9-1.3,1.5-1.9c0.7-0.5,1.4-0.9,2.3-1.2c0.9-0.3,1.8-0.4,2.8-0.4c1.6,0,3,0.3,4.1,0.8c1.2,0.6,2.3,1.3,3.2,2.3l-2.9,2.8
			c-0.7-0.7-1.3-1.2-2.1-1.5c-0.7-0.4-1.6-0.5-2.5-0.5c-0.5,0-1,0.1-1.4,0.2c-0.4,0.1-0.7,0.2-0.9,0.4c-0.2,0.2-0.4,0.4-0.5,0.6
			c-0.1,0.2-0.1,0.4-0.1,0.7c0,0.3,0.1,0.6,0.2,0.8c0.1,0.2,0.3,0.4,0.6,0.6c0.3,0.2,0.7,0.3,1.2,0.5c0.5,0.2,1.2,0.3,2,0.5
			c0.8,0.2,1.6,0.4,2.4,0.7c0.8,0.3,1.5,0.6,2.2,1.1c0.6,0.5,1.2,1,1.6,1.8C711.5-2355.5,711.7-2354.6,711.7-2353.5z"/>
	</g>
	<g>
		<path class="st0" d="M748.5-2347.4l-3.6-7.3h-4.1v7.3h-4v-20.2h9.4c0.9,0,1.8,0.1,2.7,0.4c0.8,0.3,1.6,0.7,2.2,1.2
			c0.6,0.5,1.1,1.2,1.5,2c0.4,0.8,0.5,1.7,0.5,2.8c0,1.5-0.3,2.8-1,3.7c-0.6,1-1.6,1.7-2.9,2.2l3.9,7.8H748.5z M748.9-2361.1
			c0-0.9-0.3-1.6-0.8-2c-0.5-0.4-1.2-0.6-2.1-0.6h-5.3v5.2h5.3C748-2358.5,748.9-2359.4,748.9-2361.1z"/>
	</g>
	<g>
		<path class="st0" d="M763.4-2347.4v-20.2h14v3.9h-10v3.5h5.8v3.9h-5.8v4.9h10.4v3.9H763.4z"/>
	</g>
	<g>
		<path class="st0" d="M804.3-2357.5c0,1.8-0.3,3.3-0.9,4.6c-0.6,1.3-1.4,2.3-2.3,3.1c-1,0.8-2.1,1.4-3.3,1.8
			c-1.2,0.4-2.5,0.6-3.8,0.6h-6v-20.2h6.3c1.4,0,2.8,0.2,4,0.5c1.2,0.4,2.3,0.9,3.2,1.7c0.9,0.8,1.6,1.8,2.1,3.1
			C804-2360.9,804.3-2359.4,804.3-2357.5z M800.1-2357.5c0-2.1-0.5-3.6-1.4-4.6c-0.9-1-2.5-1.5-4.6-1.5H792v12.3h2
			c1.1,0,2-0.1,2.8-0.4c0.8-0.3,1.4-0.7,1.9-1.3c0.5-0.5,0.9-1.2,1.1-1.9C800-2355.8,800.1-2356.6,800.1-2357.5z"/>
	</g>
</g>
<rect x="851.9" y="-2367.6" style="fill:none;" width="214.9" height="23.3"/>
<text transform="matrix(1 0 0 1 851.9221 -2346.3081)" style="font-family:'Interstate-Bold'; font-size:30px; letter-spacing:4;">EXPLORING</text>
<rect x="-1217" y="-1383.2" class="st1" width="1600" height="576.9"/>
<rect x="-1233" y="-597.3" class="st1" width="1600" height="576.9"/>
<rect x="-1217" y="-806.3" class="st2" width="1600" height="576.9"/>
<rect x="-838.5" y="-1476.2" style="fill:none;" width="841.2" height="23.3"/>
<text transform="matrix(1 0 0 1 -774.4136 -1459.908)" class="st0" style="font-family:'RobotoCondensed-Bold'; font-size:23px; letter-spacing:12;">The Pursuit of a Better Agency</text>
<rect x="-774.3" y="-1268.7" style="fill:none;" width="713.9" height="351"/>
<text transform="matrix(1 0 0 1 -774.3339 -1255.2356)"><tspan x="0" y="0" class="st3" style="font-family:'RobotoCondensed-Bold'; font-size:19px; letter-spacing:9;">As</tspan><tspan x="40" y="0" class="st3" style="font-family:'RobotoCondensed-Bold'; font-size:19px; letter-spacing:21;"> </tspan><tspan x="65.7" y="0" class="st3" style="font-family:'RobotoCondensed-Bold'; font-size:19px; letter-spacing:9;">we</tspan><tspan x="110.2" y="0" class="st3" style="font-family:'RobotoCondensed-Bold'; font-size:19px; letter-spacing:21;"> </tspan><tspan x="135.9" y="0" class="st3" style="font-family:'RobotoCondensed-Bold'; font-size:19px; letter-spacing:9;">grow,</tspan><tspan x="239" y="0" class="st3" style="font-family:'RobotoCondensed-Bold'; font-size:19px; letter-spacing:21;"> </tspan><tspan x="264.8" y="0" class="st3" style="font-family:'RobotoCondensed-Bold'; font-size:19px; letter-spacing:9;">change,</tspan><tspan x="404.4" y="0" class="st3" style="font-family:'RobotoCondensed-Bold'; font-size:19px; letter-spacing:21;"> </tspan><tspan x="430.1" y="0" class="st3" style="font-family:'RobotoCondensed-Bold'; font-size:19px; letter-spacing:9;">learn</tspan><tspan x="530.3" y="0" class="st3" style="font-family:'RobotoCondensed-Bold'; font-size:19px; letter-spacing:21;"> </tspan><tspan x="556" y="0" class="st3" style="font-family:'RobotoCondensed-Bold'; font-size:19px; letter-spacing:9;">and</tspan><tspan x="621.3" y="0" class="st3" style="font-family:'RobotoCondensed-Bold'; font-size:19px; letter-spacing:21;"> </tspan><tspan x="647.1" y="0" class="st3" style="font-family:'RobotoCondensed-Bold'; font-size:19px; letter-spacing:9;">seek </tspan><tspan x="0" y="42" class="st3" style="font-family:'RobotoCondensed-Bold'; font-size:19px; letter-spacing:9;">ourselves</tspan><tspan x="178.1" y="42" class="st3" style="font-family:'RobotoCondensed-Bold'; font-size:19px; letter-spacing:22;"> </tspan><tspan x="204.6" y="42" class="st3" style="font-family:'RobotoCondensed-Bold'; font-size:19px; letter-spacing:9;">to</tspan><tspan x="246.1" y="42" class="st3" style="font-family:'RobotoCondensed-Bold'; font-size:19px; letter-spacing:22;"> </tspan><tspan x="272.6" y="42" class="st3" style="font-family:'RobotoCondensed-Bold'; font-size:19px; letter-spacing:9;">constantly</tspan><tspan x="475.9" y="42" class="st3" style="font-family:'RobotoCondensed-Bold'; font-size:19px; letter-spacing:22;"> </tspan><tspan x="502.4" y="42" class="st3" style="font-family:'RobotoCondensed-Bold'; font-size:19px; letter-spacing:9;">improve,</tspan><tspan x="655.5" y="42" class="st3" style="font-family:'RobotoCondensed-Bold'; font-size:19px; letter-spacing:22;"> </tspan><tspan x="682" y="42" class="st3" style="font-family:'RobotoCondensed-Bold'; font-size:19px; letter-spacing:9;">so </tspan><tspan x="0" y="84" class="st3" style="font-family:'RobotoCondensed-Bold'; font-size:19px; letter-spacing:9;">too</tspan><tspan x="64.1" y="84" class="st3" style="font-family:'RobotoCondensed-Bold'; font-size:19px; letter-spacing:18;"> </tspan><tspan x="86.3" y="84" class="st3" style="font-family:'RobotoCondensed-Bold'; font-size:19px; letter-spacing:9;">must</tspan><tspan x="170.7" y="84" class="st3" style="font-family:'RobotoCondensed-Bold'; font-size:19px; letter-spacing:18;"> </tspan><tspan x="192.8" y="84" class="st3" style="font-family:'RobotoCondensed-Bold'; font-size:19px; letter-spacing:9;">our</tspan><tspan x="256.9" y="84" class="st3" style="font-family:'RobotoCondensed-Bold'; font-size:19px; letter-spacing:18;"> </tspan><tspan x="279.1" y="84" class="st3" style="font-family:'RobotoCondensed-Bold'; font-size:19px; letter-spacing:9;">brand</tspan><tspan x="383.9" y="84" class="st3" style="font-family:'RobotoCondensed-Bold'; font-size:19px; letter-spacing:18;"> </tspan><tspan x="406.1" y="84" class="st3" style="font-family:'RobotoCondensed-Bold'; font-size:19px; letter-spacing:9;">reflect</tspan><tspan x="540.2" y="84" class="st3" style="font-family:'RobotoCondensed-Bold'; font-size:19px; letter-spacing:18;"> </tspan><tspan x="562.3" y="84" class="st3" style="font-family:'RobotoCondensed-Bold'; font-size:19px; letter-spacing:9;">that.</tspan><tspan x="656.7" y="84" class="st3" style="font-family:'RobotoCondensed-Bold'; font-size:19px; letter-spacing:18;"> </tspan><tspan x="678.8" y="84" class="st3" style="font-family:'RobotoCondensed-Bold'; font-size:19px; letter-spacing:9;">No </tspan><tspan x="0" y="126" class="st3" style="font-family:'RobotoCondensed-Bold'; font-size:19px; letter-spacing:9;">clinging</tspan><tspan x="154.6" y="126" class="st3" style="font-family:'RobotoCondensed-Bold'; font-size:19px; letter-spacing:7;"> </tspan><tspan x="166.4" y="126" class="st3" style="font-family:'RobotoCondensed-Bold'; font-size:19px; letter-spacing:9;">to</tspan><tspan x="207.9" y="126" class="st3" style="font-family:'RobotoCondensed-Bold'; font-size:19px; letter-spacing:7;"> </tspan><tspan x="219.7" y="126" class="st3" style="font-family:'RobotoCondensed-Bold'; font-size:19px; letter-spacing:9;">the</tspan><tspan x="279.3" y="126" class="st3" style="font-family:'RobotoCondensed-Bold'; font-size:19px; letter-spacing:7;"> </tspan><tspan x="291.1" y="126" class="st3" style="font-family:'RobotoCondensed-Bold'; font-size:19px; letter-spacing:9;">comfort</tspan><tspan x="439" y="126" class="st3" style="font-family:'RobotoCondensed-Bold'; font-size:19px; letter-spacing:7;"> </tspan><tspan x="450.7" y="126" class="st3" style="font-family:'RobotoCondensed-Bold'; font-size:19px; letter-spacing:9;">of</tspan><tspan x="492.1" y="126" class="st3" style="font-family:'RobotoCondensed-Bold'; font-size:19px; letter-spacing:7;"> </tspan><tspan x="503.8" y="126" class="st3" style="font-family:'RobotoCondensed-Bold'; font-size:19px; letter-spacing:9;">the</tspan><tspan x="563.5" y="126" class="st3" style="font-family:'RobotoCondensed-Bold'; font-size:19px; letter-spacing:7;"> </tspan><tspan x="575.3" y="126" class="st3" style="font-family:'RobotoCondensed-Bold'; font-size:19px; letter-spacing:9;">past.</tspan><tspan x="667.2" y="126" class="st3" style="font-family:'RobotoCondensed-Bold'; font-size:19px; letter-spacing:7;"> </tspan><tspan x="679" y="126" class="st3" style="font-family:'RobotoCondensed-Bold'; font-size:19px; letter-spacing:9;">We </tspan><tspan x="0" y="168" class="st3" style="font-family:'RobotoCondensed-Bold'; font-size:19px; letter-spacing:9;">must</tspan><tspan x="84.4" y="168" class="st3" style="font-family:'RobotoCondensed-Bold'; font-size:19px; letter-spacing:22;"> </tspan><tspan x="110.9" y="168" class="st3" style="font-family:'RobotoCondensed-Bold'; font-size:19px; letter-spacing:9;">push</tspan><tspan x="193.1" y="168" class="st3" style="font-family:'RobotoCondensed-Bold'; font-size:19px; letter-spacing:22;"> </tspan><tspan x="219.6" y="168" class="st3" style="font-family:'RobotoCondensed-Bold'; font-size:19px; letter-spacing:9;">forward.</tspan><tspan x="382.7" y="168" class="st3" style="font-family:'RobotoCondensed-Bold'; font-size:19px; letter-spacing:22;"> </tspan><tspan x="409.2" y="168" class="st3" style="font-family:'RobotoCondensed-Bold'; font-size:19px; letter-spacing:9;">We</tspan><tspan x="453.6" y="168" class="st3" style="font-family:'RobotoCondensed-Bold'; font-size:19px; letter-spacing:22;"> </tspan><tspan x="480.1" y="168" class="st3" style="font-family:'RobotoCondensed-Bold'; font-size:19px; letter-spacing:9;">must</tspan><tspan x="564.5" y="168" class="st3" style="font-family:'RobotoCondensed-Bold'; font-size:19px; letter-spacing:22;"> </tspan><tspan x="591" y="168" class="st3" style="font-family:'RobotoCondensed-Bold'; font-size:19px; letter-spacing:9;">evolve. </tspan><tspan x="0" y="210" class="st3" style="font-family:'RobotoCondensed-Bold'; font-size:19px; letter-spacing:9;">Which</tspan><tspan x="103.9" y="210" class="st3" style="font-family:'RobotoCondensed-Bold'; font-size:19px; letter-spacing:14;"> </tspan><tspan x="122.2" y="210" class="st3" style="font-family:'RobotoCondensed-Bold'; font-size:19px; letter-spacing:9;">brings</tspan><tspan x="238.4" y="210" class="st3" style="font-family:'RobotoCondensed-Bold'; font-size:19px; letter-spacing:14;"> </tspan><tspan x="256.7" y="210" class="st3" style="font-family:'RobotoCondensed-Bold'; font-size:19px; letter-spacing:9;">us</tspan><tspan x="297.4" y="210" class="st3" style="font-family:'RobotoCondensed-Bold'; font-size:19px; letter-spacing:14;"> </tspan><tspan x="315.7" y="210" class="st3" style="font-family:'RobotoCondensed-Bold'; font-size:19px; letter-spacing:9;">here,</tspan><tspan x="408.4" y="210" class="st3" style="font-family:'RobotoCondensed-Bold'; font-size:19px; letter-spacing:14;"> </tspan><tspan x="426.7" y="210" class="st3" style="font-family:'RobotoCondensed-Bold'; font-size:19px; letter-spacing:9;">to</tspan><tspan x="468.2" y="210" class="st3" style="font-family:'RobotoCondensed-Bold'; font-size:19px; letter-spacing:14;"> </tspan><tspan x="486.5" y="210" class="st3" style="font-family:'RobotoCondensed-Bold'; font-size:19px; letter-spacing:9;">the</tspan><tspan x="546.2" y="210" class="st3" style="font-family:'RobotoCondensed-Bold'; font-size:19px; letter-spacing:14;"> </tspan><tspan x="564.5" y="210" class="st3" style="font-family:'RobotoCondensed-Bold'; font-size:19px; letter-spacing:9;">verge</tspan><tspan x="663.8" y="210" class="st3" style="font-family:'RobotoCondensed-Bold'; font-size:19px; letter-spacing:14;"> </tspan><tspan x="682.1" y="210" class="st3" style="font-family:'RobotoCondensed-Bold'; font-size:19px; letter-spacing:9;">of </tspan><tspan x="0" y="252" class="st3" style="font-family:'RobotoCondensed-Bold'; font-size:19px; letter-spacing:9;">an</tspan><tspan x="43.1" y="252" class="st3" style="font-family:'RobotoCondensed-Bold'; font-size:19px; letter-spacing:23;"> </tspan><tspan x="71.1" y="252" class="st3" style="font-family:'RobotoCondensed-Bold'; font-size:19px; letter-spacing:9;">exhilarating</tspan><tspan x="303.4" y="252" class="st3" style="font-family:'RobotoCondensed-Bold'; font-size:19px; letter-spacing:23;"> </tspan><tspan x="331.4" y="252" class="st3" style="font-family:'RobotoCondensed-Bold'; font-size:19px; letter-spacing:9;">new</tspan><tspan x="397.8" y="252" class="st3" style="font-family:'RobotoCondensed-Bold'; font-size:19px; letter-spacing:23;"> </tspan><tspan x="425.8" y="252" class="st3" style="font-family:'RobotoCondensed-Bold'; font-size:19px; letter-spacing:9;">chapter</tspan><tspan x="566.5" y="252" class="st3" style="font-family:'RobotoCondensed-Bold'; font-size:19px; letter-spacing:23;"> </tspan><tspan x="594.4" y="252" class="st3" style="font-family:'RobotoCondensed-Bold'; font-size:19px; letter-spacing:9;">of</tspan><tspan x="635.8" y="252" class="st3" style="font-family:'RobotoCondensed-Bold'; font-size:19px; letter-spacing:23;"> </tspan><tspan x="663.7" y="252" class="st3" style="font-family:'RobotoCondensed-Bold'; font-size:19px; letter-spacing:9;">the </tspan><tspan x="0" y="294" class="st3" style="font-family:'RobotoCondensed-Bold'; font-size:19px; letter-spacing:9;">Engine,</tspan><tspan x="130.9" y="294" class="st3" style="font-family:'RobotoCondensed-Bold'; font-size:19px; letter-spacing:24;"> </tspan><tspan x="159.9" y="294" class="st3" style="font-family:'RobotoCondensed-Bold'; font-size:19px; letter-spacing:9;">eagerly</tspan><tspan x="298.4" y="294" class="st3" style="font-family:'RobotoCondensed-Bold'; font-size:19px; letter-spacing:24;"> </tspan><tspan x="327.4" y="294" class="st3" style="font-family:'RobotoCondensed-Bold'; font-size:19px; letter-spacing:9;">awaiting</tspan><tspan x="486" y="294" class="st3" style="font-family:'RobotoCondensed-Bold'; font-size:19px; letter-spacing:24;"> </tspan><tspan x="515" y="294" class="st3" style="font-family:'RobotoCondensed-Bold'; font-size:19px; letter-spacing:9;">the</tspan><tspan x="574.6" y="294" class="st3" style="font-family:'RobotoCondensed-Bold'; font-size:19px; letter-spacing:24;"> </tspan><tspan x="603.6" y="294" class="st3" style="font-family:'RobotoCondensed-Bold'; font-size:19px; letter-spacing:9;">future </tspan><tspan x="0" y="336" class="st3" style="font-family:'RobotoCondensed-Bold'; font-size:19px; letter-spacing:9;">and</tspan><tspan x="65.3" y="336" class="st3" style="font-family:'RobotoCondensed-Bold'; font-size:19px; letter-spacing:14;"> </tspan><tspan x="84.1" y="336" class="st3" style="font-family:'RobotoCondensed-Bold'; font-size:19px; letter-spacing:9;">exploring</tspan><tspan x="261.5" y="336" class="st3" style="font-family:'RobotoCondensed-Bold'; font-size:19px; letter-spacing:14;"> </tspan><tspan x="280.3" y="336" class="st3" style="font-family:'RobotoCondensed-Bold'; font-size:19px; letter-spacing:9;">the</tspan><tspan x="340" y="336" class="st3" style="font-family:'RobotoCondensed-Bold'; font-size:19px; letter-spacing:14;"> </tspan><tspan x="358.8" y="336" class="st3" style="font-family:'RobotoCondensed-Bold'; font-size:19px; letter-spacing:9;">limits</tspan><tspan x="467.9" y="336" class="st3" style="font-family:'RobotoCondensed-Bold'; font-size:19px; letter-spacing:14;"> </tspan><tspan x="486.7" y="336" class="st3" style="font-family:'RobotoCondensed-Bold'; font-size:19px; letter-spacing:9;">of</tspan><tspan x="528.1" y="336" class="st3" style="font-family:'RobotoCondensed-Bold'; font-size:19px; letter-spacing:14;"> </tspan><tspan x="546.9" y="336" class="st3" style="font-family:'RobotoCondensed-Bold'; font-size:19px; letter-spacing:9;">what</tspan><tspan x="634.4" y="336" class="st3" style="font-family:'RobotoCondensed-Bold'; font-size:19px; letter-spacing:14;"> </tspan><tspan x="653.2" y="336" class="st3" style="font-family:'RobotoCondensed-Bold'; font-size:19px; letter-spacing:9;">lies </tspan></text>
<g>
	<defs>
		<rect id="SVGID_3_" width="382.3" height="112.3"/>
	</defs>
	<clipPath id="SVGID_4_">
		<use xlink:href="#SVGID_3_"  style="overflow:visible;"/>
	</clipPath>
	<g class="st4">
		<path class="st0" d="M477.4,100.9H7.6v-90h469.8V100.9z M11.9,96.6h461.2V15.2H11.9V96.6z"/>
		<g>
			<path class="st0" d="M52.2,49.3v17.4h-4.3V49.3h-6.2V45h16.8v4.3H52.2z"/>
		</g>
		<g>
			<path class="st0" d="M81.8,66.7v-9.1h-8.9v9.1h-4.3V45h4.3v8.3h8.9V45h4.3v21.7H81.8z"/>
		</g>
		<g>
			<path class="st0" d="M98,66.7V45h15.1v4.2h-10.7V53h6.2v4.2h-6.2v5.2h11.2v4.2H98z"/>
		</g>
		<g>
			<path class="st0" d="M140.7,66.7V45h15.1v4.2H145V53h6.2v4.2H145v5.2h11.2v4.2H140.7z"/>
		</g>
		<g>
			<path class="st0" d="M181.4,66.7l-8-11.8c-0.3-0.4-0.6-0.9-0.9-1.3c-0.3-0.5-0.5-0.8-0.7-1.1c0,0.2,0,0.5,0,0.9
				c0,0.4,0,0.8,0,1.3s0,0.9,0,1.4c0,0.5,0,0.8,0,1.1v9.6h-4.3V45h4.2l7.7,11.5c0.3,0.4,0.6,0.9,0.9,1.3c0.3,0.5,0.5,0.8,0.7,1.1
				c0-0.2,0-0.5,0-0.9c0-0.4,0-0.8,0-1.3s0-0.9,0-1.4c0-0.5,0-0.8,0-1.1V45h4.3v21.7H181.4z"/>
		</g>
		<g>
			<path class="st0" d="M212.9,62c-0.4,1.1-1,2-1.8,2.8c-0.8,0.7-1.7,1.3-2.8,1.7c-1.1,0.4-2.2,0.6-3.5,0.6c-1.4,0-2.7-0.3-3.9-0.8
				c-1.2-0.5-2.2-1.3-3-2.2c-0.8-1-1.5-2.1-1.9-3.5c-0.5-1.4-0.7-2.9-0.7-4.6c0-1.7,0.2-3.2,0.7-4.5c0.5-1.4,1.1-2.6,2-3.5
				c0.8-1,1.9-1.7,3-2.3c1.2-0.5,2.5-0.8,3.9-0.8c1.1,0,2.1,0.1,3,0.4c0.9,0.2,1.6,0.6,2.3,1.1c0.7,0.5,1.2,1,1.7,1.7
				c0.5,0.7,0.9,1.4,1.3,2.2l-4.1,1.7c-0.2-0.4-0.4-0.8-0.7-1.1c-0.2-0.4-0.5-0.7-0.8-0.9c-0.3-0.2-0.7-0.4-1.1-0.6
				c-0.4-0.1-0.9-0.2-1.5-0.2c-0.8,0-1.5,0.2-2.2,0.5c-0.6,0.3-1.2,0.8-1.6,1.4c-0.4,0.6-0.8,1.3-1,2.2c-0.2,0.8-0.3,1.8-0.3,2.8
				c0,1,0.1,1.9,0.3,2.8c0.2,0.8,0.6,1.6,1,2.2c0.4,0.6,1,1.1,1.6,1.5c0.6,0.4,1.4,0.5,2.2,0.5c0.7,0,1.4-0.1,1.9-0.2
				s0.9-0.4,1.3-0.7c0.3-0.3,0.6-0.6,0.7-1c0.2-0.4,0.3-0.8,0.4-1.3h-3.4v-4.1h7.8v2.9C213.5,59.7,213.3,61,212.9,62z"/>
		</g>
		<g>
			<path class="st0" d="M224.6,66.7V45h4.3v21.7H224.6z"/>
		</g>
		<g>
			<path class="st0" d="M254.7,66.7l-8-11.8c-0.3-0.4-0.6-0.9-0.9-1.3c-0.3-0.5-0.5-0.8-0.7-1.1c0,0.2,0,0.5,0,0.9
				c0,0.4,0,0.8,0,1.3s0,0.9,0,1.4c0,0.5,0,0.8,0,1.1v9.6H241V45h4.2l7.7,11.5c0.3,0.4,0.6,0.9,0.9,1.3c0.3,0.5,0.5,0.8,0.7,1.1
				c0-0.2,0-0.5,0-0.9c0-0.4,0-0.8,0-1.3s0-0.9,0-1.4c0-0.5,0-0.8,0-1.1V45h4.3v21.7H254.7z"/>
		</g>
		<g>
			<path class="st0" d="M270.4,66.7V45h15.1v4.2h-10.7V53h6.2v4.2h-6.2v5.2h11.2v4.2H270.4z"/>
		</g>
		<g>
			<path class="st0" d="M313.4,66.7V45h4.3v21.7H313.4z"/>
		</g>
		<g>
			<path class="st0" d="M345.3,60.1c0,1-0.2,2-0.5,2.8c-0.3,0.8-0.8,1.6-1.6,2.2c-0.7,0.6-1.6,1.1-2.7,1.4c-1.1,0.3-2.3,0.5-3.8,0.5
				c-1.8,0-3.5-0.4-5-1.1c-1.5-0.7-2.6-1.7-3.5-2.9l3.1-2.8c0.8,0.9,1.6,1.5,2.6,1.9c0.9,0.4,1.9,0.6,3,0.6c1.3,0,2.3-0.2,2.9-0.6
				c0.6-0.4,0.9-1,0.9-1.8c0-0.4-0.1-0.7-0.2-0.9c-0.1-0.3-0.4-0.5-0.7-0.7c-0.3-0.2-0.8-0.4-1.5-0.7c-0.6-0.2-1.5-0.4-2.5-0.7
				c-1-0.2-1.9-0.5-2.7-0.8c-0.8-0.3-1.6-0.7-2.2-1.2c-0.6-0.5-1.1-1.1-1.4-1.8c-0.3-0.7-0.5-1.6-0.5-2.7c0-1,0.2-1.9,0.6-2.7
				c0.4-0.8,1-1.5,1.7-2c0.7-0.5,1.5-1,2.5-1.3c0.9-0.3,1.9-0.4,3-0.4c1.7,0,3.2,0.3,4.4,0.9c1.3,0.6,2.4,1.4,3.5,2.5l-3.1,3
				c-0.7-0.7-1.5-1.3-2.2-1.7c-0.8-0.4-1.7-0.6-2.7-0.6c-0.6,0-1.1,0.1-1.5,0.2c-0.4,0.1-0.7,0.3-1,0.4c-0.2,0.2-0.4,0.4-0.5,0.6
				c-0.1,0.2-0.2,0.5-0.2,0.7c0,0.4,0.1,0.6,0.2,0.9c0.1,0.2,0.4,0.4,0.7,0.6c0.3,0.2,0.8,0.4,1.3,0.5c0.6,0.2,1.3,0.4,2.1,0.6
				c0.9,0.2,1.7,0.4,2.6,0.7c0.9,0.3,1.6,0.7,2.3,1.2c0.7,0.5,1.3,1.1,1.7,1.9C345.1,58,345.3,59,345.3,60.1z"/>
		</g>
		<g>
			<path class="st0" d="M384.8,66.7l-3.9-7.8h-4.4v7.8h-4.3V45h10.1c1,0,2,0.1,2.9,0.4c0.9,0.3,1.7,0.7,2.4,1.3
				c0.7,0.6,1.2,1.3,1.6,2.2c0.4,0.9,0.6,1.9,0.6,3c0,1.6-0.3,3-1,4c-0.7,1-1.7,1.8-3.1,2.4l4.2,8.4H384.8z M385.4,52
				c0-1-0.3-1.7-0.8-2.1c-0.5-0.4-1.3-0.6-2.3-0.6h-5.7v5.6h5.7C384.3,54.8,385.4,53.9,385.4,52z"/>
		</g>
		<g>
			<path class="st0" d="M400.9,66.7V45H416v4.2h-10.7V53h6.2v4.2h-6.2v5.2h11.2v4.2H400.9z"/>
		</g>
		<g>
			<path class="st0" d="M444.9,55.9c0,1.9-0.3,3.5-0.9,4.9c-0.6,1.4-1.5,2.5-2.5,3.4c-1,0.9-2.2,1.5-3.6,1.9
				c-1.3,0.4-2.7,0.6-4.1,0.6h-6.5V45h6.8c1.6,0,3,0.2,4.3,0.6c1.3,0.4,2.4,1,3.4,1.9c1,0.9,1.7,2,2.3,3.4
				C444.7,52.2,444.9,53.9,444.9,55.9z M440.5,55.9c0-2.2-0.5-3.9-1.5-5c-1-1.1-2.7-1.7-5-1.7h-2.3v13.3h2.1c1.1,0,2.1-0.2,3-0.5
				c0.8-0.3,1.5-0.8,2.1-1.3c0.5-0.6,0.9-1.3,1.2-2.1C440.3,57.8,440.5,56.9,440.5,55.9z"/>
		</g>
	</g>
</g>
<rect x="-773.8" y="-591.8" class="st3" width="347.6" height="58.5"/>
<rect x="-773.8" y="-515.3" class="st3" width="347.6" height="58.5"/>
<rect x="-458.6" y="-383.8" class="st5" width="83.4" height="33.3"/>
<rect x="-407.6" y="-591.8" class="st3" width="347.6" height="58.5"/>
<rect x="-407.6" y="-515.3" class="st3" width="347.6" height="58.5"/>
<g>
	<rect x="-1031.3" y="34.4" style="fill:none;" width="283.4" height="115.3"/>
	<text transform="matrix(1 0 0 1 -950.9251 45.7111)"><tspan x="0" y="0" class="st3" style="font-family:'RobotoCondensed-Bold'; font-size:16px; letter-spacing:4;">SANTA ROSA</tspan><tspan x="-43.5" y="34" class="st3" style="font-family:'RobotoCondensed-Bold'; font-size:16px; letter-spacing:4;">401 mendocino ave</tspan><tspan x="12.4" y="68" class="st3" style="font-family:'RobotoCondensed-Bold'; font-size:16px; letter-spacing:4;">suite 100</tspan><tspan x="-21.7" y="102" class="st3" style="font-family:'RobotoCondensed-Bold'; font-size:20px; letter-spacing:5;">707 546 5448</tspan></text>
	<rect x="-702.9" y="34.4" style="fill:none;" width="283.4" height="115.3"/>
	<text transform="matrix(1 0 0 1 -628.2592 45.7111)"><tspan x="0" y="0" class="st3" style="font-family:'RobotoCondensed-Bold'; font-size:16px; letter-spacing:4;">MINNEAPOLIS</tspan><tspan x="-26.9" y="34" class="st3" style="font-family:'RobotoCondensed-Bold'; font-size:16px; letter-spacing:4;">711 hennepin ave</tspan><tspan x="18.2" y="68" class="st3" style="font-family:'RobotoCondensed-Bold'; font-size:16px; letter-spacing:4;">suite 500</tspan><tspan x="-15.9" y="102" class="st3" style="font-family:'RobotoCondensed-Bold'; font-size:20px; letter-spacing:5;">707 546 5448</tspan></text>
	<g>
		<path class="st3" d="M-902.2-13.7c-1-2-1.6-4.2-1.6-6.6c0-7.9,6.4-14.2,14.2-14.2c7.9,0,14.2,6.4,14.2,14.2c0,2.4-0.6,4.6-1.6,6.6
			l-12.6,21.9L-902.2-13.7z"/>
		<circle class="st1" cx="-889.6" cy="-20.3" r="7.1"/>
	</g>
	<g>
		<path class="st3" d="M-570-13.7c-1-2-1.6-4.2-1.6-6.6c0-7.9,6.4-14.2,14.2-14.2c7.9,0,14.2,6.4,14.2,14.2c0,2.4-0.6,4.6-1.6,6.6
			l-12.6,21.9L-570-13.7z"/>
		<circle class="st1" cx="-557.4" cy="-20.3" r="7.1"/>
	</g>
</g>
<g>
	<g>
		<defs>
			<circle id="SVGID_5_" cx="-315" cy="59" r="32.3"/>
		</defs>
		<linearGradient id="SVGID_6_" gradientUnits="userSpaceOnUse" x1="-347.2592" y1="58.9941" x2="-282.7591" y2="58.9941">
			<stop  offset="0" style="stop-color:#1EA6DF"/>
			<stop  offset="1" style="stop-color:#DA4097"/>
		</linearGradient>
		<use xlink:href="#SVGID_5_"  style="overflow:visible;fill:url(#SVGID_6_);"/>
		<clipPath id="SVGID_7_">
			<use xlink:href="#SVGID_5_"  style="overflow:visible;"/>
		</clipPath>
		<g class="st6">
			<path class="st0" d="M-326.9,67.5h-7v-9.8h7v-2.3c0-9.2,5.6-16.3,14-16.3c3.2,0,7.4,1,9.7,2.6l-4.7,7.5c-1-0.6-2.4-1.2-4-0.9
				c-2.9,0.7-3.7,3.2-3.7,7.2v2.1h8.6v9.8h-8.6v32.7h-11.3V67.5z"/>
		</g>
	</g>
</g>
<circle class="st7" cx="457.9" cy="18" r="32.3"/>
<g>
	<defs>
		<circle id="SVGID_8_" cx="457.9" cy="18" r="32.3"/>
	</defs>
	<linearGradient id="SVGID_9_" gradientUnits="userSpaceOnUse" x1="425.6462" y1="17.9941" x2="490.1463" y2="17.9941">
		<stop  offset="0" style="stop-color:#1EA6DF"/>
		<stop  offset="1" style="stop-color:#DA4097"/>
	</linearGradient>
	<use xlink:href="#SVGID_8_"  style="overflow:visible;fill:url(#SVGID_9_);"/>
	<clipPath id="SVGID_10_">
		<use xlink:href="#SVGID_8_"  style="overflow:visible;"/>
	</clipPath>
</g>
<path class="st0" d="M472,36.2h-28.1c-2.5,0-4.5-2.3-4.5-5.2V7.3c0-4.2,2.8-6.4,5.7-6.4h27c2.5,0,4.5,2.3,4.5,5.2V31
	C476.5,33.9,474.5,36.2,472,36.2z M445,3.7c-2.8,0-2.9,3.6-2.9,3.6V31c0,1.3,0.8,2.4,1.7,2.4H472c0.9,0,1.7-1.1,1.7-2.4V6.1
	c0-1.3-0.8-2.4-1.7-2.4H445z"/>
<path class="st0" d="M457.9,28c-4.8,0-8.7-3.9-8.7-8.7s3.9-8.7,8.7-8.7c4.8,0,8.7,3.9,8.7,8.7S462.7,28,457.9,28z M457.9,13.3
	c-3.3,0-6,2.7-6,6s2.7,6,6,6s6-2.7,6-6S461.2,13.3,457.9,13.3z"/>
<path class="st0" d="M468.3,10.9L468.3,10.9c1.1,0,1.9-0.9,1.9-1.9v0c0-1.1-0.9-1.9-1.9-1.9l0,0c-1.1,0-1.9,0.9-1.9,1.9v0
	C466.4,10,467.2,10.9,468.3,10.9z"/>
<linearGradient id="SVGID_11_" gradientUnits="userSpaceOnUse" x1="-177.0513" y1="61.2552" x2="-112.5512" y2="61.2552">
	<stop  offset="0" style="stop-color:#1EA6DF"/>
	<stop  offset="1" style="stop-color:#DA4097"/>
</linearGradient>
<circle class="st8" cx="-144.8" cy="61.3" r="32.3"/>
<g>
	<path class="st0" d="M-145.1,81.4c-10.6,0-19.2-8.6-19.2-19.2s8.6-19.2,19.2-19.2c10.6,0,19.2,8.6,19.2,19.2
		S-134.5,81.4-145.1,81.4z M-145.1,45.7c-9.1,0-16.5,7.4-16.5,16.5c0,9.1,7.4,16.5,16.5,16.5c9.1,0,16.5-7.4,16.5-16.5
		C-128.7,53.1-136,45.7-145.1,45.7z"/>
	<path class="st0" d="M-145,81.4c-6.8,0-12.2-8.5-12.2-19.2c0-10.8,5.4-19.2,12.2-19.2s12.2,8.5,12.2,19.2
		C-132.9,73-138.2,81.4-145,81.4z M-145,45.7c-5.1,0-9.4,7.5-9.4,16.5s4.3,16.5,9.4,16.5s9.4-7.5,9.4-16.5S-139.9,45.7-145,45.7z"/>
	<rect x="-163" y="60.9" class="st0" width="35.3" height="2.8"/>
	<rect x="-146.6" y="44.3" class="st0" width="2.8" height="36"/>
	<rect x="-160.2" y="52" class="st0" width="30.3" height="2.8"/>
	<rect x="-160.2" y="69.7" class="st0" width="30.3" height="2.8"/>
</g>
<rect x="-763" y="-576.3" style="fill:none;" width="323" height="32.8"/>
<text transform="matrix(1 0 0 1 -762.9872 -547.9407)" class="st9" style="font-family:'RobotoCondensed-Light'; font-size:40px;">Name</text>
<rect x="-395.3" y="-576.3" style="fill:none;" width="323" height="32.8"/>
<text transform="matrix(1 0 0 1 -395.2848 -547.9407)" class="st9" style="font-family:'RobotoCondensed-Light'; font-size:40px;">COMPANY</text>
<rect x="-762.7" y="-498.3" style="fill:none;" width="323" height="32.8"/>
<text transform="matrix(1 0 0 1 -762.7249 -469.9408)" class="st9" style="font-family:'RobotoCondensed-Light'; font-size:40px;">EMAIL</text>
<rect x="-395" y="-498.3" style="fill:none;" width="323" height="32.8"/>
<text transform="matrix(1 0 0 1 -395.0224 -469.9408)" class="st9" style="font-family:'RobotoCondensed-Light'; font-size:40px;">PHONE</text>
<rect x="-448.5" y="-374" style="fill:none;" width="61.9" height="13.7"/>
<text transform="matrix(1 0 0 1 -444.2138 -361.8921)" class="st3" style="font-family:'RobotoCondensed-Regular'; font-size:17.0625px; letter-spacing:1;">submi</text>
<rect x="-837.2" y="-673.2" style="fill:none;" width="841.2" height="23.3"/>
<text transform="matrix(1 0 0 1 -537.7256 -656.908)" class="st0" style="font-family:'RobotoCondensed-Bold'; font-size:23px; letter-spacing:12;">CONTACT US</text>
<g>
	<defs>
		<rect id="SVGID_12_" x="-1442" y="47" width="382.3" height="112.3"/>
	</defs>
	<clipPath id="SVGID_13_">
		<use xlink:href="#SVGID_12_"  style="overflow:visible;"/>
	</clipPath>
	<g class="st10">
		<path class="st0" d="M-1339.2,147.9H-1809v-90h469.8V147.9z M-1804.7,143.6h461.2V62.2h-461.2V143.6z"/>
		<g>
			<path class="st0" d="M-1764.4,96.3v17.4h-4.3V96.3h-6.2V92h16.8v4.3H-1764.4z"/>
		</g>
		<g>
			<path class="st0" d="M-1734.7,113.7v-9.1h-8.9v9.1h-4.3V92h4.3v8.3h8.9V92h4.3v21.7H-1734.7z"/>
		</g>
		<g>
			<path class="st0" d="M-1718.5,113.7V92h15.1v4.2h-10.7v3.8h6.2v4.2h-6.2v5.2h11.2v4.2H-1718.5z"/>
		</g>
		<g>
			<path class="st0" d="M-1675.9,113.7V92h15.1v4.2h-10.7v3.8h6.2v4.2h-6.2v5.2h11.2v4.2H-1675.9z"/>
		</g>
		<g>
			<path class="st0" d="M-1635.1,113.7l-8-11.8c-0.3-0.4-0.6-0.9-0.9-1.3c-0.3-0.5-0.5-0.8-0.7-1.1c0,0.2,0,0.5,0,0.9
				c0,0.4,0,0.8,0,1.3s0,0.9,0,1.4c0,0.5,0,0.8,0,1.1v9.6h-4.3V92h4.2l7.7,11.5c0.3,0.4,0.6,0.9,0.9,1.3c0.3,0.5,0.5,0.8,0.7,1.1
				c0-0.2,0-0.5,0-0.9c0-0.4,0-0.8,0-1.3s0-0.9,0-1.4c0-0.5,0-0.8,0-1.1V92h4.3v21.7H-1635.1z"/>
		</g>
		<g>
			<path class="st0" d="M-1603.7,109c-0.4,1.1-1,2-1.8,2.8c-0.8,0.7-1.7,1.3-2.8,1.7c-1.1,0.4-2.2,0.6-3.5,0.6
				c-1.4,0-2.7-0.3-3.9-0.8c-1.2-0.5-2.2-1.3-3-2.2c-0.8-1-1.5-2.1-1.9-3.5c-0.5-1.4-0.7-2.9-0.7-4.6c0-1.7,0.2-3.2,0.7-4.5
				c0.5-1.4,1.1-2.6,2-3.5c0.8-1,1.9-1.7,3-2.3c1.2-0.5,2.5-0.8,3.9-0.8c1.1,0,2.1,0.1,3,0.4c0.9,0.2,1.6,0.6,2.3,1.1
				c0.7,0.5,1.2,1,1.7,1.7c0.5,0.7,0.9,1.4,1.3,2.2l-4.1,1.7c-0.2-0.4-0.4-0.8-0.7-1.1c-0.2-0.4-0.5-0.7-0.8-0.9
				c-0.3-0.2-0.7-0.4-1.1-0.6c-0.4-0.1-0.9-0.2-1.5-0.2c-0.8,0-1.5,0.2-2.2,0.5c-0.6,0.3-1.2,0.8-1.6,1.4c-0.4,0.6-0.8,1.3-1,2.2
				c-0.2,0.8-0.3,1.8-0.3,2.8c0,1,0.1,1.9,0.3,2.8c0.2,0.8,0.6,1.6,1,2.2c0.4,0.6,1,1.1,1.6,1.5c0.6,0.4,1.4,0.5,2.2,0.5
				c0.7,0,1.4-0.1,1.9-0.2s0.9-0.4,1.3-0.7c0.3-0.3,0.6-0.6,0.7-1c0.2-0.4,0.3-0.8,0.4-1.3h-3.4v-4.1h7.8v2.9
				C-1603,106.7-1603.2,108-1603.7,109z"/>
		</g>
		<g>
			<path class="st0" d="M-1591.9,113.7V92h4.3v21.7H-1591.9z"/>
		</g>
		<g>
			<path class="st0" d="M-1561.9,113.7l-8-11.8c-0.3-0.4-0.6-0.9-0.9-1.3c-0.3-0.5-0.5-0.8-0.7-1.1c0,0.2,0,0.5,0,0.9
				c0,0.4,0,0.8,0,1.3s0,0.9,0,1.4c0,0.5,0,0.8,0,1.1v9.6h-4.3V92h4.2l7.7,11.5c0.3,0.4,0.6,0.9,0.9,1.3c0.3,0.5,0.5,0.8,0.7,1.1
				c0-0.2,0-0.5,0-0.9c0-0.4,0-0.8,0-1.3s0-0.9,0-1.4c0-0.5,0-0.8,0-1.1V92h4.3v21.7H-1561.9z"/>
		</g>
		<g>
			<path class="st0" d="M-1546.1,113.7V92h15.1v4.2h-10.7v3.8h6.2v4.2h-6.2v5.2h11.2v4.2H-1546.1z"/>
		</g>
		<g>
			<path class="st0" d="M-1503.2,113.7V92h4.3v21.7H-1503.2z"/>
		</g>
		<g>
			<path class="st0" d="M-1471.2,107.1c0,1-0.2,2-0.5,2.8c-0.3,0.8-0.8,1.6-1.6,2.2c-0.7,0.6-1.6,1.1-2.7,1.4
				c-1.1,0.3-2.3,0.5-3.8,0.5c-1.8,0-3.5-0.4-5-1.1c-1.5-0.7-2.6-1.7-3.5-2.9l3.1-2.8c0.8,0.9,1.6,1.5,2.6,1.9
				c0.9,0.4,1.9,0.6,3,0.6c1.3,0,2.3-0.2,2.9-0.6c0.6-0.4,0.9-1,0.9-1.8c0-0.4-0.1-0.7-0.2-0.9s-0.4-0.5-0.7-0.7
				c-0.3-0.2-0.8-0.4-1.5-0.7c-0.6-0.2-1.5-0.4-2.5-0.7c-1-0.2-1.9-0.5-2.7-0.8c-0.8-0.3-1.6-0.7-2.2-1.2c-0.6-0.5-1.1-1.1-1.4-1.8
				s-0.5-1.6-0.5-2.7c0-1,0.2-1.9,0.6-2.7c0.4-0.8,1-1.5,1.7-2c0.7-0.5,1.5-1,2.5-1.3c0.9-0.3,1.9-0.4,3-0.4c1.7,0,3.2,0.3,4.4,0.9
				c1.3,0.6,2.4,1.4,3.5,2.5l-3.1,3c-0.7-0.7-1.5-1.3-2.2-1.7c-0.8-0.4-1.7-0.6-2.7-0.6c-0.6,0-1.1,0.1-1.5,0.2
				c-0.4,0.1-0.7,0.3-1,0.4c-0.2,0.2-0.4,0.4-0.5,0.6c-0.1,0.2-0.2,0.5-0.2,0.7c0,0.4,0.1,0.6,0.2,0.9c0.1,0.2,0.4,0.4,0.7,0.6
				c0.3,0.2,0.8,0.4,1.3,0.5c0.6,0.2,1.3,0.4,2.1,0.6c0.9,0.2,1.7,0.4,2.6,0.7c0.9,0.3,1.6,0.7,2.3,1.2c0.7,0.5,1.3,1.1,1.7,1.9
				C-1471.5,105-1471.2,106-1471.2,107.1z"/>
		</g>
		<g>
			<path class="st0" d="M-1431.7,113.7l-3.9-7.8h-4.4v7.8h-4.3V92h10.1c1,0,2,0.1,2.9,0.4c0.9,0.3,1.7,0.7,2.4,1.3
				c0.7,0.6,1.2,1.3,1.6,2.2c0.4,0.9,0.6,1.9,0.6,3c0,1.6-0.3,3-1,4c-0.7,1-1.7,1.8-3.1,2.4l4.2,8.4H-1431.7z M-1431.2,99
				c0-1-0.3-1.7-0.8-2.1c-0.5-0.4-1.3-0.6-2.3-0.6h-5.7v5.6h5.7C-1432.2,101.8-1431.2,100.9-1431.2,99z"/>
		</g>
		<g>
			<path class="st0" d="M-1415.7,113.7V92h15.1v4.2h-10.7v3.8h6.2v4.2h-6.2v5.2h11.2v4.2H-1415.7z"/>
		</g>
		<g>
			<path class="st0" d="M-1371.6,102.9c0,1.9-0.3,3.5-0.9,4.9c-0.6,1.4-1.5,2.5-2.5,3.4c-1,0.9-2.2,1.5-3.6,1.9
				c-1.3,0.4-2.7,0.6-4.1,0.6h-6.5V92h6.8c1.6,0,3,0.2,4.3,0.6c1.3,0.4,2.4,1,3.4,1.9c1,0.9,1.7,2,2.3,3.4
				C-1371.9,99.2-1371.6,100.9-1371.6,102.9z M-1376.1,102.9c0-2.2-0.5-3.9-1.5-5c-1-1.1-2.7-1.7-5-1.7h-2.3v13.3h2.1
				c1.1,0,2.1-0.2,3-0.5c0.8-0.3,1.5-0.8,2.1-1.3c0.5-0.6,0.9-1.3,1.2-2.1C-1376.2,104.8-1376.1,103.9-1376.1,102.9z"/>
		</g>
	</g>
</g>
</svg>
