<?xml version="1.0" encoding="utf-8"?>
<!-- Generator: Adobe Illustrator 20.1.0, SVG Export Plug-In . SVG Version: 6.00 Build 0)  -->
<!DOCTYPE svg PUBLIC "-//W3C//DTD SVG 1.1//EN" "http://www.w3.org/Graphics/SVG/1.1/DTD/svg11.dtd">
<svg version="1.1" id="Layer_1" xmlns="http://www.w3.org/2000/svg" xmlns:xlink="http://www.w3.org/1999/xlink" x="0px" y="0px"
	 viewBox="0 0 457.8 70.5" style="enable-background:new 0 0 457.8 70.5;" xml:space="preserve">
<style type="text/css">
	.st0{fill:#FFFFFF;}
	.st1{fill:#282829;}
	.st2{fill:#00A7E6;}
	.st3{fill:#D4EFFC;}
	.st4{clip-path:url(#SVGID_4_);}
	.st5{fill:none;stroke:#D4EFFC;stroke-miterlimit:10;}
	.st6{clip-path:url(#SVGID_7_);}
	.st7{fill:#6599D1;}
	.st8{fill:url(#SVGID_11_);}
	.st9{fill:#D1D3D4;}
	.st10{clip-path:url(#SVGID_13_);}
</style>
<g>
	<defs>
		<rect id="SVGID_1_" x="-2217" y="-463.5" width="1600" height="846.1"/>
	</defs>
	<clipPath id="SVGID_2_">
		<use xlink:href="#SVGID_1_"  style="overflow:visible;"/>
	</clipPath>
	<g style="clip-path:url(#SVGID_2_);">
		
	</g>
</g>
<g>
	<g>
		<path class="st0" d="M368,70.5H0V0h368V70.5z M3.4,67.2h361.3V3.4H3.4V67.2z"/>
		<g>
			<path class="st0" d="M35,30.1v13.7h-3.4V30.1h-4.9v-3.4h13.2v3.4H35z"/>
		</g>
		<g>
			<path class="st0" d="M58.2,43.8v-7.1h-7v7.1h-3.4v-17h3.4v6.5h7v-6.5h3.4v17H58.2z"/>
		</g>
		<g>
			<path class="st0" d="M70.9,43.8v-17h11.8v3.3h-8.4V33h4.9v3.3h-4.9v4.1H83v3.3H70.9z"/>
		</g>
		<g>
			<path class="st0" d="M104.3,43.8v-17h11.8v3.3h-8.4V33h4.9v3.3h-4.9v4.1h8.8v3.3H104.3z"/>
		</g>
		<g>
			<path class="st0" d="M136.2,43.8l-6.2-9.3c-0.2-0.3-0.4-0.7-0.7-1c-0.2-0.4-0.4-0.7-0.5-0.9c0,0.2,0,0.4,0,0.7c0,0.3,0,0.7,0,1
				s0,0.7,0,1.1c0,0.4,0,0.7,0,0.9v7.5h-3.4v-17h3.3l6,9c0.2,0.3,0.4,0.7,0.7,1c0.2,0.4,0.4,0.7,0.5,0.9c0-0.2,0-0.4,0-0.7
				c0-0.3,0-0.7,0-1c0-0.4,0-0.7,0-1.1c0-0.4,0-0.7,0-0.9v-7.2h3.4v17H136.2z"/>
		</g>
		<g>
			<path class="st0" d="M160.8,40.1c-0.3,0.9-0.8,1.6-1.4,2.2c-0.6,0.6-1.3,1-2.2,1.3c-0.8,0.3-1.7,0.5-2.7,0.5
				c-1.1,0-2.1-0.2-3-0.6c-0.9-0.4-1.7-1-2.3-1.8c-0.7-0.8-1.2-1.7-1.5-2.8c-0.4-1.1-0.5-2.3-0.5-3.6c0-1.3,0.2-2.5,0.6-3.6
				c0.4-1.1,0.9-2,1.6-2.8c0.7-0.8,1.5-1.4,2.4-1.8c0.9-0.4,1.9-0.6,3.1-0.6c0.9,0,1.6,0.1,2.3,0.3c0.7,0.2,1.3,0.5,1.8,0.9
				c0.5,0.4,1,0.8,1.3,1.3c0.4,0.5,0.7,1.1,1,1.8l-3.2,1.3c-0.2-0.3-0.3-0.6-0.5-0.9c-0.2-0.3-0.4-0.5-0.7-0.7
				c-0.3-0.2-0.5-0.3-0.9-0.5c-0.3-0.1-0.7-0.2-1.2-0.2c-0.6,0-1.2,0.1-1.7,0.4c-0.5,0.3-0.9,0.6-1.3,1.1c-0.3,0.5-0.6,1-0.8,1.7
				c-0.2,0.7-0.3,1.4-0.3,2.2c0,0.8,0.1,1.5,0.3,2.2c0.2,0.7,0.4,1.2,0.8,1.7c0.3,0.5,0.8,0.9,1.3,1.1c0.5,0.3,1.1,0.4,1.7,0.4
				c0.6,0,1.1-0.1,1.5-0.2c0.4-0.1,0.7-0.3,1-0.5c0.3-0.2,0.4-0.5,0.6-0.8c0.1-0.3,0.2-0.7,0.3-1h-2.7v-3.2h6.1v2.2
				C161.3,38.3,161.2,39.2,160.8,40.1z"/>
		</g>
		<g>
			<path class="st0" d="M170.1,43.8v-17h3.4v17H170.1z"/>
		</g>
		<g>
			<path class="st0" d="M193.6,43.8l-6.2-9.3c-0.2-0.3-0.4-0.7-0.7-1c-0.2-0.4-0.4-0.7-0.5-0.9c0,0.2,0,0.4,0,0.7c0,0.3,0,0.7,0,1
				s0,0.7,0,1.1c0,0.4,0,0.7,0,0.9v7.5h-3.4v-17h3.3l6,9c0.2,0.3,0.4,0.7,0.7,1c0.2,0.4,0.4,0.7,0.5,0.9c0-0.2,0-0.4,0-0.7
				c0-0.3,0-0.7,0-1c0-0.4,0-0.7,0-1.1c0-0.4,0-0.7,0-0.9v-7.2h3.4v17H193.6z"/>
		</g>
		<g>
			<path class="st0" d="M205.9,43.8v-17h11.8v3.3h-8.4V33h4.9v3.3h-4.9v4.1h8.8v3.3H205.9z"/>
		</g>
		<g>
			<path class="st0" d="M239.6,43.8v-17h3.4v17H239.6z"/>
		</g>
		<g>
			<path class="st0" d="M264.6,38.6c0,0.8-0.1,1.5-0.4,2.2c-0.3,0.7-0.7,1.2-1.2,1.7c-0.6,0.5-1.2,0.8-2.1,1.1
				c-0.8,0.3-1.8,0.4-3,0.4c-1.4,0-2.7-0.3-3.9-0.8c-1.2-0.6-2.1-1.3-2.7-2.3l2.5-2.2c0.6,0.7,1.3,1.2,2,1.5
				c0.7,0.3,1.5,0.4,2.3,0.4c1,0,1.8-0.1,2.2-0.4c0.5-0.3,0.7-0.8,0.7-1.4c0-0.3,0-0.5-0.1-0.7c-0.1-0.2-0.3-0.4-0.5-0.6
				c-0.3-0.2-0.7-0.3-1.2-0.5c-0.5-0.2-1.1-0.3-1.9-0.5c-0.8-0.2-1.5-0.4-2.1-0.6s-1.2-0.6-1.7-0.9c-0.5-0.4-0.8-0.8-1.1-1.4
				c-0.3-0.6-0.4-1.3-0.4-2.1c0-0.8,0.2-1.5,0.5-2.1c0.3-0.6,0.7-1.1,1.3-1.6c0.6-0.4,1.2-0.8,1.9-1c0.7-0.2,1.5-0.3,2.4-0.3
				c1.3,0,2.5,0.2,3.5,0.7c1,0.5,1.9,1.1,2.7,2l-2.5,2.4c-0.6-0.6-1.1-1-1.8-1.3c-0.6-0.3-1.3-0.4-2.1-0.4c-0.5,0-0.8,0-1.1,0.1
				c-0.3,0.1-0.6,0.2-0.8,0.4c-0.2,0.1-0.3,0.3-0.4,0.5c-0.1,0.2-0.1,0.4-0.1,0.6c0,0.3,0.1,0.5,0.2,0.7c0.1,0.2,0.3,0.4,0.5,0.5
				c0.3,0.1,0.6,0.3,1,0.4c0.4,0.1,1,0.3,1.7,0.4c0.7,0.2,1.4,0.4,2,0.6c0.7,0.2,1.3,0.5,1.8,0.9c0.5,0.4,1,0.9,1.3,1.5
				C264.4,36.9,264.6,37.7,264.6,38.6z"/>
		</g>
	</g>
	<g>
		<path class="st1" d="M283.5,44.1V26.4h12.3v3.5H287v3.1h5.1v3.4H287v4.3h9.1v3.5H283.5z"/>
		<path class="st1" d="M313.8,44.1l-1.6-2.7c-0.6-1.1-1.6-2.8-1.9-3.5c-0.3,0.7-1.3,2.4-1.9,3.5l-1.6,2.7h-4.2l5.6-9.1l-5.4-8.7h4.2
			l1.3,2.3c0.6,1.1,1.6,2.8,1.9,3.5c0.3-0.7,1.3-2.4,1.9-3.5l1.3-2.3h4.2l-5.4,8.7l5.6,9.1H313.8z"/>
		<path class="st1" d="M332.7,37.8h-3.9v6.3h-3.5V26.4h7.7c3.3,0,6.1,1.8,6.1,5.6C339.1,36.1,336.4,37.8,332.7,37.8z M332.9,29.8
			h-4.1v4.6h4.1c1.6,0,2.5-0.8,2.5-2.3S334.4,29.8,332.9,29.8z"/>
		<path class="st1" d="M346.3,44.1V26.4h3.5v14.2h8.9v3.5H346.3z"/>
		<path class="st1" d="M371.8,44.4c-4.8,0-7.7-3.7-7.7-9.1s2.9-9.1,7.7-9.1c4.8,0,7.7,3.7,7.7,9.1S376.6,44.4,371.8,44.4z
			 M371.8,29.6c-2.9,0-4,2.5-4,5.6c0,3.2,1.2,5.6,4,5.6c2.9,0,4-2.5,4-5.6C375.9,32.1,374.7,29.6,371.8,29.6z"/>
		<path class="st1" d="M397.2,44.1l-3.2-6.4h-3.6v6.4h-3.5V26.4h8.2c3.3,0,6.1,1.8,6.1,5.6c0,2.7-1.1,4.3-3.4,5.2l3.4,6.9H397.2z
			 M395.1,29.8h-4.6v4.6h4.6c1.6,0,2.5-0.8,2.5-2.3C397.6,30.5,396.6,29.8,395.1,29.8z"/>
		<path class="st1" d="M409,44.1V26.4h3.5v17.7H409z"/>
		<path class="st1" d="M432.3,44.1l-6.5-9.7c-0.4-0.7-1-1.5-1.2-2c0,0.7,0.1,2.9,0.1,3.9v7.8h-3.5V26.4h3.4l6.3,9.4
			c0.4,0.7,1,1.5,1.2,2c0-0.7-0.1-2.9-0.1-3.9v-7.5h3.5v17.7H432.3z"/>
		<path class="st1" d="M450.7,44.4c-4.6,0-7.7-3.5-7.7-9.1c0-5.4,3.2-9.1,7.9-9.1c3.6,0,5.5,1.7,6.7,4.4l-3.4,1.4
			c-0.7-1.3-1.5-2.3-3.4-2.3c-2.7,0-4.2,2.3-4.2,5.6c0,3.3,1.5,5.7,4.2,5.7c2.4,0,3.3-1.1,3.5-2.7h-2.8v-3.3h6.3v2.3
			C457.8,41.8,454.8,44.4,450.7,44.4z"/>
	</g>
</g>
<g>
	<path class="st0" d="M-165.6-549.9h-436.5v-83.6h436.5V-549.9z M-598.1-553.9h428.5v-75.7h-428.5V-553.9z"/>
	<g>
		<path class="st0" d="M-560.6-597.8v16.2h-4v-16.2h-5.8v-4h15.6v4H-560.6z"/>
	</g>
	<g>
		<path class="st0" d="M-533.1-581.6v-8.5h-8.3v8.5h-4v-20.2h4v7.7h8.3v-7.7h4v20.2H-533.1z"/>
	</g>
	<g>
		<path class="st0" d="M-518.1-581.6v-20.2h14v3.9h-10v3.5h5.8v3.9h-5.8v4.9h10.4v3.9H-518.1z"/>
	</g>
	<g>
		<path class="st0" d="M-478.4-581.6v-20.2h14v3.9h-10v3.5h5.8v3.9h-5.8v4.9h10.4v3.9H-478.4z"/>
	</g>
	<g>
		<path class="st0" d="M-440.6-581.6l-7.4-11c-0.2-0.4-0.5-0.8-0.8-1.2c-0.3-0.4-0.5-0.8-0.6-1.1c0,0.2,0,0.5,0,0.8
			c0,0.4,0,0.8,0,1.2s0,0.9,0,1.3c0,0.4,0,0.8,0,1.1v8.9h-4v-20.2h3.9l7.1,10.7c0.2,0.4,0.5,0.8,0.8,1.2c0.3,0.4,0.5,0.8,0.6,1.1
			c0-0.2,0-0.5,0-0.8c0-0.4,0-0.8,0-1.2c0-0.4,0-0.9,0-1.3c0-0.4,0-0.8,0-1.1v-8.5h4v20.2H-440.6z"/>
	</g>
	<g>
		<path class="st0" d="M-411.4-586c-0.4,1-1,1.9-1.7,2.6c-0.7,0.7-1.6,1.2-2.6,1.6c-1,0.4-2.1,0.5-3.2,0.5c-1.3,0-2.5-0.2-3.6-0.7
			c-1.1-0.5-2-1.2-2.8-2.1c-0.8-0.9-1.4-2-1.8-3.3c-0.4-1.3-0.6-2.7-0.6-4.3c0-1.5,0.2-2.9,0.7-4.2c0.4-1.3,1.1-2.4,1.8-3.3
			c0.8-0.9,1.7-1.6,2.8-2.1c1.1-0.5,2.3-0.8,3.6-0.8c1,0,2,0.1,2.8,0.3c0.8,0.2,1.5,0.6,2.1,1c0.6,0.4,1.1,1,1.6,1.6
			c0.5,0.6,0.8,1.3,1.2,2.1l-3.8,1.6c-0.2-0.4-0.4-0.7-0.6-1c-0.2-0.3-0.5-0.6-0.8-0.8c-0.3-0.2-0.6-0.4-1.1-0.5
			c-0.4-0.1-0.9-0.2-1.4-0.2c-0.7,0-1.4,0.2-2,0.5c-0.6,0.3-1.1,0.8-1.5,1.3c-0.4,0.6-0.7,1.2-0.9,2c-0.2,0.8-0.3,1.6-0.3,2.6
			c0,0.9,0.1,1.8,0.3,2.6c0.2,0.8,0.5,1.5,0.9,2c0.4,0.6,0.9,1,1.5,1.4c0.6,0.3,1.3,0.5,2,0.5c0.7,0,1.3-0.1,1.8-0.2
			c0.5-0.2,0.9-0.4,1.2-0.6c0.3-0.3,0.5-0.6,0.7-1c0.2-0.4,0.3-0.8,0.3-1.2h-3.2v-3.8h7.2v2.7C-410.8-588.2-411-587-411.4-586z"/>
	</g>
	<g>
		<path class="st0" d="M-400.4-581.6v-20.2h4v20.2H-400.4z"/>
	</g>
	<g>
		<path class="st0" d="M-372.5-581.6l-7.4-11c-0.2-0.4-0.5-0.8-0.8-1.2c-0.3-0.4-0.5-0.8-0.6-1.1c0,0.2,0,0.5,0,0.8
			c0,0.4,0,0.8,0,1.2s0,0.9,0,1.3c0,0.4,0,0.8,0,1.1v8.9h-4v-20.2h3.9l7.1,10.7c0.2,0.4,0.5,0.8,0.8,1.2c0.3,0.4,0.5,0.8,0.6,1.1
			c0-0.2,0-0.5,0-0.8c0-0.4,0-0.8,0-1.2c0-0.4,0-0.9,0-1.3c0-0.4,0-0.8,0-1.1v-8.5h4v20.2H-372.5z"/>
	</g>
	<g>
		<path class="st0" d="M-357.9-581.6v-20.2h14v3.9h-10v3.5h5.8v3.9h-5.8v4.9h10.4v3.9H-357.9z"/>
	</g>
	<g>
		<path class="st0" d="M-318-581.6v-20.2h4v20.2H-318z"/>
	</g>
	<g>
		<path class="st0" d="M-288.3-587.7c0,1-0.2,1.8-0.5,2.6c-0.3,0.8-0.8,1.5-1.4,2c-0.7,0.6-1.5,1-2.5,1.3c-1,0.3-2.2,0.5-3.6,0.5
			c-1.7,0-3.2-0.3-4.6-1c-1.4-0.7-2.5-1.5-3.2-2.7l2.9-2.6c0.7,0.8,1.5,1.4,2.4,1.8c0.9,0.4,1.8,0.5,2.8,0.5c1.2,0,2.1-0.2,2.7-0.5
			c0.6-0.3,0.9-0.9,0.9-1.7c0-0.3-0.1-0.6-0.2-0.8c-0.1-0.2-0.3-0.5-0.6-0.7c-0.3-0.2-0.8-0.4-1.4-0.6c-0.6-0.2-1.4-0.4-2.3-0.6
			c-0.9-0.2-1.8-0.5-2.5-0.7c-0.8-0.3-1.4-0.7-2-1.1c-0.6-0.4-1-1-1.3-1.7c-0.3-0.7-0.5-1.5-0.5-2.5c0-0.9,0.2-1.7,0.6-2.5
			c0.4-0.7,0.9-1.3,1.5-1.9c0.7-0.5,1.4-0.9,2.3-1.2c0.9-0.3,1.8-0.4,2.8-0.4c1.6,0,3,0.3,4.1,0.8c1.2,0.6,2.3,1.3,3.2,2.3l-2.9,2.8
			c-0.7-0.7-1.3-1.2-2.1-1.5c-0.7-0.4-1.6-0.5-2.5-0.5c-0.5,0-1,0.1-1.4,0.2c-0.4,0.1-0.7,0.2-0.9,0.4c-0.2,0.2-0.4,0.4-0.5,0.6
			c-0.1,0.2-0.1,0.4-0.1,0.7c0,0.3,0.1,0.6,0.2,0.8c0.1,0.2,0.3,0.4,0.6,0.6c0.3,0.2,0.7,0.3,1.2,0.5s1.2,0.3,2,0.5
			c0.8,0.2,1.6,0.4,2.4,0.7c0.8,0.3,1.5,0.6,2.2,1.1c0.6,0.5,1.2,1,1.6,1.8C-288.5-589.7-288.3-588.8-288.3-587.7z"/>
	</g>
	<g>
		<path class="st0" d="M-251.6-581.6l-3.6-7.3h-4.1v7.3h-4v-20.2h9.4c0.9,0,1.8,0.1,2.7,0.4c0.8,0.3,1.6,0.7,2.2,1.2
			c0.6,0.5,1.1,1.2,1.5,2c0.4,0.8,0.5,1.7,0.5,2.8c0,1.5-0.3,2.8-1,3.7c-0.6,1-1.6,1.7-2.9,2.2l3.9,7.8H-251.6z M-251.1-595.3
			c0-0.9-0.3-1.6-0.8-2c-0.5-0.4-1.2-0.6-2.1-0.6h-5.3v5.2h5.3C-252.1-592.7-251.1-593.6-251.1-595.3z"/>
	</g>
	<g>
		<path class="st0" d="M-236.7-581.6v-20.2h14v3.9h-10v3.5h5.8v3.9h-5.8v4.9h10.4v3.9H-236.7z"/>
	</g>
	<g>
		<path class="st0" d="M-195.8-591.7c0,1.8-0.3,3.3-0.9,4.6c-0.6,1.3-1.4,2.3-2.3,3.1c-1,0.8-2.1,1.4-3.3,1.8
			c-1.2,0.4-2.5,0.6-3.8,0.6h-6v-20.2h6.3c1.4,0,2.8,0.2,4,0.5c1.2,0.4,2.3,0.9,3.2,1.7c0.9,0.8,1.6,1.8,2.1,3.1
			C-196-595.1-195.8-593.6-195.8-591.7z M-199.9-591.7c0-2.1-0.5-3.6-1.4-4.6c-0.9-1-2.5-1.5-4.6-1.5h-2.1v12.3h2
			c1.1,0,2-0.1,2.8-0.4c0.8-0.3,1.4-0.7,1.9-1.3c0.5-0.5,0.9-1.2,1.1-1.9C-200-590-199.9-590.8-199.9-591.7z"/>
	</g>
</g>
<rect x="-148.1" y="-601.8" style="fill:none;" width="214.9" height="23.3"/>
<text transform="matrix(1 0 0 1 -148.1289 -580.5018)" style="font-family:'Interstate-Bold'; font-size:30px; letter-spacing:4;">EXPLORING</text>
<rect x="-2217" y="382.6" class="st1" width="1600" height="576.9"/>
<rect x="-2217" y="1536.5" class="st1" width="1600" height="576.9"/>
<rect x="-2217" y="959.5" class="st2" width="1600" height="576.9"/>
<rect x="-1838.6" y="289.6" style="fill:none;" width="841.2" height="23.3"/>
<text transform="matrix(1 0 0 1 -1774.4646 305.8983)" class="st0" style="font-family:'RobotoCondensed-Bold'; font-size:23px; letter-spacing:12;">The Pursuit of a Better Agency</text>
<rect x="-1774.4" y="497.1" style="fill:none;" width="713.9" height="351"/>
<text transform="matrix(1 0 0 1 -1774.3849 510.5706)"><tspan x="0" y="0" class="st3" style="font-family:'RobotoCondensed-Bold'; font-size:19px; letter-spacing:9;">As</tspan><tspan x="40" y="0" class="st3" style="font-family:'RobotoCondensed-Bold'; font-size:19px; letter-spacing:21;"> </tspan><tspan x="65.7" y="0" class="st3" style="font-family:'RobotoCondensed-Bold'; font-size:19px; letter-spacing:9;">we</tspan><tspan x="110.2" y="0" class="st3" style="font-family:'RobotoCondensed-Bold'; font-size:19px; letter-spacing:21;"> </tspan><tspan x="135.9" y="0" class="st3" style="font-family:'RobotoCondensed-Bold'; font-size:19px; letter-spacing:9;">grow,</tspan><tspan x="239" y="0" class="st3" style="font-family:'RobotoCondensed-Bold'; font-size:19px; letter-spacing:21;"> </tspan><tspan x="264.8" y="0" class="st3" style="font-family:'RobotoCondensed-Bold'; font-size:19px; letter-spacing:9;">change,</tspan><tspan x="404.4" y="0" class="st3" style="font-family:'RobotoCondensed-Bold'; font-size:19px; letter-spacing:21;"> </tspan><tspan x="430.1" y="0" class="st3" style="font-family:'RobotoCondensed-Bold'; font-size:19px; letter-spacing:9;">learn</tspan><tspan x="530.3" y="0" class="st3" style="font-family:'RobotoCondensed-Bold'; font-size:19px; letter-spacing:21;"> </tspan><tspan x="556" y="0" class="st3" style="font-family:'RobotoCondensed-Bold'; font-size:19px; letter-spacing:9;">and</tspan><tspan x="621.3" y="0" class="st3" style="font-family:'RobotoCondensed-Bold'; font-size:19px; letter-spacing:21;"> </tspan><tspan x="647.1" y="0" class="st3" style="font-family:'RobotoCondensed-Bold'; font-size:19px; letter-spacing:9;">seek </tspan><tspan x="0" y="42" class="st3" style="font-family:'RobotoCondensed-Bold'; font-size:19px; letter-spacing:9;">ourselves</tspan><tspan x="178.1" y="42" class="st3" style="font-family:'RobotoCondensed-Bold'; font-size:19px; letter-spacing:22;"> </tspan><tspan x="204.6" y="42" class="st3" style="font-family:'RobotoCondensed-Bold'; font-size:19px; letter-spacing:9;">to</tspan><tspan x="246.1" y="42" class="st3" style="font-family:'RobotoCondensed-Bold'; font-size:19px; letter-spacing:22;"> </tspan><tspan x="272.6" y="42" class="st3" style="font-family:'RobotoCondensed-Bold'; font-size:19px; letter-spacing:9;">constantly</tspan><tspan x="475.9" y="42" class="st3" style="font-family:'RobotoCondensed-Bold'; font-size:19px; letter-spacing:22;"> </tspan><tspan x="502.4" y="42" class="st3" style="font-family:'RobotoCondensed-Bold'; font-size:19px; letter-spacing:9;">improve,</tspan><tspan x="655.5" y="42" class="st3" style="font-family:'RobotoCondensed-Bold'; font-size:19px; letter-spacing:22;"> </tspan><tspan x="682" y="42" class="st3" style="font-family:'RobotoCondensed-Bold'; font-size:19px; letter-spacing:9;">so </tspan><tspan x="0" y="84" class="st3" style="font-family:'RobotoCondensed-Bold'; font-size:19px; letter-spacing:9;">too</tspan><tspan x="64.1" y="84" class="st3" style="font-family:'RobotoCondensed-Bold'; font-size:19px; letter-spacing:18;"> </tspan><tspan x="86.3" y="84" class="st3" style="font-family:'RobotoCondensed-Bold'; font-size:19px; letter-spacing:9;">must</tspan><tspan x="170.7" y="84" class="st3" style="font-family:'RobotoCondensed-Bold'; font-size:19px; letter-spacing:18;"> </tspan><tspan x="192.8" y="84" class="st3" style="font-family:'RobotoCondensed-Bold'; font-size:19px; letter-spacing:9;">our</tspan><tspan x="256.9" y="84" class="st3" style="font-family:'RobotoCondensed-Bold'; font-size:19px; letter-spacing:18;"> </tspan><tspan x="279.1" y="84" class="st3" style="font-family:'RobotoCondensed-Bold'; font-size:19px; letter-spacing:9;">brand</tspan><tspan x="383.9" y="84" class="st3" style="font-family:'RobotoCondensed-Bold'; font-size:19px; letter-spacing:18;"> </tspan><tspan x="406.1" y="84" class="st3" style="font-family:'RobotoCondensed-Bold'; font-size:19px; letter-spacing:9;">reflect</tspan><tspan x="540.2" y="84" class="st3" style="font-family:'RobotoCondensed-Bold'; font-size:19px; letter-spacing:18;"> </tspan><tspan x="562.3" y="84" class="st3" style="font-family:'RobotoCondensed-Bold'; font-size:19px; letter-spacing:9;">that.</tspan><tspan x="656.7" y="84" class="st3" style="font-family:'RobotoCondensed-Bold'; font-size:19px; letter-spacing:18;"> </tspan><tspan x="678.8" y="84" class="st3" style="font-family:'RobotoCondensed-Bold'; font-size:19px; letter-spacing:9;">No </tspan><tspan x="0" y="126" class="st3" style="font-family:'RobotoCondensed-Bold'; font-size:19px; letter-spacing:9;">clinging</tspan><tspan x="154.6" y="126" class="st3" style="font-family:'RobotoCondensed-Bold'; font-size:19px; letter-spacing:7;"> </tspan><tspan x="166.4" y="126" class="st3" style="font-family:'RobotoCondensed-Bold'; font-size:19px; letter-spacing:9;">to</tspan><tspan x="207.9" y="126" class="st3" style="font-family:'RobotoCondensed-Bold'; font-size:19px; letter-spacing:7;"> </tspan><tspan x="219.7" y="126" class="st3" style="font-family:'RobotoCondensed-Bold'; font-size:19px; letter-spacing:9;">the</tspan><tspan x="279.3" y="126" class="st3" style="font-family:'RobotoCondensed-Bold'; font-size:19px; letter-spacing:7;"> </tspan><tspan x="291.1" y="126" class="st3" style="font-family:'RobotoCondensed-Bold'; font-size:19px; letter-spacing:9;">comfort</tspan><tspan x="439" y="126" class="st3" style="font-family:'RobotoCondensed-Bold'; font-size:19px; letter-spacing:7;"> </tspan><tspan x="450.7" y="126" class="st3" style="font-family:'RobotoCondensed-Bold'; font-size:19px; letter-spacing:9;">of</tspan><tspan x="492.1" y="126" class="st3" style="font-family:'RobotoCondensed-Bold'; font-size:19px; letter-spacing:7;"> </tspan><tspan x="503.8" y="126" class="st3" style="font-family:'RobotoCondensed-Bold'; font-size:19px; letter-spacing:9;">the</tspan><tspan x="563.5" y="126" class="st3" style="font-family:'RobotoCondensed-Bold'; font-size:19px; letter-spacing:7;"> </tspan><tspan x="575.3" y="126" class="st3" style="font-family:'RobotoCondensed-Bold'; font-size:19px; letter-spacing:9;">past.</tspan><tspan x="667.2" y="126" class="st3" style="font-family:'RobotoCondensed-Bold'; font-size:19px; letter-spacing:7;"> </tspan><tspan x="679" y="126" class="st3" style="font-family:'RobotoCondensed-Bold'; font-size:19px; letter-spacing:9;">We </tspan><tspan x="0" y="168" class="st3" style="font-family:'RobotoCondensed-Bold'; font-size:19px; letter-spacing:9;">must</tspan><tspan x="84.4" y="168" class="st3" style="font-family:'RobotoCondensed-Bold'; font-size:19px; letter-spacing:22;"> </tspan><tspan x="110.9" y="168" class="st3" style="font-family:'RobotoCondensed-Bold'; font-size:19px; letter-spacing:9;">push</tspan><tspan x="193.1" y="168" class="st3" style="font-family:'RobotoCondensed-Bold'; font-size:19px; letter-spacing:22;"> </tspan><tspan x="219.6" y="168" class="st3" style="font-family:'RobotoCondensed-Bold'; font-size:19px; letter-spacing:9;">forward.</tspan><tspan x="382.7" y="168" class="st3" style="font-family:'RobotoCondensed-Bold'; font-size:19px; letter-spacing:22;"> </tspan><tspan x="409.2" y="168" class="st3" style="font-family:'RobotoCondensed-Bold'; font-size:19px; letter-spacing:9;">We</tspan><tspan x="453.6" y="168" class="st3" style="font-family:'RobotoCondensed-Bold'; font-size:19px; letter-spacing:22;"> </tspan><tspan x="480.1" y="168" class="st3" style="font-family:'RobotoCondensed-Bold'; font-size:19px; letter-spacing:9;">must</tspan><tspan x="564.5" y="168" class="st3" style="font-family:'RobotoCondensed-Bold'; font-size:19px; letter-spacing:22;"> </tspan><tspan x="591" y="168" class="st3" style="font-family:'RobotoCondensed-Bold'; font-size:19px; letter-spacing:9;">evolve. </tspan><tspan x="0" y="210" class="st3" style="font-family:'RobotoCondensed-Bold'; font-size:19px; letter-spacing:9;">Which</tspan><tspan x="103.9" y="210" class="st3" style="font-family:'RobotoCondensed-Bold'; font-size:19px; letter-spacing:14;"> </tspan><tspan x="122.2" y="210" class="st3" style="font-family:'RobotoCondensed-Bold'; font-size:19px; letter-spacing:9;">brings</tspan><tspan x="238.4" y="210" class="st3" style="font-family:'RobotoCondensed-Bold'; font-size:19px; letter-spacing:14;"> </tspan><tspan x="256.7" y="210" class="st3" style="font-family:'RobotoCondensed-Bold'; font-size:19px; letter-spacing:9;">us</tspan><tspan x="297.4" y="210" class="st3" style="font-family:'RobotoCondensed-Bold'; font-size:19px; letter-spacing:14;"> </tspan><tspan x="315.7" y="210" class="st3" style="font-family:'RobotoCondensed-Bold'; font-size:19px; letter-spacing:9;">here,</tspan><tspan x="408.4" y="210" class="st3" style="font-family:'RobotoCondensed-Bold'; font-size:19px; letter-spacing:14;"> </tspan><tspan x="426.7" y="210" class="st3" style="font-family:'RobotoCondensed-Bold'; font-size:19px; letter-spacing:9;">to</tspan><tspan x="468.2" y="210" class="st3" style="font-family:'RobotoCondensed-Bold'; font-size:19px; letter-spacing:14;"> </tspan><tspan x="486.5" y="210" class="st3" style="font-family:'RobotoCondensed-Bold'; font-size:19px; letter-spacing:9;">the</tspan><tspan x="546.2" y="210" class="st3" style="font-family:'RobotoCondensed-Bold'; font-size:19px; letter-spacing:14;"> </tspan><tspan x="564.5" y="210" class="st3" style="font-family:'RobotoCondensed-Bold'; font-size:19px; letter-spacing:9;">verge</tspan><tspan x="663.8" y="210" class="st3" style="font-family:'RobotoCondensed-Bold'; font-size:19px; letter-spacing:14;"> </tspan><tspan x="682.1" y="210" class="st3" style="font-family:'RobotoCondensed-Bold'; font-size:19px; letter-spacing:9;">of </tspan><tspan x="0" y="252" class="st3" style="font-family:'RobotoCondensed-Bold'; font-size:19px; letter-spacing:9;">an</tspan><tspan x="43.1" y="252" class="st3" style="font-family:'RobotoCondensed-Bold'; font-size:19px; letter-spacing:23;"> </tspan><tspan x="71.1" y="252" class="st3" style="font-family:'RobotoCondensed-Bold'; font-size:19px; letter-spacing:9;">exhilarating</tspan><tspan x="303.4" y="252" class="st3" style="font-family:'RobotoCondensed-Bold'; font-size:19px; letter-spacing:23;"> </tspan><tspan x="331.4" y="252" class="st3" style="font-family:'RobotoCondensed-Bold'; font-size:19px; letter-spacing:9;">new</tspan><tspan x="397.8" y="252" class="st3" style="font-family:'RobotoCondensed-Bold'; font-size:19px; letter-spacing:23;"> </tspan><tspan x="425.8" y="252" class="st3" style="font-family:'RobotoCondensed-Bold'; font-size:19px; letter-spacing:9;">chapter</tspan><tspan x="566.5" y="252" class="st3" style="font-family:'RobotoCondensed-Bold'; font-size:19px; letter-spacing:23;"> </tspan><tspan x="594.4" y="252" class="st3" style="font-family:'RobotoCondensed-Bold'; font-size:19px; letter-spacing:9;">of</tspan><tspan x="635.8" y="252" class="st3" style="font-family:'RobotoCondensed-Bold'; font-size:19px; letter-spacing:23;"> </tspan><tspan x="663.7" y="252" class="st3" style="font-family:'RobotoCondensed-Bold'; font-size:19px; letter-spacing:9;">the </tspan><tspan x="0" y="294" class="st3" style="font-family:'RobotoCondensed-Bold'; font-size:19px; letter-spacing:9;">Engine,</tspan><tspan x="130.9" y="294" class="st3" style="font-family:'RobotoCondensed-Bold'; font-size:19px; letter-spacing:24;"> </tspan><tspan x="159.9" y="294" class="st3" style="font-family:'RobotoCondensed-Bold'; font-size:19px; letter-spacing:9;">eagerly</tspan><tspan x="298.4" y="294" class="st3" style="font-family:'RobotoCondensed-Bold'; font-size:19px; letter-spacing:24;"> </tspan><tspan x="327.4" y="294" class="st3" style="font-family:'RobotoCondensed-Bold'; font-size:19px; letter-spacing:9;">awaiting</tspan><tspan x="486" y="294" class="st3" style="font-family:'RobotoCondensed-Bold'; font-size:19px; letter-spacing:24;"> </tspan><tspan x="515" y="294" class="st3" style="font-family:'RobotoCondensed-Bold'; font-size:19px; letter-spacing:9;">the</tspan><tspan x="574.6" y="294" class="st3" style="font-family:'RobotoCondensed-Bold'; font-size:19px; letter-spacing:24;"> </tspan><tspan x="603.6" y="294" class="st3" style="font-family:'RobotoCondensed-Bold'; font-size:19px; letter-spacing:9;">future </tspan><tspan x="0" y="336" class="st3" style="font-family:'RobotoCondensed-Bold'; font-size:19px; letter-spacing:9;">and</tspan><tspan x="65.3" y="336" class="st3" style="font-family:'RobotoCondensed-Bold'; font-size:19px; letter-spacing:14;"> </tspan><tspan x="84.1" y="336" class="st3" style="font-family:'RobotoCondensed-Bold'; font-size:19px; letter-spacing:9;">exploring</tspan><tspan x="261.5" y="336" class="st3" style="font-family:'RobotoCondensed-Bold'; font-size:19px; letter-spacing:14;"> </tspan><tspan x="280.3" y="336" class="st3" style="font-family:'RobotoCondensed-Bold'; font-size:19px; letter-spacing:9;">the</tspan><tspan x="340" y="336" class="st3" style="font-family:'RobotoCondensed-Bold'; font-size:19px; letter-spacing:14;"> </tspan><tspan x="358.8" y="336" class="st3" style="font-family:'RobotoCondensed-Bold'; font-size:19px; letter-spacing:9;">limits</tspan><tspan x="467.9" y="336" class="st3" style="font-family:'RobotoCondensed-Bold'; font-size:19px; letter-spacing:14;"> </tspan><tspan x="486.7" y="336" class="st3" style="font-family:'RobotoCondensed-Bold'; font-size:19px; letter-spacing:9;">of</tspan><tspan x="528.1" y="336" class="st3" style="font-family:'RobotoCondensed-Bold'; font-size:19px; letter-spacing:14;"> </tspan><tspan x="546.9" y="336" class="st3" style="font-family:'RobotoCondensed-Bold'; font-size:19px; letter-spacing:9;">what</tspan><tspan x="634.4" y="336" class="st3" style="font-family:'RobotoCondensed-Bold'; font-size:19px; letter-spacing:14;"> </tspan><tspan x="653.2" y="336" class="st3" style="font-family:'RobotoCondensed-Bold'; font-size:19px; letter-spacing:9;">lies </tspan></text>
<g>
	<defs>
		<rect id="SVGID_3_" x="-1000.1" y="1765.8" width="382.3" height="112.3"/>
	</defs>
	<clipPath id="SVGID_4_">
		<use xlink:href="#SVGID_3_"  style="overflow:visible;"/>
	</clipPath>
	<g class="st4">
		<path class="st0" d="M-522.7,1866.7h-469.8v-90h469.8V1866.7z M-988.2,1862.4H-527V1781h-461.2V1862.4z"/>
		<g>
			<path class="st0" d="M-947.9,1815.1v17.4h-4.3v-17.4h-6.2v-4.3h16.8v4.3H-947.9z"/>
		</g>
		<g>
			<path class="st0" d="M-918.2,1832.5v-9.1h-8.9v9.1h-4.3v-21.7h4.3v8.3h8.9v-8.3h4.3v21.7H-918.2z"/>
		</g>
		<g>
			<path class="st0" d="M-902,1832.5v-21.7h15.1v4.2h-10.7v3.8h6.2v4.2h-6.2v5.2h11.2v4.2H-902z"/>
		</g>
		<g>
			<path class="st0" d="M-859.4,1832.5v-21.7h15.1v4.2H-855v3.8h6.2v4.2h-6.2v5.2h11.2v4.2H-859.4z"/>
		</g>
		<g>
			<path class="st0" d="M-818.6,1832.5l-8-11.8c-0.3-0.4-0.6-0.9-0.9-1.3c-0.3-0.5-0.5-0.8-0.7-1.1c0,0.2,0,0.5,0,0.9
				c0,0.4,0,0.8,0,1.3s0,0.9,0,1.4c0,0.5,0,0.8,0,1.1v9.6h-4.3v-21.7h4.2l7.7,11.5c0.3,0.4,0.6,0.9,0.9,1.3c0.3,0.5,0.5,0.8,0.7,1.1
				c0-0.2,0-0.5,0-0.9c0-0.4,0-0.8,0-1.3s0-0.9,0-1.4c0-0.5,0-0.8,0-1.1v-9.2h4.3v21.7H-818.6z"/>
		</g>
		<g>
			<path class="st0" d="M-787.2,1827.8c-0.4,1.1-1,2-1.8,2.8c-0.8,0.7-1.7,1.3-2.8,1.7c-1.1,0.4-2.2,0.6-3.5,0.6
				c-1.4,0-2.7-0.3-3.9-0.8c-1.2-0.5-2.2-1.3-3-2.2c-0.8-1-1.5-2.1-1.9-3.5c-0.5-1.4-0.7-2.9-0.7-4.6c0-1.7,0.2-3.2,0.7-4.5
				c0.5-1.4,1.1-2.6,2-3.5c0.8-1,1.9-1.7,3-2.3c1.2-0.5,2.5-0.8,3.9-0.8c1.1,0,2.1,0.1,3,0.4s1.6,0.6,2.3,1.1c0.7,0.5,1.2,1,1.7,1.7
				c0.5,0.7,0.9,1.4,1.3,2.2l-4.1,1.7c-0.2-0.4-0.4-0.8-0.7-1.1c-0.2-0.4-0.5-0.7-0.8-0.9c-0.3-0.2-0.7-0.4-1.1-0.6
				c-0.4-0.1-0.9-0.2-1.5-0.2c-0.8,0-1.5,0.2-2.2,0.5c-0.6,0.3-1.2,0.8-1.6,1.4c-0.4,0.6-0.8,1.3-1,2.2c-0.2,0.8-0.3,1.8-0.3,2.8
				c0,1,0.1,1.9,0.3,2.8c0.2,0.8,0.6,1.6,1,2.2c0.4,0.6,1,1.1,1.6,1.5c0.6,0.4,1.4,0.5,2.2,0.5c0.7,0,1.4-0.1,1.9-0.2
				c0.5-0.2,0.9-0.4,1.3-0.7c0.3-0.3,0.6-0.6,0.7-1c0.2-0.4,0.3-0.8,0.4-1.3h-3.4v-4.1h7.8v2.9
				C-786.5,1825.5-786.7,1826.8-787.2,1827.8z"/>
		</g>
		<g>
			<path class="st0" d="M-775.4,1832.5v-21.7h4.3v21.7H-775.4z"/>
		</g>
		<g>
			<path class="st0" d="M-745.4,1832.5l-8-11.8c-0.3-0.4-0.6-0.9-0.9-1.3c-0.3-0.5-0.5-0.8-0.7-1.1c0,0.2,0,0.5,0,0.9
				c0,0.4,0,0.8,0,1.3s0,0.9,0,1.4c0,0.5,0,0.8,0,1.1v9.6h-4.3v-21.7h4.2l7.7,11.5c0.3,0.4,0.6,0.9,0.9,1.3c0.3,0.5,0.5,0.8,0.7,1.1
				c0-0.2,0-0.5,0-0.9c0-0.4,0-0.8,0-1.3s0-0.9,0-1.4c0-0.5,0-0.8,0-1.1v-9.2h4.3v21.7H-745.4z"/>
		</g>
		<g>
			<path class="st0" d="M-729.6,1832.5v-21.7h15.1v4.2h-10.7v3.8h6.2v4.2h-6.2v5.2h11.2v4.2H-729.6z"/>
		</g>
		<g>
			<path class="st0" d="M-686.7,1832.5v-21.7h4.3v21.7H-686.7z"/>
		</g>
		<g>
			<path class="st0" d="M-654.7,1826c0,1-0.2,2-0.5,2.8c-0.3,0.8-0.8,1.6-1.6,2.2c-0.7,0.6-1.6,1.1-2.7,1.4
				c-1.1,0.3-2.3,0.5-3.8,0.5c-1.8,0-3.5-0.4-5-1.1c-1.5-0.7-2.6-1.7-3.5-2.9l3.1-2.8c0.8,0.9,1.6,1.5,2.6,1.9
				c0.9,0.4,1.9,0.6,3,0.6c1.3,0,2.3-0.2,2.9-0.6c0.6-0.4,0.9-1,0.9-1.8c0-0.4-0.1-0.7-0.2-0.9c-0.1-0.3-0.4-0.5-0.7-0.7
				c-0.3-0.2-0.8-0.4-1.5-0.7c-0.6-0.2-1.5-0.4-2.5-0.7c-1-0.2-1.9-0.5-2.7-0.8c-0.8-0.3-1.6-0.7-2.2-1.2c-0.6-0.5-1.1-1.1-1.4-1.8
				c-0.3-0.7-0.5-1.6-0.5-2.7c0-1,0.2-1.9,0.6-2.7c0.4-0.8,1-1.5,1.7-2c0.7-0.5,1.5-1,2.5-1.3c0.9-0.3,1.9-0.4,3-0.4
				c1.7,0,3.2,0.3,4.4,0.9c1.3,0.6,2.4,1.4,3.5,2.5l-3.1,3c-0.7-0.7-1.5-1.3-2.2-1.7c-0.8-0.4-1.7-0.6-2.7-0.6
				c-0.6,0-1.1,0.1-1.5,0.2c-0.4,0.1-0.7,0.3-1,0.4c-0.2,0.2-0.4,0.4-0.5,0.6c-0.1,0.2-0.2,0.5-0.2,0.7c0,0.4,0.1,0.6,0.2,0.9
				c0.1,0.2,0.4,0.4,0.7,0.6c0.3,0.2,0.8,0.4,1.3,0.5s1.3,0.4,2.1,0.6c0.9,0.2,1.7,0.4,2.6,0.7c0.9,0.3,1.6,0.7,2.3,1.2
				c0.7,0.5,1.3,1.1,1.7,1.9C-655,1823.8-654.7,1824.8-654.7,1826z"/>
		</g>
		<g>
			<path class="st0" d="M-615.2,1832.5l-3.9-7.8h-4.4v7.8h-4.3v-21.7h10.1c1,0,2,0.1,2.9,0.4c0.9,0.3,1.7,0.7,2.4,1.3
				c0.7,0.6,1.2,1.3,1.6,2.2c0.4,0.9,0.6,1.9,0.6,3c0,1.6-0.3,3-1,4c-0.7,1-1.7,1.8-3.1,2.4l4.2,8.4H-615.2z M-614.7,1817.8
				c0-1-0.3-1.7-0.8-2.1c-0.5-0.4-1.3-0.6-2.3-0.6h-5.7v5.6h5.7C-615.7,1820.6-614.7,1819.7-614.7,1817.8z"/>
		</g>
		<g>
			<path class="st0" d="M-599.2,1832.5v-21.7h15.1v4.2h-10.7v3.8h6.2v4.2h-6.2v5.2h11.2v4.2H-599.2z"/>
		</g>
		<g>
			<path class="st0" d="M-555.1,1821.7c0,1.9-0.3,3.5-0.9,4.9c-0.6,1.4-1.5,2.5-2.5,3.4c-1,0.9-2.2,1.5-3.6,1.9
				c-1.3,0.4-2.7,0.6-4.1,0.6h-6.5v-21.7h6.8c1.6,0,3,0.2,4.3,0.6c1.3,0.4,2.4,1,3.4,1.9c1,0.9,1.7,2,2.3,3.4
				C-555.4,1818-555.1,1819.7-555.1,1821.7z M-559.6,1821.7c0-2.2-0.5-3.9-1.5-5c-1-1.1-2.7-1.7-5-1.7h-2.3v13.3h2.1
				c1.1,0,2.1-0.2,3-0.5c0.8-0.3,1.5-0.8,2.1-1.3c0.5-0.6,0.9-1.3,1.2-2.1C-559.7,1823.6-559.6,1822.7-559.6,1821.7z"/>
		</g>
	</g>
</g>
<rect x="-1773.8" y="1174" class="st3" width="347.6" height="58.5"/>
<rect x="-1773.8" y="1250.5" class="st3" width="347.6" height="58.5"/>
<rect x="-1458.7" y="1382" class="st5" width="83.4" height="33.3"/>
<rect x="-1407.7" y="1174" class="st3" width="347.6" height="58.5"/>
<rect x="-1407.7" y="1250.5" class="st3" width="347.6" height="58.5"/>
<g>
	<rect x="-2031.4" y="1800.2" style="fill:none;" width="283.4" height="115.3"/>
	<text transform="matrix(1 0 0 1 -1950.9761 1811.5173)"><tspan x="0" y="0" class="st3" style="font-family:'RobotoCondensed-Bold'; font-size:16px; letter-spacing:4;">SANTA ROSA</tspan><tspan x="-43.5" y="34" class="st3" style="font-family:'RobotoCondensed-Bold'; font-size:16px; letter-spacing:4;">401 mendocino ave</tspan><tspan x="12.4" y="68" class="st3" style="font-family:'RobotoCondensed-Bold'; font-size:16px; letter-spacing:4;">suite 100</tspan><tspan x="-21.7" y="102" class="st3" style="font-family:'RobotoCondensed-Bold'; font-size:20px; letter-spacing:5;">707 546 5448</tspan></text>
	<rect x="-1702.9" y="1800.2" style="fill:none;" width="283.4" height="115.3"/>
	<text transform="matrix(1 0 0 1 -1628.3102 1811.5173)"><tspan x="0" y="0" class="st3" style="font-family:'RobotoCondensed-Bold'; font-size:16px; letter-spacing:4;">MINNEAPOLIS</tspan><tspan x="-26.9" y="34" class="st3" style="font-family:'RobotoCondensed-Bold'; font-size:16px; letter-spacing:4;">711 hennepin ave</tspan><tspan x="18.2" y="68" class="st3" style="font-family:'RobotoCondensed-Bold'; font-size:16px; letter-spacing:4;">suite 500</tspan><tspan x="-15.9" y="102" class="st3" style="font-family:'RobotoCondensed-Bold'; font-size:20px; letter-spacing:5;">707 546 5448</tspan></text>
	<g>
		<path class="st3" d="M-1902.3,1752.1c-1-2-1.6-4.2-1.6-6.6c0-7.9,6.4-14.2,14.2-14.2c7.9,0,14.2,6.4,14.2,14.2
			c0,2.4-0.6,4.6-1.6,6.6l-12.6,21.9L-1902.3,1752.1z"/>
		<circle class="st1" cx="-1889.6" cy="1745.5" r="7.1"/>
	</g>
	<g>
		<path class="st3" d="M-1570,1752.1c-1-2-1.6-4.2-1.6-6.6c0-7.9,6.4-14.2,14.2-14.2c7.9,0,14.2,6.4,14.2,14.2
			c0,2.4-0.6,4.6-1.6,6.6l-12.6,21.9L-1570,1752.1z"/>
		<circle class="st1" cx="-1557.4" cy="1745.5" r="7.1"/>
	</g>
</g>
<g>
	<g>
		<g>
			<defs>
				<circle id="SVGID_5_" cx="-1315.1" cy="1824.8" r="32.3"/>
			</defs>
			<linearGradient id="SVGID_6_" gradientUnits="userSpaceOnUse" x1="-1347.3102" y1="1824.8003" x2="-1282.8101" y2="1824.8003">
				<stop  offset="0" style="stop-color:#1EA6DF"/>
				<stop  offset="1" style="stop-color:#DA4097"/>
			</linearGradient>
			<use xlink:href="#SVGID_5_"  style="overflow:visible;fill:url(#SVGID_6_);"/>
			<clipPath id="SVGID_7_">
				<use xlink:href="#SVGID_5_"  style="overflow:visible;"/>
			</clipPath>
			<g class="st6">
				<path class="st0" d="M-1326.9,1833.3h-7v-9.8h7v-2.3c0-9.2,5.6-16.3,14-16.3c3.2,0,7.4,1,9.7,2.6l-4.7,7.5c-1-0.6-2.4-1.2-4-0.9
					c-2.9,0.7-3.7,3.2-3.7,7.2v2.1h8.6v9.8h-8.6v32.7h-11.3V1833.3z"/>
			</g>
		</g>
	</g>
	<circle class="st7" cx="-1230.2" cy="1824.8" r="32.3"/>
	<g>
		<defs>
			<circle id="SVGID_8_" cx="-1230.2" cy="1824.8" r="32.3"/>
		</defs>
		<linearGradient id="SVGID_9_" gradientUnits="userSpaceOnUse" x1="-1262.4048" y1="1824.8003" x2="-1197.9047" y2="1824.8003">
			<stop  offset="0" style="stop-color:#1EA6DF"/>
			<stop  offset="1" style="stop-color:#DA4097"/>
		</linearGradient>
		<use xlink:href="#SVGID_8_"  style="overflow:visible;fill:url(#SVGID_9_);"/>
		<clipPath id="SVGID_10_">
			<use xlink:href="#SVGID_8_"  style="overflow:visible;"/>
		</clipPath>
	</g>
	<path class="st0" d="M-1216.1,1843h-28.1c-2.5,0-4.5-2.3-4.5-5.2v-23.7c0-4.2,2.8-6.4,5.7-6.4h27c2.5,0,4.5,2.3,4.5,5.2v24.9
		C-1211.6,1840.7-1213.6,1843-1216.1,1843z M-1243.1,1810.5c-2.8,0-2.9,3.6-2.9,3.6v23.7c0,1.3,0.8,2.4,1.7,2.4h28.1
		c0.9,0,1.7-1.1,1.7-2.4v-24.9c0-1.3-0.8-2.4-1.7-2.4H-1243.1z"/>
	<path class="st0" d="M-1230.1,1834.8c-4.8,0-8.7-3.9-8.7-8.7c0-4.8,3.9-8.7,8.7-8.7c4.8,0,8.7,3.9,8.7,8.7
		C-1221.4,1830.9-1225.3,1834.8-1230.1,1834.8z M-1230.1,1820.1c-3.3,0-6,2.7-6,6c0,3.3,2.7,6,6,6c3.3,0,6-2.7,6-6
		C-1224.2,1822.8-1226.8,1820.1-1230.1,1820.1z"/>
	<path class="st0" d="M-1219.8,1817.7L-1219.8,1817.7c1.1,0,1.9-0.9,1.9-1.9l0,0c0-1.1-0.9-1.9-1.9-1.9l0,0c-1.1,0-1.9,0.9-1.9,1.9
		l0,0C-1221.7,1816.8-1220.8,1817.7-1219.8,1817.7z"/>
	<linearGradient id="SVGID_11_" gradientUnits="userSpaceOnUse" x1="-1177.1023" y1="1827.0614" x2="-1112.6022" y2="1827.0614">
		<stop  offset="0" style="stop-color:#1EA6DF"/>
		<stop  offset="1" style="stop-color:#DA4097"/>
	</linearGradient>
	<circle class="st8" cx="-1144.9" cy="1827.1" r="32.3"/>
	<g>
		<path class="st0" d="M-1145.2,1847.2c-10.6,0-19.2-8.6-19.2-19.2s8.6-19.2,19.2-19.2c10.6,0,19.2,8.6,19.2,19.2
			S-1134.6,1847.2-1145.2,1847.2z M-1145.2,1811.5c-9.1,0-16.5,7.4-16.5,16.5c0,9.1,7.4,16.5,16.5,16.5c9.1,0,16.5-7.4,16.5-16.5
			C-1128.7,1818.9-1136.1,1811.5-1145.2,1811.5z"/>
		<path class="st0" d="M-1145.1,1847.2c-6.8,0-12.2-8.5-12.2-19.2c0-10.8,5.4-19.2,12.2-19.2c6.8,0,12.2,8.5,12.2,19.2
			C-1132.9,1838.8-1138.3,1847.2-1145.1,1847.2z M-1145.1,1811.5c-5.1,0-9.4,7.5-9.4,16.5s4.3,16.5,9.4,16.5c5.1,0,9.4-7.5,9.4-16.5
			S-1140,1811.5-1145.1,1811.5z"/>
		<rect x="-1163" y="1826.7" class="st0" width="35.3" height="2.8"/>
		<rect x="-1146.6" y="1810.1" class="st0" width="2.8" height="36"/>
		<rect x="-1160.2" y="1817.8" class="st0" width="30.3" height="2.8"/>
		<rect x="-1160.2" y="1835.5" class="st0" width="30.3" height="2.8"/>
	</g>
</g>
<rect x="-1763" y="1189.5" style="fill:none;" width="323" height="32.8"/>
<text transform="matrix(1 0 0 1 -1763.0382 1217.8655)" class="st9" style="font-family:'RobotoCondensed-Light'; font-size:40px;">Name</text>
<rect x="-1395.3" y="1189.5" style="fill:none;" width="323" height="32.8"/>
<text transform="matrix(1 0 0 1 -1395.3358 1217.8655)" class="st9" style="font-family:'RobotoCondensed-Light'; font-size:40px;">COMPANY</text>
<rect x="-1762.8" y="1267.5" style="fill:none;" width="323" height="32.8"/>
<text transform="matrix(1 0 0 1 -1762.7759 1295.8655)" class="st9" style="font-family:'RobotoCondensed-Light'; font-size:40px;">EMAIL</text>
<rect x="-1395.1" y="1267.5" style="fill:none;" width="323" height="32.8"/>
<text transform="matrix(1 0 0 1 -1395.0734 1295.8655)" class="st9" style="font-family:'RobotoCondensed-Light'; font-size:40px;">PHONE</text>
<rect x="-1448.6" y="1391.8" style="fill:none;" width="61.9" height="13.7"/>
<text transform="matrix(1 0 0 1 -1444.2648 1403.9142)" class="st3" style="font-family:'RobotoCondensed-Regular'; font-size:17.0625px; letter-spacing:1;">submi</text>
<rect x="-1837.2" y="1092.6" style="fill:none;" width="841.2" height="23.3"/>
<text transform="matrix(1 0 0 1 -1537.7766 1108.8983)" class="st0" style="font-family:'RobotoCondensed-Bold'; font-size:23px; letter-spacing:12;">CONTACT US</text>
<g>
	<defs>
		<rect id="SVGID_12_" x="-2217" y="1765.8" width="382.3" height="112.3"/>
	</defs>
	<clipPath id="SVGID_13_">
		<use xlink:href="#SVGID_12_"  style="overflow:visible;"/>
	</clipPath>
	<g class="st10">
		<path class="st0" d="M-2114.2,1866.7H-2584v-90h469.8V1866.7z M-2579.7,1862.4h461.2V1781h-461.2V1862.4z"/>
		<g>
			<path class="st0" d="M-2539.4,1815.1v17.4h-4.3v-17.4h-6.2v-4.3h16.8v4.3H-2539.4z"/>
		</g>
		<g>
			<path class="st0" d="M-2509.8,1832.5v-9.1h-8.9v9.1h-4.3v-21.7h4.3v8.3h8.9v-8.3h4.3v21.7H-2509.8z"/>
		</g>
		<g>
			<path class="st0" d="M-2493.6,1832.5v-21.7h15.1v4.2h-10.7v3.8h6.2v4.2h-6.2v5.2h11.2v4.2H-2493.6z"/>
		</g>
		<g>
			<path class="st0" d="M-2450.9,1832.5v-21.7h15.1v4.2h-10.7v3.8h6.2v4.2h-6.2v5.2h11.2v4.2H-2450.9z"/>
		</g>
		<g>
			<path class="st0" d="M-2410.2,1832.5l-8-11.8c-0.3-0.4-0.6-0.9-0.9-1.3c-0.3-0.5-0.5-0.8-0.7-1.1c0,0.2,0,0.5,0,0.9
				c0,0.4,0,0.8,0,1.3s0,0.9,0,1.4c0,0.5,0,0.8,0,1.1v9.6h-4.3v-21.7h4.2l7.7,11.5c0.3,0.4,0.6,0.9,0.9,1.3c0.3,0.5,0.5,0.8,0.7,1.1
				c0-0.2,0-0.5,0-0.9c0-0.4,0-0.8,0-1.3s0-0.9,0-1.4c0-0.5,0-0.8,0-1.1v-9.2h4.3v21.7H-2410.2z"/>
		</g>
		<g>
			<path class="st0" d="M-2378.7,1827.8c-0.4,1.1-1,2-1.8,2.8c-0.8,0.7-1.7,1.3-2.8,1.7c-1.1,0.4-2.2,0.6-3.5,0.6
				c-1.4,0-2.7-0.3-3.9-0.8c-1.2-0.5-2.2-1.3-3-2.2c-0.8-1-1.5-2.1-1.9-3.5c-0.5-1.4-0.7-2.9-0.7-4.6c0-1.7,0.2-3.2,0.7-4.5
				c0.5-1.4,1.1-2.6,2-3.5c0.8-1,1.9-1.7,3-2.3c1.2-0.5,2.5-0.8,3.9-0.8c1.1,0,2.1,0.1,3,0.4c0.9,0.2,1.6,0.6,2.3,1.1
				c0.7,0.5,1.2,1,1.7,1.7c0.5,0.7,0.9,1.4,1.3,2.2l-4.1,1.7c-0.2-0.4-0.4-0.8-0.7-1.1c-0.2-0.4-0.5-0.7-0.8-0.9
				c-0.3-0.2-0.7-0.4-1.1-0.6c-0.4-0.1-0.9-0.2-1.5-0.2c-0.8,0-1.5,0.2-2.2,0.5c-0.6,0.3-1.2,0.8-1.6,1.4c-0.4,0.6-0.8,1.3-1,2.2
				c-0.2,0.8-0.3,1.8-0.3,2.8c0,1,0.1,1.9,0.3,2.8c0.2,0.8,0.6,1.6,1,2.2c0.4,0.6,1,1.1,1.6,1.5c0.6,0.4,1.4,0.5,2.2,0.5
				c0.7,0,1.4-0.1,1.9-0.2c0.5-0.2,0.9-0.4,1.3-0.7c0.3-0.3,0.6-0.6,0.7-1c0.2-0.4,0.3-0.8,0.4-1.3h-3.4v-4.1h7.8v2.9
				C-2378.1,1825.5-2378.3,1826.8-2378.7,1827.8z"/>
		</g>
		<g>
			<path class="st0" d="M-2367,1832.5v-21.7h4.3v21.7H-2367z"/>
		</g>
		<g>
			<path class="st0" d="M-2336.9,1832.5l-8-11.8c-0.3-0.4-0.6-0.9-0.9-1.3c-0.3-0.5-0.5-0.8-0.7-1.1c0,0.2,0,0.5,0,0.9
				c0,0.4,0,0.8,0,1.3s0,0.9,0,1.4c0,0.5,0,0.8,0,1.1v9.6h-4.3v-21.7h4.2l7.7,11.5c0.3,0.4,0.6,0.9,0.9,1.3c0.3,0.5,0.5,0.8,0.7,1.1
				c0-0.2,0-0.5,0-0.9c0-0.4,0-0.8,0-1.3s0-0.9,0-1.4c0-0.5,0-0.8,0-1.1v-9.2h4.3v21.7H-2336.9z"/>
		</g>
		<g>
			<path class="st0" d="M-2321.2,1832.5v-21.7h15.1v4.2h-10.7v3.8h6.2v4.2h-6.2v5.2h11.2v4.2H-2321.2z"/>
		</g>
		<g>
			<path class="st0" d="M-2278.2,1832.5v-21.7h4.3v21.7H-2278.2z"/>
		</g>
		<g>
			<path class="st0" d="M-2246.3,1826c0,1-0.2,2-0.5,2.8c-0.3,0.8-0.8,1.6-1.6,2.2c-0.7,0.6-1.6,1.1-2.7,1.4
				c-1.1,0.3-2.3,0.5-3.8,0.5c-1.8,0-3.5-0.4-5-1.1c-1.5-0.7-2.6-1.7-3.5-2.9l3.1-2.8c0.8,0.9,1.6,1.5,2.6,1.9
				c0.9,0.4,1.9,0.6,3,0.6c1.3,0,2.3-0.2,2.9-0.6c0.6-0.4,0.9-1,0.9-1.8c0-0.4-0.1-0.7-0.2-0.9c-0.1-0.3-0.4-0.5-0.7-0.7
				c-0.3-0.2-0.8-0.4-1.5-0.7c-0.6-0.2-1.5-0.4-2.5-0.7c-1-0.2-1.9-0.5-2.7-0.8c-0.8-0.3-1.6-0.7-2.2-1.2c-0.6-0.5-1.1-1.1-1.4-1.8
				c-0.3-0.7-0.5-1.6-0.5-2.7c0-1,0.2-1.9,0.6-2.7c0.4-0.8,1-1.5,1.7-2c0.7-0.5,1.5-1,2.5-1.3c0.9-0.3,1.9-0.4,3-0.4
				c1.7,0,3.2,0.3,4.4,0.9c1.3,0.6,2.4,1.4,3.5,2.5l-3.1,3c-0.7-0.7-1.5-1.3-2.2-1.7c-0.8-0.4-1.7-0.6-2.7-0.6
				c-0.6,0-1.1,0.1-1.5,0.2c-0.4,0.1-0.7,0.3-1,0.4c-0.2,0.2-0.4,0.4-0.5,0.6c-0.1,0.2-0.2,0.5-0.2,0.7c0,0.4,0.1,0.6,0.2,0.9
				c0.1,0.2,0.4,0.4,0.7,0.6c0.3,0.2,0.8,0.4,1.3,0.5c0.6,0.2,1.3,0.4,2.1,0.6c0.9,0.2,1.7,0.4,2.6,0.7c0.9,0.3,1.6,0.7,2.3,1.2
				c0.7,0.5,1.3,1.1,1.7,1.9C-2246.5,1823.8-2246.3,1824.8-2246.3,1826z"/>
		</g>
		<g>
			<path class="st0" d="M-2206.8,1832.5l-3.9-7.8h-4.4v7.8h-4.3v-21.7h10.1c1,0,2,0.1,2.9,0.4c0.9,0.3,1.7,0.7,2.4,1.3
				c0.7,0.6,1.2,1.3,1.6,2.2c0.4,0.9,0.6,1.9,0.6,3c0,1.6-0.3,3-1,4c-0.7,1-1.7,1.8-3.1,2.4l4.2,8.4H-2206.8z M-2206.3,1817.8
				c0-1-0.3-1.7-0.8-2.1c-0.5-0.4-1.3-0.6-2.3-0.6h-5.7v5.6h5.7C-2207.3,1820.6-2206.3,1819.7-2206.3,1817.8z"/>
		</g>
		<g>
			<path class="st0" d="M-2190.7,1832.5v-21.7h15.1v4.2h-10.7v3.8h6.2v4.2h-6.2v5.2h11.2v4.2H-2190.7z"/>
		</g>
		<g>
			<path class="st0" d="M-2146.7,1821.7c0,1.9-0.3,3.5-0.9,4.9c-0.6,1.4-1.5,2.5-2.5,3.4c-1,0.9-2.2,1.5-3.6,1.9
				c-1.3,0.4-2.7,0.6-4.1,0.6h-6.5v-21.7h6.8c1.6,0,3,0.2,4.3,0.6c1.3,0.4,2.4,1,3.4,1.9c1,0.9,1.7,2,2.3,3.4
				C-2147,1818-2146.7,1819.7-2146.7,1821.7z M-2151.1,1821.7c0-2.2-0.5-3.9-1.5-5c-1-1.1-2.7-1.7-5-1.7h-2.3v13.3h2.1
				c1.1,0,2.1-0.2,3-0.5c0.8-0.3,1.5-0.8,2.1-1.3c0.5-0.6,0.9-1.3,1.2-2.1C-2151.3,1823.6-2151.1,1822.7-2151.1,1821.7z"/>
		</g>
	</g>
</g>
</svg>
